<?xml version="1.0" encoding="UTF-8" standalone="no"?>
<svg
   xmlns:dc="http://purl.org/dc/elements/1.1/"
   xmlns:cc="http://creativecommons.org/ns#"
   xmlns:rdf="http://www.w3.org/1999/02/22-rdf-syntax-ns#"
   xmlns:svg="http://www.w3.org/2000/svg"
   xmlns="http://www.w3.org/2000/svg"
   xmlns:sodipodi="http://sodipodi.sourceforge.net/DTD/sodipodi-0.dtd"
   xmlns:inkscape="http://www.inkscape.org/namespaces/inkscape"
   version="1.1"
   id="svg196"
   width="4705.7495"
   height="4609.3579"
   viewBox="0 0 4705.7495 4609.3579"
   sodipodi:docname="Bavithra_drawing_of_Alberto_cat.svg"
   inkscape:version="1.0.1 (3bc2e813f5, 2020-09-07)">
  <metadata
     id="metadata202">
    <rdf:RDF>
      <cc:Work
         rdf:about="">
        <dc:format>image/svg+xml</dc:format>
        <dc:type
           rdf:resource="http://purl.org/dc/dcmitype/StillImage" />
        <dc:title></dc:title>
      </cc:Work>
    </rdf:RDF>
  </metadata>
  <defs
     id="defs200" />
  <sodipodi:namedview
     pagecolor="#ffffff"
     bordercolor="#666666"
     borderopacity="1"
     objecttolerance="10"
     gridtolerance="10"
     guidetolerance="10"
     inkscape:pageopacity="0"
     inkscape:pageshadow="2"
     inkscape:window-width="1920"
     inkscape:window-height="1002"
     id="namedview198"
     showgrid="false"
     fit-margin-top="0"
     fit-margin-left="0"
     fit-margin-right="0"
     fit-margin-bottom="0"
     inkscape:zoom="0.19032842"
     inkscape:cx="1351.4949"
     inkscape:cy="2539.5027"
     inkscape:window-x="-8"
     inkscape:window-y="42"
     inkscape:window-maximized="1"
     inkscape:current-layer="g204" />
  <g
     inkscape:groupmode="layer"
     inkscape:label="Image"
     id="g204"
     transform="translate(-669.58808,-723.65888)">
    <g
       id="g280">
      <path
         style="fill:#b9b9b9;fill-opacity:1;stroke-width:3.04762"
         d="m 2823.2478,5007.2382 c 0,-19.2762 0.4948,-27.1619 1.0996,-17.5238 0.6048,9.6381 0.6048,25.4095 0,35.0476 -0.6048,9.6381 -1.0996,1.7524 -1.0996,-17.5238 z m -9.0843,-286.4762 c 0,-24.3048 0.4733,-34.2476 1.0518,-22.0953 0.5785,12.1524 0.5785,32.0381 0,44.1905 -0.5785,12.1524 -1.0518,2.2095 -1.0518,-22.0952 z m 593.402,-2323.8096 c 10.104,-14.0696 14.2695,-17.845 9.2473,-8.3809 -2.8778,5.423 2.9922,14.6076 6.8624,10.7374 1.017,-1.0167 1.8487,-0.1018 1.8487,2.0331 0,2.2559 1.9809,3.1215 4.7296,2.0666 2.6014,-0.9982 3.9497,-0.5525 2.9961,0.9904 -0.9536,1.5429 2.0608,3.3788 6.6986,4.0798 4.6382,0.7011 -2.9668,1.4801 -16.8993,1.7313 -25.3324,0.4566 -25.3324,0.4566 -15.4834,-13.2577 z M 2862.9168,1315.0476 c 0.01,-23.4666 0.4831,-32.6638 1.0631,-20.4381 0.58,12.2257 0.5761,31.4257 -0.01,42.6667 -0.5842,11.241 -1.0588,1.2381 -1.054,-22.2286 z m 188.9245,-68.5714 c 0,-20.9524 0.4867,-29.5238 1.0819,-19.0476 0.5952,10.4762 0.5952,27.619 0,38.0952 -0.5952,10.4762 -1.0819,1.9048 -1.0819,-19.0476 z"
         id="path294" />
      <path
         style="fill:#a3a3a3;fill-opacity:1;stroke-width:3.04762"
         d="m 3539.3543,2420.0454 c -18.7411,-1.7597 -18.7411,-1.7597 -10.162,-12.0032 8.4379,-10.0747 15.1887,-10.7152 15.1887,-1.441 0,2.8012 1.7408,4.0497 4.285,3.0733 2.357,-0.9044 6.4713,0.7711 9.1428,3.7234 5.1663,5.7086 6.3449,9.8014 2.5722,8.9333 -1.2571,-0.2893 -10.7191,-1.3179 -21.0267,-2.2858 z m -89.4495,-9.3787 c -2.5143,-1.6249 -7.7382,-2.9753 -11.6084,-3.001 -3.8704,-0.024 -6.1991,-1.4024 -5.1751,-3.0593 1.0679,-1.7276 -0.1555,-2.2385 -2.8678,-1.1978 -2.6079,1.0008 -4.7296,0.221 -4.7296,-1.7386 0,-1.9544 -1.0286,-2.9622 -2.2858,-2.2396 -1.2571,0.7227 -5.0285,-1.4642 -8.3809,-4.8597 -3.3524,-3.3956 -4.381,-5.1964 -2.2857,-4.0019 3.1293,1.784 5.6661,-2.4185 3.0476,-5.0482 -1.2242,-1.2294 27.0068,-37.4522 59.972,-76.9491 63.0613,-75.5567 169.7237,-171.7416 177.141,-159.7404 0.999,1.6165 0.6857,2.5622 -0.6961,2.1016 -1.3818,-0.4606 -2.9361,0.534 -3.4539,2.2102 -0.518,1.6762 2.1233,3.7711 5.8692,4.6555 10.6212,2.5073 11.2417,9.7609 0.7484,8.7476 -8.8667,-0.8563 -10.9915,0.5342 -39.7574,26.0174 -14.7526,13.0691 -31.523,33.0619 -32.7786,39.0767 -2.0355,9.7536 -7.7791,18.4791 -34.1352,51.8599 -15.5816,19.7345 -37.5692,49.2202 -48.8612,65.5238 -11.2921,16.3036 -21.3837,30.3286 -22.4256,31.1667 -5.9648,4.7979 -17.4781,25.7483 -16.1095,29.3146 1.8585,4.8435 -4.5104,5.5024 -11.2274,1.1616 z"
         id="path292" />
      <path
         style="fill:#8c8c8c;fill-opacity:1;stroke-width:3.04762"
         d="m 3608.7909,2400.7619 c 28.1682,-37.335 49.4671,-61.4161 50.7956,-57.4309 0.6467,1.9399 -6.9221,14.7983 -16.8195,28.5742 -9.8975,13.776 -22.0264,31.5591 -26.9525,39.518 -7.2238,11.67 -10.6058,14.4718 -17.4751,14.4761 -8.48,0.01 -8.4334,-0.1066 10.4515,-25.1374 z m -49.988,14.497 c -3.199,-4.3978 -7.2228,-6.7026 -9.9047,-5.6734 -2.7922,1.0714 -4.5172,-0.068 -4.5172,-2.9843 0,-9.5181 -6.8901,-8.5494 -15.7644,2.2165 -5.0088,6.0767 -10.0901,10.4409 -11.2917,9.6982 -1.2017,-0.7426 -13.7771,-2.2885 -27.9452,-3.4353 -14.1684,-1.1469 -26.7008,-3.5757 -27.85,-5.3974 -2.1322,-3.3802 4.4672,-16.7 12.8338,-25.9028 2.5566,-2.8125 13.9157,-18.453 25.2419,-34.7566 11.3262,-16.3036 33.3415,-45.7893 48.9231,-65.5238 26.3561,-33.3808 32.0997,-42.1063 34.1352,-51.8599 0.4349,-2.0836 4.9423,-9.0301 10.0163,-15.4366 8.1633,-10.3071 15.0826,-16.9286 46.1772,-44.1903 8.8798,-7.7852 27.4286,-7.9027 27.4286,-0.1737 0,2.5278 2.1641,6.7601 4.8091,9.4051 4.3804,4.3805 2.8017,6.8741 -17.7085,27.9728 -23.4014,24.0729 -51.1006,56.3172 -51.1006,59.4857 0,1.0043 -4.1143,7.5056 -9.1429,14.4474 -5.0286,6.9417 -9.1428,15.6469 -9.1428,19.3449 0,3.6979 -4.5794,12.7493 -10.1767,20.1141 -31.2975,41.1824 -49.7021,70.1871 -41.2025,64.9342 2.0702,-1.2795 2.8041,-0.4445 1.8697,2.1275 -0.8461,2.3285 -3.183,3.8569 -5.1932,3.3963 -2.0105,-0.4606 -2.9805,0.2542 -2.1559,1.5884 0.8247,1.3343 6.5076,2.1903 12.6291,1.9024 6.7434,-0.3171 11.7296,1.0403 12.6522,3.4446 0.8374,2.1824 3.9765,4.6097 6.9757,5.394 2.9991,0.7843 6.1427,5.0338 6.9857,9.4432 1.8987,9.9325 -0.5623,10.0685 -7.5813,0.4189 z m 167.6612,3.7888 c -0.7842,-2.0953 2.4716,-9.981 7.2356,-17.5239 8.3584,-13.2344 8.6635,-13.4108 8.7189,-5.0416 0.058,8.5004 -8.3904,26.375 -12.4638,26.375 -1.1355,0 -2.7063,-1.7143 -3.4907,-3.8095 z"
         id="path290" />
      <path
         style="fill:#767676;fill-opacity:1;stroke-width:3.04762"
         d="m 3736.381,2456.6012 c -2.5143,-1.4126 -9.3714,-3.5677 -15.2381,-4.7891 -5.8667,-1.2214 -15.1723,-4.072 -20.6793,-6.3346 -10.0127,-4.1138 -10.0127,-4.1138 -2.766,-15.6528 14.1927,-22.5999 14.6115,-24.029 8.6238,-29.4477 -5.1276,-4.6405 -6.2436,-4.2213 -17.237,6.4735 -11.7547,11.4352 -11.7547,11.4352 0.1036,-5.3267 6.5213,-9.219 18.0751,-24.9653 25.6756,-34.9917 8.0539,-10.6249 13.4519,-20.796 12.9393,-24.381 -0.6217,-4.3485 0.5391,-3.5298 3.9616,2.7937 5.1005,9.4237 6.7465,26.0221 3.722,37.5314 -0.9911,3.7715 -1.1508,6.8572 -0.355,6.8572 0.796,0 2.6874,-3.0857 4.2033,-6.8572 2.3567,-5.8628 2.7843,-6.0222 2.9494,-1.0989 0.1067,3.1669 -3.7839,12.222 -8.6451,20.1223 -5.8554,9.5162 -7.9531,15.7965 -6.2157,18.6079 2.1367,3.4572 3.4859,3.1168 7.279,-1.8366 2.5609,-3.3442 5.92,-10.1947 7.4645,-15.2232 2.4351,-7.9277 2.845,-6.6619 3.0833,9.5238 0.1524,10.2666 1.0456,22.6095 1.9879,27.4285 2.0989,10.7361 -4.1865,20.3482 -10.8559,16.6012 z m -160,-33.3623 c -6.4905,-1.3805 -9.4324,-3.9824 -10.1413,-8.9686 -0.5488,-3.8632 -3.2917,-7.8652 -6.0952,-8.8935 -2.8032,-1.0282 -6.115,-3.5468 -7.3594,-5.5969 -1.2443,-2.0501 -7.186,-3.4958 -13.2035,-3.2128 -6.0175,0.2831 -11.6154,-0.5771 -12.4401,-1.9113 -0.8246,-1.3342 0.1463,-2.049 2.1559,-1.5884 2.0102,0.4606 4.3471,-1.0678 5.1932,-3.3964 0.9344,-2.5719 0.2011,-3.4069 -1.8697,-2.1274 -8.4996,5.2529 9.905,-23.7519 41.2025,-64.9342 5.5973,-7.3648 10.1767,-16.4162 10.1767,-20.1142 0,-3.6979 4.1142,-12.4031 9.1428,-19.3448 5.0286,-6.9418 9.1429,-13.4007 9.1429,-14.3532 0,-5.9602 71.5483,-83.7212 73.9974,-80.423 0.5473,0.7371 3.5215,7.1497 6.6093,14.2502 5.6141,12.9101 5.6141,12.9101 -2.4003,24.381 -4.4077,6.3089 -17.2361,22.4423 -28.5071,35.8518 -19.3335,23.002 -19.6897,23.6915 -6.2951,12.1905 7.8086,-6.7048 21.2851,-21.1048 29.9483,-32 8.6632,-10.8953 16.2395,-20.3465 16.8369,-21.0028 0.5973,-0.6563 3.8979,5.3664 7.3344,13.3837 3.4365,8.0173 5.8712,14.798 5.4098,15.068 -0.4611,0.27 -4.6098,2.8505 -9.2193,5.7342 -10.0596,6.2932 -10.8505,3.5528 -1.7658,-6.1176 6.4064,-6.8194 6.2272,-12.7594 -0.2652,-8.7477 -3.5767,2.2107 -56.785,72.0042 -57.625,75.5869 -0.2956,1.2572 -0.5357,3.7381 -0.5357,5.5132 0,1.7751 -1.5833,2.2489 -3.5185,1.0529 -2.2449,-1.3874 -2.6886,-0.8314 -1.2252,1.536 1.2611,2.0408 0.2103,6.0241 -2.336,8.8519 -7.1744,7.968 -17.9913,37.2147 -13.0648,35.3242 4.5019,-1.7275 58.151,-63.933 76.6281,-88.8496 6.5259,-8.8 12.9868,-16 14.3577,-16 5.5402,0 5.934,10.3897 0.735,19.3873 -7.6873,13.304 -50.4164,72.0413 -52.4071,72.0413 -0.8963,0 0.04,-2.0111 2.0791,-4.469 2.0397,-2.4579 3.1789,-6.0592 2.531,-8.0028 -1.3306,-3.9914 -22.6142,20.0687 -50.798,57.4241 -10.4332,13.8286 -19.9366,24.9806 -21.1182,24.7823 -1.1818,-0.1984 -6.2631,-1.2357 -11.2917,-2.3053 z"
         id="path288" />
      <path
         style="fill:#606060;fill-opacity:1;stroke-width:3.04762"
         d="m 1660.9524,4037.4483 c -41.2869,-14.5311 -65.1738,-34.1818 -90.0324,-74.0657 -13.6239,-21.8587 -16.0296,-31.652 -8.3993,-34.1924 2.015,-0.6708 6.0912,1.6155 9.0583,5.0806 2.9671,3.4655 7.228,6.3007 9.4687,6.3007 2.2406,0 3.1899,1.4302 2.1094,3.1787 -1.0804,1.7481 9.4672,14.5365 23.4393,28.4184 20.7568,20.6229 29.3059,26.8306 46.737,33.9371 63.9345,26.0659 109.9027,-4.384 137.0963,-90.8142 13.0258,-41.4007 21.0727,-56.0329 35.0941,-63.8153 9.9379,-5.5159 15.0621,-5.7966 74.9973,-4.111 82.4153,2.3184 77.8776,5.1149 102.1596,-62.9555 14.5675,-40.8375 19.6915,-50.9401 37.3823,-73.7043 7.7177,-9.9309 14.0323,-18.9687 14.0323,-20.0835 0,-1.1151 5.8285,-3.861 12.9523,-6.1022 7.1239,-2.2416 14.3239,-4.8208 16,-5.732 5.8079,-3.1576 75.6339,-0.2773 107.3084,4.4252 34.8254,5.1712 39.9085,4.4382 70.0226,-10.0974 22.5152,-10.8678 33.5292,-4.5833 19.1037,10.9007 -9.9434,10.6731 -19.2897,15.7349 -39.6589,21.4787 -16.8369,4.7479 -22.0166,4.9362 -44.4693,1.6165 -13.977,-2.0666 -35.249,-5.9944 -47.2712,-8.729 -33.159,-7.5417 -47.6716,-3.2543 -70.3413,20.7811 -20.4307,21.6615 -33.3422,45.4659 -49.8328,91.8744 -10.1707,28.6227 -14.1328,35.8059 -27.1469,49.2154 -13.0333,13.4297 -17.7824,16.2201 -32.8229,19.2863 -9.6717,1.9715 -21.3288,2.8318 -25.9048,1.9117 -24.8181,-4.9895 -83.5159,-8.0198 -95.0728,-4.9079 -13.8246,3.7227 -16.1062,7.6014 -29.5942,50.3138 -17.2244,54.5442 -40.3819,86.4981 -75.0901,103.6139 -29.6676,14.6301 -53.7178,16.6933 -81.3247,6.9772 z m 2537.0792,-44.462 c -8.416,-2.9102 -19.5392,-8.3085 -24.7183,-11.9964 -15.6425,-11.1384 -47.0742,-57.7396 -56.374,-83.5809 -11.2155,-31.1653 -27.8122,-63.5435 -36.6308,-71.463 -10.2412,-9.1971 -24.6531,-13.2767 -54.3327,-15.3798 -22.1318,-1.5684 -30.6295,-0.6385 -57.4238,6.2835 -46.9785,12.1366 -85.6454,17.2706 -105.6046,14.0221 -44.5656,-7.2533 -68.2432,-30.4067 -79.1387,-77.3876 -2.6012,-11.2158 -6.7935,-24.384 -9.3166,-29.2629 -7.0559,-13.6448 -6.0069,-21.3641 2.9032,-21.3641 9.3004,0 20.927,18.5987 31.164,49.8514 14.3031,43.6669 42.2875,58.0401 95.1525,48.8713 14.0891,-2.4435 42.1223,-8.7027 62.2957,-13.909 32.6227,-8.4193 39.7327,-9.262 64.2883,-7.619 37.17,2.4865 57.2947,8.9213 72.8509,23.2935 14.8422,13.7125 32.2448,44.7436 41.8268,74.5838 6.6682,20.7656 32.8347,64.892 45.0185,75.9183 3.3969,3.0742 11.4097,7.4557 17.8063,9.7372 21.465,7.6553 42.3351,5.4293 92.6482,-9.8825 46.9821,-14.2976 46.9821,-14.2976 107.0696,-14.7185 60.0872,-0.4206 60.0872,-0.4206 75.6309,-10.0831 17.5702,-10.922 25.8088,-12.1027 29.9865,-4.2968 8.2983,15.506 -10.1111,36.9426 -38.9812,45.3906 -14.471,4.2344 -21.1657,4.3584 -54.1013,1.0002 -46.72,-4.7634 -58.3129,-3.3801 -115.1976,13.746 -51.8613,15.6139 -79.3716,17.7375 -106.8218,8.2457 z m 76.2542,-276.1165 c -25.1788,-7.9841 -37.031,-17.1712 -71.6191,-55.5157 -43.1546,-47.8409 -55.3874,-59.6968 -74.0452,-71.7641 -21.2508,-13.7439 -34.0255,-11.4252 -91.6925,16.6433 -25.3395,12.3335 -52.5861,24.9058 -60.548,27.9382 -7.9619,3.0327 -14.4762,6.7797 -14.4762,8.3273 0,1.5473 -1.0645,2.1553 -2.3655,1.3513 -1.3014,-0.8043 -10.5585,0.587 -20.5715,3.0918 -54.4219,13.6125 -99.0924,-3.0836 -120.4949,-45.0365 -12.6732,-24.8411 3.1363,-29.5975 20.0637,-6.0358 5.902,8.2149 15.8266,17.4001 22.09,20.4441 16.0415,7.7958 50.5582,9.1931 72.1357,2.9205 25.561,-7.431 71.985,-29.4361 69.7456,-33.06 -1.0773,-1.7432 -0.4342,-2.1943 1.4595,-1.0237 1.8618,1.1508 16.1031,-4.295 31.6471,-12.1018 37.8441,-19.0064 49.5942,-22.8528 70.1645,-22.9671 28.3812,-0.1585 48.3532,12.419 94.7897,59.6931 21.4748,21.8621 43.0187,45.4004 47.8751,52.3072 12.6778,18.03 32.4175,26.7002 56.4053,24.7747 27.8565,-2.2361 30.1306,-3.7111 119.9531,-77.8009 22.7301,-18.7486 40.978,-27.0942 52.5986,-24.0554 3.1058,0.8122 5.6469,0.3508 5.6469,-1.0255 0,-1.3763 4.8,1.7475 10.6667,6.9412 11.7628,10.4143 12.9642,14.7319 6.0291,21.6674 -3.4286,3.4282 -8.4459,4.1865 -19.2421,2.908 -14.6042,-1.7298 -14.6042,-1.7298 -66.2193,41.4772 -54.9391,45.9895 -69.5345,55.3033 -95.1939,60.7476 -20.0545,4.2551 -29.262,4.081 -44.8024,-0.8464 z m -2343.6191,-53.5113 c -44.8674,-11.8601 -74.9078,-26.3448 -114.4,-55.1607 -13.3855,-9.767 -20.412,-12.679 -33.9706,-14.0784 -22.8781,-2.361 -38.5941,3.3426 -71.7688,26.0467 -32.7838,22.4363 -39.7428,25.1828 -64.813,25.5781 -18.1483,0.2865 -22.4027,-1.0118 -50.7341,-15.4779 -17.0086,-8.6845 -32.4372,-15.7901 -34.2857,-15.7901 -1.8486,0 -3.3611,-2.9235 -3.3611,-6.4966 0,-5.7533 1.3135,-6.3201 11.4837,-4.956 6.316,0.8469 22.4303,5.9459 35.8095,11.331 20.22,8.1381 27.4391,9.5997 42.771,8.6595 17.1941,-1.0541 20.1915,-2.442 44.1905,-20.4617 39.3852,-29.5725 53.5255,-35.3143 86.9674,-35.3143 26.3123,0 28.5237,0.5233 44.1905,10.4555 48.0579,30.4677 66.5733,40.2749 92.0814,48.7729 31.9637,10.6487 54.806,11.9576 82.5514,4.7311 21.9246,-5.7106 23.627,-6.9105 59.5574,-41.9727 24.0951,-23.513 31.7226,-29.1441 43.4913,-32.1073 22.1842,-5.5863 38.7126,-4.355 77.6523,5.7835 37.7119,9.8191 58.9851,12.0292 77.6207,8.0646 19.1755,-4.0792 27.4274,12.5815 9.5903,19.363 -16.2023,6.1602 -75.0011,0.8162 -119.767,-10.8848 -25.6488,-6.7045 -42.9588,-4.3691 -61.5294,8.3011 -13.8695,9.4625 -17.5805,15.4279 -17.6671,28.3986 -0.024,3.431 -5.4705,11.5398 -12.1058,18.019 -6.6353,6.4793 -11.2155,13.2718 -10.1781,15.0946 1.0374,1.8228 0.8108,2.3445 -0.5036,1.159 -1.3143,-1.1852 -7.8658,0.6388 -14.5588,4.0533 -13.7603,7.0199 -16.8146,7.7949 -46.5048,11.7986 -27.3779,3.6922 -26.6881,3.7309 -51.8095,-2.9096 z m 312.2017,-129.077 c -9.1205,-5.5546 -24.8112,-15.421 -34.8684,-21.9249 -38.6363,-24.9868 -122.4377,-61.8273 -149.4493,-65.7006 -20.3877,-2.9235 -37.6454,0.7559 -56.265,11.9955 -5.8666,3.5416 -12.7238,7.3758 -15.2381,8.5205 -2.5142,1.1447 -8.6457,5.9983 -13.6255,10.7852 -16.1078,15.485 -40.5812,30.5765 -56.121,34.6076 -29.1077,7.5505 -66.9054,-7.5627 -88.0249,-35.1958 -27.6623,-36.1941 -38.8583,-54.0355 -51.2726,-81.7063 -14.5585,-32.4499 -22.9509,-41.9325 -39.9303,-45.1179 -12.1882,-2.2866 -29.1578,4.6973 -43.7185,17.9925 -4.1237,3.7651 -15.7262,10.4238 -25.7833,14.7971 -41.538,18.0627 -50.799,15.5255 -89.9048,-24.6314 -28.0233,-28.7766 -40.382,-38.5777 -45.0154,-35.6992 -1.2225,0.7594 -1.7483,-6.1145 -1.1684,-15.2753 1.0542,-16.6558 1.0542,-16.6558 10.6666,-14.5868 17.8098,3.833 27.7847,11.0443 55.6622,40.2404 27.1405,28.4246 28.0173,29.0365 39.0349,27.2488 6.1989,-1.006 22.5051,-9.2562 36.2359,-18.3339 34.2607,-22.6499 36.1031,-23.4419 54.4791,-23.4227 38.6969,0.04 54.3332,11.8113 75.6101,56.9182 21.8352,46.2906 52.8735,88.0052 73.3034,98.518 27.3081,14.0519 40.4792,10.6422 82.144,-21.2639 36.9002,-28.2575 39.0785,-29.0548 79.2381,-28.9911 37.048,0.058 62.0336,4.5053 78.6503,13.9968 5.5434,3.1665 16.5149,7.3274 24.381,9.2468 21.1033,5.149 45.9506,17.6183 92.0163,46.1769 35.7017,22.1337 41.2782,26.6627 42.1662,34.2461 1.0061,8.5919 -5.3928,16.6589 -13.2137,16.6589 -1.8735,0 -10.8685,-4.5446 -19.9889,-10.0995 z m 1569.7031,-20.5501 c -5.0304,-3.3914 -6.5603,-1.8091 21.3333,-22.0684 13.174,-9.5686 18.1529,-16.0381 43.4368,-56.4434 17.8246,-28.4849 61.3157,-75.5246 79.3844,-85.8621 43.2966,-24.7705 102.8846,-22.4534 145.3592,5.653 9.2133,6.0964 34.5539,29.3373 56.3124,51.6455 36.2155,37.1313 53.3126,51.6301 63.3615,53.7314 2.0706,0.4331 6.2574,1.8624 9.3041,3.1765 9.8972,4.2688 38.5427,-0.8435 59.4063,-10.602 24.1372,-11.2896 30.2858,-16.6208 48.537,-42.0867 19.7556,-27.5651 89.6016,-85.8786 121.184,-101.1752 35.7239,-17.3025 38.0002,-17.4836 48.0116,-3.8205 4.6159,6.2997 8.0549,12.8253 7.6425,14.5015 -0.4126,1.6762 -6.9321,5.237 -14.4877,7.9128 -7.5557,2.6762 -20.6873,8.4008 -29.1813,12.7217 -21.6942,11.0364 -88.0646,67.6297 -107.3829,91.5648 -22.2375,27.5514 -34.6044,37.728 -61.3964,50.5234 -21.9117,10.4647 -24.5498,10.9916 -55.0153,10.9916 -27.7361,0 -34.0071,-0.9877 -47.0631,-7.413 -15.4929,-7.6249 -19.833,-11.5965 -75.5511,-69.1392 -41.3574,-42.7118 -59.6398,-53.4154 -94.7036,-55.4454 -17.4994,-1.013 -29.0097,0.098 -42.7438,4.1238 -17.1989,5.0419 -21.3351,8.1185 -48.689,36.2157 -16.4416,16.8881 -39.4856,43.4353 -51.2089,58.9937 -19.8878,26.3942 -38.5868,43.798 -52.9929,49.3227 -13.8078,5.2952 -18.5109,5.9078 -22.8571,2.9778 z M 3690.6667,2444.4901 c -2.5143,-1.4095 -11.7714,-4.2474 -20.5714,-6.3065 -8.8,-2.0592 -16,-4.8541 -16,-6.2111 0,-10.4097 70.0312,-92.7435 74.169,-87.1989 1.5177,2.0333 1.9413,0.6385 1.0462,-3.4444 -1.841,-8.3997 2.6496,-6.3385 4.8945,2.2466 0.8841,3.3808 0.4056,5.404 -1.0636,4.4961 -2.7026,-1.6703 -19.3487,18.5061 -42.8425,51.9281 -12.8537,18.2857 -12.8537,18.2857 -1.1569,6.8505 10.9397,-10.6951 12.0515,-11.1141 17.1794,-6.4735 5.977,5.4093 5.5525,6.8729 -8.4736,29.2096 -6.6036,10.5164 -6.7291,11.5148 -1.8054,14.3835 2.9102,1.6955 3.9196,3.0827 2.2434,3.0827 -1.6762,0 -5.1048,-1.1532 -7.6191,-2.5627 z m -81.1602,-20.1698 c 2.7715,-7.2228 24.6738,-38.9088 56.8366,-82.225 36.3437,-48.9477 45.5695,-63.4618 45.969,-72.3204 0.2195,-4.8806 1.0338,-3.8562 2.7633,3.4788 1.348,5.718 1.7466,12.2323 0.8856,14.4762 -0.8609,2.2438 0.1128,4.0797 2.1635,4.0797 2.2556,0 3.0855,2.4616 2.1005,6.2292 -0.896,3.4261 0.3069,9.9404 2.6733,14.4762 5.4349,10.4179 5.5004,15.866 0.192,15.866 -2.7821,0 -3.669,-2.51 -2.6925,-7.6191 2.2104,-11.562 -3.0864,-9.1646 -14.0188,6.3452 -5.4135,7.6803 -8.0777,12.9539 -5.92,11.7191 2.1577,-1.2348 0.3874,1.7385 -3.9338,6.6073 -4.321,4.8687 -14.5186,18.4522 -22.6612,30.1856 -20.9722,30.2208 -35.2991,47.4166 -38.0758,45.7006 -1.3126,-0.8114 -3.1731,0.5741 -4.1341,3.0788 -1.1075,2.8855 -5.8099,4.5539 -12.8359,4.5539 -8.6687,0 -10.7005,-1.0108 -9.3108,-4.6321 z M 1317.724,2337.5238 c 0,-19.2761 0.4948,-27.1619 1.0996,-17.5238 0.6048,9.6381 0.6048,25.4096 0,35.0477 -0.6048,9.638 -1.0996,1.7523 -1.0996,-17.5239 z m 2300.1375,17.391 c 3.4317,-8.7269 8.3225,-18.1807 10.8685,-21.0084 2.5459,-2.8278 3.5971,-6.8111 2.336,-8.8519 -1.4635,-2.3674 -1.0198,-2.9234 1.2251,-1.536 1.9352,1.196 3.5185,0.7222 3.5185,-1.0529 0,-6.1164 1.1642,-7.9217 28.1042,-43.5761 14.8681,-19.6774 29.8164,-37.2669 33.2187,-39.0878 5.5165,-2.9524 5.8493,-2.6814 3.0742,2.504 -1.7116,3.1981 -5.2441,7.5841 -7.8498,9.7467 -7.3243,6.0787 -5.5948,10.2269 2.0355,4.8823 7.8568,-5.5031 14.56,-6.1776 14.56,-1.4651 0,6.9098 -85.0191,110.5883 -93.2873,113.761 -2.9004,1.1131 -2.2799,-2.9319 2.1964,-14.3158 z m 34.8727,-93.0608 c 11.6438,-13.9487 24.7982,-30.7359 29.2322,-37.3048 5.3446,-7.9185 8.6016,-10.5355 9.6646,-7.7655 1.9745,5.1454 -28.0884,43.209 -46.5158,58.8956 -12.1329,10.328 -11.335,8.8803 7.619,-13.8253 z"
         id="path286" />
      <path
         style="fill:#494949;fill-opacity:1;stroke-width:3.04762"
         d="m 3631.2381,2432 c -8.3809,-1.1495 -12.1094,-2.3055 -8.2852,-2.5688 3.8238,-0.2633 7.7391,-2.5281 8.7003,-5.0327 0.9609,-2.5047 2.8215,-3.8902 4.1341,-3.0788 2.7767,1.716 17.1036,-15.4798 38.0758,-45.7006 8.1426,-11.7334 18.3402,-25.3169 22.6611,-30.1856 4.3213,-4.8688 6.0916,-7.8421 3.9339,-6.6073 -2.1577,1.2348 0.5065,-4.0388 5.92,-11.7191 11.0123,-15.6234 16.2271,-17.8956 13.9697,-6.0873 -1.2288,6.4271 -0.501,7.6141 3.9531,6.4492 3.6111,-0.9442 5.994,0.6181 7.0393,4.6151 0.8692,3.3234 0.8049,5.2674 -0.1432,4.3199 -0.9475,-0.9476 -5.4854,3.3739 -10.084,9.6033 -4.5985,6.2293 -18.5578,22.513 -31.0208,36.1858 -12.4629,13.6729 -26.0013,31.1586 -30.0851,38.8572 -4.0842,7.6985 -8.7994,13.7819 -10.4787,13.5186 -1.6789,-0.2633 -9.9099,-1.4193 -18.2909,-2.5689 z"
         id="path284" />
      <path
         style="fill:#333333;fill-opacity:1;stroke-width:3.04762"
         d="m 2931.8096,5327.2309 c -65.241,-13.8941 -155.9058,-55.5444 -188.328,-86.5155 -54.1875,-51.7623 -149.9681,-187.3625 -170.1904,-240.9451 -4.4596,-11.8166 -12.4978,-30.3988 -17.8626,-41.294 -5.3648,-10.8953 -13.5571,-30.0953 -18.2051,-42.6667 -4.6481,-12.5714 -21.4292,-49.4967 -37.2914,-82.0562 -55.7111,-114.3552 -99.6465,-228.7964 -120.0151,-312.6105 -3.6661,-15.0857 -7.57,-28.4541 -8.6751,-29.7076 -1.1052,-1.2534 -49.2581,13.4035 -107.0066,32.5709 -150.1229,49.8276 -317.4134,93.2632 -405.625,105.3168 -25.7404,3.5176 -74.2293,11.062 -107.7531,16.7659 -167.7301,28.5382 -267.5259,28.8082 -472.381,1.2782 -76.1571,-10.2345 -67.4068,-8.2899 -116.5903,-25.9139 -57.7618,-20.6979 -80.7268,-33.5025 -119.7812,-66.7865 -65.7717,-56.0536 -104.01847,-117.9008 -113.93841,-184.245 -5.47157,-36.5937 -6.23631,-106.5774 -1.45231,-132.9094 15.31084,-84.2749 40.37059,-159.6053 84.08082,-252.7503 46.243,-98.5424 48.0749,-101.5443 142.2673,-233.1429 14.9969,-20.9524 32.9852,-44.9524 39.9742,-53.3333 6.989,-8.381 20.7516,-26.2096 30.5836,-39.6191 62.6625,-85.4628 294.7844,-333.7423 311.9862,-333.703 6.8462,0.031 24.5897,11.1982 26.7655,16.8683 1.5381,4.0079 0.1451,73.5927 -6.2245,310.9397 -1.3139,48.9624 -1.3139,48.9624 40.3171,47.6483 58.8191,-1.8569 53.4521,-13.2788 55.3523,117.7981 0.8419,58.0751 2.5123,107.1037 3.7119,108.9521 1.1996,1.8484 0.2761,5.9627 -2.0525,9.1428 -3.8145,5.21 -7.8027,5.6933 -40.2833,4.8832 -31.7226,-0.7911 -36.5516,-1.6143 -40.231,-6.8571 -5.7483,-8.1911 -14.9599,-7.6791 -16.1782,0.8991 -1.24,8.7314 -6.7073,9.0297 -83.9951,4.5839 -73.0804,-4.2036 -68.6826,-0.9704 -75.7668,-55.7026 -6.7084,-51.8281 -7.761,-165.7018 -1.6007,-173.1544 3.6607,-4.4288 12.3629,-5.0603 69.7297,-5.0603 65.547,0 65.547,0 63.6343,-14.4762 -4.3325,-32.7902 -5.6907,-190.4097 -2.1959,-254.8343 1.9884,-36.6543 2.8247,-67.4346 1.8584,-68.401 -2.425,-2.425 -31.0658,26.1028 -103.9639,103.5532 -132.3168,140.58 -177.8575,195.5526 -278.9722,336.7509 -57.6419,80.4922 -68.2584,98.0197 -103.073,170.1693 -68.07067,141.0697 -101.59909,257.9654 -97.02836,338.2857 2.15171,37.8115 18.52495,90.7472 39.29445,127.0413 19.25661,33.6503 60.44481,80.1408 88.98021,100.4349 21.8473,15.5376 63.1337,36.8463 79.0774,40.8134 4.6095,1.1471 8.381,3.3082 8.381,4.8027 0,1.4946 4.0207,2.7173 8.9349,2.7173 4.9142,0 20.1597,4.1386 33.8789,9.1971 48.1114,17.7393 108.6872,26.9903 251.703,38.4393 59.6153,4.7726 73.6284,4.9444 120.3809,1.4778 69.5091,-5.1545 111.555,-10.2623 176.3404,-21.422 29.3333,-5.053 74.5905,-12.1058 100.5714,-15.673 81.1135,-11.1363 248.9998,-54.6438 394.5412,-102.2443 48.5406,-15.8757 94.2574,-30.3762 101.5929,-32.2231 7.3356,-1.8471 14.0181,-5.1322 14.85,-7.3002 0.8319,-2.1678 -1.3976,-18.0901 -4.9543,-35.3823 -29.7011,-144.4017 -61.9958,-348.1759 -67.2556,-424.3709 -1.5122,-21.9075 -2.8944,-65.8889 -3.0713,-97.7365 -0.1771,-31.8477 -1.3454,-60.5145 -2.5966,-63.7041 -2.6528,-6.7627 -103.167,-76.317 -159.6311,-110.4619 -21.3981,-12.9402 -37.7781,-24.6549 -36.3999,-26.033 1.3782,-1.3785 9.9715,-4.4496 19.0962,-6.8252 15.3961,-4.0085 19.0443,-3.79 50.6767,3.0348 42.6447,9.2005 64.7226,10.0694 86.8734,3.4182 29.3459,-8.8115 50.4909,-35.2868 30.4605,-38.1391 -3.8466,-0.5476 -8.7407,0.4541 -10.8758,2.226 -2.1351,1.7722 -12.7825,6.5719 -23.6608,10.6667 -19.5156,7.3456 -20.1613,7.3853 -48.5217,2.9964 -15.8086,-2.4463 -40.9334,-4.8951 -55.8331,-5.4415 -27.0902,-0.9933 -27.0902,-0.9933 -42.2206,-20.4605 -8.3217,-10.7069 -18.5977,-25.3821 -22.8355,-32.6114 -9.7251,-16.59 -6.9562,-24.1899 13.6213,-37.3854 13.8259,-8.8665 15.6986,-9.2426 38.906,-7.8169 13.4095,0.8238 33.2953,3.7129 44.1905,6.4204 10.8952,2.7075 36.2667,5.729 56.3809,6.7143 33.915,1.6615 37.1249,1.3348 44.1905,-4.4977 10.9696,-9.0554 5.3569,-17.5692 -11.037,-16.7415 -35.3371,1.7835 -45.0039,0.8058 -78.3118,-7.9217 -60.0657,-15.7388 -85.6835,-12.4596 -114.7293,14.6856 -13.602,12.7119 -13.602,12.7119 -19.0687,5.7234 -3.0066,-3.844 -17.2211,-30.7197 -31.5877,-59.7239 -29.3941,-59.3429 -29.2912,-56.7643 -2.7647,-69.3132 20.2503,-9.5802 48.6911,-10.1285 68.1177,-1.3132 7.3069,3.3155 14.3952,6.0282 15.7518,6.0282 7.988,0 93.825,43.3408 121.263,61.2282 34.669,22.6011 44.4359,26.7556 51.8729,22.0644 16.8292,-10.6154 10.0819,-22.293 -24.455,-42.3235 -13.9353,-8.082 -32.9946,-19.8171 -42.3542,-26.0775 -17.8404,-11.9339 -47.2874,-25.0475 -64.3531,-28.6589 -5.532,-1.1706 -14.1725,-4.6169 -19.201,-7.6584 -24.47,-14.8005 -103.3668,-19.9625 -126.209,-8.2578 -5.7197,2.9309 -10.7755,4.953 -11.235,4.4934 -0.889,-0.889 -14.7598,-92.7747 -19.4696,-128.974 -6.0515,-46.5116 -6.6202,-101.6872 -1.9005,-184.4136 2.6389,-46.2559 6.2185,-94.1174 7.9547,-106.3592 1.7362,-12.2418 2.4826,-22.932 1.6586,-23.756 -2.2306,-2.2306 -40.1138,27.0021 -102.8008,79.3266 -30.6943,25.6204 -72.2651,58.0639 -92.3794,72.0963 -23.9816,16.7302 -45.6166,35.1037 -62.8463,53.3724 -14.4512,15.3225 -32.188,31.939 -39.415,36.9258 -7.2271,4.9869 -21.4605,17.3517 -31.6299,27.4777 -10.1693,10.1257 -25.0445,24.2484 -33.0558,31.3837 -8.0113,7.1351 -13.6873,14.3949 -12.6132,16.1329 1.0741,1.7378 14.8288,12.711 30.5661,24.3852 15.7372,11.6739 28.6132,21.7792 28.6132,22.4561 0,0.6769 -4.9838,2.6066 -11.0751,4.2886 -15.1044,4.1704 -23.5834,-0.6939 -45.7216,-26.2311 -24.3687,-28.1104 -27.4813,-30.5174 -47.7366,-36.9143 -15.3941,-4.8619 -26.5316,-13.2267 -86.27,-64.7948 -37.7267,-32.5666 -84.6296,-72.7235 -104.2287,-89.2377 -19.5991,-16.5138 -46.6061,-39.8479 -60.0157,-51.8531 -13.4095,-12.0055 -33.2952,-29.2995 -44.1904,-38.4311 -10.8953,-9.1317 -31.4733,-27.6263 -45.7289,-41.0991 -14.2557,-13.4728 -35.3765,-32.0389 -46.9351,-41.2579 -26.0503,-20.7775 -107.2758,-112.119 -150.4105,-169.1429 -17.75092,-23.4666 -44.19112,-57.7523 -58.756,-76.1904 -36.66755,-46.4186 -95.55898,-132.9877 -120.24805,-176.7619 -11.34464,-20.1143 -28.17716,-48.8604 -37.40562,-63.8802 -29.61006,-48.1918 -71.226,-132.151 -86.70885,-174.9329 -36.65618,-101.2878 -33.20286,-86.8678 -37.66223,-157.2654 -4.29297,-67.771 -2.86138,-85.4345 10.0043,-123.4342 6.7936,-20.0654 29.8457,-65.0496 47.27079,-92.2449 27.22929,-42.4967 83.9112,-90.412 153.24679,-129.5452 36.03032,-20.3355 134.88387,-54.4163 198.09527,-68.2953 45.756,-10.0464 206.4772,-14.5114 271.7498,-7.5494 24.8614,2.6517 66.4597,6.2322 92.4406,7.9566 62.4406,4.1443 109.9164,11.0345 150.8572,21.894 18.4381,4.8906 48.6095,11.6725 67.0476,15.0707 83.1733,15.3295 171.8664,35.2853 225.3149,50.6957 31.9626,9.2155 74.7152,21.2353 95.0059,26.7107 44.5076,12.0101 123.2694,35.8685 150.5364,45.6 25.6339,9.1487 143.4227,55.8977 176.27,69.9596 13.9771,5.9836 26.6628,10.8792 28.1905,10.8792 1.5277,0 2.7776,-7.3632 2.7776,-16.3627 0,-21.2311 6.498,-58.3909 21.1206,-120.7802 6.4821,-27.6571 16.7855,-73.6 22.8962,-102.0952 29.312,-136.6847 114.1883,-402.0504 164.7361,-515.0476 76.2625,-170.4808 87.2747,-190.1987 162.5088,-290.97933 70.2533,-94.10862 112.0015,-134.1486 174.5601,-167.41754 51.5946,-27.43823 95.6728,-39.51631 150.5591,-41.25538 27.8824,-0.88344 36.0881,-0.0515 48.7619,4.94376 8.381,3.30328 29.0853,11.24282 46.0096,17.64343 16.9244,6.40061 36.1244,15.02406 42.6667,19.16324 19.3923,12.26911 67.3079,52.21721 105.1611,87.67495 30.9163,28.95984 40.1972,40.22522 73.8341,89.62093 63.5331,93.29924 125.7109,209.28264 154.0821,287.41714 19.9235,54.8697 44.4316,129.0064 62.7313,189.7602 7.8257,25.9809 20.9579,68.4952 29.1825,94.4762 20.2313,63.9074 34.2342,120.1718 43.9921,176.7619 4.48,25.9809 10.2125,56.1524 12.7387,67.0476 5.1816,22.3477 10.1809,52.1661 19.1619,114.2857 10.1123,69.9454 12.4398,84.9204 13.3379,85.8186 0.47,0.47 31.6389,-9.2977 69.2639,-21.706 285.5811,-94.1806 424.0161,-136.4984 524.0286,-160.1883 93.2718,-22.0933 143.6627,-33.3271 169.1429,-37.7076 48.3331,-8.3093 106.0434,-16.7272 128,-18.6706 11.7333,-1.0386 39.1619,-4.4354 60.9524,-7.5485 91.9457,-13.1357 138.674,-16.2985 209.6134,-14.1876 70.5219,2.0984 107.6614,4.7174 182.0056,12.8342 60.5416,6.6098 86.2199,12.2143 111.2381,24.2788 25.3327,12.216 81.1008,48.4881 96.0652,62.4817 5.8307,5.4526 24.1491,22.41 40.7071,37.6831 55.6135,51.2976 70.3817,77.1854 84.3983,147.9472 11.2847,56.9704 13.7682,91.7926 9.0344,126.6793 -2.0468,15.0857 -4.3252,32.4199 -5.063,38.5203 -1.5979,13.2156 -9.1014,38.8262 -23.5377,80.3369 -5.8292,16.7619 -17.5177,52.4367 -25.974,79.2774 -22.9787,72.9337 -54.4393,131.128 -140.0234,259.0083 -72.0823,107.7058 -101.3157,145.2101 -218.3345,280.1069 -50.2574,57.936 -134.8581,144.6953 -173.4269,177.8522 -15.076,12.9606 -49.0298,43.6628 -75.453,68.2273 -49.7429,46.2433 -141.4832,127.2487 -184.0115,162.4795 -15.2915,12.6674 -24.9491,23.0306 -25.9048,27.797 -1.2437,6.2028 -6.0047,9.408 -25.9048,17.4385 -13.4095,5.4117 -31.2381,14.5512 -39.619,20.3103 -16.153,11.0994 -72.1009,58.7456 -82.1657,69.9736 -3.2865,3.6663 -15.6294,13.742 -27.4285,22.3912 -11.7995,8.6488 -30.3677,22.7897 -41.263,31.424 -15.0793,11.9503 -23.0841,16.1127 -33.5238,17.4323 -27.0089,3.414 -27.1835,-0.6915 -0.9606,-22.5819 13.0999,-10.9352 47.8178,-37.8776 77.1511,-59.8717 29.3333,-21.9941 66.038,-51.1671 81.5659,-64.8287 28.2322,-24.8393 28.2322,-24.8393 4.5778,-46.6855 -13.0097,-12.0153 -49.4135,-46.5317 -80.8969,-76.7031 -68.6815,-65.8191 -94.4692,-87.6709 -156.9143,-132.9646 -26.1339,-18.9558 -59.6142,-45.9779 -74.4006,-60.049 -26.8843,-25.5839 -26.8843,-25.5839 -26.8843,-6.9318 0,10.2587 1.988,32.0146 4.4182,48.3464 4.291,28.8418 9.4592,93.9545 12.6372,159.218 0.857,17.6 2.0437,33.4976 2.6374,35.3277 1.1243,3.4661 -7.4413,105.682 -8.9932,107.3204 -0.4864,0.5135 -7.5809,-1.2565 -15.7656,-3.9335 -17.0411,-5.5738 -16.2621,-0.7184 -9.7829,-61.0003 3.9939,-37.1593 3.6331,-108.5431 -0.6586,-130.3119 -1.7319,-8.7857 -4.4135,-29.0024 -5.9593,-44.9262 -1.5454,-15.9238 -4.8232,-41.9809 -7.2835,-57.9047 -2.4603,-15.9238 -5.9188,-41.2953 -7.6852,-56.381 -7.1924,-61.4213 -12.4891,-99.7362 -19.5916,-141.7143 -4.1122,-24.3047 -9.6716,-60.6476 -12.3544,-80.7619 -2.6829,-20.1143 -9.6275,-53.0285 -15.4329,-73.1428 -5.8054,-20.1143 -15.4423,-57.8286 -21.4156,-83.8096 -5.973,-25.9809 -14.9867,-58.8952 -20.0299,-73.1428 -5.0435,-14.2476 -12.4245,-37.6349 -16.4022,-51.9717 -3.9778,-14.3369 -14.3513,-43.8226 -23.0522,-65.5238 -8.701,-21.7013 -21.6814,-55.914 -28.8454,-76.0283 -7.1641,-20.1143 -17.9725,-47.7651 -24.0186,-61.4461 -6.0462,-13.6811 -10.9931,-25.8781 -10.9931,-27.1045 0,-1.2264 -6.6079,-13.3471 -14.684,-26.9349 -8.0762,-13.5877 -18.3818,-31.1542 -22.9008,-39.0365 -13.0889,-22.8292 -42.8068,-58.6437 -85.6798,-103.257 -21.8807,-22.769 -45.2687,-48.4283 -51.9735,-57.0207 -12.5684,-16.1069 -17.9298,-19.0665 -20.8329,-11.5008 -0.9216,2.4014 -8.9539,9.2351 -17.8499,15.1859 -78.8956,52.7765 -129.5238,100.6704 -214.5085,202.9241 -40.3347,48.5305 -91.1531,116.0671 -107.3271,142.6351 -8.8753,14.5793 -17.4056,26.9512 -18.9559,27.4931 -1.5503,0.5419 -25.1456,-3.2025 -52.434,-8.3209 -72.3322,-13.567 -84.2855,-15.0843 -136.9326,-17.3819 -47.6982,-2.0816 -47.6982,-2.0816 -49.4354,20.4608 -1.4851,19.2697 -5.5199,189.2003 -5.8177,245.0186 -0.054,10.0571 -2.0086,59.5201 -4.3443,109.9177 -2.3357,50.3977 -4.0496,99.7691 -3.8088,109.7143 0.2408,9.9453 -1.3661,103.7965 -3.5712,208.5584 -2.2051,104.762 -3.737,239.8477 -3.4042,300.1905 0.3328,60.3429 0.6369,125.6406 0.6757,145.1063 0.071,35.392 0.071,35.392 27.3056,35.6489 21.089,0.1981 30.0026,1.6686 39.4978,6.5128 6.7444,3.4408 13.7045,6.2558 15.467,6.2558 4.3959,0 33.1343,19.0492 34.72,23.0141 0.7052,1.7628 -1.5561,11.8605 -5.0246,22.4393 -7.382,22.5156 -25.0859,43.5298 -59.6611,70.8173 -18.1078,14.2909 -25.3184,18.087 -37.4018,19.6897 -8.233,1.0923 -15.9303,3.5194 -17.105,5.3937 -1.1747,1.8743 -2.2471,29.8124 -2.3831,62.0849 -0.2471,58.6773 -0.2471,58.6773 15.381,75.0723 18.8443,19.7693 30.5713,26.2351 51.4999,28.395 19.8717,2.051 34.6124,-4.8586 52.6445,-24.6763 14.3138,-15.7315 22.824,-17.6357 29.9834,-6.709 4.2417,6.4734 4.2926,8.5525 0.4364,17.7816 -5.1187,12.2508 -25.71,30.005 -44.8932,38.7072 -27.374,12.4181 -65.8661,4.9481 -91.7016,-17.7966 -13.266,-11.6791 -13.266,-11.6791 -12.5824,66.3872 0.6836,78.0663 0.6836,78.0663 45.7142,77.3062 24.7668,-0.4181 57.3736,-2.1665 72.4593,-3.8857 15.0857,-1.7188 50.0572,-4.3791 77.7143,-5.9121 28.3084,-1.5686 67.6011,-6.0416 89.9048,-10.2342 21.7904,-4.096 51.2762,-9.1715 65.5238,-11.2786 18.478,-2.7328 32.5674,-7.1589 49.145,-15.438 33.8392,-16.9003 79.0686,-43.4194 113.9108,-66.7889 16.7665,-11.2454 45.5665,-29.0667 64,-39.6026 18.4335,-10.5359 58.2013,-33.8346 88.3727,-51.7754 62.5177,-37.1742 88.2829,-51.8482 91.0376,-51.8482 1.0533,0 1.9148,2.2796 1.9148,5.0654 0,2.7862 3.4911,11.0227 7.7577,18.3031 7.7575,13.2374 7.7575,13.2374 -0.3608,20.761 -4.4648,4.1378 -19.2701,13.9304 -32.9003,21.7606 -70.5624,40.5373 -65.7267,35.0681 -67.0762,75.8702 -1.8859,57.0331 -15.6755,138.937 -45.9145,272.7159 -10.2659,45.4159 -16.0183,68.0503 -50.1794,197.4394 -8.5342,32.3252 -15.5169,59.9969 -15.5169,61.4927 0,1.4961 11.3142,7.1186 25.1428,12.4949 41.0487,15.9583 175.2274,60.342 206.8255,68.4136 16.1158,4.1167 44.5013,12.2505 63.079,18.0754 89.3629,28.0183 304.4126,74.7149 372.3812,80.8604 20.9524,1.8944 59.3524,6.7261 85.3334,10.737 25.9809,4.011 78.7809,10.347 117.3333,14.0797 67.3868,6.525 74.5109,6.6499 184.381,3.2333 125.1782,-3.8928 165.5984,-8.3563 222.4762,-24.5681 38.1558,-10.8757 72.9158,-23.6922 79.238,-29.2166 2.5143,-2.1967 16.9448,-10.1724 32.0677,-17.7238 41.3035,-20.6235 72.5343,-47.0878 90.6816,-76.8417 22.9995,-37.7088 53.4586,-101.4836 58.9501,-123.4286 5.9989,-23.9735 4.3273,-104.8338 -2.6776,-129.5238 -2.3778,-8.3809 -3.7523,-16.9301 -3.0541,-18.9982 1.7162,-5.0838 -18.4036,-75.2674 -29.3531,-102.3927 -13.9389,-34.532 -77.7387,-167.0946 -99.8851,-207.5414 -19.6489,-35.8854 -73.7509,-120.22 -91.2902,-142.304 -32.9917,-41.5402 -64.5327,-78.8897 -90.9233,-107.6672 -63.6041,-69.3568 -74.88,-81.4464 -150.7852,-161.6679 -95.1369,-100.5465 -145.0185,-150.8572 -149.5705,-150.8572 -2.4121,0 -2.8894,7.0385 -1.6009,23.6191 1.6427,21.141 3.9315,164.4047 4.4758,280.1359 0.2042,43.1838 0.2042,43.1838 16.2029,48.4178 26.4089,8.6394 36.4096,14.9998 56.4724,35.9171 22.4515,23.4076 34.8471,47.9193 36.6571,72.4877 2.6572,36.0743 -24.1219,72.4873 -70.3052,95.5977 -19.4292,9.7222 -23.801,10.801 -36.6288,9.0386 -9.7267,-1.3364 -16.0646,-0.7573 -19.0765,1.7423 -10.1712,8.441 -55.6133,-7.2981 -78.1166,-27.0564 -24.8287,-21.7997 -40.1183,-88.6199 -28.8472,-126.0706 10.2131,-33.9365 35.6638,-54.6569 73.9584,-60.2133 9.8377,-1.4275 20.2864,-3.5502 23.2198,-4.7174 6.0574,-2.4101 6.8477,-10.6307 5.4872,-57.089 -0.8183,-27.9484 -0.5086,-29.7142 5.2102,-29.7142 14.7868,0 16.5471,-21.4711 2.2924,-27.9659 -10.0556,-4.5818 -10.3485,-8.2149 -11.3658,-140.8988 -0.8621,-112.4833 -0.8621,-112.4833 18.9474,-119.1518 19.8095,-6.6682 19.8095,-6.6682 39.3813,10.3884 10.7645,9.3812 38.8788,37.8228 62.4762,63.204 23.5974,25.3809 68.9615,73.4275 100.8092,106.7703 205.1081,214.7373 260.181,286.7861 337.8288,441.9626 91.6154,183.09 117.1798,259.1583 118.0968,351.4055 0.253,25.5 -5.2727,70.0135 -11.3502,91.4285 -6.6594,23.4643 -34.6231,81.3608 -51.9443,107.5456 -17.9724,27.1699 -57.0611,66.9169 -82.9242,84.3206 -53.6039,36.0711 -150.4365,70.9709 -228.3901,82.3144 -46.0754,6.7048 -177.2711,14.0212 -241.3168,13.4571 -46.9425,-0.4133 -158.3607,-10.7066 -210.2858,-19.4274 -19.2761,-3.2375 -56.9904,-8.0905 -83.8095,-10.7846 -73.0206,-7.3353 -242.1641,-42.7355 -352,-73.6701 -20.9524,-5.9011 -60.0381,-16.6808 -86.8571,-23.9546 -26.8191,-7.2737 -89.2191,-27.0647 -138.6667,-43.9799 -49.4476,-16.9155 -91.8129,-31.0378 -94.1452,-31.3834 -3.0114,-0.4462 -8.3712,13.9471 -18.4917,49.6576 -28.7891,101.5823 -86.5585,256.2685 -132.9985,356.1228 -47.1484,101.3778 -57.5198,121.5253 -85.7383,166.5551 -55.7471,88.9588 -103.1634,147.1391 -158.6804,194.7014 -56.708,48.583 -83.7352,63.7638 -138.7233,77.9203 -42.316,10.8938 -71.6218,11.7245 -111.794,3.1693 z m 119.5395,-37.7686 c 16.2989,-4.1389 38.2418,-11.3027 48.7619,-15.9195 23.1098,-10.1425 60.27,-33.3638 60.27,-37.6631 0,-1.7051 16.1143,-19.9601 35.8095,-40.5666 108.4864,-113.5058 183.0848,-251.6239 290.8758,-538.5511 29.3065,-78.0115 64.3907,-186.1547 61.3552,-189.1216 -2.4856,-2.4292 -144.0384,-62.7867 -185.3738,-79.0424 -62.0377,-24.3971 -113.9917,-46.8602 -180.2271,-77.923 -40.458,-18.9739 -82.2866,-38.1696 -92.9524,-42.6567 -10.6654,-4.4873 -31.4898,-14.2326 -46.2762,-21.6566 -30.86,-15.4947 -14.9129,-20.523 -157.2508,49.5826 -109.8136,54.0864 -175.0823,79.6705 -370.5316,145.2413 -50.2858,16.8704 -92.0558,31.1893 -92.8223,31.8202 -1.884,1.55 19.4803,87.6071 33.4853,134.8812 6.2255,21.0146 20.4847,63.5797 31.6871,94.5893 11.2023,31.0095 26.4596,73.8749 33.9049,95.2566 17.5543,50.4122 82.0747,178.635 133.0247,264.3624 7.4715,12.5714 20.2664,35.8857 28.4331,51.8095 12.7238,24.8095 20.0676,34.2952 51.3222,66.2912 46.8411,47.9525 85.8628,74.2675 139.2341,93.8954 73.7894,27.1369 116.3897,30.8306 177.2704,15.3709 z m -246.93,-240.167 c -2.142,-2.1419 -3.6774,-12.5589 -3.706,-25.1428 -0.027,-11.8172 -2.062,-55.0858 -4.5226,-96.1524 -4.4747,-74.6819 -5.4998,-208.1936 -1.9072,-248.381 1.6672,-18.6484 2.6726,-21.3333 7.9888,-21.3333 9.0268,0 9.8923,9.4857 13.7641,150.8571 1.9051,69.5619 4.2434,150.7856 5.1963,180.4971 1.3209,41.1864 0.8165,55.1247 -2.1231,58.6667 -4.6383,5.5887 -9.7464,5.9325 -14.6903,0.9886 z m 341.8325,-0.8972 c -1.8164,-4.733 35.4859,-100.9579 55.3975,-142.9035 6.2735,-13.216 18.069,-32.8314 26.212,-43.5898 8.1432,-10.7584 14.8056,-20.1033 14.8056,-20.7661 0,-0.6632 -3.5855,-5.0475 -7.9677,-9.7436 -36.0326,-38.6106 -91.9908,-117.7441 -102.129,-144.426 -7.5316,-19.8215 -7.6657,-36.3024 -0.2957,-36.3024 3.7517,0 8.0768,6.1056 14.0694,19.8611 4.7588,10.9235 19.6068,35.2405 32.9953,54.0379 24.5961,34.5323 78.4156,102.5103 86.4168,109.1508 7.3066,6.0638 5.009,11.8232 -12.3865,31.0458 -19.2185,21.237 -33.8182,49.5558 -65.5981,127.2378 -12.0006,29.3333 -23.2403,55.0476 -24.9777,57.1428 -4.3474,5.2432 -14.4183,4.7897 -16.5419,-0.7448 z m -164.9112,-62.4079 c -15.8475,-7.1936 -40.6808,-31.4999 -49.1562,-48.1128 -17.5845,-34.4686 -27.2605,-110.834 -18.6625,-147.2896 9.2669,-39.2917 39.2894,-76.8649 67.7956,-84.846 22.554,-6.3147 51.7191,5.0813 70.8622,27.6894 19.8992,23.5002 35.1306,75.5139 35.0056,119.5395 -0.1615,57.1152 -28.611,115.0906 -65.1575,132.7824 -15.9391,7.7162 -24.1057,7.7635 -40.6872,0.2377 z m 39.619,-22.031 c 18.0459,-12.7104 32.583,-38.7364 39.9976,-71.6083 6.105,-27.0656 6.2147,-43.962 0.4961,-76.4551 -6.023,-34.2244 -17.6332,-59.071 -34.5684,-73.9779 -23.1231,-20.3538 -40.2387,-14.5298 -72.2353,24.5794 -20.127,24.6013 -24.6545,41.8316 -21.4678,81.6993 4.9828,62.3379 24.8109,103.5679 58.0565,120.7217 10.0282,5.1743 16.9813,4.014 29.7213,-4.9591 z m -552.3879,-529.9069 c 74.0903,-24.391 141.1296,-48.8725 204.1904,-74.5664 36.0381,-14.6834 81.2953,-32.7415 100.5715,-40.1289 19.2762,-7.3874 47.3905,-19.275 62.4762,-26.4167 62.7775,-29.7198 150.8557,-73.4995 150.8368,-74.9739 -0.018,-1.5241 -11.4672,-7.6794 -88.3606,-47.5106 -19.2762,-9.9849 -66.8186,-32.9938 -105.6498,-51.1305 -38.8311,-18.1367 -92.3168,-45.9663 -118.8571,-61.8441 -26.5403,-15.8775 -62.6551,-35.829 -80.2551,-44.3368 -17.6,-8.5074 -39.2126,-20.0792 -48.028,-25.7149 -8.8154,-5.6356 -26.644,-15.5913 -39.6191,-22.1232 -12.975,-6.532 -58.3554,-31.9092 -100.8454,-56.3938 -42.49,-24.4849 -78.49,-43.7543 -80,-42.8209 -3.5906,2.219 -3.3843,61.7219 0.3469,100.0945 1.6144,16.6022 7.0839,53.6308 12.1546,82.2857 5.0707,28.655 13.211,76.0997 18.0897,105.433 8.3932,50.4643 33.7929,174.9209 50.6909,248.381 4.2412,18.4381 8.358,36.6278 9.1483,40.4218 1.7101,8.2096 2.0499,8.1542 53.1098,-8.6553 z m 1090.7453,-14.2427 c 1.6393,-6.2857 7.8741,-30.6286 13.8551,-54.0953 5.9809,-23.4666 15.7187,-60.4952 21.6393,-82.2857 21.2849,-78.3369 58.1245,-238.9665 70.0519,-305.443 7.7791,-43.3564 12.8714,-92.2713 9.6055,-92.2713 -3.8848,0 -37.3159,13.1447 -41.1331,16.1731 -5.9172,4.6943 -61.3181,32.4752 -74.0611,37.1377 -6.0562,2.2159 -21.8276,10.8026 -35.0476,19.0812 -13.22,8.2782 -45.9791,26.1769 -72.7982,39.7744 -26.819,13.5973 -74.819,39.9988 -106.6666,58.6695 -126.6835,74.2686 -170.1489,98.4204 -207.684,115.4008 -74.8127,33.8438 -86.4113,39.527 -86.4113,42.34 0,1.5555 18.8572,11.4572 41.9048,22.0035 23.0476,10.5466 56.9344,26.6499 75.3042,35.7857 60.2901,29.9834 190.2766,85.831 217.7579,93.558 24.5876,6.9129 91.527,32.8033 145.0331,56.095 11.7334,5.1075 22.3092,9.3355 23.5017,9.3955 1.1926,0.061 3.5094,-5.0334 5.1484,-11.3191 z m -460.9082,-255.1973 c 60.1249,-29.486 131.3975,-70.3433 237.2105,-135.9811 11.4965,-7.1314 10.0193,-7.1092 -28.8259,0.4328 -17.5302,3.4033 -55.2445,7.467 -83.8095,9.0298 -28.5648,1.5628 -64.9646,4.2554 -80.8884,5.9831 -15.9238,1.7277 -49.5238,3.6662 -74.6667,4.3075 -43.474,1.109 -67.6261,-0.1859 -137.1428,-7.3439 -16.7619,-1.7265 -45.5619,-4.3971 -64,-5.9352 -76.6866,-6.3964 -142.0425,-18.6441 -199.6191,-37.4086 -12.5714,-4.0973 -27.6571,-8.3036 -33.5238,-9.3474 -10.6667,-1.898 -10.6667,-1.898 -1.5238,3.0275 5.0286,2.7094 29.5022,17.2361 54.3858,32.2819 24.8836,15.0461 85.2264,46.9949 134.0952,70.9977 48.8688,24.0027 113.538,57.4192 143.7095,74.2589 30.1714,16.8396 56.7381,30.6368 59.0371,30.6605 2.2989,0.031 36.3018,-15.7098 75.5619,-34.9635 z M 1488.7619,3916.904 c 21.7905,0.4455 64.8014,-0.4249 95.5798,-1.9346 55.9607,-2.745 55.9607,-2.745 53.9373,-20.6297 -3.8099,-33.6759 -7.5877,-98.5225 -7.6929,-132.0539 -0.1051,-33.5238 -0.1051,-33.5238 -69.4408,-32.4877 -61.4851,0.9189 -121.9161,-2.3311 -143.6781,-7.7269 -7.2948,-1.8087 -7.2948,-1.8087 -5.2934,63.3935 1.1008,35.8611 2.8328,81.0856 3.8491,100.4989 1.8477,35.297 1.8477,35.297 17.4839,32.7135 8.5998,-1.4211 33.4646,-2.219 55.2551,-1.7731 z m 15.7983,-38.6527 c -14.7366,-5.2556 -22.428,-12.2371 -30.3904,-27.5846 -6.7571,-13.0243 -17.8903,-63.7681 -15.4092,-70.2336 0.8194,-2.1354 -1.3523,-4.7844 -4.8259,-5.8868 -3.4736,-1.1026 -6.3156,-3.7979 -6.3156,-5.9898 0,-6.9443 37.2112,-11.1085 41.2253,-4.6134 2.7536,4.4553 -4.2587,12.057 -11.1223,12.057 -6.9547,0 -6.9779,0.8481 -0.7744,28.3507 8.8117,39.0656 20.0425,53.935 40.7373,53.935 14.9917,0 31.457,-12.0314 39.6625,-28.9817 5.7759,-11.9314 6.4542,-16.8323 4.6547,-33.6353 -1.7262,-16.1192 -3.0952,-19.6687 -7.5859,-19.6687 -7.1052,0 -13.4962,-7.78 -11.2338,-13.6756 1.3,-3.3878 6.441,-4.5977 19.3886,-4.5635 22.6789,0.061 28.6233,3.3523 21.0876,11.6791 -4.6016,5.0846 -4.9352,7.793 -2.1816,17.71 10.0506,36.195 -8.0739,75.0031 -41.9202,89.7594 -15.4682,6.744 -19.4244,6.8955 -34.9967,1.3418 z m 1475.4007,18.3808 c 4.5263,-2.3759 13.7153,-10.0525 20.4201,-17.0587 6.7048,-7.0062 14.4684,-13.6335 17.2525,-14.7273 4.4946,-1.7658 4.6115,-3.2954 1.0431,-13.6442 -2.2105,-6.4104 -4.6751,-12.3115 -5.4769,-13.1133 -0.8019,-0.8018 -8.3944,5.1925 -16.8722,13.3211 -11.1639,10.7039 -19.4531,15.7626 -30.0613,18.3467 -33.2133,8.0896 -34.8016,7.979 -57.4164,-3.9976 -11.6769,-6.1839 -26.2219,-15.7403 -32.3224,-21.2364 -11.0615,-9.9657 -22.9398,-15.6974 -26.0618,-12.5754 -2.4605,2.4607 3.5083,17.7585 12.4644,31.9458 7.9315,12.5644 20.2985,20.6769 47.5462,31.1887 17.4338,6.7258 57.9062,7.6291 69.4847,1.5506 z m 1504.5286,-33.6097 c 1.1935,-17.5089 1.2764,-33.2803 0.1829,-35.0476 -1.124,-1.8186 -12.8183,-3.2445 -26.9486,-3.2857 -13.7298,-0.04 -30.237,-1.2964 -36.683,-2.7922 -11.7199,-2.7197 -11.7199,-2.7197 -9.7563,8.4538 1.0798,6.1452 5.6682,18.716 10.1961,27.9351 7.2326,14.7261 10.5783,17.9648 27.5465,26.6666 10.6225,5.4477 22.4588,9.9048 26.3025,9.9048 6.702,0 7.0778,-1.3059 9.1587,-31.8348 z m 49.2383,19.2716 c 24.3684,-12.1435 39.5014,-24.8542 46.9321,-39.4197 3.3039,-6.4759 6.0093,-12.8576 6.012,-14.1815 0,-1.3239 -18.4631,-1.9904 -41.0356,-1.4815 -46.9031,1.0576 -42.1693,-3.5276 -45.8362,44.3974 -1.8355,23.99 -1.8355,23.99 6.706,21.992 4.6979,-1.0987 16.9475,-6.187 27.2217,-11.3067 z m 48.3099,-84.0451 c -5.8557,-14.0145 -27.172,-41.945 -37.7429,-49.454 -4.3526,-3.0918 -13.2474,-7.8452 -19.766,-10.5631 -18.0632,-7.5309 -20.1478,-4.0576 -20.1478,33.5699 0,31.6269 0,31.6269 26.6667,31.8025 14.6667,0.097 32.1524,1.3104 38.8571,2.6971 6.7048,1.387 13.2374,2.6795 14.5171,2.8721 1.2797,0.192 0.2072,-4.7232 -2.3842,-10.9245 z m -95.9424,-29.4869 c 0,-34.6667 0,-34.6667 -8.5595,-36.3786 -4.7077,-0.9417 -14.6097,-0.3526 -22.0042,1.309 -29.0425,6.5253 -44.8045,23.9787 -47.7915,52.9192 -1.7356,16.817 -1.7356,16.817 38.3098,16.817 40.0454,0 40.0454,0 40.0454,-34.6666 z M 3024,3679.5761 c 4.8547,-1.3751 5.3334,-7.0653 5.3334,-63.4081 0,-49.5665 -0.8567,-62.6088 -4.3001,-65.4665 -2.9396,-2.4397 -4.925,-2.5579 -6.2751,-0.3734 -1.0863,1.7576 -5.3063,3.1958 -9.3778,3.1958 -4.0715,0 -20.1391,4.0798 -35.7057,9.0663 -23.0458,7.3823 -32.1099,12.2063 -48.7983,25.9718 -11.2725,9.298 -20.4954,18.6079 -20.4954,20.6885 0,5.6765 20.4126,35.4249 34.6752,50.5347 18.835,19.9534 32.3109,25.2958 58.2772,23.1031 11.7333,-0.9911 23.7333,-2.4814 26.6666,-3.3122 z m -356.9967,-201.0237 c 13.3777,-1.8285 13.3777,-1.8285 11.4697,-58.6666 -2.231,-66.4619 -6.9861,-88.5322 -28.1565,-130.685 -21.7432,-43.2936 -67.0154,-95.3923 -100.9118,-116.1286 -8.3417,-5.1029 -15.5395,-8.9058 -15.995,-8.4501 -0.4555,0.4556 2.5982,9.2605 6.7859,19.5663 12.5609,30.9129 11.765,34.0596 -25.9685,102.6688 -6.7046,12.1905 -6.7046,12.1905 7.0154,32.5108 19.5815,29.0017 24.7857,46.6231 22.36,75.7095 -2.2399,26.8581 -8.9109,51.9305 -17.601,66.1517 -5.9888,9.8005 -5.9888,9.8005 1.0525,11.4535 28.9866,6.8054 108.6581,10.1468 139.9493,5.8697 z m -240.6297,-66.7102 c -1.3415,-36.7772 4.0426,-54.7682 25.7039,-85.8883 16.1312,-23.1756 16.1312,-23.1756 5.6827,-36.8595 -32.9395,-43.1396 -36.6712,-82.6227 -11.7232,-124.0377 5.8361,-9.6881 9.943,-18.283 9.1264,-19.0995 -4.4419,-4.4422 -57.1036,-7.2637 -79.5443,-4.2618 -13.4095,1.7936 -35.703,4.132 -49.541,5.1968 -13.8379,1.0646 -25.8133,2.9928 -26.6119,4.285 -0.7985,1.2922 -3.0339,22.2769 -4.9673,46.6331 -4.7198,59.4542 -1.4517,82.2739 17.2216,120.2512 16.6068,33.7743 43.9415,70.9257 66.0391,89.7551 14.5794,12.4233 44.3174,32.7384 48.1452,32.8899 0.8381,0.034 1.049,-12.9557 0.4688,-28.8643 z M 1633.685,3223.6167 c 71.3669,-66.8401 80.1535,-74.3266 126.315,-107.6249 18.4381,-13.3001 52.0381,-40.0195 74.6667,-59.3767 75.2444,-64.3657 120.1498,-97.5733 138.0045,-102.0545 6.6778,-1.676 8.2345,-4.0938 9.4421,-14.6647 14.4619,-126.5934 18.3843,-153.6033 27.6938,-190.7031 5.7114,-22.7608 12.5816,-54.4118 15.267,-70.3356 9.3657,-55.5359 40.8,-177.8628 53.5413,-208.3564 6.7947,-16.2617 14.9042,-39.5375 18.021,-51.7241 11.7535,-45.9557 55.5409,-146.7015 78.486,-180.5799 6.7074,-9.9035 24.2103,-38.5777 38.8954,-63.7206 14.6852,-25.1428 32.963,-54.6286 40.6175,-65.5238 7.6545,-10.8952 21.264,-30.3897 30.2434,-43.321 8.9793,-12.9314 23.3075,-31.1503 31.8403,-40.4866 8.5328,-9.3363 14.9904,-17.4471 14.35,-18.0241 -0.6403,-0.577 -47.7928,-19.64 -104.7833,-42.3621 -101.8286,-40.5992 -152.96,-58.0828 -237.7142,-81.2825 -23.4667,-6.4236 -71.5673,-19.9779 -106.8902,-30.1208 -58.4463,-16.7827 -152.7868,-39.2794 -187.2051,-44.6416 -7.5428,-1.1752 -30.8571,-5.4637 -51.8095,-9.5301 -20.9524,-4.0663 -55.9238,-9.3876 -77.7143,-11.8249 -21.7905,-2.4373 -69.1048,-7.8202 -105.1429,-11.9619 -221.5257,-25.4593 -241.6575,-26.6873 -301.252,-18.3753 -63.4213,8.8457 -172.37073,43.2117 -218.86792,69.0376 -42.70598,23.7202 -87.56925,53.3034 -103.6331,68.3364 -23.89022,22.3574 -53.12667,56.8917 -60.52638,71.4944 -4.06665,8.0251 -10.69181,19.4509 -14.72256,25.3905 -4.03075,5.9397 -8.25762,15.9886 -9.39304,22.3309 -1.13542,6.3424 -5.96562,21.8173 -10.73377,34.3887 -4.76819,12.5715 -12.3819,39.3143 -16.91938,59.4286 -7.04942,31.2495 -8.00899,41.0234 -6.59401,67.1642 2.04294,37.742 14.0324,98.2069 26.62769,134.2881 9.75829,27.9543 56.29123,120.9927 79.20232,158.3578 7.13005,11.6283 23.22441,39.6566 35.76524,62.2851 27.84448,50.2424 75.16379,120.2926 122.49158,181.3334 19.49443,25.1428 45.17533,58.7428 57.06863,74.6666 32.9353,44.0968 106.3346,126.7315 138.1882,155.5756 15.6448,14.1668 40.9692,37.4149 56.2764,51.6625 31.392,29.2192 82.5526,74.3013 117.0451,103.1391 12.7159,10.6313 35.3132,29.8313 50.2162,42.6667 141.8489,122.1699 134.2363,116.2611 136.4758,105.9294 3.1995,-14.7608 9.0416,-209.5539 6.9284,-231.0158 -1.0395,-10.5576 -0.4949,-25.2452 1.2102,-32.6392 2.9169,-12.6486 2.6229,-13.8192 -4.9715,-19.7929 -9.8491,-7.7474 -46.6307,-14.4741 -126.8268,-23.1945 -31.6862,-3.4455 -58.7719,-6.9818 -60.1904,-7.8585 -5.0433,-3.1169 -2.4724,-13.2676 4.278,-16.8908 10.524,-5.6486 63.5363,-6.8308 105.9048,-2.3616 20.9523,2.2102 46.6666,3.7684 57.1428,3.4627 29.1145,-0.8494 39.1877,-0.7089 120.0691,1.6749 67.7655,1.9972 75.7436,2.782 81.5238,8.0196 3.5239,3.1931 6.4071,8.8537 6.4071,12.5792 0,13.9187 -5.5107,15.0421 -81.7383,16.6627 -71.6751,1.5238 -71.6751,1.5238 -71.0162,73.1429 0.642,69.7913 -3.8894,212.494 -7.6695,241.5238 -1.0368,7.9619 -0.6798,14.4749 0.7933,14.4737 1.4731,0 30.8651,-26.4015 65.3157,-58.6666 z m -338.4469,-687.9105 c 0,-4.2216 2.9451,-6.769 9.9048,-8.5672 9.9047,-2.5592 9.9047,-2.5592 12.0824,-39.2975 1.1978,-20.2061 1.1978,-47.4025 0,-60.4365 -2.1777,-23.698 -2.1777,-23.698 -16.2132,-27.2542 -16.0457,-4.0655 -41.1345,-21.3669 -52.1265,-35.9467 -4.1127,-5.4551 -16.5653,-29.1184 -27.6725,-52.585 -29.6364,-62.614 -44.8321,-119.8814 -44.8321,-168.9563 0,-27.499 0,-27.499 -8.381,-29.3354 -14.4898,-3.175 -16.5406,-4.2754 -15.2565,-8.1861 0.6877,-2.0944 5.2589,-4.2655 10.1582,-4.8248 4.8993,-0.5593 11.253,-3.1222 14.1193,-5.6954 6.302,-5.6575 24.103,-3.2434 30.193,4.0946 3.3969,4.093 3.0598,5.6151 -2.184,9.8613 -5.7987,4.6955 -6.0698,7.1935 -4.1792,38.5078 1.3616,22.5519 4.6983,42.4432 10.2183,60.9152 12.699,42.4955 16.5354,52.2094 36.1085,91.4286 23.0593,46.2045 46.3922,71.6191 65.7529,71.6191 5.5604,0 5.8974,-4.6522 8.014,-110.644 1.9713,-98.7139 0.1231,-222.2561 -3.4166,-228.4037 -0.7239,-1.2571 -7.4968,-2.2857 -15.051,-2.2857 -15.3042,0 -25.5245,-4.1834 -25.5245,-10.4478 0,-5.5981 6.8645,-7.8379 24.0207,-7.8379 7.9086,0 15.8778,-1.4985 17.7093,-3.3299 2.4081,-2.4082 5.0522,-2.4082 9.552,0 8.9183,4.7729 29.3445,4.105 42.4948,-1.3896 14.8247,-6.1941 25.0803,-3.6613 25.0803,6.1942 0,9.9385 -6.2041,12.7121 -34.2857,15.3274 -14.2804,1.33 -23.612,3.5644 -23.6014,5.6512 0.01,1.8983 1.4275,11.68 3.1506,21.7372 7.6559,44.6851 11.7634,139.2697 8.6688,199.619 -1.676,32.6857 -2.625,72.4572 -2.1088,88.381 0.9384,28.9524 0.9384,28.9524 12.1328,29.8843 12.7469,1.0611 36.7064,-9.725 47.0958,-21.2017 19.8034,-21.8759 40.4196,-68.4991 73.0952,-165.3028 23.0874,-68.3981 25.9141,-81.0941 18.0552,-81.0941 -7.5583,0 -11.5312,-10.9977 -5.9787,-16.5503 5.8883,-5.8883 15.6105,-5.9684 25.681,-0.2115 4.1905,2.3955 10.7048,4.4041 14.4762,4.4635 8.2825,0.1304 8.9528,4.8672 1.2706,8.9786 -4.0007,2.1411 -7.0714,10.5469 -10.8171,29.6107 -8.0463,40.9516 -52.4701,166.8731 -73.5397,208.4519 -18.6192,36.7433 -52.6731,61.275 -86.6674,62.4332 -16.6107,0.5659 -16.6107,0.5659 -16.7619,58.1712 -0.1512,57.6051 -0.1512,57.6051 17.3726,56.5725 15.7859,-0.9302 17.5238,-0.4336 17.5238,5.0073 0,3.3219 -2.4,6.9609 -5.3333,8.0866 -10.6311,4.0799 -51.3881,10.7948 -65.5238,10.7953 -12.3746,5e-4 -14.4762,-0.8717 -14.4762,-6.0076 z m 3186.5704,654.2763 c 1.5196,-33.881 2.6953,-101.3729 2.6124,-149.9825 -0.1371,-80.1266 -0.6674,-89.1637 -5.6838,-96.7619 -5.5332,-8.3809 -5.5332,-8.3809 -90.3363,-8.3809 -82.5728,0 -94.2497,-1.2748 -86.1223,-9.4021 12.5296,-12.5299 258.3256,-23.7515 335.7943,-15.3305 37.0282,4.0251 48.5811,12.9947 33.877,26.3018 -5.7588,5.2116 -8.9704,5.3353 -51.0476,1.9657 -24.6961,-1.9776 -56.9021,-3.5821 -71.5688,-3.5653 -26.0379,0.03 -26.6667,0.2011 -26.6667,7.2763 0,3.9852 -1.9282,8.8461 -4.2849,10.802 -3.4554,2.8679 -4.5769,22.2579 -5.7945,100.1826 -0.8301,53.1447 -3.0409,113.6308 -4.9121,134.4138 -1.8716,20.7829 -2.8824,38.3073 -2.2464,38.9433 1.4494,1.4492 36.7686,-25.9349 76.6665,-59.4425 16.7619,-14.0773 35.2762,-27.6523 41.1429,-30.1669 32.7814,-14.0507 154.6505,-127.672 259.1655,-241.6263 94.9788,-103.5568 150.5945,-170.3272 240.825,-289.1281 20.8527,-27.4555 44.2243,-58.0725 51.9369,-68.0379 7.7123,-9.9653 28.4566,-43.0446 46.098,-73.5095 26.4649,-45.7016 36.9689,-67.9185 60.0488,-127.0098 15.3853,-39.3904 29.8962,-76.419 32.2465,-82.2857 9.2334,-23.0475 23.6831,-88.6714 30.2528,-137.394 6.7828,-50.3014 5.9999,-74.7145 -4.0222,-125.4253 -7.3155,-37.0162 -10.9998,-48.5987 -22.0636,-69.3632 -14.9248,-28.0106 -27.1774,-39.9276 -84.999,-82.671 -45.6408,-33.7388 -63.5706,-45.0689 -101.3714,-64.0578 -60.1173,-30.1995 -111.8147,-42.2156 -181.7932,-42.2545 -22.7545,-0.012 -50.286,-1.6144 -61.1813,-3.5594 -25.7447,-4.5958 -101.4013,-4.486 -147.8095,0.2146 -121.4455,12.3007 -279.8613,33.9058 -315.6971,43.0554 -13.1477,3.357 -53.0947,12.9542 -88.7707,21.3272 -35.6761,8.373 -81.3227,20.6743 -101.437,27.3363 -20.1143,6.6619 -53.9236,16.2371 -75.132,21.2781 -21.2081,5.041 -61.305,17.4081 -89.1042,27.4825 -27.7988,10.0743 -51.5895,18.3054 -52.8679,18.2913 -1.2785,-0.015 -38.6673,11.5569 -83.0864,25.7135 -44.419,14.1565 -99.3158,31.2125 -121.9928,37.9022 -22.6767,6.6897 -59.0196,18.7758 -80.7619,26.8579 -54.301,20.1853 -54.5137,16.7077 4.8088,78.6497 88.2722,92.1699 118.198,137.9886 150.3126,230.1404 10.8068,31.0096 24.5924,66.9599 30.6346,79.8898 6.0426,12.9298 17.3063,41.7298 25.0307,64 7.7242,22.2701 19.194,53.5198 25.4879,69.4436 6.2939,15.9238 17.8761,51.5809 25.7381,79.2381 7.8622,27.6571 20.2694,68.8 27.5718,91.4285 9.628,29.8344 15.4285,55.802 21.1038,94.4762 4.3045,29.3334 9.87,66.3619 12.3679,82.2857 2.4978,15.9239 4.5662,36.7706 4.5964,46.3262 0.03,9.5556 1.5232,24.2225 3.3185,32.5931 2.9885,13.9354 4.5955,15.9825 19.0476,24.2663 8.6809,4.9758 26.7551,18.293 40.1646,29.5936 13.4095,11.3007 33.981,26.7761 45.7143,34.3898 68.3048,44.3227 112.697,79.5288 172.1905,136.5589 24.3047,23.2984 61.842,58.5313 83.4158,78.2958 39.2253,35.9351 39.2253,35.9351 47.5227,27.9856 8.285,-7.9375 8.3014,-8.0408 11.0604,-69.5506 z m 204.5181,-738.152 c -21.3726,-8.877 -44.0844,-25.1285 -58.258,-41.6873 -13.4226,-15.6814 -29.5631,-49.2956 -38.2375,-79.6344 -6.1623,-21.5522 -6.6819,-28.8238 -5.5531,-77.7143 1.0987,-47.5918 2.2287,-57.3048 9.6043,-82.5611 10.9169,-37.3826 20.4123,-55.5866 39.5495,-75.8213 17.6016,-18.611 35.1452,-28.9158 47.222,-27.7372 4.4596,0.4353 11.4846,-1.0496 15.6117,-3.2997 10.3202,-5.6267 44.6793,-7.6346 59.9467,-3.5033 6.9263,1.8742 22.6977,10.011 35.0476,18.0818 37.8136,24.7113 58.3729,48.7648 83.8028,98.0463 11.7946,22.8572 11.7946,22.8572 11.7946,60.9524 0,33.4732 -1.056,41.4205 -8.7046,65.5021 -11.6136,36.5654 -19.0181,50.4636 -45.8926,86.1398 -27.658,36.7161 -42.4365,50.4129 -66.8647,61.9693 -24.6857,11.6784 -52.9122,12.1307 -79.0687,1.2669 z m 71.0068,-36.7892 c 18.6597,-9.6306 26.6633,-17.0252 49.543,-45.7723 23.062,-28.9758 32.6571,-47.7172 43.5575,-85.0785 6.7782,-23.2334 7.7513,-31.2744 6.361,-52.5731 -1.4098,-21.6014 -3.2165,-27.9614 -12.821,-45.1358 -17.9231,-32.0496 -37.0947,-55.3286 -57.6412,-69.9902 -30.1543,-21.5176 -41.2617,-25.2957 -76.9167,-26.1619 -33.8383,-0.8221 -33.5659,-0.9256 -53.0517,20.1467 -13.8429,14.9697 -23.8574,36.215 -31.7651,67.388 -6.3064,24.8607 -7.4563,36.5938 -7.4563,76.0836 0,41.695 0.8445,49.3966 7.8949,71.9902 15.8665,50.8457 40.3352,80.2623 78.2549,94.0789 18.8398,6.8647 33.7621,5.4908 54.0407,-4.9756 z m -118.8727,-114.118 c -1.8173,-3.3958 -2.8833,-17.3128 -2.393,-31.2381 0.8006,-22.7293 1.4635,-25.1276 6.98,-25.2598 3.3524,-0.08 9.6753,-2.5125 14.0504,-5.405 4.3755,-2.8924 15.3469,-6.7767 24.381,-8.6318 23.9698,-4.9221 38.5624,0 60.9292,20.5658 18.596,17.0958 28.405,22.5694 40.4459,22.5694 12.2928,0 17.255,-6.6403 20.1228,-26.9277 3.0891,-21.8549 6.8477,-27.9294 17.2812,-27.9294 10.1946,0 14.2772,12.0975 12.1384,35.9689 -2.7703,30.9224 -19.0449,46.3168 -48.9646,46.3168 -23.2287,0 -35.5115,-5.8136 -54.606,-25.8452 -17.9825,-18.8652 -29.3328,-23.6634 -46.71,-19.7462 -14.521,3.2734 -21.3958,11.5342 -23.9887,28.8236 -1.4022,9.3503 -4.2051,14.8798 -9.2026,18.1544 -6.6639,4.3663 -7.4246,4.2634 -10.464,-1.4157 z m -2345.1273,165.8196 c 67.974,-28.3612 152.4451,-54.6635 230.0952,-71.6463 15.9238,-3.4827 37.181,-8.2946 47.2381,-10.6932 10.0571,-2.3985 21.7143,-4.7987 25.9048,-5.3337 4.1904,-0.535 8.6476,-1.1874 9.9047,-1.4498 4.9991,-1.0433 1.8235,-13.7673 -6.4471,-25.8327 -4.8031,-7.0067 -12.1995,-19.5967 -16.4365,-27.9776 -18.0342,-35.6728 -63.2292,-85.1505 -152.4141,-166.8572 -42.1258,-38.5934 -46.7599,-40.0376 -66.1755,-20.622 -14.2981,14.2981 -38.4058,50.9974 -60.0923,91.4792 -24.2291,45.2276 -32.0433,76.1374 -46.6129,184.3809 -3.466,25.7501 -3.9495,68.5776 -0.774,68.5556 1.2572,-0.01 17.3715,-6.3102 35.8096,-14.0032 z m 1000.167,-102.5524 c 3.3999,-3.7714 12.3227,-16.486 19.8281,-28.2547 47.1802,-73.9806 161.344,-211.8683 206.6886,-249.6399 11.218,-9.3445 22.9629,-19.8258 26.0995,-23.2918 5.6805,-6.2768 5.6369,-6.2758 -10.9687,0.2603 -39.6214,15.5948 -83.6861,34.4317 -124.8621,53.3763 -24.3048,11.1824 -64.0762,29.245 -88.381,40.1392 -37.3388,16.7364 -270.1562,127.6868 -283.1041,134.9147 -3.0175,1.6845 1.835,6.0764 16.762,15.1713 11.5548,7.0403 28.5516,18.82 37.7707,26.1772 14.8873,11.8808 18.5408,13.3905 32.6695,13.5002 18.6734,0.1451 63.8407,6.7257 115.14,16.7756 46.201,9.051 45.0018,9.031 52.3575,0.8717 z m -497.3099,-3.8418 c 16.7619,-2.5568 40.0762,-5.3284 51.8095,-6.1591 40.7825,-2.8873 42.7967,-3.6093 82.424,-29.547 38.1815,-24.9914 38.1815,-24.9914 23.5931,-32.4317 -8.0237,-4.0922 -35.5653,-16.7848 -61.2037,-28.2058 -25.6383,-11.421 -59.4119,-28.2968 -75.0523,-37.5016 -15.6404,-9.2049 -46.7779,-25.7333 -69.1943,-36.7299 -22.4165,-10.9965 -52.4144,-25.9966 -66.662,-33.3335 -14.2476,-7.3369 -38.2476,-18.3943 -53.3333,-24.5721 -15.0857,-6.1778 -29.6205,-12.3713 -32.2996,-13.7634 -19.9103,-10.3459 -64.1409,-27.0776 -67.834,-25.6604 -3.2573,1.2499 1.9588,7.8931 18.5301,23.6001 31.4484,29.808 80.9896,89.1919 125.0216,149.8605 75.7011,104.3034 74.3502,102.6905 84.4359,100.8175 5.1089,-0.9487 23.0031,-3.8169 39.765,-6.3736 z m 241.8319,-17.6732 c 3.0972,-0.4364 -32.3275,-22.9102 -45.5282,-28.8836 -1.4105,-0.6382 -47.4283,26.0785 -53.8397,31.258 -0.907,0.7327 93.292,-1.5183 99.3679,-2.3744 z m -10.6389,-82.5094 c 47.9217,-29.0904 140.1234,-75.7283 187.0245,-94.6016 27.2006,-10.9456 64.7674,-26.8963 83.4819,-35.446 18.7145,-8.5496 49.2596,-21.7484 67.8778,-29.3307 18.6182,-7.5823 57.8514,-25.2104 87.1847,-39.1734 29.3334,-13.9631 64.3048,-29.6896 77.7143,-34.9478 13.4095,-5.2582 45.981,-19.3702 72.381,-31.3601 48,-21.7997 48,-21.7997 47.9823,-35.6007 0,-7.5905 -1.3708,-22.0296 -3.0248,-32.0867 -1.6539,-10.0572 -5.8057,-40.9143 -9.226,-68.5715 -3.4204,-27.6571 -8.9829,-63.3142 -12.3612,-79.2381 -3.3783,-15.9238 -10.9324,-54.3238 -16.7872,-85.3333 -11.6964,-61.9511 -23.0826,-107.294 -40.9432,-163.0476 -6.4436,-20.1143 -16.0418,-51.6571 -21.3294,-70.0952 -32.8813,-114.6624 -81.4068,-249.9329 -110.4701,-307.9502 -48.9996,-97.815 -126.1644,-223.72092 -158.0708,-257.91609 -23.2454,-24.91313 -88.2893,-84.93608 -99.7623,-92.06129 -20.9204,-12.99273 -90.3187,-42.11804 -107.055,-44.92925 -49.5848,-8.32887 -79.6262,-6.59959 -121.4694,6.99215 -20.8638,6.77708 -21.8778,7.33553 -71.8232,39.55584 -38.3052,24.71107 -76.5755,62.60687 -118.6744,117.51302 -53.3973,69.64185 -103.2391,159.09492 -142.2863,255.36722 -8.8381,21.7905 -24.1621,58.1333 -34.0534,80.7619 -29.4151,67.2933 -52.8347,127.2861 -64.2444,164.5714 -5.8987,19.2762 -22.359,74.1334 -36.5785,121.9048 -14.2194,47.7714 -33.0818,110.8571 -41.9165,140.1905 -8.8347,29.3333 -21.1775,73.219 -27.4284,97.5238 -6.251,24.3047 -14.8042,56.5333 -19.007,71.619 -9.5057,34.1194 -26.5921,107.9759 -26.5499,114.7623 0.021,3.4388 1.8624,4.5692 5.775,3.546 3.8671,-1.0112 12.0818,3.8464 25.1429,14.8676 10.6696,9.0032 24.1992,19.9588 30.0659,24.3457 13.6067,10.1746 95.4618,48.211 123.4286,57.3547 11.7333,3.8362 42.5905,16.1737 68.5714,27.4167 25.981,11.2431 52.7238,22.1644 59.4286,24.2698 6.7048,2.1053 17.6762,6.948 24.3809,10.7614 6.7048,3.8134 32.7953,15.8449 57.9788,26.7366 25.1836,10.8916 88.2693,41.1452 140.1905,67.23 51.9212,26.0848 96.2124,47.5012 98.4249,47.5919 2.2126,0.091 13.9249,-5.846 26.0274,-13.1928 z m 117.7594,-769.31 c 0,-1.3625 3.6154,-9.9339 8.0341,-19.0476 4.4185,-9.1137 17.903,-37.8275 29.9654,-63.8085 12.0625,-25.9809 31.6288,-64.0531 43.4813,-84.6048 20.9515,-36.3294 21.3797,-37.4857 15.4271,-41.6549 -20.2301,-14.1699 -75.5103,-93.125 -101.4641,-144.9184 -9.6427,-19.2433 -19.6288,-36.5209 -22.1915,-38.3949 -7.1897,-5.2571 -1.5787,-10.427 11.3164,-10.427 10.923,0 20.6924,5.9135 16.5739,10.0322 -2.5664,2.5663 23.3849,46.8874 44.1344,75.3748 9.4595,12.9874 25.4278,34.9794 35.4849,48.871 10.0572,13.8916 26.1925,33.4681 35.8562,43.5033 19.2521,19.9924 19.1067,16.9329 1.8529,39.0191 -17.2547,22.0869 -86.5329,166.3732 -85.5908,178.2602 0.3955,4.9888 -1.6726,6.9265 -8.9448,8.3809 -13.134,2.6268 -23.9354,2.3626 -23.9354,-0.5854 z m -297.9048,-3.98 c -9.1257,-2.635 -13.9252,-8.7808 -6.8571,-8.7808 1.999,0 3.0476,-64.9654 3.0476,-188.801 0,-176.6323 -0.3437,-188.9949 -5.3333,-191.8102 -7.1666,-4.0436 -1.0516,-10.3794 8.6672,-8.9802 5.3376,0.7684 7.6191,3.6503 9.2521,11.6866 2.7436,13.5012 9.5582,383.2701 7.1357,387.1898 -2.0695,3.3485 -2.6305,3.3308 -15.9122,-0.5042 z m 130.8953,-67.2951 c -10.2171,-10.2171 -2.2073,-14.6286 26.5603,-14.6286 11.3169,0 21.1995,-0.6233 21.9612,-1.3851 0.7618,-0.7617 0.3015,-14.8189 -1.0229,-31.238 -1.3245,-16.4192 -1.1552,-65.5102 0.3762,-109.0912 1.5314,-43.5809 2.2664,-79.7635 1.6333,-80.4056 -0.6331,-0.6421 -5.6623,2.7865 -11.1761,7.6191 -15.3471,13.451 -55.7606,37.7389 -62.7953,37.7389 -7.2388,0 -10.3765,-3.7558 -8.098,-9.6934 0.8755,-2.2814 10.7465,-10.2909 21.9357,-17.7988 29.5513,-19.8287 54.9431,-41.4693 62.6861,-53.4251 6.5088,-10.0502 17.868,-14.1441 21.762,-7.8432 0.9069,1.4674 0.2468,51.1817 -1.4663,110.4762 -1.713,59.2944 -2.0315,118.0938 -0.707,130.6652 2.4079,22.8572 2.4079,22.8572 17.0731,23.7938 13.0429,0.833 14.5603,1.6621 13.7142,7.4941 -1.3226,9.1217 -9.6344,10.723 -57.4841,11.075 -28.4198,0.2091 -42.4355,-0.8365 -44.9524,-3.3533 z M 4315.169,4552.865 c -5.2532,-5.6235 -10.4332,-13.0042 -11.5118,-16.4017 -1.9639,-6.1882 -1.6658,-342.9605 0.3471,-391.7013 0.9801,-23.7331 1.6159,-25.9843 7.5834,-26.8541 3.5825,-0.5221 9.038,1.575 12.1231,4.6601 4.1942,4.1941 7.8937,5.066 14.6637,3.4563 4.9798,-1.1843 30.997,-3.6724 57.816,-5.5293 26.8191,-1.8566 61.1048,-4.6217 76.1905,-6.1443 15.0857,-1.5226 117.9429,-3.1887 228.5714,-3.7026 201.1429,-0.9338 201.1429,-0.9338 213.8042,5.8368 12.6617,6.7709 12.6617,6.7709 14.4442,35.0477 2.8102,44.5793 7.9845,250.6941 7.9622,317.1776 -0.03,59.2387 -0.1493,60.4583 -7.1783,67.487 -6.0197,6.0197 -9.341,6.912 -20.885,5.6107 -7.5496,-0.8509 -25.2429,-0.03 -39.318,1.8517 -14.0751,1.8695 -98.2769,4.7647 -187.115,6.4345 -88.8381,1.6695 -178.6666,4.3416 -199.619,5.938 -20.9524,1.5966 -65.1478,3.8375 -98.2117,4.9798 -60.1164,2.0772 -60.1164,2.0772 -69.667,-8.1469 z m 99.3073,-24.0604 c 47.9905,-3.6541 175.4825,-8.5373 323.0476,-12.3736 65.3714,-1.6997 128.7418,-3.9147 140.8228,-4.9225 21.9661,-1.8329 21.9661,-1.8329 21.842,-175.9086 -0.067,-95.7419 0.7921,-177.7195 1.9121,-182.1726 2.0349,-8.0909 2.0203,-8.0982 -20.3179,-10.1172 -12.295,-1.1115 -117.6685,-0.3484 -234.1638,1.6957 -253.7819,4.4532 -280.5547,4.6199 -299.8988,1.8694 -14.9461,-2.1254 -14.9461,-2.1254 -12.9463,61.1188 4.1771,132.0823 5.564,283.3386 2.7986,305.1587 -2.8498,22.4859 -2.8498,22.4859 18.7411,20.4614 11.875,-1.1136 38.0483,-3.2777 58.1626,-4.8095 z m -12.6407,-51.5934 c -21.6838,-9.5384 -7.8302,-19.6794 33.0048,-24.16 75.4795,-8.2819 275.528,-17.9517 349.0923,-16.8744 28.406,0.416 40.4483,5.6607 40.4483,17.6156 0,12.9813 -6.9845,15.2966 -48.3517,16.0271 -34.6645,0.6123 -177.4717,4.5516 -315.8388,8.7128 -29.6618,0.8918 -54.6075,0.327 -58.3549,-1.3211 z m 366.2724,-65.3977 c -3.9787,-3.9786 -10.913,-14.4938 -15.4094,-23.367 -10.6304,-20.9786 -31.9616,-43.2865 -62.2281,-65.0785 -18.4503,-13.2843 -25.5376,-16.8412 -29.3288,-14.7194 -2.7499,1.5387 -28.2066,25.0853 -56.5708,52.3258 -33.8691,32.5272 -53.1157,48.935 -56.071,47.801 -11.7721,-4.5175 0.6275,-23.6258 56.1691,-86.5591 27.3658,-31.0074 27.3823,-32.182 0.4572,-32.3682 -32.9646,-0.2285 -48.0476,4.0345 -72.4447,20.4724 -36.2919,24.4523 -57.4689,47.5109 -81.9526,89.234 -2.9352,5.0014 -4.0265,5.1889 -8.5166,1.4629 -6.8151,-5.6561 -4.3373,-16.9335 9.764,-44.4459 18.8763,-36.8274 68.6918,-81.3599 102.5527,-91.6764 23.097,-7.0369 66.8806,-8.7195 86.7438,-3.3334 16.5107,4.4772 16.5107,4.4772 35.0476,-10.8959 10.1952,-8.455 25.6414,-21.8398 34.325,-29.7441 15.7885,-14.3714 15.7885,-14.3714 -5.2117,-16.3231 -24.6013,-2.2866 -37.099,-7.1409 -35.7961,-13.9038 0.782,-4.0576 5.5762,-4.6321 31.3636,-3.7571 27.1662,0.9216 31.3109,0.348 38.5338,-5.3334 11.1351,-8.7591 14.5783,-8.0987 26.2647,5.0371 7.3911,8.3075 9.5777,13.0649 8.0548,17.5238 -1.1495,3.3664 -3.0125,21.4294 -4.1398,40.1399 -2.1827,36.2219 -5.1274,43.695 -17.2188,43.695 -9.3659,0 -13.4482,-8.2655 -13.4482,-27.2284 0,-8.491 -0.7741,-15.4383 -1.7201,-15.4383 -0.946,0 -8.146,5.4305 -16,12.068 -7.854,6.6374 -17.5211,14.5929 -21.4824,17.6789 -7.2024,5.6113 -7.2024,5.6113 20.1463,25.8965 15.0416,11.1571 34.2998,27.8912 42.7956,37.1871 15.5913,17.0593 34.1654,51.2042 34.1654,62.8065 0,18.0136 -15.7523,23.9354 -28.8445,10.8431 z m -3504.8699,105.775 c -77.3869,-0.9274 -88.8401,-1.6777 -92.0724,-6.0306 -2.471,-3.3277 -2.7399,-6.749 -0.8134,-10.3488 2.7397,-5.1191 -1.3374,-259.5725 -4.4417,-277.209 -5.57,-31.6453 -8.0808,-79.4859 -5.041,-96.054 6.1413,-33.4735 2.2237,-32.0067 90.178,-33.763 41.9048,-0.8369 132.822,-1.9734 202.0382,-2.5256 69.2162,-0.5519 126.7019,-1.8578 127.746,-2.9019 3.7796,-3.7797 12.9226,-1.7777 15.6884,3.4349 1.5564,2.9334 4.4261,32.0762 6.3772,64.7619 2.1541,36.0875 5.9767,70.2013 9.7325,86.8572 9.9673,44.2008 12.4241,182.6846 4.0201,226.6081 -4.8244,25.2151 -7.7841,30.0648 -21.9655,35.9927 -20.3665,8.5132 -160.2279,13.23 -331.4464,11.1781 z m -15.9553,-33.0962 c 7.9865,-1.0073 40.2151,-1.7387 71.6191,-1.6253 31.4039,0.1127 102.6057,-1.4336 158.2261,-3.4374 101.128,-3.6438 101.128,-3.6438 103.0828,-25.1557 2.7628,-30.4024 2.7981,-43.9122 0.299,-114.4643 -1.2172,-34.3619 -4.3352,-75.086 -6.929,-90.4981 -3.3041,-19.6325 -4.3892,-42.1541 -3.6246,-75.2247 1.0914,-47.2028 1.0914,-47.2028 -178.7181,-46.9705 -126.0342,0.1615 -182.316,-0.7869 -188.1905,-3.176 -8.3809,-3.4084 -8.3809,-3.4084 -8.3767,12.5163 0,8.7582 1.9321,26.8958 4.2886,40.3054 8.6854,49.4244 11.5145,106.0855 10.465,209.5984 -1.1705,115.4582 -5.7337,103.6301 37.8583,98.1319 z m 214.0506,-49.1548 c -3.3524,-0.7089 -9.181,-1.9474 -12.9524,-2.7523 -12.2288,-2.6094 -6.7124,-19.6328 6.3619,-19.6328 5.5656,0 5.7736,-1.532 3.6198,-26.6666 -1.2569,-14.6667 -2.7605,-36.2667 -3.3414,-48 -1.0562,-21.3334 -1.0562,-21.3334 -32.4197,-21.2361 -17.2499,0.055 -49.5728,0.7198 -71.8285,1.4814 -40.4651,1.3842 -40.4651,1.3842 -39.0161,9.0456 0.7969,4.214 2.3501,22.9986 3.4515,41.7439 1.504,25.5976 3.103,34.5045 6.4227,35.7784 6.779,2.6015 -13.1682,26.1392 -22.1519,26.1392 -3.811,0 -7.7767,-1.3715 -8.8126,-3.0477 -1.036,-1.6762 -5.8276,-3.0476 -10.6482,-3.0476 -26.0995,0 -32.6147,-14.3552 -9.1342,-20.1255 15.8397,-3.8931 15.1245,3.9817 9.1044,-100.2554 -3.9733,-68.7958 -5.145,-77.7143 -10.2109,-77.7143 -2.118,0 -6.4612,-1.9087 -9.6517,-4.2417 -4.725,-3.4551 -5.1014,-5.0843 -2.0295,-8.7857 2.9207,-3.5194 8.3937,-4.1908 24.2659,-2.9772 11.2721,0.8619 22.8985,2.8087 25.8366,4.3261 5.0139,2.5899 4.9577,3.2789 -0.9151,11.2223 -5.9978,8.1124 -6.1038,9.8742 -2.5593,42.5548 2.9891,27.5593 4.6243,34.0894 8.5341,34.0794 2.6601,0 26.7793,-2.0477 53.5984,-4.5352 26.819,-2.4878 57.3333,-4.5391 67.8095,-4.5592 19.0476,-0.037 19.0476,-0.037 19.0259,-17.5598 -0.012,-9.6381 -0.8959,-26.781 -1.9645,-38.0952 -1.5422,-16.3298 -2.9831,-20.5715 -6.9878,-20.5715 -6.624,0 -12.3593,-5.9398 -12.3593,-12.8 0,-5.0959 3.5373,-6.9994 10.4977,-5.649 1.5832,0.3072 5.9231,-1.0707 9.6441,-3.0623 5.5231,-2.9559 9.0375,-2.5722 19.138,2.0882 13.1956,6.0886 15.6531,11.2771 7.502,15.8385 -3.5745,2.0005 -4.4176,4.907 -2.9169,10.0562 1.161,3.9836 3.4231,47.4466 5.0269,96.5846 1.6039,49.138 4.2578,91.8485 5.8975,94.9123 2.2372,4.1804 1.4215,7.5535 -3.2681,13.5153 -6.0541,7.6967 -9.7264,8.6646 -22.5688,5.9489 z m 2359.1567,-657.7841 c -12.4766,-19.0418 -12.0381,-21.6993 5.1871,-31.4276 21.9169,-12.3779 43.3325,-32.3444 70.3354,-65.5753 22.8257,-28.0903 23.1061,-28.3063 42.9101,-33.0448 10.9641,-2.6231 19.9345,-4.1252 19.9345,-3.338 0,0.7872 -4.2795,6.8349 -9.5104,13.4391 -5.2306,6.6041 -8.9835,12.5342 -8.3398,13.1782 0.6436,0.6436 8.6948,-3.6337 17.8913,-9.5053 9.1965,-5.8715 24.2713,-14.5404 33.4998,-19.2646 9.2285,-4.7238 26.9912,-16.479 39.4724,-26.1226 23.5021,-18.159 45.7079,-29.5574 64.1296,-32.9192 10.6666,-1.9468 10.6666,-1.9468 0,7.2095 -18.7359,16.0829 -52.9253,41.404 -65.9289,48.8277 -6.9275,3.9549 -15.0711,11.7873 -18.0964,17.4049 -3.0254,5.618 -13.8146,16.4797 -23.976,24.1372 -26.9366,20.2996 -118.7968,80.7406 -142.2832,93.618 -20.189,11.0692 -20.189,11.0692 -25.2255,3.3828 z M 2033.5782,3674.7237 c -18.9931,-12.5111 -18.9931,-12.5111 -6.0952,-18.5816 15.2044,-7.1558 14.7677,-7.208 30.8346,3.673 6.8968,4.6707 15.0536,9.4095 18.1263,10.5307 6.1597,2.2473 5.1414,10.208 -1.117,8.7314 -2.1511,-0.5074 -4.7363,0.4124 -5.7448,2.0441 -4.9889,8.0725 -17.3789,5.8706 -36.0039,-6.3976 z m -71.7594,-48.9527 c -7.0765,-5.0883 -22.4664,-17.0197 -34.1997,-26.5143 -11.7334,-9.4945 -50.7105,-39.5672 -86.6159,-66.8285 -35.9054,-27.2612 -78.4196,-60.8859 -94.4762,-74.7215 -16.0565,-13.8356 -42.4782,-34.7718 -58.7149,-46.5246 -29.5212,-21.3687 -29.5212,-21.3687 -14.8082,-28.2597 14.7132,-6.8913 14.7132,-6.8913 38.6641,10.6889 13.1731,9.6692 37.6654,29.483 54.4273,44.0308 16.7619,14.5475 55.1619,45.4781 85.3333,68.7348 30.1714,23.2567 71.8539,55.8324 92.6278,72.3907 20.7738,16.558 43.0595,33.6058 49.5238,37.8837 10.8732,7.1955 14.9497,12.8774 9.4674,13.1959 -1.2571,0.073 -8.1529,1.2672 -15.324,2.6539 -11.7364,2.2698 -14.3231,1.5975 -25.9048,-6.7301 z m 2001.1524,-33.39 c 20.6772,-29.0344 46.7383,-82.9272 54.897,-113.5238 4.0229,-15.0857 12.4014,-46.6286 18.6192,-70.0952 6.2174,-23.4667 11.7824,-43.1549 12.3663,-43.7514 0.5839,-0.5967 7.4176,1.3425 15.186,4.3094 11.9274,4.5552 13.8349,6.3829 12.2657,11.7513 -1.0221,3.4965 -8.5775,32.4145 -16.7893,64.2621 -17.1892,66.6645 -19.0007,71.5465 -42.0453,113.3184 -17.1197,31.0327 -17.1197,31.0327 -40.2877,41.9047 -12.7424,5.9798 -24.2051,10.8721 -25.4723,10.8721 -1.2675,0 3.7998,-8.5714 11.2604,-19.0476 z m 169.4327,-39.0251 c -2.422,-1.5326 -7.4085,-2.8074 -11.0812,-2.833 -3.6724,-0.03 -7.3505,-1.1362 -8.1734,-2.4677 -1.7676,-2.8599 23.7126,-23.6065 56.6141,-46.0964 23.0074,-15.727 23.7099,-15.9744 35.0476,-12.3496 6.3635,2.0343 12.6376,4.6693 13.9426,5.8554 1.305,1.1861 -11.7236,11.5047 -28.9524,22.93 -17.2288,11.4252 -36.2002,24.5924 -42.1592,29.2605 -7.6237,5.9721 -12.139,7.6614 -15.2381,5.7008 z m -694.6896,-46.122 c -29.9386,-3.588 -82.4055,-16.91 -93.7371,-23.8013 -7.5523,-4.5931 -9.2626,-8.0043 -10.916,-21.7728 -2.9446,-24.5202 -2.4109,-60.2115 1.2038,-80.5285 4.0857,-22.9638 19.5697,-71.4566 28.5898,-89.5369 3.8086,-7.634 9.439,-20.7372 12.5123,-29.1182 10.7273,-29.2534 36.4492,-60.5223 74.5377,-90.6118 27.0495,-21.369 54.3726,-32.2487 143.2381,-57.0356 30.2175,-8.4285 109.9115,-18.4469 146.7429,-18.4475 29.4095,-3e-4 29.4095,-3e-4 40.472,11.0622 11.0629,11.0629 11.0629,11.0629 9.1728,34.2858 -1.0396,12.7728 -3.7565,31.4517 -6.038,41.5088 -2.2814,10.0572 -6.4024,29.7981 -9.1584,43.8684 -2.7556,14.0705 -6.8059,30.6727 -9.0008,36.8935 -2.1949,6.2208 -6.2452,22.8231 -9.0005,36.8936 -2.7554,14.0703 -9.9088,40.1884 -15.8964,58.0395 -9.7515,29.0718 -13.2636,35.3624 -33.6762,60.3166 -26.6493,32.5782 -66.3634,64.1789 -80.6565,64.1789 -4.9393,0 -11.8226,1.5211 -15.2963,3.3801 -10.9019,5.8344 -58.7456,17.5644 -85.1401,20.8741 -28.9051,3.6242 -55.0799,3.4907 -87.9531,-0.4489 z m 55.8016,-71.9089 c 8.0622,-24.6668 21.2934,-60.6004 29.4022,-79.8525 14.0167,-33.2779 14.5442,-35.5319 10.6978,-45.7143 -19.7888,-52.3843 -41.9672,-106.9211 -43.9896,-108.171 -2.831,-1.7496 -47.9235,36.9792 -64.431,55.3381 -20.4504,22.7438 -36.8347,50.2196 -48.4717,81.2846 -11.6913,31.21 -23.279,82.2613 -24.9564,109.9508 -0.91,15.0177 -0.91,15.0177 29.5662,20.2636 16.7619,2.8852 44.8762,6.5417 62.4762,8.1255 17.6,1.5839 32.6857,3.0471 33.5238,3.2519 0.8381,0.2041 8.1204,-19.8099 16.1825,-44.4767 z m 74.0322,32.4413 c 16.8436,-4.2246 25.5948,-7.8778 25.5948,-10.6843 0,-2.3458 -5.2553,-14.863 -11.6785,-27.8163 -6.4234,-12.9533 -14.8656,-31.7799 -18.7611,-41.8371 -3.8952,-10.0571 -8.1308,-19.4794 -9.412,-20.9383 -1.2815,-1.4589 -5.4683,4.7125 -9.3044,13.7142 -3.8357,9.0018 -15.6019,33.9231 -26.147,55.3805 -10.5454,21.4573 -19.1732,39.8256 -19.1732,40.8186 0,3.2704 42.8035,-2.0968 68.8814,-8.6373 z m 93.8828,-58.2424 c 31.0354,-33.785 56.6626,-83.8184 66.9888,-130.7853 2.3351,-10.6203 6.3083,-27.5386 8.829,-37.5957 8.1984,-32.707 17.1026,-75.8516 18.809,-91.1354 1.6685,-14.9452 1.6685,-14.9452 -44.0147,-12.8838 -25.1258,1.134 -49.5317,2.8312 -54.2357,3.772 -11.1153,2.223 -18.2287,15.008 -47.2966,85.0091 -12.5288,30.1714 -26.5914,63.5441 -31.25,74.1614 -8.4706,19.3045 -8.4706,19.3045 -2.8258,35.0476 3.1044,8.6589 15.1104,31.5148 26.6798,50.791 28.2566,47.0796 29.3778,48.7619 32.5038,48.7619 1.4936,0 13.1093,-11.3143 25.8124,-25.1428 z m -101.8118,-140.5498 c 0,-3.7712 2.0136,-9.5187 4.4745,-12.7726 2.461,-3.2536 4.5181,-9.2721 4.5714,-13.3742 0.052,-4.1021 6.3391,-25.8596 13.9685,-48.3505 7.6297,-22.4908 13.3239,-41.44 12.6543,-42.1095 -4.5845,-4.5849 -86.0343,29.5896 -83.8753,35.1921 6.7977,17.6387 44.2176,90.7044 45.9209,89.6655 1.2571,-0.7668 2.2857,-4.4797 2.2857,-8.2508 z m 201.8054,-763.8222 c -12.4541,-13.3678 -114.3012,-41.23 -188.0911,-51.4558 -54.7285,-7.5842 -143.4819,-18.8811 -169.4309,-21.5657 -15.2122,-1.5739 -29.5177,-4.4044 -31.7897,-6.2902 -5.4455,-4.5192 -2.3244,-12.1259 4.9752,-12.1259 3.1729,0 5.7692,-2.0962 5.7692,-4.6583 0,-14.3938 45.5061,-85.5838 85.6606,-134.0083 45.6202,-55.0157 122.8465,-126.3467 150.5299,-139.039 6.7593,-3.099 19.2716,-5.6189 28.0844,-5.656 19.5569,-0.082 30.3482,8.2911 50.9126,39.5061 27.6699,41.9999 43.5322,78.011 58.0398,131.762 19.1607,70.9916 19.6638,73.6538 24.1615,127.828 3.0202,36.3793 5.2523,49.7022 9.0261,53.8721 8.4959,9.3879 6.3342,18.5337 -5.5552,23.5013 -13.7133,5.7298 -15.5245,5.5941 -22.2924,-1.6703 z m -12.9609,-79.0825 c -1.9633,-20.3548 -5.2864,-44.8331 -7.385,-54.3962 -7.3944,-33.6951 -26.3323,-102.9177 -32.6881,-119.4827 -10.2544,-26.7254 -45.0411,-93.3139 -52.267,-100.0486 -6.5996,-6.1509 -6.5996,-6.1509 -24.8854,4.6281 -51.1631,30.1596 -147.7092,130.5982 -212.1776,220.7324 -11.5307,16.1215 -20.9652,30.0616 -20.9652,30.978 0,0.9165 10.6286,2.5482 23.619,3.6261 105.7866,8.778 220.0753,21.0727 241.5238,25.982 14.2477,3.2611 39.6191,10.513 56.381,16.1151 16.7619,5.6022 30.9123,9.8908 31.445,9.5302 0.5331,-0.3606 -0.6372,-17.3095 -2.6005,-37.6644 z"
         id="path282" />
    </g>
  </g>
</svg>
