<?xml version="1.0" encoding="UTF-8" standalone="no"?>
<svg
   xmlns:dc="http://purl.org/dc/elements/1.1/"
   xmlns:cc="http://creativecommons.org/ns#"
   xmlns:rdf="http://www.w3.org/1999/02/22-rdf-syntax-ns#"
   xmlns:svg="http://www.w3.org/2000/svg"
   xmlns="http://www.w3.org/2000/svg"
   xmlns:sodipodi="http://sodipodi.sourceforge.net/DTD/sodipodi-0.dtd"
   xmlns:inkscape="http://www.inkscape.org/namespaces/inkscape"
   width="210mm"
   height="297mm"
   viewBox="0 0 210 297"
   version="1.1"
   id="svg8"
   sodipodi:docname="dot.svg"
   inkscape:version="1.0.1 (0767f8302a, 2020-10-17)">
  <defs
     id="defs2">
    <clipPath
       clipPathUnits="userSpaceOnUse"
       id="clipPath2539">
      <rect
         style="fill:#1dff00;stroke:#1dff00;stroke-width:1"
         id="rect2541"
         width="83.866058"
         height="51.19297"
         x="222.7473"
         y="161.6192" />
    </clipPath>
    <clipPath
       clipPathUnits="userSpaceOnUse"
       id="clipPath2543">
      <rect
         style="fill:#1dff00;stroke:#1dff00;stroke-width:1"
         id="rect2545"
         width="83.866058"
         height="51.19297"
         x="222.7473"
         y="161.6192" />
    </clipPath>
    <clipPath
       clipPathUnits="userSpaceOnUse"
       id="clipPath2547">
      <rect
         style="fill:#1dff00;stroke:#1dff00;stroke-width:1"
         id="rect2549"
         width="83.866058"
         height="51.19297"
         x="222.7473"
         y="161.6192" />
    </clipPath>
    <clipPath
       clipPathUnits="userSpaceOnUse"
       id="clipPath2551">
      <rect
         style="fill:#1dff00;stroke:#1dff00;stroke-width:1"
         id="rect2553"
         width="83.866058"
         height="51.19297"
         x="222.7473"
         y="161.6192" />
    </clipPath>
    <clipPath
       clipPathUnits="userSpaceOnUse"
       id="clipPath2555">
      <rect
         style="fill:#1dff00;stroke:#1dff00;stroke-width:1"
         id="rect2557"
         width="83.866058"
         height="51.19297"
         x="222.7473"
         y="161.6192" />
    </clipPath>
    <clipPath
       clipPathUnits="userSpaceOnUse"
       id="clipPath2559">
      <rect
         style="fill:#1dff00;stroke:#1dff00;stroke-width:1"
         id="rect2561"
         width="83.866058"
         height="51.19297"
         x="222.7473"
         y="161.6192" />
    </clipPath>
    <clipPath
       clipPathUnits="userSpaceOnUse"
       id="clipPath2563">
      <rect
         style="fill:#1dff00;stroke:#1dff00;stroke-width:1"
         id="rect2565"
         width="83.866058"
         height="51.19297"
         x="222.7473"
         y="161.6192" />
    </clipPath>
  </defs>
  <sodipodi:namedview
     id="base"
     pagecolor="#ffffff"
     bordercolor="#666666"
     borderopacity="1.0"
     inkscape:pageopacity="0.0"
     inkscape:pageshadow="2"
     inkscape:zoom="0.7"
     inkscape:cx="182.07673"
     inkscape:cy="509.10881"
     inkscape:document-units="mm"
     inkscape:current-layer="layer1"
     inkscape:document-rotation="0"
     showgrid="false"
     inkscape:window-width="1439"
     inkscape:window-height="1023"
     inkscape:window-x="117"
     inkscape:window-y="27"
     inkscape:window-maximized="0" />
  <metadata
     id="metadata5">
    <rdf:RDF>
      <cc:Work
         rdf:about="">
        <dc:format>image/svg+xml</dc:format>
        <dc:type
           rdf:resource="http://purl.org/dc/dcmitype/StillImage" />
      </cc:Work>
    </rdf:RDF>
  </metadata>
  <g
     inkscape:label="Layer 1"
     inkscape:groupmode="layer"
     id="layer1">
    <g
       id="g2503"
       transform="translate(-30.175553,22.724803)">
      <path
         style="fill:#dbe842;stroke-width:0.254"
         d="m 260.81678,205.89917 c -0.0892,-0.093 -1.918,-0.28063 -4.064,-0.41698 -6.71816,-0.42688 -6.93511,-0.4978 -7.20945,-2.3568 -0.0853,-0.57763 -0.19317,-5.45079 -0.23982,-10.82924 -0.0466,-5.37845 -0.16174,-10.0673 -0.25574,-10.41966 -0.24739,-0.92732 0.62244,-1.89924 2.15541,-2.40841 1.22736,-0.40766 1.26678,-0.45118 1.26678,-1.3982 0,-1.05861 -0.51276,-1.77573 -1.2697,-1.77573 -0.25928,0 -0.72213,-0.31433 -1.02855,-0.6985 -0.53255,-0.66768 -0.54976,-0.84962 -0.39003,-4.12294 0.11238,-2.3031 0.28659,-3.60681 0.53202,-3.98139 0.536,-0.81804 2.29602,-0.95118 9.14652,-0.69189 5.26882,0.19942 5.96899,0.27628 6.44534,0.70759 0.49693,0.44993 0.5344,0.74515 0.5344,4.21022 0,3.5667 -0.0252,3.75002 -0.58787,4.27863 -0.32332,0.30375 -0.8405,0.55228 -1.14928,0.55228 -0.36893,0 -0.64635,0.22338 -0.80913,0.65153 -0.41965,1.10375 -0.28499,1.50934 0.75839,2.28424 0.55335,0.41098 1.11847,1.03298 1.25581,1.38223 0.13734,0.34925 0.32007,3.43535 0.40607,6.858 0.086,3.42265 0.17409,6.73735 0.19575,7.366 0.0217,0.62865 -0.0254,2.7432 -0.10459,4.699 -0.11839,2.92433 -0.23896,3.74219 -0.67874,4.60417 -0.29412,0.57649 -0.73966,1.12769 -0.99008,1.22487 -0.6672,0.25892 -3.73005,0.47849 -3.91951,0.28098 z m 3.9561,-10.5991 c 0.61064,-1.22406 0.53092,-1.57933 -0.2409,-1.07361 -0.66308,0.43446 -1.05723,1.39717 -0.76538,1.86939 0.23423,0.37899 0.54142,0.13607 1.00628,-0.79578 z m 16.35296,10.58424 c -0.0952,-0.0968 -1.80972,-0.27514 -3.81,-0.39621 -5.33002,-0.3226 -6.98957,-0.56084 -7.50677,-1.07765 -0.4087,-0.4084 -0.46326,-1.41309 -0.62049,-11.42454 -0.0948,-6.03722 -0.19131,-11.26251 -0.21444,-11.61176 -0.0492,-0.74295 0.75664,-1.43661 2.36427,-2.0351 1.03648,-0.38586 1.06794,-0.43055 0.98823,-1.40422 -0.0851,-1.03914 -0.57812,-1.64068 -1.34479,-1.64068 -0.24256,0 -0.69172,-0.31433 -0.99814,-0.6985 -0.53254,-0.66768 -0.54976,-0.84962 -0.39003,-4.12294 0.11238,-2.3031 0.28659,-3.60681 0.53202,-3.98139 0.536,-0.81804 2.29602,-0.95118 9.14652,-0.69189 5.26882,0.19942 5.969,0.27628 6.44535,0.70759 0.49692,0.44993 0.5344,0.74515 0.5344,4.21022 0,3.538 -0.0289,3.75315 -0.5715,4.25637 -0.31433,0.2915 -0.85725,0.5686 -1.2065,0.61577 -0.49684,0.0671 -0.68665,0.29487 -0.87238,1.04678 -0.23208,0.93956 -0.2094,0.98561 1.016,2.06347 l 1.25338,1.10246 0.19211,6.95353 c 0.10566,3.82444 0.20673,7.18213 0.2246,7.46153 0.0179,0.2794 -0.0281,2.16535 -0.10205,4.191 -0.14015,3.83667 -0.63697,5.82419 -1.54277,6.17177 -0.67249,0.25806 -3.33593,0.48858 -3.51702,0.30439 z m 3.35091,-10.34966 c 0.56769,-0.93109 0.66754,-1.81014 0.18772,-1.65259 -0.50146,0.16465 -1.44663,1.7107 -1.29207,2.11348 0.22023,0.5739 0.55984,0.43217 1.10435,-0.46089 z m 33.77922,10.08229 c -1.18745,-0.18068 -2.98301,-0.33712 -3.99013,-0.34765 -2.29323,-0.024 -5.51775,-0.49276 -6.04591,-0.87895 -0.62264,-0.45529 -0.83668,-2.86792 -0.73493,-8.28419 0.0512,-2.72415 -0.005,-7.29615 -0.12522,-10.16 -0.25012,-5.96676 -0.30971,-5.75926 1.94269,-6.76447 1.14784,-0.51227 1.3335,-0.69379 1.3335,-1.30381 0,-0.89787 -0.64745,-1.83772 -1.26597,-1.83772 -0.26134,0 -0.72587,-0.31433 -1.03229,-0.6985 -0.53254,-0.66768 -0.54975,-0.84962 -0.39003,-4.12294 0.11238,-2.3031 0.28659,-3.60681 0.53203,-3.98139 0.536,-0.81804 2.29602,-0.95118 9.14651,-0.69189 5.26882,0.19942 5.969,0.27628 6.44535,0.70759 0.49693,0.44993 0.5344,0.74515 0.5344,4.21022 0,3.5667 -0.0252,3.75002 -0.58787,4.27863 -0.32333,0.30375 -0.76654,0.55228 -0.9849,0.55228 -0.5312,0 -0.9313,0.51881 -1.11729,1.4488 -0.13542,0.67708 -0.0462,0.83147 0.77346,1.33803 1.69061,1.04486 1.71098,1.13221 1.85311,7.94749 0.0706,3.38617 0.10051,8.44268 0.0664,11.23668 -0.0612,5.01794 -0.0701,5.09219 -0.73095,6.07796 -0.5658,0.84404 -0.88447,1.04806 -2.06599,1.32274 -0.76835,0.17863 -1.397,0.31461 -1.397,0.30218 0,-0.0124 -0.97155,-0.17041 -2.159,-0.35109 z m 4.66284,-10.68524 c 0.24141,-0.50625 0.36716,-0.99202 0.27944,-1.0795 -0.21358,-0.21298 -1.38628,1.16853 -1.38628,1.63311 0,0.69807 0.66969,0.36311 1.10684,-0.55361 z m -23.96684,10.57548 c -0.62865,-0.12066 -2.1717,-0.23688 -3.429,-0.25827 -2.68412,-0.0457 -5.47047,-0.49367 -6.04549,-0.97203 -0.63327,-0.52683 -0.71467,-1.77737 -0.79641,-12.23473 -0.042,-5.37845 -0.16171,-10.09235 -0.26596,-10.47532 -0.15737,-0.57815 -0.0593,-0.81798 0.57785,-1.41316 0.42205,-0.39426 1.23529,-0.85703 1.80719,-1.02838 0.9854,-0.29523 1.03982,-0.36322 1.03982,-1.29919 0,-1.06899 -0.50972,-1.78595 -1.26971,-1.78595 -0.25928,0 -0.72213,-0.31433 -1.02855,-0.6985 -0.53254,-0.66768 -0.54975,-0.84962 -0.39003,-4.12294 0.11238,-2.3031 0.28659,-3.60681 0.53202,-3.98139 0.53458,-0.81586 2.24504,-0.94504 9.12343,-0.68902 5.29379,0.19703 5.99142,0.27304 6.4683,0.70472 0.4971,0.44998 0.53454,0.74482 0.53454,4.21022 0,3.5667 -0.0252,3.75002 -0.58787,4.27863 -0.32333,0.30375 -0.77405,0.55228 -1.0016,0.55228 -0.52404,0 -1.20453,0.95535 -1.20453,1.69104 0,0.36408 0.35267,0.81381 1.00139,1.27699 0.55076,0.39323 1.12226,0.97752 1.27,1.29842 0.15899,0.34535 0.26939,2.5739 0.27052,5.461 10e-4,2.68265 0.11299,5.56335 0.24874,6.40155 0.15458,0.95446 0.16404,3.23262 0.0253,6.096 -0.22326,4.60818 -0.50723,5.97431 -1.395,6.7111 -0.47925,0.39774 -3.94409,0.57268 -5.48498,0.27693 z m 5.17084,-10.57548 c 0.24141,-0.50625 0.36716,-0.99202 0.27944,-1.0795 -0.21358,-0.21298 -1.38628,1.16853 -1.38628,1.63311 0,0.69807 0.66969,0.36311 1.10684,-0.55361 z m -62.10808,10.19255 c -0.0819,-0.0819 -1.84926,-0.25781 -3.92737,-0.39083 -5.634,-0.36062 -7.13678,-0.57383 -7.64829,-1.08512 -0.41152,-0.41135 -0.45323,-1.30267 -0.51084,-10.91654 -0.0352,-5.87658 -0.17014,-10.77918 -0.3076,-11.17662 -0.46807,-1.35334 0.13612,-2.10344 2.40233,-2.98252 0.97386,-0.37777 1.01259,-0.43583 0.93368,-1.39979 -0.0851,-1.03914 -0.57812,-1.64068 -1.34479,-1.64068 -0.24256,0 -0.69172,-0.31433 -0.99815,-0.6985 -0.53254,-0.66768 -0.54975,-0.84962 -0.39003,-4.12294 0.11238,-2.3031 0.2866,-3.60681 0.53203,-3.98139 0.536,-0.81804 2.29602,-0.95118 9.14652,-0.69189 5.26882,0.19942 5.96899,0.27628 6.44534,0.70759 0.49693,0.44993 0.5344,0.74515 0.5344,4.21022 0,3.5667 -0.0252,3.75002 -0.58787,4.27863 -0.32333,0.30375 -0.83366,0.55228 -1.13406,0.55228 -1.02543,0 -1.5646,2.34944 -0.60879,2.6528 0.2548,0.0809 0.7882,0.48619 1.18533,0.9007 l 0.72205,0.75365 0.19466,7.68893 c 0.26288,10.38317 0.18063,13.7042 -0.3808,15.37483 -0.24692,0.73476 -0.63943,1.43481 -0.87223,1.55567 -0.54782,0.28439 -3.19132,0.60572 -3.38552,0.41152 z m 3.09202,-10.3516 c 0.52031,-0.85338 0.66626,-1.7145 0.29058,-1.7145 -0.51845,0 -1.6908,1.87432 -1.43312,2.29125 0.27455,0.44423 0.62918,0.26521 1.14254,-0.57675 z"
         id="path2517"
         clip-path="url(#clipPath2563)"
         transform="translate(-150.30974,-130.06575)" />
      <path
         style="fill:#33d4fb;stroke-width:0.254"
         d="m 318.25597,205.61694 c -1.18745,-0.18068 -2.98301,-0.33712 -3.99013,-0.34765 -2.29323,-0.024 -5.51775,-0.49276 -6.04591,-0.87895 -0.62264,-0.45529 -0.83668,-2.86792 -0.73493,-8.28419 0.0512,-2.72415 -0.005,-7.29615 -0.12522,-10.16 -0.25012,-5.96676 -0.30971,-5.75926 1.94269,-6.76447 1.14784,-0.51227 1.3335,-0.69379 1.3335,-1.30381 0,-0.89787 -0.64745,-1.83772 -1.26597,-1.83772 -0.26134,0 -0.72587,-0.31433 -1.03229,-0.6985 -0.53254,-0.66768 -0.54975,-0.84962 -0.39003,-4.12294 0.11238,-2.3031 0.28659,-3.60681 0.53203,-3.98139 0.536,-0.81804 2.29602,-0.95118 9.14651,-0.69189 5.26882,0.19942 5.969,0.27628 6.44535,0.70759 0.49693,0.44993 0.5344,0.74515 0.5344,4.21022 0,3.5667 -0.0252,3.75002 -0.58787,4.27863 -0.32333,0.30375 -0.76654,0.55228 -0.9849,0.55228 -0.5312,0 -0.9313,0.51881 -1.11729,1.4488 -0.13542,0.67708 -0.0462,0.83147 0.77346,1.33803 1.69061,1.04486 1.71098,1.13221 1.85311,7.94749 0.0706,3.38617 0.10051,8.44268 0.0664,11.23668 -0.0612,5.01794 -0.0701,5.09219 -0.73095,6.07796 -0.5658,0.84404 -0.88447,1.04806 -2.06599,1.32274 -0.76835,0.17863 -1.397,0.31461 -1.397,0.30218 0,-0.0124 -0.97155,-0.17041 -2.159,-0.35109 z m 4.66284,-10.68524 c 0.24141,-0.50625 0.36716,-0.99202 0.27944,-1.0795 -0.21358,-0.21298 -1.38628,1.16853 -1.38628,1.63311 0,0.69807 0.66969,0.36311 1.10684,-0.55361 z m -62.44785,10.57131 c -0.8382,-0.10875 -2.55841,-0.21013 -3.8227,-0.2253 -1.4574,-0.0175 -2.41407,-0.14294 -2.61393,-0.3428 -0.20488,-0.20488 -0.88245,-0.28607 -1.93548,-0.23192 -2.57258,0.1323 -2.45045,0.66957 -2.55296,-11.23111 -0.0475,-5.51248 -0.1656,-10.55121 -0.26247,-11.19719 -0.21802,-1.45388 0.12431,-1.89958 2.06357,-2.68667 1.19293,-0.48417 1.37359,-0.64829 1.35166,-1.22787 -0.0527,-1.3912 -0.33692,-1.8942 -1.12431,-1.98943 -0.41546,-0.0503 -1.02868,-0.39891 -1.36272,-0.77479 -0.59726,-0.67211 -0.60448,-0.74035 -0.43509,-4.11555 0.11551,-2.30169 0.29244,-3.61555 0.53717,-3.98906 0.536,-0.81804 2.29602,-0.95118 9.14652,-0.69189 5.26882,0.19942 5.96899,0.27628 6.44534,0.70759 0.49693,0.44993 0.5344,0.74515 0.5344,4.21022 0,3.62572 -0.0168,3.74214 -0.62207,4.31077 -0.34214,0.32142 -0.78823,0.52065 -0.99131,0.44272 -0.57306,-0.2199 -1.13225,0.36704 -1.31394,1.37912 -0.15676,0.87325 -0.10485,0.9641 1.0073,1.76279 0.6538,0.46952 1.248,1.12975 1.34303,1.49229 0.0937,0.35762 0.1762,5.33652 0.18322,11.06422 0.0116,9.45748 -0.0299,10.53648 -0.45214,11.7475 -0.2557,0.73342 -0.54145,1.35139 -0.635,1.37325 -0.0935,0.0219 -0.45584,0.0687 -0.80509,0.10414 -0.34925,0.0354 -0.9779,0.1189 -1.397,0.18554 -0.4191,0.0666 -1.4478,0.0322 -2.286,-0.0766 z m -4.3314,-1.24717 c 0.079,-0.12777 0.004,-0.27873 -0.16593,-0.33547 -0.48794,-0.16265 -1.48059,0.0939 -1.32672,0.34282 0.18279,0.29576 1.30874,0.29021 1.49265,-0.007 z m 8.37847,-0.54712 c 0.45104,-0.43399 -0.0926,-0.55081 -1.53852,-0.33065 -0.84822,0.12915 -1.50023,0.36694 -1.56802,0.57187 -0.0943,0.28505 0.16375,0.3167 1.37671,0.16884 0.82102,-0.10007 1.59944,-0.2846 1.72983,-0.41006 z m -0.20901,-7.28896 c 0.42026,-0.27805 1.11494,-1.73663 1.11494,-2.34097 0,-0.72718 -0.69923,-0.93898 -1.16869,-0.354 -1.29111,1.6088 -1.25221,3.55899 0.0537,2.69497 z m -4.50987,-5.499 c 1.44661,-0.0552 2.74405,-0.21424 2.8832,-0.3534 0.38811,-0.38811 -0.0284,-1.80132 -0.64596,-2.19189 -0.30218,-0.1911 -0.92339,-0.42546 -1.38046,-0.52079 -0.61879,-0.12906 -0.9189,-0.38364 -1.1751,-0.99681 -0.46057,-1.10231 -2.5938,-3.8831 -3.36795,-4.39035 -0.53114,-0.34801 -0.81466,-0.36303 -1.97027,-0.10442 -0.81526,0.18245 -1.58158,0.54874 -1.93495,0.92489 -0.643,0.68444 -1.16366,2.73137 -1.41993,5.58231 l -0.16011,1.78115 0.73067,0.30495 c 0.47843,0.19968 1.60753,0.26349 3.27067,0.18485 1.397,-0.0661 3.72359,-0.16528 5.17019,-0.22049 z m 5.20867,-0.27561 c -0.0804,-0.20955 -0.19113,-0.381 -0.24603,-0.381 -0.0549,0 -0.0998,0.17145 -0.0998,0.381 0,0.20955 0.11072,0.381 0.24603,0.381 0.13532,0 0.18024,-0.17145 0.0998,-0.381 z m 33.94415,14.86203 c -0.62865,-0.12066 -2.1717,-0.23688 -3.429,-0.25827 -2.68412,-0.0457 -5.47047,-0.49367 -6.04549,-0.97203 -0.63327,-0.52683 -0.71467,-1.77737 -0.79641,-12.23473 -0.042,-5.37845 -0.16171,-10.09235 -0.26596,-10.47532 -0.15737,-0.57815 -0.0593,-0.81798 0.57785,-1.41316 0.42205,-0.39426 1.23529,-0.85703 1.80719,-1.02838 0.9854,-0.29523 1.03982,-0.36322 1.03982,-1.29919 0,-1.06899 -0.50972,-1.78595 -1.26971,-1.78595 -0.25928,0 -0.72213,-0.31433 -1.02855,-0.6985 -0.53254,-0.66768 -0.54975,-0.84962 -0.39003,-4.12294 0.11238,-2.3031 0.28659,-3.60681 0.53202,-3.98139 0.53458,-0.81586 2.24504,-0.94504 9.12343,-0.68902 5.29379,0.19703 5.99142,0.27304 6.4683,0.70472 0.4971,0.44998 0.53454,0.74482 0.53454,4.21022 0,3.5667 -0.0252,3.75002 -0.58787,4.27863 -0.32333,0.30375 -0.77405,0.55228 -1.0016,0.55228 -0.52404,0 -1.20453,0.95535 -1.20453,1.69104 0,0.36408 0.35267,0.81381 1.00139,1.27699 0.55076,0.39323 1.12226,0.97752 1.27,1.29842 0.15899,0.34535 0.26939,2.5739 0.27052,5.461 10e-4,2.68265 0.11299,5.56335 0.24874,6.40155 0.15458,0.95446 0.16404,3.23262 0.0253,6.096 -0.22326,4.60818 -0.50723,5.97431 -1.395,6.7111 -0.47925,0.39774 -3.94409,0.57268 -5.48498,0.27693 z m 5.17084,-10.57548 c 0.24141,-0.50625 0.36716,-0.99202 0.27944,-1.0795 -0.21358,-0.21298 -1.38628,1.16853 -1.38628,1.63311 0,0.69807 0.66969,0.36311 1.10684,-0.55361 z m -62.10808,10.19255 c -0.0819,-0.0819 -1.84926,-0.25781 -3.92737,-0.39083 -5.634,-0.36062 -7.13678,-0.57383 -7.64829,-1.08512 -0.41152,-0.41135 -0.45323,-1.30267 -0.51084,-10.91654 -0.0352,-5.87658 -0.17014,-10.77918 -0.3076,-11.17662 -0.46807,-1.35334 0.13612,-2.10344 2.40233,-2.98252 0.97386,-0.37777 1.01259,-0.43583 0.93368,-1.39979 -0.0851,-1.03914 -0.57812,-1.64068 -1.34479,-1.64068 -0.24256,0 -0.69172,-0.31433 -0.99815,-0.6985 -0.53254,-0.66768 -0.54975,-0.84962 -0.39003,-4.12294 0.11238,-2.3031 0.2866,-3.60681 0.53203,-3.98139 0.536,-0.81804 2.29602,-0.95118 9.14652,-0.69189 5.26882,0.19942 5.96899,0.27628 6.44534,0.70759 0.49693,0.44993 0.5344,0.74515 0.5344,4.21022 0,3.5667 -0.0252,3.75002 -0.58787,4.27863 -0.32333,0.30375 -0.83366,0.55228 -1.13406,0.55228 -1.02543,0 -1.5646,2.34944 -0.60879,2.6528 0.2548,0.0809 0.7882,0.48619 1.18533,0.9007 l 0.72205,0.75365 0.19466,7.68893 c 0.26288,10.38317 0.18063,13.7042 -0.3808,15.37483 -0.24692,0.73476 -0.63943,1.43481 -0.87223,1.55567 -0.54782,0.28439 -3.19132,0.60572 -3.38552,0.41152 z m 3.09202,-10.3516 c 0.52031,-0.85338 0.66626,-1.7145 0.29058,-1.7145 -0.51845,0 -1.6908,1.87432 -1.43312,2.29125 0.27455,0.44423 0.62918,0.26521 1.14254,-0.57675 z m 30.54072,-17.53221 c -1.90517,-0.17464 -2.6035,-0.33108 -2.6035,-0.58321 0,-0.24447 -0.34594,-0.3376 -1.19108,-0.32063 -1.01011,0.0203 -1.28569,-0.0861 -1.81384,-0.7001 -0.6156,-0.71568 -0.62078,-0.76349 -0.45052,-4.15612 0.11551,-2.30169 0.29244,-3.61555 0.53717,-3.98906 0.536,-0.81804 2.29602,-0.95118 9.14652,-0.69189 5.26882,0.19942 5.969,0.27628 6.44535,0.70759 0.49648,0.44953 0.5344,0.74574 0.5344,4.17462 0,3.42468 -0.0393,3.73259 -0.54499,4.27088 -0.48838,0.51985 -0.70093,0.56381 -2.04629,0.42319 l -1.50132,-0.15692 0.15853,0.63164 0.15853,0.63163 -2.11273,-0.002 c -1.162,-7.6e-4 -3.28431,-0.10888 -4.71623,-0.24014 z"
         id="path2515"
         clip-path="url(#clipPath2559)"
         transform="translate(-150.30974,-130.06575)" />
      <path
         style="fill:#fd6c8b;stroke-width:0.254"
         d="m 318.25597,205.61694 c -1.18745,-0.18068 -2.98301,-0.33712 -3.99013,-0.34765 -2.29323,-0.024 -5.51775,-0.49276 -6.04591,-0.87895 -0.62264,-0.45529 -0.83668,-2.86792 -0.73493,-8.28419 0.0512,-2.72415 -0.005,-7.29615 -0.12522,-10.16 -0.25012,-5.96676 -0.30971,-5.75926 1.94269,-6.76447 1.14784,-0.51227 1.3335,-0.69379 1.3335,-1.30381 0,-0.89787 -0.64745,-1.83772 -1.26597,-1.83772 -0.26134,0 -0.72587,-0.31433 -1.03229,-0.6985 -0.53254,-0.66768 -0.54975,-0.84962 -0.39003,-4.12294 0.11238,-2.3031 0.28659,-3.60681 0.53203,-3.98139 0.536,-0.81804 2.29602,-0.95118 9.14651,-0.69189 5.26882,0.19942 5.969,0.27628 6.44535,0.70759 0.49693,0.44993 0.5344,0.74515 0.5344,4.21022 0,3.5667 -0.0252,3.75002 -0.58787,4.27863 -0.32333,0.30375 -0.76654,0.55228 -0.9849,0.55228 -0.5312,0 -0.9313,0.51881 -1.11729,1.4488 -0.13542,0.67708 -0.0462,0.83147 0.77346,1.33803 1.69061,1.04486 1.71098,1.13221 1.85311,7.94749 0.0706,3.38617 0.10051,8.44268 0.0664,11.23668 -0.0612,5.01794 -0.0701,5.09219 -0.73095,6.07796 -0.5658,0.84404 -0.88447,1.04806 -2.06599,1.32274 -0.76835,0.17863 -1.397,0.31461 -1.397,0.30218 0,-0.0124 -0.97155,-0.17041 -2.159,-0.35109 z m 4.66284,-10.68524 c 0.24141,-0.50625 0.36716,-0.99202 0.27944,-1.0795 -0.21358,-0.21298 -1.38628,1.16853 -1.38628,1.63311 0,0.69807 0.66969,0.36311 1.10684,-0.55361 z m -62.44785,10.57131 c -0.8382,-0.10875 -2.55841,-0.21013 -3.8227,-0.2253 -1.4574,-0.0175 -2.41407,-0.14294 -2.61393,-0.3428 -0.20488,-0.20488 -0.88245,-0.28607 -1.93548,-0.23192 -2.57258,0.1323 -2.45045,0.66957 -2.55296,-11.23111 -0.0475,-5.51248 -0.1656,-10.55121 -0.26247,-11.19719 -0.21802,-1.45388 0.12431,-1.89958 2.06357,-2.68667 1.19293,-0.48417 1.37359,-0.64829 1.35166,-1.22787 -0.0527,-1.3912 -0.33692,-1.8942 -1.12431,-1.98943 -0.41546,-0.0503 -1.02868,-0.39891 -1.36272,-0.77479 -0.59726,-0.67211 -0.60448,-0.74035 -0.43509,-4.11555 0.11551,-2.30169 0.29244,-3.61555 0.53717,-3.98906 0.536,-0.81804 2.29602,-0.95118 9.14652,-0.69189 5.26882,0.19942 5.96899,0.27628 6.44534,0.70759 0.49693,0.44993 0.5344,0.74515 0.5344,4.21022 0,3.62572 -0.0168,3.74214 -0.62207,4.31077 -0.34214,0.32142 -0.78823,0.52065 -0.99131,0.44272 -0.57306,-0.2199 -1.13225,0.36704 -1.31394,1.37912 -0.15676,0.87325 -0.10485,0.9641 1.0073,1.76279 0.6538,0.46952 1.248,1.12975 1.34303,1.49229 0.0937,0.35762 0.1762,5.33652 0.18322,11.06422 0.0116,9.45748 -0.0299,10.53648 -0.45214,11.7475 -0.2557,0.73342 -0.54145,1.35139 -0.635,1.37325 -0.0935,0.0219 -0.45584,0.0687 -0.80509,0.10414 -0.34925,0.0354 -0.9779,0.1189 -1.397,0.18554 -0.4191,0.0666 -1.4478,0.0322 -2.286,-0.0766 z m -4.3314,-1.24717 c 0.079,-0.12777 0.004,-0.27873 -0.16593,-0.33547 -0.48794,-0.16265 -1.48059,0.0939 -1.32672,0.34282 0.18279,0.29576 1.30874,0.29021 1.49265,-0.007 z m 8.37847,-0.54712 c 0.45104,-0.43399 -0.0926,-0.55081 -1.53852,-0.33065 -0.84822,0.12915 -1.50023,0.36694 -1.56802,0.57187 -0.0943,0.28505 0.16375,0.3167 1.37671,0.16884 0.82102,-0.10007 1.59944,-0.2846 1.72983,-0.41006 z m -0.20901,-7.28896 c 0.42026,-0.27805 1.11494,-1.73663 1.11494,-2.34097 0,-0.72718 -0.69923,-0.93898 -1.16869,-0.354 -1.29111,1.6088 -1.25221,3.55899 0.0537,2.69497 z m -4.50987,-5.499 c 1.44661,-0.0552 2.74405,-0.21424 2.8832,-0.3534 0.38811,-0.38811 -0.0284,-1.80132 -0.64596,-2.19189 -0.30218,-0.1911 -0.92339,-0.42546 -1.38046,-0.52079 -0.61879,-0.12906 -0.9189,-0.38364 -1.1751,-0.99681 -0.46057,-1.10231 -2.5938,-3.8831 -3.36795,-4.39035 -0.53114,-0.34801 -0.81466,-0.36303 -1.97027,-0.10442 -0.81526,0.18245 -1.58158,0.54874 -1.93495,0.92489 -0.643,0.68444 -1.16366,2.73137 -1.41993,5.58231 l -0.16011,1.78115 0.73067,0.30495 c 0.47843,0.19968 1.60753,0.26349 3.27067,0.18485 1.397,-0.0661 3.72359,-0.16528 5.17019,-0.22049 z m 5.20867,-0.27561 c -0.0804,-0.20955 -0.19113,-0.381 -0.24603,-0.381 -0.0549,0 -0.0998,0.17145 -0.0998,0.381 0,0.20955 0.11072,0.381 0.24603,0.381 0.13532,0 0.18024,-0.17145 0.0998,-0.381 z m 33.94415,14.86203 c -0.62865,-0.12066 -2.1717,-0.23688 -3.429,-0.25827 -2.68412,-0.0457 -5.47047,-0.49367 -6.04549,-0.97203 -0.63327,-0.52683 -0.71467,-1.77737 -0.79641,-12.23473 -0.042,-5.37845 -0.16171,-10.09235 -0.26596,-10.47532 -0.15737,-0.57815 -0.0593,-0.81798 0.57785,-1.41316 0.42205,-0.39426 1.23529,-0.85703 1.80719,-1.02838 0.9854,-0.29523 1.03982,-0.36322 1.03982,-1.29919 0,-1.06899 -0.50972,-1.78595 -1.26971,-1.78595 -0.25928,0 -0.72213,-0.31433 -1.02855,-0.6985 -0.53254,-0.66768 -0.54975,-0.84962 -0.39003,-4.12294 0.11238,-2.3031 0.28659,-3.60681 0.53202,-3.98139 0.53458,-0.81586 2.24504,-0.94504 9.12343,-0.68902 5.29379,0.19703 5.99142,0.27304 6.4683,0.70472 0.4971,0.44998 0.53454,0.74482 0.53454,4.21022 0,3.5667 -0.0252,3.75002 -0.58787,4.27863 -0.32333,0.30375 -0.77405,0.55228 -1.0016,0.55228 -0.52404,0 -1.20453,0.95535 -1.20453,1.69104 0,0.36408 0.35267,0.81381 1.00139,1.27699 0.55076,0.39323 1.12226,0.97752 1.27,1.29842 0.15899,0.34535 0.26939,2.5739 0.27052,5.461 10e-4,2.68265 0.11299,5.56335 0.24874,6.40155 0.15458,0.95446 0.16404,3.23262 0.0253,6.096 -0.22326,4.60818 -0.50723,5.97431 -1.395,6.7111 -0.47925,0.39774 -3.94409,0.57268 -5.48498,0.27693 z m 5.17084,-10.57548 c 0.24141,-0.50625 0.36716,-0.99202 0.27944,-1.0795 -0.21358,-0.21298 -1.38628,1.16853 -1.38628,1.63311 0,0.69807 0.66969,0.36311 1.10684,-0.55361 z m -28.47534,-17.69126 c -1.90517,-0.17464 -2.6035,-0.33108 -2.6035,-0.58321 0,-0.24447 -0.34594,-0.3376 -1.19108,-0.32063 -1.01011,0.0203 -1.28569,-0.0861 -1.81384,-0.7001 -0.6156,-0.71568 -0.62078,-0.76349 -0.45052,-4.15612 0.11551,-2.30169 0.29244,-3.61555 0.53717,-3.98906 0.536,-0.81804 2.29602,-0.95118 9.14652,-0.69189 5.26882,0.19942 5.969,0.27628 6.44535,0.70759 0.49648,0.44953 0.5344,0.74574 0.5344,4.17462 0,3.42468 -0.0393,3.73259 -0.54499,4.27088 -0.48838,0.51985 -0.70093,0.56381 -2.04629,0.42319 l -1.50132,-0.15692 0.15853,0.63164 0.15853,0.63163 -2.11273,-0.002 c -1.162,-7.6e-4 -3.28431,-0.10888 -4.71623,-0.24014 z m -43.93695,-1.64883 c -0.31154,-0.0514 -0.81112,-0.40014 -1.11019,-0.77496 -0.51612,-0.64687 -0.53526,-0.85552 -0.37666,-4.10594 0.11238,-2.3031 0.2866,-3.60681 0.53203,-3.98139 0.536,-0.81804 2.29602,-0.95118 9.14652,-0.69189 5.26882,0.19942 5.96899,0.27628 6.44534,0.70759 0.49693,0.44993 0.5344,0.74515 0.5344,4.21022 0,3.5667 -0.0252,3.75002 -0.58787,4.27863 -0.62471,0.58689 -1.3121,0.71739 -1.57113,0.29828 -0.18914,-0.30605 -11.84444,-0.35431 -12.2047,-0.0505 -0.13271,0.1119 -0.49619,0.1614 -0.80774,0.10999 z"
         id="path2513"
         clip-path="url(#clipPath2555)"
         transform="translate(-150.30974,-130.06575)" />
      <path
         style="fill:#fd645f;stroke-width:0.254"
         d="m 260.47096,205.50301 c -0.8382,-0.10875 -2.55841,-0.21013 -3.8227,-0.2253 -1.4574,-0.0175 -2.41407,-0.14294 -2.61393,-0.3428 -0.20488,-0.20488 -0.88245,-0.28607 -1.93548,-0.23192 -2.57258,0.1323 -2.45045,0.66957 -2.55296,-11.23111 -0.0475,-5.51248 -0.1656,-10.55121 -0.26247,-11.19719 -0.21866,-1.45809 0.12341,-1.89922 2.09244,-2.69839 l 1.40585,-0.57059 -0.15749,-1.16528 c -0.16098,-1.19111 -0.65736,-1.80028 -1.46695,-1.80028 -0.24948,0 -0.64448,-0.29133 -0.87778,-0.64739 -0.36683,-0.55985 -0.4005,-1.10084 -0.24905,-4.0005 0.24811,-4.75029 -0.42445,-4.38611 7.93749,-4.29799 5.38813,0.0568 6.89686,0.14772 7.48339,0.45103 l 0.73464,0.37989 v 3.62793 c 0,4.02219 -0.11272,4.37669 -1.53982,4.84258 -0.70584,0.23043 -0.89721,0.4544 -1.09092,1.27679 -0.21088,0.89522 -0.17274,1.04624 0.37241,1.47489 2.0618,1.62118 1.9345,1.32982 2.08949,4.78249 0.078,1.7376 0.11755,6.70258 0.0879,11.03328 -0.0475,6.93566 -0.10926,8.01777 -0.51837,9.0805 -0.25545,0.66357 -0.53943,1.22439 -0.63107,1.24625 -0.0916,0.0219 -0.45238,0.0687 -0.80163,0.10414 -0.34925,0.0354 -0.9779,0.1189 -1.397,0.18554 -0.4191,0.0666 -1.4478,0.0322 -2.286,-0.0766 z m -4.3314,-1.24717 c 0.079,-0.12777 0.004,-0.27873 -0.16593,-0.33547 -0.48794,-0.16265 -1.48059,0.0939 -1.32672,0.34282 0.18279,0.29576 1.30874,0.29021 1.49265,-0.007 z m 8.37847,-0.54712 c 0.45104,-0.43399 -0.0926,-0.55081 -1.53852,-0.33065 -0.84822,0.12915 -1.50023,0.36694 -1.56802,0.57187 -0.0943,0.28505 0.16375,0.3167 1.37671,0.16884 0.82102,-0.10007 1.59944,-0.2846 1.72983,-0.41006 z m -0.20901,-7.28896 c 0.42026,-0.27805 1.11494,-1.73663 1.11494,-2.34097 0,-0.72718 -0.69923,-0.93898 -1.16869,-0.354 -1.29111,1.6088 -1.25221,3.55899 0.0537,2.69497 z m -4.50987,-5.499 c 1.44661,-0.0552 2.74405,-0.21424 2.8832,-0.3534 0.38811,-0.38811 -0.0284,-1.80132 -0.64596,-2.19189 -0.30218,-0.1911 -0.92339,-0.42546 -1.38046,-0.52079 -0.61879,-0.12906 -0.9189,-0.38364 -1.1751,-0.99681 -0.46057,-1.10231 -2.5938,-3.8831 -3.36795,-4.39035 -0.53114,-0.34801 -0.81466,-0.36303 -1.97027,-0.10442 -0.81526,0.18245 -1.58158,0.54874 -1.93495,0.92489 -0.643,0.68444 -1.16366,2.73137 -1.41993,5.58231 l -0.16011,1.78115 0.73067,0.30495 c 0.47843,0.19968 1.60753,0.26349 3.27067,0.18485 1.397,-0.0661 3.72359,-0.16528 5.17019,-0.22049 z m 5.20867,-0.27561 c -0.0804,-0.20955 -0.19113,-0.381 -0.24603,-0.381 -0.0549,0 -0.0998,0.17145 -0.0998,0.381 0,0.20955 0.11072,0.381 0.24603,0.381 0.13532,0 0.18024,-0.17145 0.0998,-0.381 z m 34.70615,14.58997 c -0.90805,-0.10958 -2.65614,-0.2272 -3.88464,-0.26138 -1.22851,-0.0342 -2.29252,-0.15743 -2.36449,-0.27387 -0.072,-0.11645 -0.81742,-0.21172 -1.65656,-0.21172 -2.0164,0 -2.44356,-0.25864 -2.62296,-1.58816 -0.0801,-0.59337 -0.19307,-5.42224 -0.25112,-10.73084 -0.058,-5.3086 -0.18393,-10.01691 -0.27972,-10.46291 -0.14564,-0.67805 -0.0618,-0.91509 0.51191,-1.44675 0.37735,-0.34972 1.16185,-0.79379 1.74333,-0.98683 0.98945,-0.32849 1.06221,-0.41805 1.13467,-1.39683 0.0862,-1.16448 -0.564,-2.08968 -1.46857,-2.08968 -0.27618,0 -0.69333,-0.29178 -0.92699,-0.6484 -0.36604,-0.55865 -0.40105,-1.09368 -0.25288,-3.86524 0.20042,-3.74893 0.41562,-4.24649 1.94871,-4.5055 1.79472,-0.30322 12.71328,0.13914 13.51281,0.54746 l 0.6985,0.35672 v 3.61996 c 0,3.94571 -0.23348,4.749 -1.3803,4.749 -0.77679,0 -1.17551,0.51946 -1.33999,1.74576 -0.12191,0.90892 -0.0658,1.03949 0.59433,1.38283 0.40093,0.20853 0.97381,0.64718 1.27307,0.97478 0.51651,0.56541 0.55289,0.93068 0.71696,7.19963 0.32718,12.50121 0.0914,16.21714 -1.10636,17.43285 -0.51529,0.52303 -2.46087,0.71722 -4.59971,0.45912 z m -4.89479,-1.15443 c -0.0844,-0.0844 -0.30348,-0.0934 -0.48684,-0.02 -0.20262,0.0811 -0.14244,0.14127 0.15346,0.15345 0.26776,0.011 0.41778,-0.049 0.33338,-0.1334 z m 7.62,-0.508 c -0.0844,-0.0844 -0.30348,-0.0934 -0.48684,-0.02 -0.20262,0.0811 -0.14244,0.14127 0.15346,0.15345 0.26776,0.011 0.41778,-0.049 0.33338,-0.1334 z m 1.71063,-8.1605 c 0.64985,-0.95635 0.83686,-1.95097 0.41575,-2.21123 -0.35321,-0.21829 -1.80359,1.58038 -1.80359,2.23669 0,1.22515 0.54482,1.21515 1.38784,-0.0255 z m -10.53184,-5.24344 c 0,-0.19216 0.28431,-0.99226 0.63179,-1.778 0.55859,-1.26305 0.71738,-1.4286 1.37032,-1.4286 0.67882,0 0.74654,-0.084 0.83758,-1.03863 0.12489,-1.30963 -0.48583,-2.37211 -1.69496,-2.9487 -0.8286,-0.39513 -0.95195,-0.39557 -1.76826,-0.006 -1.30585,0.62272 -1.74329,1.6808 -1.86622,4.51405 -0.10178,2.34578 -0.0856,2.43487 0.49376,2.71331 0.85725,0.41202 1.99599,0.39654 1.99599,-0.0271 z m 25.019,15.08026 c -0.8382,-0.10875 -2.55842,-0.21013 -3.8227,-0.2253 -1.41682,-0.017 -2.41588,-0.14474 -2.60414,-0.333 -0.17453,-0.17453 -1.03767,-0.3106 -2.01391,-0.3175 -2.46878,-0.0174 -2.44138,0.074 -2.41141,-8.04977 0.0133,-3.59097 -0.069,-8.50932 -0.18284,-10.92966 -0.24121,-5.1293 -0.20515,-5.24821 1.81985,-6.00098 1.15825,-0.43057 1.3515,-0.59987 1.41707,-1.2414 0.12532,-1.2261 -0.34829,-2.10222 -1.23193,-2.27895 -1.41235,-0.28247 -1.60863,-0.94126 -1.41052,-4.73419 0.24807,-4.74944 -0.42332,-4.38532 7.9311,-4.30131 5.41424,0.0545 6.88826,0.14329 7.48336,0.45102 l 0.74107,0.38322 v 3.61996 c 0,3.94571 -0.23348,4.749 -1.3803,4.749 -0.72469,0 -1.1067,0.43352 -1.31947,1.49733 -0.1478,0.73899 -0.0432,0.92383 1.13594,2.00779 l 1.29872,1.19388 0.14722,10.16 c 0.13852,9.55897 0.11775,10.27 -0.35114,12.01952 -0.27409,1.02274 -0.56964,1.93081 -0.65677,2.01794 -0.0871,0.0871 -0.46954,0.18511 -0.8498,0.21775 -0.38027,0.0326 -1.0343,0.11177 -1.4534,0.17585 -0.4191,0.0641 -1.4478,0.0275 -2.286,-0.0812 z m -4.29905,-1.29952 c 0.0759,-0.12284 -0.28276,-0.22334 -0.79706,-0.22334 -0.77168,0 -0.88364,0.062 -0.64066,0.35478 0.2982,0.3593 1.1845,0.27827 1.43772,-0.13144 z m 8.34611,-0.49897 c 0.42657,-0.40289 -0.0144,-0.50205 -1.47117,-0.33084 -1.00807,0.11848 -1.43289,0.27806 -1.43289,0.53827 0,0.29929 0.25445,0.33615 1.3335,0.19317 0.73342,-0.0972 1.44018,-0.27745 1.57056,-0.4006 z m 0.32551,-8.08219 c 0.98098,-1.45569 0.61623,-2.87276 -0.48663,-1.89056 -0.67844,0.6042 -1.25858,1.97554 -1.05746,2.49965 0.23588,0.6147 0.89444,0.35492 1.54409,-0.60909 z m -7.03957,-4.63925 c 0.34925,0.002 1.57797,-0.0546 2.7305,-0.12626 l 2.0955,-0.13028 v -0.78632 c 0,-0.9211 -0.86255,-1.96029 -1.63178,-1.96596 -0.7791,-0.006 -1.15392,-0.32105 -1.89328,-1.59268 -2.03441,-3.49893 -2.96827,-4.36867 -4.43837,-4.13359 -1.41474,0.22622 -2.38448,0.80158 -2.8419,1.68612 -0.4422,0.85513 -1.13178,4.41702 -1.13232,5.84879 -2.6e-4,0.80608 0.0985,0.94955 0.82515,1.19792 0.50885,0.17394 1.75107,0.22771 3.2385,0.14021 1.32715,-0.0781 2.69875,-0.14015 3.048,-0.13795 z m 7.366,-0.19594 c 0,-0.13146 -0.1143,-0.30965 -0.254,-0.39599 -0.1397,-0.0863 -0.254,0.0212 -0.254,0.23901 0,0.21779 0.1143,0.39599 0.254,0.39599 0.1397,0 0.254,-0.10756 0.254,-0.23901 z m -47.6885,-13.2927 c -1.80314,-0.16529 -2.6035,-0.33737 -2.6035,-0.55975 0,-0.19351 -0.50457,-0.38803 -1.26987,-0.48955 -1.97686,-0.26224 -2.14659,-0.6839 -1.93166,-4.79888 0.24811,-4.75029 -0.42445,-4.38611 7.9375,-4.29799 5.38812,0.0568 6.89685,0.14772 7.48338,0.45103 l 0.73465,0.37989 v 3.61996 c 0,4.52914 -0.10673,4.749 -2.30525,4.749 -1.46065,0 -1.50914,0.0211 -1.36536,0.59395 0.14734,0.58704 0.12445,0.59395 -1.96366,0.59248 -1.162,-7.6e-4 -3.28431,-0.10887 -4.71623,-0.24014 z m -43.94826,-1.91728 c -1.19615,-0.16974 -1.41892,-1.01762 -1.22624,-4.66728 0.0966,-1.83012 0.28445,-3.53076 0.41742,-3.77922 0.37441,-0.69958 2.44117,-0.83398 8.99953,-0.58523 4.35754,0.16527 6.00829,0.3148 6.31834,0.57232 0.35417,0.29417 0.4197,0.91127 0.4197,3.95195 0,2.60317 -0.0941,3.73201 -0.3389,4.06684 -0.31255,0.42744 -0.87063,0.46578 -7.1755,0.49305 -3.76013,0.0163 -7.09659,-0.007 -7.41435,-0.0524 z"
         id="path2511"
         clip-path="url(#clipPath2551)"
         transform="translate(-150.30974,-130.06575)" />
      <path
         style="fill:#5af81b;stroke-width:0.254"
         d="m 260.47096,205.50301 c -0.8382,-0.10875 -2.55841,-0.21013 -3.8227,-0.2253 -1.4574,-0.0175 -2.41407,-0.14294 -2.61393,-0.3428 -0.20488,-0.20488 -0.88245,-0.28607 -1.93548,-0.23192 -2.57258,0.1323 -2.45045,0.66957 -2.55296,-11.23111 -0.0475,-5.51248 -0.1656,-10.55121 -0.26247,-11.19719 -0.21866,-1.45809 0.12341,-1.89922 2.09244,-2.69839 l 1.40585,-0.57059 -0.1562,-1.13966 c -0.18668,-1.36198 -0.44488,-1.71867 -1.37937,-1.90557 -1.20574,-0.24114 -1.40289,-1.00031 -1.19514,-4.60218 0.27038,-4.68771 -0.31831,-4.34805 7.41475,-4.27809 3.46897,0.0314 6.67501,0.1216 7.12455,0.20048 1.49239,0.26186 1.59653,0.55022 1.58759,4.3961 -0.009,3.83423 -0.0901,4.07918 -1.55491,4.69121 -0.75164,0.31406 -0.94219,0.54988 -1.09273,1.3523 -0.15683,0.83601 -0.0993,1.03712 0.41119,1.43826 2.04513,1.60696 1.9208,1.32117 2.07568,4.77131 0.078,1.7376 0.11755,6.70258 0.0879,11.03328 -0.0475,6.93566 -0.10926,8.01777 -0.51837,9.0805 -0.25545,0.66357 -0.53943,1.22439 -0.63107,1.24625 -0.0916,0.0219 -0.45238,0.0687 -0.80163,0.10414 -0.34925,0.0354 -0.9779,0.1189 -1.397,0.18554 -0.4191,0.0666 -1.4478,0.0322 -2.286,-0.0766 z m -4.3314,-1.24717 c 0.079,-0.12777 0.004,-0.27873 -0.16593,-0.33547 -0.48794,-0.16265 -1.48059,0.0939 -1.32672,0.34282 0.18279,0.29576 1.30874,0.29021 1.49265,-0.007 z m 8.37847,-0.54712 c 0.45104,-0.43399 -0.0926,-0.55081 -1.53852,-0.33065 -0.84822,0.12915 -1.50023,0.36694 -1.56802,0.57187 -0.0943,0.28505 0.16375,0.3167 1.37671,0.16884 0.82102,-0.10007 1.59944,-0.2846 1.72983,-0.41006 z m -0.20901,-7.28896 c 0.42026,-0.27805 1.11494,-1.73663 1.11494,-2.34097 0,-0.72718 -0.69923,-0.93898 -1.16869,-0.354 -1.29111,1.6088 -1.25221,3.55899 0.0537,2.69497 z m -4.50987,-5.499 c 1.44661,-0.0552 2.74405,-0.21424 2.8832,-0.3534 0.38811,-0.38811 -0.0284,-1.80132 -0.64596,-2.19189 -0.30218,-0.1911 -0.92339,-0.42546 -1.38046,-0.52079 -0.61879,-0.12906 -0.9189,-0.38364 -1.1751,-0.99681 -0.46057,-1.10231 -2.5938,-3.8831 -3.36795,-4.39035 -0.53114,-0.34801 -0.81466,-0.36303 -1.97027,-0.10442 -0.81526,0.18245 -1.58158,0.54874 -1.93495,0.92489 -0.643,0.68444 -1.16366,2.73137 -1.41993,5.58231 l -0.16011,1.78115 0.73067,0.30495 c 0.47843,0.19968 1.60753,0.26349 3.27067,0.18485 1.397,-0.0661 3.72359,-0.16528 5.17019,-0.22049 z m 5.20867,-0.27561 c -0.0804,-0.20955 -0.19113,-0.381 -0.24603,-0.381 -0.0549,0 -0.0998,0.17145 -0.0998,0.381 0,0.20955 0.11072,0.381 0.24603,0.381 0.13532,0 0.18024,-0.17145 0.0998,-0.381 z m 53.24815,14.17867 c -2.13668,-0.15623 -2.78004,-0.33051 -2.63315,-0.71329 0.0911,-0.23741 -0.1813,-0.49224 -0.80458,-0.75266 -1.26646,-0.52916 -1.61894,-0.50095 -3.01488,0.24128 -0.65685,0.34925 -1.58564,0.635 -2.06398,0.635 -1.64542,0 -1.64176,0.0239 -1.75709,-11.45701 -0.0567,-5.643 -0.1799,-10.61649 -0.27379,-11.05222 -0.20411,-0.94715 0.44907,-1.69244 1.88939,-2.15585 1.26019,-0.40545 1.54608,-0.68494 1.54608,-1.51149 0,-1.33055 -0.41871,-1.97381 -1.46883,-2.25658 -1.50989,-0.40657 -1.67492,-0.93814 -1.45814,-4.6967 0.27038,-4.68771 -0.31831,-4.34805 7.41475,-4.27809 3.46897,0.0314 6.67502,0.1216 7.12455,0.20048 1.49132,0.26167 1.59567,0.55017 1.59567,4.41171 0,3.20404 -0.0441,3.53728 -0.53815,4.06759 -0.32015,0.34364 -0.72694,0.52827 -1.0042,0.45577 -0.74843,-0.19572 -1.23676,0.37318 -1.40806,1.64035 -0.14415,1.06637 -0.10118,1.21109 0.44288,1.49153 0.33139,0.17082 0.91685,0.60375 1.30103,0.96207 l 0.6985,0.65148 -0.0382,4.58798 -0.0382,4.58798 -0.18869,-3.302 c -0.10378,-1.8161 -0.31391,-3.76665 -0.46695,-4.33455 -0.30622,-1.13634 -1.3495,-2.29879 -1.80852,-2.01511 -0.16069,0.0993 -1.91222,0.26637 -3.8923,0.37123 -4.80827,0.25464 -7.12765,0.96282 -8.19604,2.50249 -0.44549,0.64201 -0.55656,1.2886 -0.68375,3.98039 -0.0835,1.76763 -0.0927,3.36805 -0.0204,3.55649 0.20629,0.53758 2.44796,0.96529 3.96256,0.75605 0.7356,-0.10162 3.05197,-0.22887 5.14747,-0.28277 2.0955,-0.0539 3.98145,-0.10339 4.191,-0.10998 0.20955,-0.007 0.69532,0.0659 1.0795,0.161 0.50491,0.12504 0.69958,0.0768 0.70239,-0.17413 0.003,-0.27083 0.058,-0.26338 0.25011,0.0339 0.29722,0.45991 0.33652,2.032 0.0508,2.032 -0.11176,0 -0.33961,-0.13641 -0.50633,-0.30313 -0.23483,-0.23483 -0.47553,-0.13794 -1.06841,0.43006 -1.36903,1.31161 -1.61024,4.19107 -0.35109,4.19107 0.20955,0 0.31836,-0.10135 0.24181,-0.22522 -0.0766,-0.12387 0.0394,-0.3734 0.25757,-0.55451 0.21822,-0.18111 0.64559,-0.79414 0.9497,-1.36228 l 0.55294,-1.03299 0.0709,3.36508 c 0.039,1.8508 -0.0195,3.71377 -0.12992,4.13995 -0.19894,0.76773 -0.21931,0.77595 -2.21444,0.89355 -2.01141,0.11857 -2.93351,0.52022 -2.93351,1.27779 0,0.53581 0.31441,0.588 2.36318,0.3923 1.41923,-0.13556 1.95482,-0.10613 1.95482,0.10742 0,0.28232 -2.10265,0.66134 -3.175,0.57232 -0.2794,-0.0232 -1.02235,-0.0798 -1.651,-0.12574 z m -4.318,-10.01252 c 0,-0.37165 -0.40978,-0.26443 -1.05136,0.2751 l -0.59964,0.50426 0.8255,-0.2751 c 0.45402,-0.15131 0.8255,-0.37823 0.8255,-0.50426 z m 1.778,-0.48315 c 0,-0.1397 -0.0504,-0.254 -0.11201,-0.254 -0.0616,0 -0.18265,0.1143 -0.26899,0.254 -0.0863,0.1397 -0.0359,0.254 0.11201,0.254 0.14794,0 0.26899,-0.1143 0.26899,-0.254 z m 5.04193,-14.61501 c 0.0489,-0.0458 0.004,-0.22091 -0.1002,-0.38923 -0.13594,-0.21995 -0.7952,-0.26327 -2.34368,-0.15399 -2.17605,0.15357 -2.69614,0.30564 -2.16595,0.63332 0.27383,0.16924 4.41922,0.0882 4.60983,-0.0901 z m -0.4016,-2.0616 c -0.17196,-0.0696 -0.51486,-0.0738 -0.762,-0.009 -0.24713,0.0644 -0.10643,0.12133 0.31267,0.1265 0.4191,0.005 0.6213,-0.0475 0.44933,-0.11709 z m -22.97143,26.24214 c -0.54722,-0.37135 -1.42447,-0.65107 -2.33734,-0.74528 -1.22181,-0.12611 -1.65464,-0.0528 -2.64065,0.44699 -1.06585,0.54029 -1.24558,0.56355 -1.86796,0.2417 -0.39997,-0.20683 -0.80829,-0.71864 -0.97407,-1.22096 -0.31611,-0.95783 -0.31229,-4.4983 0.005,-5.01235 0.11124,-0.17999 0.095,-0.52771 -0.0361,-0.77269 -0.13684,-0.2557 -0.16645,-1.54314 -0.0695,-3.02248 l 0.16888,-2.57706 1.29373,0.13822 c 0.71155,0.076 3.75118,0.0563 6.75473,-0.0438 6.14669,-0.20485 7.366,-0.0538 7.366,0.91275 0,0.45648 -0.10658,0.56581 -0.44642,0.45795 -0.72491,-0.23008 -1.89765,1.45972 -2.03981,2.93915 -0.10027,1.04351 -0.0512,1.23231 0.32,1.23231 0.44356,0 1.91223,-1.38621 1.91223,-1.80487 0,-0.12492 0.0955,-0.22713 0.21216,-0.22713 0.25392,0 0.19799,5.97672 -0.0636,6.7945 -0.10419,0.32572 -0.38858,0.5715 -0.6613,0.5715 -0.6842,0 -3.30409,0.70647 -3.64498,0.9829 -0.31529,0.25566 -2.15726,1.3031 -2.29157,1.3031 -0.0461,0 -0.47803,-0.26751 -0.95982,-0.59447 z m -8.19019,-21.88845 c -0.1726,-0.68768 -0.0255,-1.13908 0.37125,-1.13908 0.54262,0 3.03604,-1.91556 3.03604,-2.33242 0,-0.39773 0.2851,-0.44564 2.6035,-0.43752 1.43192,0.005 2.9464,5.1e-4 3.3655,-0.01 1.32471,-0.0331 3.683,0.27875 3.683,0.4871 0,0.1101 -1.06939,0.24697 -2.37642,0.30413 -2.13406,0.0933 -2.45985,0.17414 -3.19449,0.7923 -0.44994,0.37859 -1.04358,0.68836 -1.3192,0.68836 -0.27561,0 -0.85066,0.18075 -1.27786,0.40167 -0.46746,0.24173 -1.03338,0.33725 -1.42126,0.2399 -0.49787,-0.12495 -0.82394,0.008 -1.43314,0.58631 -1.15636,1.09689 -1.83194,1.23592 -2.03692,0.4192 z m -13.54721,-4.76479 c -1.82105,-0.16694 -2.6035,-0.33633 -2.6035,-0.56364 0,-0.19065 -0.47465,-0.39615 -1.14836,-0.49718 -0.67547,-0.10129 -1.3661,-0.4008 -1.67713,-0.72734 -0.49994,-0.52485 -0.51951,-0.73525 -0.35871,-3.85713 0.20221,-3.92571 0.37649,-4.30909 2.07465,-4.56374 1.2052,-0.18073 10.92481,0.0266 12.46788,0.26592 1.48696,0.23064 1.59567,0.53005 1.59567,4.39507 0,3.16109 -0.0488,3.54234 -0.5179,4.04585 -0.41107,0.44124 -0.80501,0.5559 -1.90984,0.5559 -1.33226,0 -1.38555,0.0255 -1.24287,0.59395 0.14734,0.58704 0.12445,0.59395 -1.96366,0.59248 -1.162,-7.6e-4 -3.28431,-0.10887 -4.71623,-0.24014 z m 19.7485,-0.4779 c -1.46685,-0.1227 -3.0099,-0.38664 -3.429,-0.58655 -0.4191,-0.19991 -1.05536,-0.42346 -1.41392,-0.4968 -1.1441,-0.234 -1.33737,-1.01506 -1.13205,-4.57489 0.27038,-4.68771 -0.31831,-4.34805 7.41475,-4.27809 3.46897,0.0314 6.67502,0.1216 7.12455,0.20048 1.49132,0.26167 1.59567,0.55017 1.59567,4.41171 0,3.20404 -0.0441,3.53728 -0.53815,4.06759 -0.31076,0.33356 -0.72917,0.52769 -0.99022,0.45942 -0.24864,-0.065 -1.06375,0.0514 -1.81135,0.25877 -1.47602,0.40938 -3.49335,0.81372 -3.89928,0.78156 -0.1397,-0.0111 -1.45415,-0.12051 -2.921,-0.2432 z m -63.68513,-1.53993 c -1.25254,-0.32483 -1.41164,-0.92503 -1.20933,-4.5623 0.26596,-4.78162 -0.38834,-4.41577 7.73505,-4.32503 6.37001,0.0711 7.76532,0.22347 8.19185,0.89426 0.10547,0.16588 0.18989,1.84466 0.18759,3.73061 -0.003,2.55704 -0.0955,3.54958 -0.36332,3.90318 -0.33354,0.4404 -0.83936,0.47659 -7.09855,0.508 -3.70668,0.0186 -7.05616,-0.0483 -7.44329,-0.14872 z"
         id="path2509"
         clip-path="url(#clipPath2547)"
         transform="translate(-150.30974,-130.06575)" />
      <path
         style="fill:#fb2217;stroke-width:0.254"
         d="m 318.25597,204.82382 c -2.13668,-0.15623 -2.78004,-0.33051 -2.63315,-0.71329 0.0911,-0.23741 -0.1813,-0.49224 -0.80458,-0.75266 -1.26646,-0.52916 -1.61894,-0.50095 -3.01488,0.24128 -0.65685,0.34925 -1.58564,0.635 -2.06398,0.635 -1.64542,0 -1.64176,0.0239 -1.75709,-11.45701 -0.0567,-5.643 -0.1799,-10.61649 -0.27379,-11.05222 -0.20411,-0.94715 0.44907,-1.69244 1.88939,-2.15585 1.26019,-0.40545 1.54608,-0.68494 1.54608,-1.51149 0,-1.33055 -0.41871,-1.97381 -1.46883,-2.25658 -1.50989,-0.40657 -1.67492,-0.93814 -1.45814,-4.6967 0.27038,-4.68771 -0.31831,-4.34805 7.41475,-4.27809 3.46897,0.0314 6.67502,0.1216 7.12455,0.20048 1.49132,0.26167 1.59567,0.55017 1.59567,4.41171 0,3.20404 -0.0441,3.53728 -0.53815,4.06759 -0.32015,0.34364 -0.72694,0.52827 -1.0042,0.45577 -0.74843,-0.19572 -1.23676,0.37318 -1.40806,1.64035 -0.14415,1.06637 -0.10118,1.21109 0.44288,1.49153 0.33139,0.17082 0.91685,0.60375 1.30103,0.96207 l 0.6985,0.65148 -0.0382,4.58798 -0.0382,4.58798 -0.18869,-3.302 c -0.10378,-1.8161 -0.31391,-3.76665 -0.46695,-4.33455 -0.30622,-1.13634 -1.3495,-2.29879 -1.80852,-2.01511 -0.16069,0.0993 -1.91222,0.26637 -3.8923,0.37123 -4.80827,0.25464 -7.12765,0.96282 -8.19604,2.50249 -0.44549,0.64201 -0.55656,1.2886 -0.68375,3.98039 -0.0835,1.76763 -0.0927,3.36805 -0.0204,3.55649 0.20629,0.53758 2.44796,0.96529 3.96256,0.75605 0.7356,-0.10162 3.05197,-0.22887 5.14747,-0.28277 2.0955,-0.0539 3.98145,-0.10339 4.191,-0.10998 0.20955,-0.007 0.69532,0.0659 1.0795,0.161 0.50491,0.12504 0.69958,0.0768 0.70239,-0.17413 0.003,-0.27083 0.058,-0.26338 0.25011,0.0339 0.29722,0.45991 0.33652,2.032 0.0508,2.032 -0.11176,0 -0.33961,-0.13641 -0.50633,-0.30313 -0.23483,-0.23483 -0.47553,-0.13794 -1.06841,0.43006 -1.36903,1.31161 -1.61024,4.19107 -0.35109,4.19107 0.20955,0 0.31836,-0.10135 0.24181,-0.22522 -0.0766,-0.12387 0.0394,-0.3734 0.25757,-0.55451 0.21822,-0.18111 0.64559,-0.79414 0.9497,-1.36228 l 0.55294,-1.03299 0.0709,3.36508 c 0.039,1.8508 -0.0195,3.71377 -0.12992,4.13995 -0.19894,0.76773 -0.21931,0.77595 -2.21444,0.89355 -2.01141,0.11857 -2.93351,0.52022 -2.93351,1.27779 0,0.53581 0.31441,0.588 2.36318,0.3923 1.41923,-0.13556 1.95482,-0.10613 1.95482,0.10742 0,0.28232 -2.10265,0.66134 -3.175,0.57232 -0.2794,-0.0232 -1.02235,-0.0798 -1.651,-0.12574 z m -4.318,-10.01252 c 0,-0.37165 -0.40978,-0.26443 -1.05136,0.2751 l -0.59964,0.50426 0.8255,-0.2751 c 0.45402,-0.15131 0.8255,-0.37823 0.8255,-0.50426 z m 1.778,-0.48315 c 0,-0.1397 -0.0504,-0.254 -0.11201,-0.254 -0.0616,0 -0.18265,0.1143 -0.26899,0.254 -0.0863,0.1397 -0.0359,0.254 0.11201,0.254 0.14794,0 0.26899,-0.1143 0.26899,-0.254 z m 5.04193,-14.61501 c 0.0489,-0.0458 0.004,-0.22091 -0.1002,-0.38923 -0.13594,-0.21995 -0.7952,-0.26327 -2.34368,-0.15399 -2.17605,0.15357 -2.69614,0.30564 -2.16595,0.63332 0.27383,0.16924 4.41922,0.0882 4.60983,-0.0901 z m -0.4016,-2.0616 c -0.17196,-0.0696 -0.51486,-0.0738 -0.762,-0.009 -0.24713,0.0644 -0.10643,0.12133 0.31267,0.1265 0.4191,0.005 0.6213,-0.0475 0.44933,-0.11709 z m -22.97143,26.24214 c -0.54722,-0.37135 -1.42447,-0.65107 -2.33734,-0.74528 -1.22181,-0.12611 -1.65464,-0.0528 -2.64065,0.44699 -1.06585,0.54029 -1.24558,0.56355 -1.86796,0.2417 -0.39997,-0.20683 -0.80829,-0.71864 -0.97407,-1.22096 -0.31611,-0.95783 -0.31229,-4.4983 0.005,-5.01235 0.11124,-0.17999 0.095,-0.52771 -0.0361,-0.77269 -0.13684,-0.2557 -0.16645,-1.54314 -0.0695,-3.02248 l 0.16888,-2.57706 1.29373,0.13822 c 0.71155,0.076 3.75118,0.0563 6.75473,-0.0438 6.14669,-0.20485 7.366,-0.0538 7.366,0.91275 0,0.45648 -0.10658,0.56581 -0.44642,0.45795 -0.72491,-0.23008 -1.89765,1.45972 -2.03981,2.93915 -0.10027,1.04351 -0.0512,1.23231 0.32,1.23231 0.44356,0 1.91223,-1.38621 1.91223,-1.80487 0,-0.12492 0.0955,-0.22713 0.21216,-0.22713 0.25392,0 0.19799,5.97672 -0.0636,6.7945 -0.10419,0.32572 -0.38858,0.5715 -0.6613,0.5715 -0.6842,0 -3.30409,0.70647 -3.64498,0.9829 -0.31529,0.25566 -2.15726,1.3031 -2.29157,1.3031 -0.0461,0 -0.47803,-0.26751 -0.95982,-0.59447 z m -8.19019,-21.88845 c -0.1726,-0.68768 -0.0255,-1.13908 0.37125,-1.13908 0.54262,0 3.03604,-1.91556 3.03604,-2.33242 0,-0.39773 0.2851,-0.44564 2.6035,-0.43752 1.43192,0.005 2.9464,5.1e-4 3.3655,-0.01 1.32471,-0.0331 3.683,0.27875 3.683,0.4871 0,0.1101 -1.06939,0.24697 -2.37642,0.30413 -2.13406,0.0933 -2.45985,0.17414 -3.19449,0.7923 -0.44994,0.37859 -1.04358,0.68836 -1.3192,0.68836 -0.27561,0 -0.85066,0.18075 -1.27786,0.40167 -0.46746,0.24173 -1.03338,0.33725 -1.42126,0.2399 -0.49787,-0.12495 -0.82394,0.008 -1.43314,0.58631 -1.15636,1.09689 -1.83194,1.23592 -2.03692,0.4192 z m 6.20129,-5.24269 c -1.46685,-0.1227 -3.0099,-0.38664 -3.429,-0.58655 -0.4191,-0.19991 -1.05536,-0.42346 -1.41392,-0.4968 -1.1441,-0.234 -1.33737,-1.01506 -1.13205,-4.57489 0.27038,-4.68771 -0.31831,-4.34805 7.41475,-4.27809 3.46897,0.0314 6.67502,0.1216 7.12455,0.20048 1.49132,0.26167 1.59567,0.55017 1.59567,4.41171 0,3.20404 -0.0441,3.53728 -0.53815,4.06759 -0.31076,0.33356 -0.72917,0.52769 -0.99022,0.45942 -0.24864,-0.065 -1.06375,0.0514 -1.81135,0.25877 -1.47602,0.40938 -3.49335,0.81372 -3.89928,0.78156 -0.1397,-0.0111 -1.45415,-0.12051 -2.921,-0.2432 z m -44.08719,-0.75515 c -1.28594,-0.34989 -1.46712,-1.01958 -1.25778,-4.64909 0.27038,-4.68771 -0.31831,-4.34805 7.41475,-4.27809 3.46897,0.0314 6.67501,0.1216 7.12455,0.20048 1.49132,0.26167 1.59566,0.55017 1.59566,4.41171 0,3.20404 -0.0441,3.53728 -0.53815,4.06759 -0.40215,0.43167 -0.67494,0.52688 -1.0795,0.37679 -0.72954,-0.27066 -11.56338,-0.37973 -12.07456,-0.12155 -0.22263,0.11244 -0.75587,0.10891 -1.18497,-0.008 z m 32.65719,0.0206 c -0.23982,-0.16263 -2.80384,-0.23615 -6.91919,-0.19839 -6.22107,0.0571 -6.55733,0.0359 -6.93297,-0.43622 -0.33091,-0.41592 -0.36965,-1.03059 -0.23938,-3.79822 0.18486,-3.9275 0.35676,-4.30833 2.05999,-4.56374 1.2052,-0.18073 10.92481,0.0266 12.46788,0.26592 1.48696,0.23064 1.59567,0.53005 1.59567,4.39507 0,3.16109 -0.0488,3.54234 -0.5179,4.04585 -0.56922,0.61099 -0.93671,0.68131 -1.5141,0.28973 z m -52.25513,-0.80537 c -1.25254,-0.32483 -1.41164,-0.92503 -1.20933,-4.5623 0.26596,-4.78162 -0.38834,-4.41577 7.73505,-4.32503 6.37001,0.0711 7.76532,0.22347 8.19185,0.89426 0.10547,0.16588 0.18989,1.84466 0.18759,3.73061 -0.003,2.55704 -0.0955,3.54958 -0.36332,3.90318 -0.33354,0.4404 -0.83936,0.47659 -7.09855,0.508 -3.70668,0.0186 -7.05616,-0.0483 -7.44329,-0.14872 z"
         id="path2507"
         clip-path="url(#clipPath2543)"
         transform="translate(-150.30974,-130.06575)" />
      <path
         style="fill:#0c0d0c;stroke-width:0.254"
         d="m 251.30878,176.00739 c -1.28594,-0.34989 -1.46712,-1.01958 -1.25778,-4.64909 0.27038,-4.68771 -0.31831,-4.34805 7.41475,-4.27809 3.46897,0.0314 6.67501,0.1216 7.12455,0.20048 1.49132,0.26167 1.59566,0.55017 1.59566,4.41171 0,3.20404 -0.0441,3.53728 -0.53815,4.06759 -0.40215,0.43167 -0.67494,0.52688 -1.0795,0.37679 -0.72954,-0.27066 -11.56338,-0.37973 -12.07456,-0.12155 -0.22263,0.11244 -0.75587,0.10891 -1.18497,-0.008 z m 32.65719,0.0206 c -0.23982,-0.16263 -2.80384,-0.23615 -6.91919,-0.19839 -6.22107,0.0571 -6.55733,0.0359 -6.93297,-0.43622 -0.33091,-0.41592 -0.36965,-1.03059 -0.23938,-3.79822 0.18486,-3.9275 0.35676,-4.30833 2.05999,-4.56374 1.2052,-0.18073 10.92481,0.0266 12.46788,0.26592 1.48696,0.23064 1.59567,0.53005 1.59567,4.39507 0,3.16109 -0.0488,3.54234 -0.5179,4.04585 -0.56922,0.61099 -0.93671,0.68131 -1.5141,0.28973 z m 19.558,-0.25522 c -0.24176,-0.16473 -2.76879,-0.23485 -6.9144,-0.19185 -6.24989,0.0648 -6.55074,0.0459 -6.93298,-0.435 -0.33675,-0.4237 -0.37514,-1.022 -0.24416,-3.80476 0.18487,-3.9275 0.35677,-4.30833 2.05999,-4.56374 1.2052,-0.18073 10.92482,0.0266 12.46788,0.26592 1.48696,0.23064 1.59567,0.53005 1.59567,4.39507 0,3.16109 -0.0488,3.54234 -0.5179,4.04585 -0.5696,0.6114 -0.93738,0.68148 -1.5141,0.28851 z m 5.95082,-0.0194 c -1.28595,-0.3499 -1.46713,-1.01959 -1.25779,-4.64909 0.27038,-4.68771 -0.31831,-4.34805 7.41475,-4.27809 3.46897,0.0314 6.67502,0.1216 7.12455,0.20048 1.49132,0.26167 1.59567,0.55017 1.59567,4.4117 0,3.20405 -0.0441,3.53729 -0.53815,4.0676 -0.40211,0.43162 -0.675,0.52688 -1.0795,0.37686 -0.7734,-0.28683 -11.49975,-0.41464 -12.03391,-0.14338 -0.24896,0.12642 -0.78957,0.13256 -1.22562,0.0139 z m -77.76395,-0.53078 c -1.25254,-0.32483 -1.41164,-0.92503 -1.20933,-4.56231 0.26596,-4.78162 -0.38834,-4.41577 7.73505,-4.32503 6.37001,0.0712 7.76532,0.22348 8.19185,0.89427 0.10547,0.16588 0.18989,1.84466 0.18759,3.73061 -0.003,2.55704 -0.0955,3.54958 -0.36332,3.90318 -0.33354,0.44039 -0.83936,0.47659 -7.09855,0.508 -3.70668,0.0186 -7.05616,-0.0483 -7.44329,-0.14872 z"
         id="path2505"
         clip-path="url(#clipPath2539)"
         transform="translate(-150.30974,-130.06575)" />
    </g>
  </g>
</svg>
