<?xml version="1.0" encoding="UTF-8" standalone="no"?>
<svg
   xmlns:dc="http://purl.org/dc/elements/1.1/"
   xmlns:cc="http://creativecommons.org/ns#"
   xmlns:rdf="http://www.w3.org/1999/02/22-rdf-syntax-ns#"
   xmlns:svg="http://www.w3.org/2000/svg"
   xmlns="http://www.w3.org/2000/svg"
   xmlns:sodipodi="http://sodipodi.sourceforge.net/DTD/sodipodi-0.dtd"
   xmlns:inkscape="http://www.inkscape.org/namespaces/inkscape"
   width="210mm"
   height="297mm"
   viewBox="0 0 210 297"
   version="1.1"
   id="svg3278"
   inkscape:version="1.0.1 (0767f8302a, 2020-10-17)"
   sodipodi:docname="neutral atoms.svg">
  <defs
     id="defs3272" />
  <sodipodi:namedview
     id="base"
     pagecolor="#ffffff"
     bordercolor="#666666"
     borderopacity="1.0"
     inkscape:pageopacity="0.0"
     inkscape:pageshadow="2"
     inkscape:zoom="0.35"
     inkscape:cx="572.93867"
     inkscape:cy="814.33646"
     inkscape:document-units="mm"
     inkscape:current-layer="layer1"
     inkscape:document-rotation="0"
     showgrid="false"
     inkscape:window-width="1439"
     inkscape:window-height="1023"
     inkscape:window-x="167"
     inkscape:window-y="27"
     inkscape:window-maximized="0" />
  <metadata
     id="metadata3275">
    <rdf:RDF>
      <cc:Work
         rdf:about="">
        <dc:format>image/svg+xml</dc:format>
        <dc:type
           rdf:resource="http://purl.org/dc/dcmitype/StillImage" />
        <dc:title></dc:title>
      </cc:Work>
    </rdf:RDF>
  </metadata>
  <g
     inkscape:label="Layer 1"
     inkscape:groupmode="layer"
     id="layer1">
    <g
       id="g4555"
       transform="translate(-252.52072,5.3315314)">
      <path
         style="fill:#fdd8e4;stroke-width:0.264583"
         d="m 292.81329,171.53278 c -0.0695,-0.0695 -4.50886,-0.29632 -9.86527,-0.50407 -7.41968,-0.28778 -9.81979,-0.46247 -10.07843,-0.73356 -0.46227,-0.48453 0.58402,-5.46891 1.68918,-8.04702 1.15284,-2.68934 2.19857,-5.91177 2.01491,-6.20895 -0.23008,-0.37228 -1.21608,-0.31449 -4.61293,0.27034 -2.34534,0.40379 -3.329,0.70694 -4.3468,1.33964 -0.72351,0.44977 -1.52686,0.76248 -1.78521,0.69492 -0.29347,-0.0768 -0.62339,0.11169 -0.87925,0.50217 -0.25831,0.39424 -0.56237,0.56636 -0.82348,0.46617 -0.26814,-0.1029 -0.68086,0.1564 -1.17165,0.73611 l -0.7577,0.89496 -0.74605,-0.73318 c -0.74171,-0.72892 -0.74657,-0.75586 -0.83483,-4.63021 -0.11722,-5.14499 1.22051,-44.74194 1.5367,-45.48674 0.14922,-0.3515 0.63673,-0.6872 1.23974,-0.8537 0.94447,-0.26078 1.02951,-0.23109 1.71292,0.598 0.92722,1.12488 2.93797,2.18121 7.37338,3.87353 7.02885,2.68184 8.53881,3.17917 9.6523,3.17917 1.08925,0 1.13304,-0.0327 1.32863,-0.99218 0.23621,-1.15879 0.56264,-15.70777 0.45396,-20.233516 l -0.0745,-3.101742 -1.64531,0.08252 c -0.94064,0.04718 -3.2162,0.552797 -5.31309,1.180537 -2.01728,0.603906 -4.75571,1.283311 -6.08542,1.509786 -1.69767,0.28915 -2.79713,0.644602 -3.69199,1.193602 -0.70089,0.430006 -1.53545,0.781828 -1.85458,0.781828 -0.31913,0 -0.72895,0.238125 -0.9107,0.529166 -0.18176,0.291042 -0.59288,0.529167 -0.91361,0.529167 -0.32072,0 -0.83645,0.317701 -1.14607,0.706001 -0.65678,0.823677 -1.18478,0.725715 -1.88891,-0.350454 -0.4341,-0.663456 -0.47106,-1.320739 -0.39875,-7.091825 0.0438,-3.498329 0.35361,-14.506948 0.6884,-24.463599 l 0.6087,-18.103003 0.59769,-0.483976 c 0.81778,-0.662196 2.02957,-0.630421 2.40065,0.06295 0.37517,0.701012 2.21566,1.866658 4.3047,2.726313 4.86196,2.000731 10.07557,3.887882 10.39857,3.763933 0.537,-0.206066 0.4714,-0.713576 -0.58473,-4.523629 -2.07435,-7.483363 -2.52127,-8.750993 -4.21202,-11.946715 -0.94267,-1.781761 -1.71394,-3.483824 -1.71394,-3.782362 0,-0.52991 0.13035,-0.542791 5.4901,-0.542533 3.01956,1.45e-4 12.00349,0.0791 19.9643,0.175452 11.75251,0.142246 14.49984,0.242047 14.61063,0.530752 0.0751,0.19556 -0.35888,1.277466 -0.96427,2.404235 -1.9641,3.655612 -2.66528,5.192538 -3.16778,6.943463 -1.27137,4.429982 -3.42088,12.681352 -3.56333,13.678587 -0.18697,1.308923 -0.78139,1.089462 5.59806,2.066838 2.47385,0.379013 5.58279,0.858531 6.90875,1.065596 1.32596,0.207063 5.90987,0.677074 10.18646,1.044464 18.42205,1.582595 19.81416,1.635223 19.81416,0.749064 0,-1.167045 -2.45144,-11.133507 -4.70631,-19.133716 -0.2666,-0.945885 -1.33596,-3.359777 -2.37637,-5.364203 -1.0404,-2.004427 -1.82421,-3.82013 -1.7418,-4.034896 0.1668,-0.434668 7.32506,-0.473054 28.93281,-0.155153 10.76881,0.158434 10.98169,0.171878 11.05708,0.698263 0.0423,0.295194 -0.57855,1.732004 -1.37961,3.19291 -1.98812,3.625728 -2.73736,5.765253 -4.76282,13.600579 -1.26539,4.895096 -2.5334,10.54115 -2.5334,11.280507 0,0.396979 0.32737,0.425569 3.24115,0.283078 6.95287,-0.340016 22.47902,-1.818941 26.92135,-2.564363 2.54662,-0.42732 5.98898,-0.953886 7.6497,-1.170148 1.66072,-0.216263 3.17293,-0.548228 3.36047,-0.737701 0.27854,-0.281414 0.0567,-1.458875 -1.21114,-6.429915 -0.85366,-3.346979 -1.68426,-6.428486 -1.84578,-6.847794 -0.16152,-0.419308 -0.40954,-1.279392 -0.55115,-1.911299 -0.26581,-1.186079 -1.20407,-3.231479 -3.11164,-6.783327 -0.60515,-1.126769 -1.03142,-2.228097 -0.94726,-2.447396 0.17045,-0.444205 7.16474,-0.4837 28.93597,-0.163394 10.74976,0.158154 10.98181,0.172751 11.05672,0.695493 0.0421,0.293672 -0.62627,1.841485 -1.4852,3.439583 -1.95534,3.638005 -2.424,4.94676 -4.30682,12.027005 -0.6656,2.502971 -0.92852,3.919598 -0.75893,4.089191 0.33489,0.334891 1.15926,0.08314 6.60673,-2.017607 4.25773,-1.641941 6.57305,-2.904757 7.21738,-3.936495 0.45033,-0.721099 1.65998,-0.652106 2.45194,0.139847 0.56544,0.565447 0.64943,0.888226 0.64943,2.495954 0,1.015587 0.24707,8.908891 0.54903,17.540673 0.30197,8.631782 0.56986,18.809382 0.59531,22.616886 l 0.0463,6.922738 -0.64143,0.684033 c -0.82005,0.874509 -1.11302,0.86042 -1.81364,-0.08723 -0.39505,-0.534332 -0.72849,-0.729867 -1.08544,-0.636524 -0.34316,0.08974 -0.61425,-0.0503 -0.81176,-0.419367 -0.17611,-0.329047 -0.5577,-0.554101 -0.93951,-0.554101 -0.35363,0 -1.18447,-0.343416 -1.84632,-0.763146 -0.85172,-0.54015 -1.95611,-0.897909 -3.7795,-1.224346 -1.41688,-0.253661 -4.12396,-0.90556 -6.01573,-1.448663 -1.89177,-0.543102 -4.00513,-1.001601 -4.69635,-1.018886 l -1.25677,-0.03143 0.008,9.9823 c 0.008,9.80725 0.23392,13.74239 0.80927,14.09797 0.53444,0.3303 2.7336,-0.0868 5.0034,-0.94895 10.99418,-4.17601 11.91198,-4.60121 13.424,-6.21907 0.76835,-0.82213 0.78177,-0.82537 1.74865,-0.42138 0.5359,0.22392 1.03129,0.56132 1.10085,0.7498 0.20127,0.54528 1.45358,38.33624 1.45358,43.86468 0,5.20105 -0.13304,5.97727 -1.13129,6.60069 -0.51054,0.31883 -0.63124,0.27253 -1.26334,-0.48462 -0.4532,-0.54286 -0.84577,-0.78075 -1.1168,-0.67675 -0.26845,0.10302 -0.57126,-0.0736 -0.84662,-0.49389 -0.27125,-0.41397 -0.60122,-0.60915 -0.89842,-0.53143 -0.25835,0.0676 -1.05657,-0.23975 -1.77382,-0.68291 -0.9361,-0.57838 -2.08802,-0.95435 -4.08221,-1.33239 -3.05346,-0.57884 -4.91439,-0.74556 -5.19456,-0.46539 -0.25041,0.25041 0.25585,1.89041 1.69069,5.47697 1.17332,2.93287 2.51122,8.24521 2.24949,8.93197 -0.0698,0.18316 -0.38166,0.38467 -0.69303,0.44781 -1.05998,0.21494 -17.75732,0.6599 -19.35155,0.5157 -0.87312,-0.079 -5.54641,-0.28998 -10.38508,-0.46889 -4.83867,-0.17891 -8.91236,-0.44007 -9.05264,-0.58035 -0.55797,-0.55797 0.61271,-5.33935 2.45929,-10.04445 0.81987,-2.08902 2.93986,-9.54364 3.28545,-11.55277 0.10595,-0.61592 -0.008,-0.76701 -0.8417,-1.11532 -1.28792,-0.53813 -10.06801,-2.3366 -15.49553,-3.17403 -7.88198,-1.21614 -19.37047,-2.38702 -20.79639,-2.11951 -1.01785,0.19095 -1.00197,-0.17071 -0.20807,4.74005 0.67625,4.18301 2.82505,11.776 4.35005,15.37129 0.56146,1.32368 1.14373,3.16915 1.29394,4.10104 0.1502,0.93188 0.38718,2.08811 0.52662,2.56939 0.31296,1.0802 0.13051,1.60827 -0.60731,1.75775 -1.51665,0.30727 -17.86825,0.62775 -21.33592,0.41818 -2.11005,-0.12753 -6.62964,-0.3176 -10.04352,-0.42238 -6.85864,-0.21051 -7.56464,-0.31042 -7.52412,-1.06474 0.10231,-1.9046 1.05445,-5.77343 1.93235,-7.85173 2.26469,-5.36128 5.29409,-17.80689 4.70688,-19.33713 -0.21387,-0.55733 -1.35819,-0.56242 -6.93097,-0.0308 -10.20302,0.97337 -16.97056,1.94929 -24.98441,3.6029 -6.1431,1.26759 -7.16246,1.62211 -7.16246,2.49101 0,0.62005 1.3633,6.00015 2.40922,9.5077 0.30375,1.01865 1.01568,2.94915 1.58206,4.29 0.56639,1.34086 1.20599,3.44833 1.42134,4.68326 0.21536,1.23494 0.46448,2.5359 0.55361,2.89103 0.0987,0.39338 0.0312,0.72659 -0.17293,0.85272 -0.18424,0.11387 -4.15271,0.3593 -8.81883,0.54539 -9.88666,0.39431 -10.33914,0.40453 -10.50636,0.23731 z m 1.92768,-29.2849 c 2.51732,-0.75421 4.45529,-3.5554 4.45529,-6.43981 0,-6.3974 -7.90706,-9.19926 -11.82059,-4.18862 -1.00865,1.29141 -1.40378,2.46447 -1.40193,4.16196 0.002,1.94394 0.39261,3.08089 1.50411,4.37943 1.76566,2.06278 4.61315,2.88099 7.26312,2.08704 z m 131.28305,-1.70287 c 0.69279,-0.23605 1.7376,-0.90727 2.36811,-1.52135 2.68956,-2.61946 2.67323,-7.07564 -0.0356,-9.70288 -1.41022,-1.36776 -2.70314,-1.84821 -4.96395,-1.8446 -2.03667,0.003 -3.92225,1.03727 -5.08067,2.78617 -3.66629,5.53509 1.48562,12.40423 7.71208,10.28266 z m -64.7778,-0.88882 c 2.21631,-0.99616 3.83646,-3.55334 3.83646,-6.0553 0,-5.40315 -5.7837,-8.68183 -10.20086,-5.78268 -4.09137,2.68532 -4.03898,9.06799 0.0943,11.49026 2.04248,1.19697 4.12383,1.3124 6.27009,0.34772 z m -12.96926,-15.42394 c 0.0214,-0.0362 0.38318,-2.38756 0.8041,-5.22522 0.7323,-4.93694 0.76929,-5.63846 0.85793,-16.27187 0.0586,-7.029877 -0.019,-12.327571 -0.21123,-14.419795 -0.16712,-1.819011 -0.36117,-4.21739 -0.43123,-5.329732 l -0.12738,-2.022444 -1.36979,-0.170293 c -2.34928,-0.292063 -19.79186,1.467826 -27.56355,2.781056 -4.56193,0.770856 -15.73343,3.141668 -16.66875,3.537434 -0.43656,0.184724 -1.10984,0.463944 -1.49618,0.620485 -0.65699,0.266213 -0.71423,0.426905 -0.88502,2.484578 -0.31456,3.78983 0.0316,24.691721 0.44609,26.938501 0.20136,1.0914 0.44818,2.11687 0.54848,2.27881 0.25939,0.41877 2.04745,0.83867 4.9585,1.16442 1.38245,0.1547 4.59714,0.62654 7.14375,1.04853 6.22083,1.03085 12.07562,1.61979 27.38438,2.7546 3.47623,0.25769 6.40249,0.18284 6.6099,-0.16906 z m -45.89648,-16.25596 c 0.003,-0.74811 0.0702,-0.90553 0.26054,-0.61093 0.33439,0.51744 0.33439,1.24854 0,1.45521 -0.15893,0.0982 -0.26297,-0.23892 -0.26054,-0.84428 z m 45.88233,0.0697 c -0.0887,-0.35326 -0.035,-0.85928 0.1192,-1.12448 0.22966,-0.39491 0.28187,-0.27865 0.28846,0.64229 0.009,1.25319 -0.16308,1.45669 -0.40766,0.48219 z m -45.7874,-5.04625 c 5.3e-4,-1.60073 0.0442,-2.22146 0.0968,-1.3794 0.0527,0.84205 0.0522,2.15174 -10e-4,2.91041 -0.0533,0.75867 -0.0964,0.0697 -0.0958,-1.53101 z m 45.83454,1.83044 c -0.23679,-0.61706 -0.15981,-4.12699 0.10398,-4.74086 0.14674,-0.341482 0.23399,0.47963 0.24599,2.31511 0.0102,1.56435 -0.0282,2.84427 -0.0854,2.84427 -0.0572,0 -0.17625,-0.18833 -0.26458,-0.41852 z m -45.91561,-7.770337 c -0.0136,-0.69579 0.0555,-0.83938 0.29096,-0.603945 0.22838,0.228375 0.23304,0.466259 0.0179,0.912812 -0.27325,0.567182 -0.29205,0.548381 -0.30886,-0.308867 z m 45.91519,-0.168259 c -0.0886,-0.230788 -0.0454,-0.617741 0.0959,-0.859896 0.20439,-0.350215 0.2586,-0.264376 0.265,0.419614 0.009,0.941541 -0.11203,1.088943 -0.36094,0.440282 z m 35.72734,26.744136 c 11.58971,-0.97058 12.72873,-1.09986 18.74894,-2.12802 2.03729,-0.34793 4.77573,-0.75543 6.08541,-0.90555 2.64,-0.3026 4.56684,-0.74936 4.79012,-1.11063 0.0804,-0.13017 0.33276,-1.33423 0.56068,-2.67569 0.31736,-1.86782 0.4416,-5.16534 0.5305,-14.08067 0.0639,-6.402921 0.0372,-12.273593 -0.0593,-13.045947 -0.14947,-1.196919 -0.27971,-1.446201 -0.88203,-1.688226 -0.38866,-0.156173 -1.06385,-0.446172 -1.50041,-0.644441 -1.09134,-0.495646 -13.35128,-3.087256 -18.52083,-3.915089 -7.73818,-1.239166 -21.70971,-2.669209 -24.34167,-2.49147 l -1.32292,0.08934 -0.15696,1.852083 c -0.0863,1.018646 -0.30309,3.048847 -0.48169,4.511559 -0.23037,1.886722 -0.29349,6.307246 -0.21722,15.213541 0.0954,11.14239 0.16924,12.92596 0.65646,15.86135 0.30191,1.81901 0.62528,3.8653 0.7186,4.5473 0.11604,0.84808 0.31169,1.27742 0.61899,1.35837 1.09285,0.28789 4.41262,0.11984 14.7733,-0.74781 z m -15.46302,-15.6089 c 0.005,-0.43656 0.0647,-0.58312 0.13177,-0.32569 0.0671,0.25743 0.0627,0.61462 -0.01,0.79375 -0.0725,0.17913 -0.12736,-0.0315 -0.12197,-0.46806 z m 44.51188,0.0192 c -0.0887,-0.35326 -0.035,-0.85928 0.1192,-1.12448 0.22966,-0.39491 0.28187,-0.27866 0.28846,0.64229 0.009,1.25319 -0.16308,1.45669 -0.40766,0.48219 z m 0.0519,-3.35952 c -0.23262,-1.16312 -0.17214,-3.96566 0.0992,-4.59714 0.14587,-0.339447 0.23406,0.53799 0.24599,2.4474 0.0102,1.63711 -0.0261,2.97656 -0.0806,2.97656 -0.0546,0 -0.17363,-0.37207 -0.26458,-0.82682 z m -0.0204,-7.705992 c -0.11085,-0.254661 -0.11085,-0.67138 0,-0.926041 0.19194,-0.440973 0.20681,-0.440973 0.31229,0 0.0609,0.254661 0.0609,0.67138 0,0.926041 -0.10548,0.440973 -0.12035,0.440973 -0.31229,0 z m -44.55317,-1.25677 c 0,-0.363802 0.0601,-0.512631 0.13345,-0.33073 0.0734,0.181902 0.0734,0.479558 0,0.661459 -0.0734,0.181901 -0.13345,0.03307 -0.13345,-0.330729 z m -0.0337,-1.441979 c -0.006,-0.569207 0.071,-0.701466 0.28396,-0.488522 0.20927,0.209272 0.21155,0.430408 0.008,0.780521 -0.24893,0.428262 -0.28495,0.392242 -0.292,-0.291999 z M 294.68062,80.227862 c 2.90634,-0.863092 4.67133,-3.426465 4.6333,-6.729163 -0.0236,-2.054964 -0.6461,-3.433123 -2.17398,-4.81347 -4.78588,-4.323759 -12.2335,0.124722 -10.90693,6.514746 0.63908,3.078466 3.0039,4.968321 6.76884,5.409355 0.15549,0.0182 0.91094,-0.153445 1.67877,-0.381468 z m 132.18227,-1.109038 c 2.38284,-1.226121 3.43254,-3.066833 3.43131,-6.017 -10e-4,-2.498805 -0.54924,-3.782473 -2.22955,-5.220759 -1.87473,-1.604697 -4.90413,-2.022477 -7.06837,-0.974791 -3.94658,1.910506 -5.1057,7.253071 -2.28787,10.545074 1.44431,1.687357 3.21954,2.453064 5.37636,2.318975 1.02954,-0.06401 2.14456,-0.32549 2.77812,-0.651499 z m -65.45248,-0.472003 c 4.35632,-1.536999 5.60061,-7.73163 2.23005,-11.102186 -2.81658,-2.816577 -7.28869,-2.555037 -9.8546,0.576323 -2.85201,3.480506 -1.3682,8.94789 2.89303,10.659953 0.95141,0.382255 3.47038,0.310867 4.73152,-0.13409 z m -79.07559,29.379999 c 0.003,-0.58208 0.0571,-0.78905 0.12041,-0.45993 0.0633,0.32911 0.0609,0.80536 -0.005,1.05833 -0.0662,0.25297 -0.118,-0.0163 -0.11506,-0.5984 z m 151.07175,0.13229 c 0,-0.50932 0.0545,-0.71768 0.121,-0.46302 0.0665,0.25466 0.0665,0.67138 0,0.92604 -0.0666,0.25467 -0.121,0.0463 -0.121,-0.46302 z m 0.0293,-5.42395 c 10e-4,-1.16417 0.0475,-1.60751 0.10337,-0.9852 0.0559,0.62231 0.0551,1.57481 -0.002,2.11667 -0.0568,0.54185 -0.10258,0.0327 -0.10162,-1.13147 z M 282.32948,96.252864 c 0,-0.509323 0.0545,-0.717682 0.12101,-0.463021 0.0665,0.254662 0.0665,0.671381 0,0.926042 -0.0666,0.254662 -0.12101,0.0463 -0.12101,-0.463021 z m 151.05748,-0.264583 c 0,-0.363802 0.06,-0.51263 0.13345,-0.330729 0.0734,0.181901 0.0734,0.479557 0,0.661458 -0.0734,0.181901 -0.13345,0.03307 -0.13345,-0.330729 z M 282.16369,94.510334 c -0.0886,-0.230788 -0.0454,-0.617741 0.0959,-0.859895 0.2044,-0.350216 0.25861,-0.264377 0.26501,0.419613 0.009,0.941541 -0.11203,1.088943 -0.36095,0.440282 z"
         id="path4569" />
      <path
         style="fill:#fde7ce;stroke-width:0.264583"
         d="m 261.34599,160.1289 c -0.60867,-0.64745 -0.64597,-0.88056 -0.73021,-4.56406 -0.11734,-5.13039 1.22084,-44.72745 1.5367,-45.47148 0.14922,-0.3515 0.63673,-0.6872 1.23974,-0.8537 0.94447,-0.26078 1.02951,-0.23109 1.71292,0.598 0.39551,0.47983 1.41265,1.24102 2.26031,1.69155 2.73336,1.45277 14.76895,5.92349 16.39759,6.09103 1.02877,0.10583 1.10813,0.0655 1.25758,-0.63919 0.47695,-2.24903 0.67837,-6.77574 0.68248,-15.33798 0.005,-11.220503 0.17486,-10.589408 -2.59871,-9.6768 -5.22799,1.720207 -10.07058,3.028426 -12.92176,3.490796 -1.24478,0.201864 -2.31898,0.574297 -3.11804,1.081046 -0.67047,0.425198 -1.48392,0.773086 -1.80766,0.773086 -0.32374,0 -0.73734,0.238125 -0.91909,0.529166 -0.18176,0.291042 -0.59288,0.529167 -0.91361,0.529167 -0.32072,0 -0.83645,0.317701 -1.14607,0.706001 -0.65678,0.823677 -1.18478,0.725715 -1.88891,-0.350454 -0.4341,-0.663456 -0.47106,-1.320739 -0.39875,-7.091825 0.0438,-3.498329 0.35361,-14.506948 0.6884,-24.463599 l 0.6087,-18.103003 0.59769,-0.483976 c 0.89203,-0.722325 1.92689,-0.619443 2.57406,0.255906 0.93692,1.267242 2.79302,2.114962 13.24588,6.049668 1.34673,0.506939 2.65641,0.880893 2.91042,0.831011 0.418,-0.08209 0.45254,-0.429834 0.36397,-3.664627 -0.0839,-3.065431 -0.0362,-3.625076 0.33527,-3.933386 0.3574,-0.296618 2.29394,-0.327215 11.07806,-0.175032 5.85472,0.101432 10.8533,0.24479 11.10796,0.318574 0.4003,0.115981 0.46238,0.481189 0.45828,2.696012 -0.003,1.40902 -0.1763,3.689003 -0.38596,5.066627 -0.4641,3.049416 -0.26901,3.447936 1.68848,3.44904 0.66867,2.64e-4 3.12076,0.305295 5.4491,0.677595 2.32833,0.3723 5.31821,0.845899 6.64417,1.052441 2.36069,0.367718 12.85982,1.323186 23.12145,2.104157 2.83766,0.215964 5.72845,0.465151 6.42397,0.553752 1.44153,0.183634 2.18322,-0.191852 1.79886,-0.910685 -0.46508,-0.869805 -1.6359,-10.458627 -1.55538,-12.738362 l 0.0794,-2.248958 4.23333,-0.06411 c 2.32834,-0.03526 7.44802,0.02427 11.37709,0.132291 l 7.14375,0.196403 0.0767,2.019303 c 0.0659,1.736071 -0.93898,10.603187 -1.41798,12.511666 -0.2928,1.166638 -1.6017,1.196398 17.34856,-0.394459 5.16599,-0.433681 11.13039,-1.080244 13.25422,-1.436807 6.19037,-1.039278 8.98868,-1.425008 10.78216,-1.486249 1.07589,-0.03674 1.8679,-0.210232 2.2047,-0.482949 0.51587,-0.417735 0.51755,-0.481833 0.0907,-3.461393 -0.23919,-1.669679 -0.39787,-4.04781 -0.35262,-5.284737 l 0.0823,-2.248958 4.23334,-0.06411 c 2.32833,-0.03526 7.44802,0.02427 11.37708,0.132291 l 7.14375,0.196403 -0.0367,3.497231 c -0.0453,4.313973 -0.11139,4.2653 3.68258,2.713101 1.48729,-0.608484 4.12083,-1.628593 5.85231,-2.266905 3.27856,-1.208646 5.37588,-2.370003 6.22153,-3.445071 0.64784,-0.823597 1.71407,-0.815739 2.5486,0.01879 0.56544,0.565447 0.64943,0.888226 0.64943,2.495954 0,1.015587 0.24707,8.908891 0.54903,17.540673 0.30197,8.631782 0.56986,18.809382 0.59531,22.616886 l 0.0463,6.922738 -0.64143,0.684033 c -0.82005,0.874509 -1.11302,0.86042 -1.81364,-0.08723 -0.39505,-0.534332 -0.72849,-0.729867 -1.08544,-0.636524 -0.34316,0.08974 -0.61425,-0.0503 -0.81176,-0.419367 -0.17611,-0.329048 -0.5577,-0.554102 -0.93951,-0.554102 -0.35363,0 -1.18447,-0.343416 -1.84632,-0.763146 -0.85069,-0.539491 -1.95834,-0.898689 -3.7795,-1.225656 -2.29642,-0.412289 -7.82052,-1.933567 -11.62238,-3.200672 -2.30469,-0.768125 -2.19927,-1.231993 -2.19397,9.653634 0.006,11.51414 0.34328,15.73158 1.28351,16.02999 0.47647,0.15123 5.87876,-1.53329 8.63378,-2.69215 0.87312,-0.36726 3.0807,-1.23156 4.90572,-1.92066 3.5951,-1.35745 5.06636,-2.16839 6.26933,-3.45556 0.76835,-0.82213 0.78176,-0.82537 1.74865,-0.42138 0.5359,0.22392 1.03128,0.56132 1.10085,0.7498 0.20127,0.54528 1.45357,38.33624 1.45357,43.86468 0,5.20105 -0.13303,5.97727 -1.13129,6.60069 -0.51053,0.31883 -0.63124,0.27253 -1.26333,-0.48462 -0.45321,-0.54286 -0.84578,-0.78075 -1.1168,-0.67675 -0.26846,0.10302 -0.57126,-0.0736 -0.84663,-0.49389 -0.27124,-0.41397 -0.60121,-0.60915 -0.89842,-0.53143 -0.25835,0.0676 -1.05657,-0.23975 -1.77382,-0.68291 -0.94652,-0.58482 -2.10208,-0.95836 -4.2145,-1.36234 -1.60073,-0.30613 -3.61788,-0.79427 -4.48255,-1.08475 -1.01401,-0.34064 -1.88287,-0.46985 -2.4474,-0.36394 -0.74361,0.1395 -0.87526,0.27584 -0.87526,0.90648 0,1.22128 -0.53256,2.40013 -1.15092,2.54762 -2.23829,0.53388 -23.61912,0.0543 -24.44318,-0.54823 -0.73553,-0.53783 -0.78395,-3.9513 -0.0943,-6.64619 0.67657,-2.64374 0.67893,-2.79267 0.0505,-3.18512 -0.65314,-0.4079 -12.14611,-2.75365 -17.75379,-3.62362 -4.18054,-0.64855 -11.40355,-1.51576 -15.61042,-1.87421 -1.09141,-0.093 -2.97114,-0.29259 -4.17718,-0.44355 -1.20605,-0.15096 -2.50366,-0.19646 -2.88357,-0.1011 l -0.69076,0.17337 0.16725,2.69707 c 0.10182,1.6419 0.47769,3.88747 0.96074,5.73979 1.13456,4.35062 1.00043,7.48951 -0.33366,7.80813 -2.24789,0.53687 -23.62989,0.0608 -24.45775,-0.54457 -0.85116,-0.62238 -0.78294,-3.94974 0.15706,-7.66044 0.44236,-1.74625 0.88467,-4.27032 0.98291,-5.60905 l 0.17863,-2.43405 -0.6834,-0.17152 c -1.13535,-0.28496 -16.12803,1.24258 -23.72444,2.41717 -2.40109,0.37127 -6.62781,1.14745 -9.3927,1.72484 -2.7649,0.5774 -5.67953,1.17548 -6.47696,1.32909 -1.31024,0.25238 -2.91575,0.87969 -2.91575,1.13923 0,0.0561 0.30933,1.26412 0.6874,2.68459 0.82302,3.09219 0.84245,6.51951 0.0403,7.10607 -0.53463,0.39093 -10.33898,0.80749 -12.80717,0.54414 -0.85061,-0.0908 -3.83994,-0.25416 -6.64296,-0.36312 -3.45194,-0.13417 -5.20209,-0.30347 -5.42395,-0.52467 -0.18017,-0.17962 -0.44663,-0.87826 -0.59215,-1.55253 -0.36687,-1.69986 -1.13591,-1.90009 -3.83646,-0.99884 -1.09141,0.36423 -3.05263,0.83938 -4.35828,1.05588 -1.72102,0.28538 -2.73457,0.61785 -3.68534,1.20888 -0.72129,0.44838 -1.52281,0.75996 -1.78116,0.6924 -0.29156,-0.0762 -0.62158,0.10892 -0.87008,0.48817 -0.25173,0.38419 -0.57742,0.56471 -0.87735,0.48627 -0.31452,-0.0823 -0.68066,0.15073 -1.0749,0.68397 -0.72652,0.98267 -0.84683,0.99183 -1.66042,0.12641 z m 33.23817,-17.60481 c 1.42195,-0.35805 3.35361,-1.98625 4.16073,-3.5071 0.7745,-1.45936 0.82512,-4.86363 0.093,-6.25163 -1.77886,-3.37229 -5.79025,-4.85577 -9.03922,-3.34285 -4.20914,1.96004 -5.44647,7.47724 -2.4423,10.89016 1.95752,2.22386 4.3145,2.945 7.22782,2.21142 z m 131.25008,-1.68297 c 2.8238,-0.83859 4.6685,-3.37979 4.70991,-6.48826 0.0314,-2.35667 -0.61809,-3.92801 -2.21817,-5.36663 -5.05251,-4.54264 -12.82021,0.12529 -11.27437,6.77524 0.9375,4.03301 4.79472,6.26393 8.78263,5.07965 z m -64.54665,-0.92708 c 4.3695,-1.91682 5.41271,-7.9561 1.96492,-11.37522 -4.41617,-4.37945 -11.64035,-1.26377 -11.64035,5.02029 0,2.61221 1.19474,4.74269 3.3767,6.0214 2.03547,1.19287 4.09163,1.30175 6.29873,0.33353 z m -11.47666,-15.3245 c 0.1135,-0.11048 0.58754,-2.69166 1.05342,-5.73596 l 0.84706,-5.53509 -0.0162,-13.09688 c -0.0154,-12.515668 -0.0417,-13.200534 -0.5904,-15.432866 -0.31583,-1.284795 -0.57423,-2.669201 -0.57423,-3.076456 0,-1.441632 -0.10363,-1.449773 -8.65884,-0.680299 -9.42928,0.84809 -17.0765,1.762707 -22.31595,2.669011 -6.85715,1.186132 -19.29113,3.966895 -19.73863,4.41439 -0.36357,0.363574 -0.43697,1.772089 -0.55041,10.562349 -0.12826,9.938691 0.0831,15.321751 0.7527,19.166651 0.3794,2.17865 0.71424,2.36045 4.73821,2.57263 1.67349,0.0882 5.54302,0.5693 8.59896,1.06901 3.05594,0.49972 6.09203,0.98119 6.74688,1.06994 1.48021,0.2006 14.95305,1.34398 22.225,1.88614 2.98317,0.22241 5.54302,0.4528 5.68854,0.51198 0.33951,0.13805 1.52502,-0.10286 1.79387,-0.36455 z m 34.32175,-0.96224 c 12.4304,-1.03611 10.99938,-0.87296 18.52084,-2.1116 3.12869,-0.51524 6.99823,-1.00937 8.59895,-1.09807 4.01619,-0.22253 4.22273,-0.35355 4.60494,-2.9213 0.69386,-4.66155 0.88081,-9.22306 0.77057,-18.801446 -0.0999,-8.684723 -0.1652,-9.912813 -0.54692,-10.294538 -0.54168,-0.541679 -13.26805,-3.406063 -20.83588,-4.689626 -5.73418,-0.972563 -14.12181,-1.983771 -22.20602,-2.677149 -2.68169,-0.230007 -4.97119,-0.477141 -5.08776,-0.549185 -0.11657,-0.07205 -0.44109,-0.0084 -0.72116,0.141531 -0.3599,0.192614 -0.56066,0.681101 -0.68464,1.665883 -0.0965,0.766347 -0.36875,2.0482 -0.60503,2.848565 -0.37078,1.255948 -0.43176,3.302891 -0.44531,14.948955 l -0.0157,13.49375 0.76891,5.29167 c 0.4229,2.91041 0.89704,5.45624 1.05363,5.65739 0.3437,0.44149 1.28725,0.39076 16.83058,-0.90483 z M 294.74386,80.387025 c 1.25288,-0.386974 1.96752,-0.810017 2.79347,-1.653646 1.48441,-1.516179 1.92995,-2.681131 1.92288,-5.027745 -0.007,-2.3867 -0.53975,-3.645929 -2.17809,-5.150162 -4.99129,-4.582736 -12.78047,0.181767 -11.20937,6.856579 0.6229,2.646389 2.89858,4.782926 5.58806,5.246375 0.58208,0.100304 1.13509,0.197274 1.2289,0.215488 0.0938,0.0182 0.92818,-0.200885 1.85415,-0.486889 z m 131.55525,-0.812684 c 2.53099,-0.946965 4.40024,-3.69653 4.40024,-6.472517 0,-1.569458 -0.79451,-3.58452 -1.87587,-4.757658 -1.51277,-1.641168 -3.31962,-2.350715 -5.57508,-2.189337 -2.23539,0.15994 -3.91324,1.162735 -5.24905,3.137183 -0.89251,1.319209 -0.92604,1.457158 -0.92604,3.809812 0,2.339038 0.0374,2.495878 0.89552,3.753352 1.98495,2.9088 5.10307,3.926618 8.33028,2.719165 z M 361.4114,78.911314 c 2.26766,-0.799573 4.12509,-3.253629 4.38758,-5.796944 0.55781,-5.404641 -4.95516,-9.477242 -9.65723,-7.134098 -4.15235,2.069198 -5.35,7.278976 -2.50043,10.876846 1.72248,2.174812 4.98318,3.03685 7.77008,2.054196 z"
         id="path4567" />
      <path
         style="fill:#fdc9d8;stroke-width:0.264583"
         d="m 291.7931,158.79808 c -0.3638,-0.0608 -3.07395,-0.20568 -6.02255,-0.32198 -3.64537,-0.14379 -5.46589,-0.31595 -5.68854,-0.53793 -0.1801,-0.17955 -0.44651,-0.87909 -0.59203,-1.55452 -0.23226,-1.07803 -0.36964,-1.25524 -1.12448,-1.45053 -0.67519,-0.17468 -0.8599,-0.36151 -0.8599,-0.86975 0,-0.56167 -0.0962,-0.62986 -0.7276,-0.51554 -0.40019,0.0725 -2.30541,0.35305 -4.23384,0.62355 -2.41322,0.3385 -3.93909,0.6997 -4.89479,1.15868 -0.76371,0.36678 -1.83505,0.66673 -2.38075,0.66657 -0.8384,-2.6e-4 -0.99245,-0.0885 -0.99387,-0.56944 -9.3e-4,-0.31301 0.30385,-9.6774 0.67729,-20.80974 0.51191,-15.26041 0.76173,-20.32496 1.01534,-20.58337 0.2749,-0.28012 1.29933,-0.10243 5.60656,0.97251 2.89861,0.7234 6.2227,1.63497 7.38687,2.02573 1.97875,0.66417 5.40541,1.02311 5.81899,0.60954 0.56197,-0.56197 0.76824,-4.42133 0.78134,-14.61878 l 0.0143,-11.089157 -0.87534,-0.489617 c -1.13507,-0.634892 -2.8093,-0.510564 -7.19445,0.53426 -1.81901,0.433403 -4.61698,0.980821 -6.21771,1.216482 -1.74354,0.256689 -3.33473,0.655175 -3.96875,0.993905 -0.58208,0.310986 -1.62388,0.643115 -2.3151,0.738068 l -1.25677,0.172641 0.0101,-3.193711 c 0.006,-1.756542 0.28739,-11.213621 0.62629,-21.015734 0.44318,-12.818147 0.70377,-17.876155 0.92814,-18.014825 0.34053,-0.210455 7.25668,1.380929 11.62959,2.675932 1.72129,0.509746 2.80541,0.713475 2.91042,0.546925 0.092,-0.145981 0.40546,-0.311377 0.6965,-0.367551 0.5039,-0.09726 0.52449,-0.272754 0.43132,-3.676065 -0.0839,-3.065431 -0.0362,-3.625076 0.33526,-3.933386 0.3574,-0.296618 2.29394,-0.327215 11.07806,-0.175032 5.85472,0.101432 10.8533,0.24479 11.10796,0.318574 0.4003,0.115981 0.46238,0.481189 0.45828,2.696012 -0.003,1.40902 -0.17515,3.681425 -0.38343,5.049789 -0.37232,2.446113 -0.3689,2.500286 0.20318,3.22307 0.41127,0.519599 0.96974,0.813003 1.90479,1.000712 1.14963,0.230791 12.09211,1.938957 14.68437,2.292292 2.42072,0.329954 23.42652,1.976202 25.21594,1.976202 1.69835,0 2.13928,-0.09317 2.68452,-0.567251 0.46823,-0.407125 0.58826,-0.687208 0.42519,-0.992188 -0.46081,-0.861803 -1.62989,-10.462725 -1.54988,-12.728061 l 0.0794,-2.248958 4.23333,-0.06411 c 2.32834,-0.03526 7.44802,0.02427 11.37709,0.132291 l 7.14375,0.196403 0.079,1.982732 c 0.0708,1.775383 -1.05649,11.57369 -1.44928,12.597278 -0.0865,0.225396 0.099,0.63328 0.42688,0.938763 0.81385,0.758213 3.27083,0.711118 14.96628,-0.286875 10.90352,-0.930418 10.14381,-0.842044 17.44005,-2.028735 3.04359,-0.495019 5.83181,-0.900038 6.19604,-0.900038 1.24347,0 4.01287,-0.582914 4.01287,-0.844645 0,-0.143637 0.24798,-0.461955 0.55105,-0.707375 0.54741,-0.443261 0.54818,-0.466322 0.11617,-3.481993 -0.23919,-1.669679 -0.39787,-4.04781 -0.35262,-5.284737 l 0.0823,-2.248958 4.23334,-0.06411 c 2.32833,-0.03526 7.44802,0.02427 11.37708,0.132291 l 7.14375,0.196403 -0.0371,3.507973 c -0.0369,3.491751 -0.0342,3.508706 0.59531,3.666704 0.34784,0.0873 0.63244,0.252346 0.63244,0.366768 0,0.114419 0.38695,0.11217 0.85989,-0.005 0.47295,-0.117171 3.2692,-0.819008 6.21391,-1.559637 6.13474,-1.54296 6.62266,-1.596887 6.79763,-0.751287 0.17841,0.862219 1.45135,40.961067 1.31185,41.324594 -0.17559,0.457565 -1.89151,0.189601 -3.40933,-0.532413 -0.77115,-0.366831 -2.48161,-0.799666 -4.10104,-1.03777 -1.52797,-0.22466 -4.20687,-0.747993 -5.95312,-1.162965 -1.74625,-0.41497 -3.69167,-0.769284 -4.32317,-0.787358 -0.63149,-0.01807 -1.25657,-0.09986 -1.38906,-0.18175 -0.13249,-0.08189 -0.2409,-0.02929 -0.2409,0.11688 0,0.146169 -0.32742,0.42265 -0.7276,0.614407 l -0.7276,0.348644 -0.0784,9.124647 c -0.0696,8.10503 0.16755,13.892 0.64772,15.80516 0.3139,1.25064 2.7571,1.14613 7.10356,-0.3039 3.22462,-1.07576 12.06138,-3.15232 12.31888,-2.89482 0.19522,0.19522 1.57136,35.86785 1.57166,40.741 l 9e-5,1.3603 -1.12448,-0.0404 c -0.61847,-0.0222 -1.63614,-0.31221 -2.2615,-0.64447 -0.79469,-0.42222 -2.42772,-0.79852 -5.42396,-1.24983 -2.35782,-0.35515 -4.37624,-0.64751 -4.48538,-0.64968 -0.10914,-0.002 -0.19843,0.28045 -0.19843,0.62805 0,0.51283 -0.17465,0.66478 -0.92604,0.80574 -0.797,0.14952 -0.92605,0.27717 -0.92605,0.91601 0,1.22128 -0.53256,2.40013 -1.15092,2.54762 -2.22277,0.53018 -23.61849,0.0548 -24.43593,-0.54293 -0.76562,-0.55984 -0.79209,-3.71364 -0.0573,-6.82629 0.5666,-2.40016 0.58099,-2.63006 0.17866,-2.85521 -0.24066,-0.13468 -0.61705,-0.42436 -0.83643,-0.64374 -0.21938,-0.21938 -0.88283,-0.56962 -1.47434,-0.77832 -1.6244,-0.57312 -10.42193,-2.38288 -15.35083,-3.15784 -10.00183,-1.57258 -22.225,-2.7126 -22.225,-2.07285 0,0.15222 -0.31534,0.35592 -0.70075,0.45265 l -0.70076,0.17588 0.16725,2.69707 c 0.10182,1.6419 0.47769,3.88747 0.96074,5.73979 1.13456,4.35062 1.00043,7.48951 -0.33366,7.80813 -2.24789,0.53687 -23.62989,0.0608 -24.45775,-0.54457 -0.85116,-0.62238 -0.78294,-3.94974 0.15706,-7.66044 0.44236,-1.74625 0.8829,-4.24763 0.97897,-5.55862 l 0.17468,-2.38362 -1.07257,-0.47322 c -1.40822,-0.6213 -3.3878,-0.60678 -9.96592,0.0731 -13.461,1.39129 -29.29043,4.33478 -30.73324,5.71487 -0.29372,0.28094 -0.73843,0.62987 -0.98825,0.77539 -0.42365,0.24677 -0.40878,0.43379 0.22098,2.77812 1.01584,3.78152 0.88034,7.16309 -0.30048,7.49914 -0.62112,0.17676 -11.91635,0.42185 -12.7813,0.27733 z m 2.79106,-16.27399 c 1.42195,-0.35805 3.35361,-1.98625 4.16073,-3.5071 0.7745,-1.45936 0.82512,-4.86363 0.093,-6.25163 -1.77886,-3.37229 -5.79025,-4.85577 -9.03922,-3.34285 -4.20914,1.96004 -5.44647,7.47724 -2.4423,10.89016 1.95752,2.22386 4.3145,2.945 7.22782,2.21142 z m 131.25008,-1.68297 c 2.8238,-0.83859 4.6685,-3.37979 4.70991,-6.48826 0.0314,-2.35667 -0.61809,-3.92801 -2.21817,-5.36663 -5.05251,-4.54264 -12.82021,0.12529 -11.27437,6.77524 0.9375,4.03301 4.79472,6.26393 8.78263,5.07965 z m -64.54665,-0.92708 c 4.3695,-1.91682 5.41271,-7.9561 1.96492,-11.37522 -4.41617,-4.37945 -11.64035,-1.26377 -11.64035,5.02029 0,2.61221 1.19474,4.74269 3.3767,6.0214 2.03547,1.19287 4.09163,1.30175 6.29873,0.33353 z m -12.57148,-14.86151 c 0.48865,-0.16329 0.98131,-0.37946 1.09482,-0.48038 0.1135,-0.10091 0.58754,-2.67427 1.05342,-5.71857 l 0.84706,-5.53509 -0.0162,-13.09688 c -0.0154,-12.515668 -0.0417,-13.200534 -0.5904,-15.432866 -0.31583,-1.284795 -0.57423,-2.662309 -0.57423,-3.061139 0,-0.444317 -0.25694,-0.948555 -0.66347,-1.302025 -0.56728,-0.493244 -0.98213,-0.576882 -2.86139,-0.576882 -4.04645,0 -17.4182,1.409245 -25.28225,2.664489 -8.37412,1.336659 -19.73839,3.958622 -20.80227,4.799491 -0.14552,0.115017 -0.54769,0.424905 -0.8937,0.688639 l -0.62913,0.479518 -0.13126,10.169869 c -0.12842,9.950736 0.0823,15.346206 0.74899,19.174446 0.26607,1.52789 0.38603,1.74492 1.26103,2.28152 1.11112,0.68139 3.02202,1.13851 5.86178,1.40225 1.09141,0.10136 4.48469,0.59362 7.54063,1.09391 3.67495,0.60163 9.22927,1.21934 16.40417,1.82433 5.96635,0.50309 11.26463,0.96584 11.77395,1.02834 1.39444,0.17111 4.85219,-0.0667 5.85843,-0.40297 z m 36.47491,-0.63769 c 6.83239,-0.57415 12.72929,-1.21743 15.61041,-1.70292 2.54662,-0.42912 5.70177,-0.90259 7.01146,-1.05215 2.95058,-0.33697 5.77747,-0.85071 5.95313,-1.08188 0.0728,-0.0958 0.50405,-0.36452 0.95844,-0.59724 0.76643,-0.39255 0.84832,-0.57213 1.13295,-2.48432 0.69434,-4.66478 0.88082,-9.22272 0.77027,-18.827391 l -0.11379,-9.887051 -0.91092,-0.745534 c -0.501,-0.410044 -1.62529,-0.979467 -2.49841,-1.265389 -1.92379,-0.629978 -11.06619,-2.677263 -16.08227,-3.601346 -7.46248,-1.374778 -22.038,-3.099184 -26.39736,-3.123034 -3.25875,-0.01783 -3.83525,0.302065 -4.08206,2.265074 -0.095,0.755423 -0.36762,2.028341 -0.60586,2.828706 -0.37699,1.266523 -0.43354,3.25628 -0.43614,15.345835 l -0.003,13.89062 0.78924,5.00119 c 0.56155,3.55833 0.9024,5.05706 1.18146,5.19486 2.44339,1.20652 1.37023,1.21609 17.72243,-0.15803 z M 294.74386,80.387025 c 1.25288,-0.386974 1.96752,-0.810017 2.79347,-1.653646 1.48441,-1.516179 1.92995,-2.681131 1.92288,-5.027745 -0.007,-2.3867 -0.53975,-3.645929 -2.17809,-5.150162 -4.99129,-4.582736 -12.78047,0.181767 -11.20937,6.856579 0.6229,2.646389 2.89858,4.782926 5.58806,5.246375 0.58208,0.100304 1.13509,0.197274 1.2289,0.215488 0.0938,0.0182 0.92818,-0.200885 1.85415,-0.486889 z m 131.55525,-0.812684 c 2.53099,-0.946965 4.40024,-3.69653 4.40024,-6.472517 0,-1.569458 -0.79451,-3.58452 -1.87587,-4.757658 -1.51277,-1.641168 -3.31962,-2.350715 -5.57508,-2.189337 -2.23539,0.15994 -3.91324,1.162735 -5.24905,3.137183 -0.89251,1.319209 -0.92604,1.457158 -0.92604,3.809812 0,2.339038 0.0374,2.495878 0.89552,3.753352 1.98495,2.9088 5.10307,3.926618 8.33028,2.719165 z M 361.4114,78.911314 c 2.26766,-0.799573 4.12509,-3.253629 4.38758,-5.796944 0.55781,-5.404641 -4.95516,-9.477242 -9.65723,-7.134098 -4.15235,2.069198 -5.35,7.278976 -2.50043,10.876846 1.72248,2.174812 4.98318,3.03685 7.77008,2.054196 z"
         id="path4565" />
      <path
         style="fill:#fdd7ae;stroke-width:0.264583"
         d="m 264.27475,155.42719 c -9.3e-4,-0.31301 0.30385,-9.6774 0.67729,-20.80974 0.50897,-15.17279 0.76254,-20.3258 1.01276,-20.5808 0.27152,-0.27671 1.23669,-0.118 5.17327,0.85069 2.66171,0.65498 5.98696,1.5386 7.38944,1.96361 4.37689,1.32638 6.48197,1.736 7.13245,1.38787 1.09288,-0.58489 1.37064,-3.89564 1.37064,-16.33744 V 91.528718 l -0.8447,-0.661079 c -0.77593,-0.607254 -0.90313,-0.63087 -1.56219,-0.290055 -0.39462,0.204065 -1.41349,0.425466 -2.26415,0.492 -0.85067,0.06653 -3.03495,0.475576 -4.85396,0.908982 -1.81901,0.433403 -4.61698,0.980821 -6.21771,1.216482 -1.74354,0.256689 -3.33473,0.655175 -3.96875,0.993905 -0.58208,0.310986 -1.62388,0.643115 -2.3151,0.738068 l -1.25677,0.172641 0.0101,-3.193711 c 0.006,-1.756542 0.28739,-11.213621 0.62629,-21.015734 0.44317,-12.818147 0.70377,-17.876155 0.92814,-18.014825 0.42558,-0.263025 10.35229,2.142611 15.25529,3.696967 0.4469,0.141674 1.31005,0.25759 1.91811,0.25759 0.60807,0 2.14743,0.176938 3.4208,0.393195 1.27337,0.216254 5.28171,0.692362 8.90741,1.05801 5.30029,0.534533 6.76806,0.768586 7.48961,1.194308 0.49357,0.291217 1.15133,0.529487 1.46167,0.529487 0.31035,0 1.22628,0.118129 2.0354,0.262506 1.47883,0.26388 12.83873,2.026349 14.56801,2.260201 3.16745,0.428339 23.83233,1.99263 25.79687,1.95277 1.30969,-0.02657 2.50032,-0.0059 2.64584,0.0459 0.14552,0.05182 0.58689,-0.121198 0.98082,-0.384482 0.62838,-0.419978 0.70952,-0.633159 0.66146,-1.737918 -0.10012,-2.301428 -0.3547,-2.238039 8.14539,-2.028156 8.2521,0.203758 8.0717,0.158099 8.0717,2.04298 0,0.784659 0.15077,1.091182 0.72761,1.479278 0.6175,0.415454 1.18804,0.481097 3.77031,0.433787 2.63216,-0.04822 20.66885,-1.444625 23.28333,-1.802598 0.50933,-0.06974 3.60495,-0.538906 6.87917,-1.042599 7.41404,-1.14055 9.99737,-1.524656 10.86648,-1.615712 0.37402,-0.03918 1.16447,-0.318384 1.75656,-0.620448 0.85905,-0.438254 2.27174,-0.659022 6.99289,-1.092804 3.254,-0.298979 6.92839,-0.735753 8.16532,-0.970608 1.23693,-0.234854 3.08239,-0.51899 4.10104,-0.631417 1.01865,-0.112424 2.92365,-0.513077 4.23333,-0.890341 3.58399,-1.032386 10.95536,-2.804092 11.66672,-2.804092 0.43664,0 0.66364,0.180298 0.74951,0.595313 0.17841,0.862219 1.45135,40.961067 1.31185,41.324594 -0.17559,0.457565 -1.89151,0.189601 -3.40933,-0.532413 -0.77115,-0.366831 -2.48161,-0.799666 -4.10104,-1.03777 -1.52797,-0.22466 -4.20687,-0.747993 -5.95312,-1.162965 -1.74625,-0.41497 -3.68297,-0.768943 -4.30383,-0.786601 -0.62085,-0.01765 -1.52637,-0.198213 -2.01226,-0.40123 -0.82515,-0.344768 -0.93832,-0.326162 -1.71544,0.282027 l -0.83201,0.651148 v 10.188331 c 0,9.63348 0.2668,14.67893 0.83367,15.7655 0.52607,1.00835 2.42415,0.79846 7.89758,-0.87331 4.46137,-1.36266 12.45956,-3.24015 12.71499,-2.98471 0.19575,0.19575 1.57212,35.85773 1.57242,40.74176 l 9e-5,1.3603 -1.12448,-0.0404 c -0.61847,-0.0222 -1.63566,-0.31197 -2.26044,-0.64393 -1.39197,-0.73958 -10.18301,-2.24487 -12.75467,-2.18397 -1.1345,0.0269 -2.84534,-0.2326 -5.02708,-0.76241 -1.81901,-0.44172 -6.29745,-1.45626 -9.95209,-2.25452 -7.17266,-1.56668 -7.75931,-1.73591 -8.76786,-2.52923 -0.3663,-0.28813 -0.99216,-0.52388 -1.3908,-0.52388 -0.39864,0 -1.21244,-0.17205 -1.80843,-0.38233 -5.0564,-1.784 -25.41025,-4.91789 -35.09853,-5.40413 -3.59132,-0.18025 -4.04734,-0.153 -4.79519,0.28649 -0.74004,0.43491 -0.8458,0.65672 -1.01153,2.12156 -0.10179,0.89973 -0.34311,2.01411 -0.53626,2.47639 l -0.3512,0.84053 -3.79666,0.10975 c -2.08816,0.0604 -4.27291,0.0198 -4.85499,-0.09 -0.58208,-0.10988 -2.44957,-0.20496 -4.14996,-0.2113 -4.00644,-0.0149 -4.319,-0.13896 -4.68818,-1.86042 -0.15949,-0.74368 -0.28999,-1.70523 -0.28999,-2.13676 0,-0.59039 -0.19905,-0.90567 -0.80411,-1.27363 -0.68701,-0.4178 -1.23605,-0.47433 -3.77031,-0.38825 -9.54565,0.32424 -27.62057,2.96026 -36.43599,5.31378 -1.38245,0.36909 -2.87073,0.72873 -3.3073,0.79922 -0.43656,0.0705 -0.9767,0.28771 -1.2003,0.48272 -0.82284,0.71759 -2.44075,1.17169 -9.79996,2.75058 -4.13631,0.88743 -8.20983,1.79193 -9.05226,2.01 -2.7204,0.70421 -3.91984,0.85555 -4.8171,0.60781 -0.55963,-0.15452 -1.13299,-0.13983 -1.60921,0.0412 -0.40689,0.1547 -2.68114,0.55874 -5.05388,0.89787 -3.12519,0.44667 -4.69747,0.80074 -5.70526,1.28479 -0.76516,0.36751 -1.83768,0.66806 -2.38338,0.6679 -0.8384,-2.6e-4 -0.99245,-0.0885 -0.99387,-0.56944 z m 30.78737,-12.88065 c 2.62958,-0.98385 4.66848,-3.9268 4.66848,-6.73847 0,-2.83688 -2.03358,-5.74849 -4.7247,-6.76466 -5.05473,-1.90867 -10.29992,2.54941 -9.43164,8.0163 0.27261,1.71641 1.64321,3.8027 3.12131,4.7512 2.13006,1.36685 4.07791,1.59192 6.36655,0.73563 z m 130.7993,-1.49953 c 1.7903,-0.56434 3.34542,-1.87914 4.18705,-3.54002 0.836,-1.64977 0.90999,-4.62355 0.15857,-6.37334 -1.56104,-3.63509 -6.51622,-5.26654 -9.92627,-3.26812 -2.09475,1.22761 -3.26235,3.02329 -3.51068,5.39918 -0.46947,4.49173 2.5384,7.93814 7.15913,8.20291 0.27825,0.016 1.14774,-0.17333 1.9322,-0.42061 z m -65.64156,-0.49711 c 1.90383,-0.55346 3.43899,-1.77721 4.41986,-3.52326 0.69979,-1.24571 0.80101,-1.68324 0.7957,-3.43958 -0.01,-3.21044 -1.41893,-5.4814 -4.12526,-6.64785 -4.39442,-1.89403 -9.32478,0.90481 -9.87745,5.60718 -0.51947,4.41987 2.32593,7.77035 7.12696,8.39207 0.12312,0.016 0.87021,-0.15891 1.66019,-0.38856 z m -9.47933,-15.48109 c 0.71259,-0.44073 0.62846,-0.0859 1.56266,-6.59095 0.73535,-5.12039 0.74086,-5.26033 0.72921,-18.520829 -0.0114,-13.035483 -0.026,-13.40571 -0.59531,-15.175267 -0.32096,-0.997593 -0.58357,-2.334302 -0.58357,-2.970461 0,-2.284513 -1.46858,-2.446906 -12.7863,-1.413872 -12.49289,1.140298 -25.76706,3.307733 -34.04495,5.55893 -1.09141,0.296812 -2.75828,0.716243 -3.70417,0.932069 -1.21759,0.27782 -1.95158,0.622152 -2.51354,1.179171 l -0.79375,0.78676 v 12.232059 c 0,8.98005 0.0993,13.00583 0.3734,15.14249 0.35244,2.74692 0.42343,2.95809 1.26391,3.75927 0.50583,0.48217 1.05565,0.78548 1.27283,0.70214 0.21028,-0.0807 1.3084,0.0357 2.44026,0.25871 1.13186,0.22298 2.89137,0.48264 3.91002,0.57702 1.01864,0.0944 4.35239,0.57992 7.40833,1.079 3.65657,0.59717 9.26514,1.22014 16.40417,1.82211 5.96635,0.50309 11.26463,0.95487 11.77395,1.00396 2.34629,0.22616 7.29947,-0.002 7.88285,-0.36231 z m 34.45049,-0.63364 c 6.67058,-0.5729 12.79752,-1.24969 15.61041,-1.72435 2.54662,-0.42974 5.76131,-0.90712 7.14375,-1.06086 1.38245,-0.15374 3.04933,-0.39477 3.70417,-0.53562 0.65484,-0.14085 1.75588,-0.30711 2.44674,-0.36947 0.69087,-0.0624 1.60293,-0.36033 2.02681,-0.66216 0.839,-0.59742 1.06174,-1.4962 1.6108,-6.49964 0.31694,-2.88825 0.33244,-22.289053 0.0191,-23.911282 -0.2601,-1.346584 -1.33376,-2.390502 -2.47378,-2.405242 -0.40477,-0.0052 -1.4168,-0.236731 -2.24896,-0.51444 -1.82092,-0.60769 -10.94939,-2.650609 -16.00777,-3.582487 C 389.2404,81.736 375.33781,80.123121 369.80187,80.0117 c -4.17757,-0.08408 -4.37421,0.02148 -4.62449,2.482832 -0.0962,0.945885 -0.35508,2.196041 -0.57532,2.778124 -0.33128,0.875541 -0.42043,3.293354 -0.51619,13.998734 l -0.11576,12.9404 0.86357,6.2056 c 1.06438,7.64868 0.65486,7.15766 5.87137,7.03993 1.92817,-0.0435 8.44685,-0.50348 14.48597,-1.02215 z M 295.26556,80.4992 c 1.45328,-0.511934 3.30827,-2.28147 3.9639,-3.781292 0.68387,-1.564429 0.67453,-4.358341 -0.02,-5.978602 -1.59036,-3.710143 -6.79967,-5.384175 -10.05368,-3.230779 -2.45218,1.622779 -3.6436,4.115609 -3.37623,7.064195 0.4142,4.567867 5.07558,7.480109 9.48601,5.926478 z m 131.00067,-0.647972 c 1.63808,-0.612884 3.3809,-2.271514 4.03385,-3.838988 0.62203,-1.493261 0.58744,-4.43412 -0.07,-5.953125 -1.13439,-2.62092 -4.25725,-4.447614 -7.10161,-4.154048 -2.52114,0.260202 -4.48724,1.666801 -5.8064,4.154048 -0.72231,1.361895 -0.68556,4.786122 0.0667,6.217708 1.7914,3.408985 5.41742,4.868963 8.87744,3.574405 z m -65.0009,-0.654886 c 1.51881,-0.451038 3.55169,-2.339346 4.20203,-3.903208 0.61804,-1.486196 0.54328,-4.689694 -0.14356,-6.150877 -1.68958,-3.594425 -6.3179,-5.141433 -9.61002,-3.212126 -2.2175,1.299544 -3.51185,3.241942 -3.76077,5.643703 -0.55117,5.31808 4.14047,9.158382 9.31232,7.622508 z"
         id="path4563" />
      <path
         style="fill:#fdabc5;stroke-width:0.264583"
         d="m 279.92398,153.0888 c -0.4889,-0.1349 -0.8118,-0.32238 -0.71755,-0.41663 0.0942,-0.0942 -0.19938,-0.36308 -0.65251,-0.5974 -0.72345,-0.37411 -1.023,-0.38365 -2.45745,-0.0782 -1.83609,0.39091 -4.22313,0.22948 -5.13931,-0.34758 -0.54382,-0.34252 -0.59496,-0.57465 -0.59126,-2.68396 0.002,-1.26995 0.11298,-2.48118 0.24612,-2.69162 0.13644,-0.21565 0.14384,-0.56618 0.017,-0.80326 -0.12629,-0.23598 -0.0229,-6.32661 0.23548,-13.87365 0.4293,-12.53891 0.49424,-13.47761 0.95561,-13.81497 0.92063,-0.67318 1.4888,-0.57787 9.03705,1.51608 l 2.1609,0.59945 0.88181,-0.65239 c 0.485,-0.35882 1.20595,-0.79314 1.60212,-0.96516 0.39617,-0.17203 0.78197,-0.58472 0.85734,-0.91709 0.48842,-2.15391 0.67131,-6.35017 0.67131,-15.40306 V 91.644593 l -1.32915,-1.267738 c -0.73103,-0.697256 -1.49689,-1.26774 -1.70191,-1.26774 -0.20502,0 -1.72026,0.34695 -3.36721,0.771001 -4.12769,1.062789 -6.94571,1.458407 -8.76721,1.230825 -2.1083,-0.263413 -2.43071,-0.786347 -2.17592,-3.529247 0.10445,-1.12445 0.17506,-2.877892 0.15693,-3.896538 -0.0181,-1.018645 0.1496,-7.031301 0.37275,-13.361457 0.22316,-6.330156 0.40615,-11.893584 0.40665,-12.363172 6.6e-4,-0.622485 0.18358,-0.973489 0.67518,-1.295598 0.63005,-0.412822 0.82327,-0.412528 2.94571,0.0045 1.24929,0.245464 3.09058,0.732493 4.09177,1.082286 l 1.82034,0.635989 0.52562,-0.564182 c 0.28909,-0.310303 0.52562,-0.660796 0.52562,-0.778877 0,-0.335058 2.15446,-0.253169 4.69623,0.178501 1.27338,0.216254 5.26421,0.690581 8.86853,1.054052 4.21551,0.425109 6.8344,0.806223 7.34128,1.06834 0.43613,0.225534 0.95781,0.813946 1.16832,1.317778 0.42925,1.027348 0.62575,1.095878 3.72251,1.298255 1.16417,0.07608 4.20026,0.495014 6.74688,0.930968 5.59421,0.957673 9.32074,1.361832 22.0927,2.396059 5.38428,0.435999 10.33174,0.852125 10.99437,0.924724 1.36512,0.149564 2.36709,-0.354235 2.36709,-1.190191 0,-0.279434 0.29255,-0.699746 0.6501,-0.934021 0.5562,-0.364438 0.64218,-0.607833 0.59531,-1.685179 -0.10012,-2.301428 -0.3547,-2.238039 8.14539,-2.028156 8.25821,0.203909 8.0717,0.156427 8.0717,2.054897 0,0.763318 0.15001,1.09995 0.6304,1.414719 0.34673,0.227179 0.7015,0.768517 0.78839,1.202968 0.0869,0.434454 0.33608,0.858258 0.55376,0.941792 0.39402,0.151196 21.25985,-1.519782 25.54412,-2.045626 1.23693,-0.151818 4.33255,-0.619865 6.87917,-1.040108 2.54661,-0.420241 6.05895,-0.907156 7.8052,-1.082032 3.22136,-0.322602 3.80746,-0.562409 3.82805,-1.566273 0.005,-0.225666 0.5411,-0.669099 1.19216,-0.985409 0.95826,-0.465555 2.33171,-0.680886 7.2099,-1.130368 3.31438,-0.30539 7.21677,-0.784331 8.67198,-1.064311 1.45521,-0.279979 3.15739,-0.509415 3.78262,-0.509854 0.98619,-7.94e-4 1.19649,0.104126 1.5875,0.791276 0.44662,0.784891 0.94627,1.013327 1.22609,0.560567 0.17024,-0.27546 3.71968,-1.245957 5.45244,-1.490824 0.94654,-0.13376 1.32646,-0.06708 1.79461,0.314979 0.57525,0.469463 0.60199,0.704498 0.85308,7.496116 0.14256,3.856302 0.33844,10.166614 0.43527,14.022916 0.0968,3.856302 0.21705,8.083021 0.26714,9.392708 0.0501,1.309688 -0.0132,2.538688 -0.14065,2.731114 -0.28992,0.437708 -1.92092,0.827032 -3.48414,0.83167 -1.14964,0.0034 -6.12697,-0.956889 -8.3674,-1.614363 -0.87021,-0.255371 -1.25891,-0.250865 -1.91823,0.02222 -0.45478,0.188378 -0.82687,0.484262 -0.82687,0.657521 0,0.17326 -0.35719,0.579099 -0.79375,0.901864 l -0.79375,0.586843 v 10.251633 c 0,8.99754 0.1834,13.18831 0.67131,15.33996 0.0754,0.33237 0.46117,0.74506 0.85734,0.91709 0.39617,0.17202 1.11267,0.60295 1.59222,0.95761 l 0.87192,0.64485 2.17079,-0.55516 c 1.19394,-0.30533 3.28528,-0.85937 4.64744,-1.2312 3.15906,-0.86231 4.39479,-0.88271 4.89081,-0.0807 0.462,0.74699 1.40437,27.11891 0.98407,27.5392 -0.16601,0.16601 -0.16618,0.42662 -5.2e-4,0.73623 0.36674,0.68527 0.44301,4.90095 0.095,5.25208 -0.15685,0.15826 -1.04444,0.41002 -1.97242,0.55947 -1.34773,0.21704 -2.07288,0.18592 -3.60381,-0.15468 -2.02001,-0.44941 -2.49551,-0.3407 -3.74864,0.85698 -0.55238,0.52794 -2.18929,0.39609 -5.67659,-0.45723 -1.77881,-0.43527 -6.22436,-1.4441 -9.879,-2.24185 -3.65464,-0.79775 -6.97263,-1.5751 -7.37332,-1.72744 -0.87782,-0.33374 -2.02424,-1.20147 -1.83603,-1.38968 0.0743,-0.0744 -0.20759,-0.47711 -0.62655,-0.89502 -0.69542,-0.69367 -1.34722,-0.88141 -7.48636,-2.15627 -7.36633,-1.52971 -14.51505,-2.63713 -22.46731,-3.48047 -2.83766,-0.30093 -6.23094,-0.67423 -7.54063,-0.82955 l -2.38125,-0.2824 -0.92604,1.04435 c -0.50932,0.5744 -1.17807,1.17345 -1.4861,1.33123 -0.44231,0.22656 -0.59934,0.63414 -0.74693,1.93871 -0.10279,0.9085 -0.34493,2.03006 -0.53808,2.49235 l -0.35119,0.84052 -3.79666,0.10975 c -2.08817,0.0604 -4.27291,0.0198 -4.855,-0.09 -0.58208,-0.10988 -2.44956,-0.20496 -4.14996,-0.2113 -4.04166,-0.0151 -4.33088,-0.13335 -4.68203,-1.91489 -0.1522,-0.77216 -0.31086,-1.76111 -0.35257,-2.19767 -0.0583,-0.61024 -0.30507,-0.91609 -1.06733,-1.32292 -0.54531,-0.29104 -0.99179,-0.65954 -0.99218,-0.81889 -2.7e-4,-0.15934 -0.22631,-0.49388 -0.50204,-0.74341 -0.4715,-0.4267 -0.7666,-0.42815 -4.96094,-0.0243 -11.93898,1.14953 -21.41636,2.53568 -29.89534,4.37247 -2.66737,0.57782 -5.06021,1.05455 -5.31743,1.05939 -0.58314,0.011 -1.34883,0.65015 -2.16888,1.81049 -0.34721,0.49129 -1.11851,1.10802 -1.714,1.37051 -0.59549,0.2625 -4.4698,1.20347 -8.60957,2.09106 -4.13978,0.88758 -8.42603,1.83539 -9.525,2.10622 -2.87196,0.70779 -3.4787,0.77572 -4.47455,0.50094 z m 15.13814,-10.54226 c 2.62958,-0.98385 4.66848,-3.9268 4.66848,-6.73847 0,-2.83688 -2.03358,-5.74849 -4.7247,-6.76466 -5.05473,-1.90867 -10.29992,2.54941 -9.43164,8.0163 0.27261,1.71641 1.64321,3.8027 3.12131,4.7512 2.13006,1.36685 4.07791,1.59192 6.36655,0.73563 z m 130.7993,-1.49953 c 1.7903,-0.56434 3.34542,-1.87914 4.18705,-3.54002 0.836,-1.64977 0.90999,-4.62355 0.15857,-6.37334 -1.56104,-3.63509 -6.51622,-5.26654 -9.92627,-3.26812 -2.09475,1.22761 -3.26235,3.02329 -3.51068,5.39918 -0.46947,4.49173 2.5384,7.93814 7.15913,8.20291 0.27825,0.016 1.14774,-0.17333 1.9322,-0.42061 z m -65.64156,-0.49711 c 1.90383,-0.55346 3.43899,-1.77721 4.41986,-3.52326 0.69979,-1.24571 0.80101,-1.68324 0.7957,-3.43958 -0.01,-3.21044 -1.41893,-5.4814 -4.12526,-6.64785 -4.39442,-1.89403 -9.32478,0.90481 -9.87745,5.60718 -0.51947,4.41987 2.32593,7.77035 7.12696,8.39207 0.12312,0.016 0.87021,-0.15891 1.66019,-0.38856 z m -10.73311,-14.38247 c 0.56723,-0.57292 1.22634,-1.15081 1.46468,-1.2842 0.33119,-0.18534 0.62815,-1.51479 1.2596,-5.63904 l 0.82624,-5.39653 -0.006,-13.62605 c -0.006,-13.335935 -0.0184,-13.664653 -0.59188,-15.439846 -0.3223,-0.997593 -0.58599,-2.328939 -0.58599,-2.958544 0,-0.969944 -0.1212,-1.231043 -0.79375,-1.709938 -0.43657,-0.310859 -0.79375,-0.732941 -0.79375,-0.937959 0,-0.205018 -0.28139,-0.557133 -0.62531,-0.782479 -0.53177,-0.348424 -0.99686,-0.369308 -3.10886,-0.139596 -1.36595,0.148568 -4.56714,0.452924 -7.11375,0.676346 -10.72018,0.940506 -19.35068,2.242854 -29.89792,4.511617 -3.71078,0.798205 -7.07664,1.51703 -7.47969,1.597387 -0.72497,0.144539 -1.06926,0.454107 -3.02545,2.720398 l -1.00423,1.163423 v 12.198031 c 0,8.91848 0.0999,12.98053 0.37172,15.10846 0.36358,2.84659 0.39404,2.93128 1.38906,3.86196 0.55954,0.52334 1.02108,1.05913 1.02566,1.19062 0.0202,0.57958 1.48182,1.26633 2.88366,1.35485 3.18416,0.20108 6.93077,0.65528 10.46948,1.26923 5.27654,0.91544 9.00579,1.32942 20.10833,2.23222 5.38428,0.43782 10.20631,0.83892 10.71563,0.89134 3.03397,0.31222 3.42387,0.23777 4.5124,-0.8617 z m 24.46551,0.65391 c 18.79041,-1.53189 21.99171,-1.86505 28.0398,-2.91803 3.20989,-0.55885 5.68756,-0.8598 10.66595,-1.29554 1.11443,-0.0975 2.42685,-0.95823 2.4342,-1.59634 0.002,-0.15653 0.40663,-0.5458 0.89962,-0.86504 0.98531,-0.63803 1.16663,-1.32123 1.74187,-6.56332 0.31814,-2.89915 0.33189,-22.291654 0.017,-23.922966 -0.13369,-0.692536 -0.45854,-1.34448 -0.79719,-1.599927 -0.31436,-0.237117 -0.71365,-0.711711 -0.88732,-1.054651 -0.55525,-1.096436 -1.58025,-1.598527 -4.55455,-2.231046 -1.59773,-0.339772 -5.50551,-1.173718 -8.68396,-1.853213 -8.93723,-1.910611 -16.72365,-3.033566 -28.70133,-4.1393 -5.87627,-0.542472 -6.19421,-0.547579 -6.68073,-0.107291 -0.28095,0.254257 -0.51082,0.596757 -0.51082,0.761108 0,0.164351 -0.34884,0.504891 -0.77521,0.756751 -0.67341,0.397793 -0.79593,0.65719 -0.93299,1.975276 -0.0868,0.834541 -0.3585,2.172189 -0.60382,2.972554 -0.38532,1.257141 -0.4599,3.199852 -0.54795,14.273259 l -0.10192,12.818056 0.86283,6.20029 0.86283,6.2003 0.8827,0.52081 c 0.48548,0.28644 0.8827,0.66006 0.8827,0.83026 0,0.27021 1.21503,1.19947 1.59354,1.21873 0.0761,0.004 2.27873,-0.16746 4.89479,-0.38073 z M 295.26556,80.4992 c 1.45328,-0.511934 3.30827,-2.28147 3.9639,-3.781292 0.68387,-1.564429 0.67453,-4.358341 -0.02,-5.978602 -1.59036,-3.710143 -6.79967,-5.384175 -10.05368,-3.230779 -2.45218,1.622779 -3.6436,4.115609 -3.37623,7.064195 0.4142,4.567867 5.07558,7.480109 9.48601,5.926478 z m 131.00067,-0.647972 c 1.63808,-0.612884 3.3809,-2.271514 4.03385,-3.838988 0.62203,-1.493261 0.58744,-4.43412 -0.07,-5.953125 -1.13439,-2.62092 -4.25725,-4.447614 -7.10161,-4.154048 -2.52114,0.260202 -4.48724,1.666801 -5.8064,4.154048 -0.72231,1.361895 -0.68556,4.786122 0.0667,6.217708 1.7914,3.408985 5.41742,4.868963 8.87744,3.574405 z m -65.0009,-0.654886 c 1.51881,-0.451038 3.55169,-2.339346 4.20203,-3.903208 0.61804,-1.486196 0.54328,-4.689694 -0.14356,-6.150877 -1.68958,-3.594425 -6.3179,-5.141433 -9.61002,-3.212126 -2.2175,1.299544 -3.51185,3.241942 -3.76077,5.643703 -0.55117,5.31808 4.14047,9.158382 9.31232,7.622508 z"
         id="path4561" />
      <path
         style="fill:#fdafaa;stroke-width:0.264583"
         d="m 272.30298,152.09823 c -1.77776,-0.2906 -1.9417,-0.55798 -1.93708,-3.15953 0.002,-1.25549 0.11298,-2.45489 0.24612,-2.66533 0.13644,-0.21565 0.14384,-0.56618 0.017,-0.80326 -0.12629,-0.23598 -0.0229,-6.32661 0.23548,-13.87365 0.4293,-12.53891 0.49424,-13.47761 0.95561,-13.81497 0.92021,-0.67288 1.49616,-0.57635 9.02219,1.51216 l 2.14603,0.59554 0.83986,-0.59803 c 0.71983,-0.51257 0.90417,-0.54724 1.28993,-0.24264 0.96486,0.76185 1.3661,1.45188 1.37455,2.36384 0.0166,1.78672 -0.58687,5.37887 -1.10543,6.58058 -1.29384,2.99838 -2.2048,10.98634 -1.50226,13.17294 0.26226,0.81627 0.34237,0.8599 1.57868,0.8599 0.71632,0 1.3024,-0.0643 1.3024,-0.14283 0,-0.0786 -0.23813,-0.6096 -0.52917,-1.18009 -0.77217,-1.51358 -0.65918,-1.54512 0.56268,-0.15702 2.15698,2.45046 5.21446,3.30078 8.24377,2.29269 0.93591,-0.31145 1.98647,-0.87079 2.33458,-1.24297 0.34811,-0.37219 0.83959,-0.78811 1.09217,-0.92428 0.40636,-0.21906 0.42921,-0.16857 0.19844,0.4384 -0.41163,1.08267 -0.33391,1.18068 0.93637,1.18068 1.05972,0 1.22862,-0.0827 1.47113,-0.72057 0.36006,-0.94702 0.35966,-3.08808 -10e-4,-6.0263 -0.16082,-1.30969 -0.3432,-2.93857 -0.40529,-3.61974 -0.0621,-0.68116 -0.47735,-2.14866 -0.9228,-3.26111 -0.56433,-1.40935 -0.86128,-2.6911 -0.97936,-4.22729 l -0.16946,-2.20465 1.02935,-0.51826 c 1.02268,-0.5149 1.03277,-0.51488 1.55851,0.003 0.75355,0.74162 1.55504,0.99622 3.13614,0.99622 1.75627,0 6.68969,0.60983 10.54634,1.30364 5.2181,0.93876 7.51172,1.16611 31.24941,3.09752 1.84709,0.15029 2.15092,0.10809 2.82845,-0.39283 l 0.75907,-0.5612 0.81028,0.6818 c 0.44565,0.37499 0.73093,0.81018 0.63396,0.96709 -0.097,0.15691 -0.19967,1.51971 -0.22821,3.02845 -0.0403,2.13199 -0.14417,2.81465 -0.46612,3.06403 -0.24971,0.19343 -0.46644,0.89883 -0.54569,1.77608 -0.28428,3.1471 -0.52596,3.72743 -1.83396,4.40383 -0.72187,0.37329 -0.81437,0.36214 -1.3765,-0.16595 l -0.60262,-0.56614 -4.46361,0.42979 c -11.94377,1.15005 -21.41946,2.5359 -29.89933,4.37288 -2.66744,0.57771 -5.07333,1.05048 -5.34649,1.05048 -0.27317,0 -0.90034,0.41444 -1.39372,0.92098 -0.61366,0.63003 -1.05069,0.87282 -1.38335,0.76853 -1.06407,-0.33357 -3.11361,-0.0687 -6.39287,0.82605 -1.89177,0.51619 -3.67771,0.98969 -3.96875,1.05222 -6.53683,1.40444 -10.39876,2.36887 -12.38895,3.09384 -1.3956,0.50839 -1.62033,0.52553 -2.38125,0.18159 -0.6921,-0.31283 -1.09675,-0.32432 -2.29543,-0.0651 -1.64574,0.35585 -2.30833,0.37624 -3.8797,0.11938 z m 162.76199,-0.26154 c -1.13378,-0.504 -8.72865,-2.40771 -13.22916,-3.316 -0.29104,-0.0587 -1.89839,-0.48658 -3.57188,-0.95075 -2.19064,-0.60762 -3.54762,-0.83432 -4.84575,-0.80956 -1.6386,0.0312 -1.86988,-0.0323 -2.53581,-0.69646 -0.65866,-0.65695 -1.41274,-0.87205 -7.45737,-2.12729 -7.36634,-1.52971 -14.51505,-2.63713 -22.46732,-3.48047 -2.83765,-0.30093 -6.218,-0.67113 -7.51188,-0.82266 -2.23214,-0.26142 -2.38306,-0.24682 -2.94956,0.28539 -0.56318,0.52908 -0.64267,0.53731 -1.40103,0.14515 -0.44218,-0.22866 -0.89985,-0.56542 -1.01704,-0.74836 -0.47882,-0.74743 -0.87132,-2.2549 -0.87885,-3.37532 -0.008,-1.21447 -0.83142,-6.05704 -1.29209,-7.60034 -0.23069,-0.77284 -0.17918,-0.91706 0.54517,-1.52656 l 0.79993,-0.6731 0.87628,0.54158 c 0.86302,0.53337 0.94979,0.53559 5.7282,0.14673 18.83308,-1.53262 22.17907,-1.88091 28.03697,-2.91843 1.98323,-0.35126 5.13839,-0.77234 7.01145,-0.93575 4.76633,-0.41583 4.96739,-0.45791 5.64756,-1.18191 0.56909,-0.60577 0.65348,-0.62179 1.35739,-0.25779 0.41281,0.21347 0.88351,0.63655 1.046,0.94016 0.41776,0.78059 0.0637,3.46618 -0.70977,5.38405 -1.27401,3.15886 -2.16477,11.28726 -1.44453,13.18162 0.26906,0.7077 0.31484,0.72058 2.56173,0.72058 h 2.28778 l -0.42695,-0.59532 c -1.02858,-1.43417 -0.96643,-1.50232 0.55606,-0.60975 2.69765,1.58153 6.46636,1.45209 8.54067,-0.29333 1.09246,-0.91924 0.99333,-0.45124 -0.1531,0.72281 l -0.94379,0.96653 1.93597,0.14049 c 2.21626,0.16083 2.75871,-0.0323 2.9683,-1.05684 0.37472,-1.83175 0.0221,-6.086 -0.55835,-6.73716 -0.28551,-0.32029 -0.40386,-1.04924 -0.40806,-2.51355 -0.004,-1.51356 -0.16924,-2.4849 -0.61961,-3.64993 -0.6049,-1.56475 -1.1661,-4.7926 -1.1661,-6.70705 0,-0.71545 0.21037,-1.21055 0.77884,-1.83294 0.42836,-0.46899 0.85646,-0.85271 0.95134,-0.85271 0.0949,0 0.53033,0.25479 0.96767,0.5662 l 0.79516,0.5662 2.1561,-0.55162 c 1.18586,-0.30339 3.27059,-0.85583 4.63275,-1.22766 3.15906,-0.86231 4.39479,-0.88271 4.89081,-0.0807 0.462,0.74699 1.40437,27.1189 0.98407,27.5392 -0.16601,0.16601 -0.16618,0.42662 -5.2e-4,0.73623 0.36674,0.68527 0.44301,4.90095 0.095,5.25208 -0.15685,0.15826 -1.04444,0.41002 -1.97242,0.55947 -1.34955,0.21734 -2.07288,0.18592 -3.61412,-0.15698 -1.7506,-0.38947 -1.981,-0.39079 -2.51823,-0.0145 -0.73501,0.51483 -1.12236,0.50007 -2.45797,-0.0936 z M 271.08367,91.035715 c -1.24709,-0.188378 -1.61351,-1.095978 -1.39447,-3.454021 0.10445,-1.12445 0.17506,-2.877892 0.15693,-3.896538 -0.0181,-1.018645 0.1496,-7.031301 0.37275,-13.361457 0.22316,-6.330156 0.40615,-11.893584 0.40665,-12.363172 6.6e-4,-0.622485 0.18358,-0.973489 0.67518,-1.295598 0.63005,-0.412822 0.82327,-0.412528 2.94571,0.0045 1.24929,0.245464 3.09043,0.732438 4.09142,1.082164 l 1.81999,0.635865 0.62121,-0.669949 0.62122,-0.669951 1.2328,0.561607 c 1.72278,0.784818 3.24759,1.083707 6.90201,1.35291 2.54138,0.187214 3.41239,0.361093 4.41533,0.881435 1.73423,0.899753 5.75793,1.404845 7.6244,0.957085 1.29275,-0.310126 1.37457,-0.296515 1.95003,0.324419 0.52959,0.571434 0.89637,0.666758 3.09957,0.805545 1.3744,0.08658 4.5825,0.516787 7.12912,0.956022 5.57732,0.961961 9.27857,1.364379 22.0927,2.40202 5.38428,0.435999 10.34048,0.853188 11.01379,0.927089 0.97639,0.107164 1.36687,0.02215 1.92897,-0.420005 0.63304,-0.497948 0.79118,-0.51917 1.55392,-0.208521 0.46704,0.190215 1.17763,0.692619 1.57909,1.116452 0.63612,0.671573 0.78662,0.724188 1.17112,0.409411 0.28511,-0.233421 0.19751,0.06 -0.24763,0.829426 -1.33918,2.314795 -1.49136,5.957242 -0.34176,8.180321 0.38943,0.753076 0.37633,0.81596 -0.32053,1.53887 -1.38355,1.435267 -1.53957,1.492708 -2.3756,0.874609 -0.71126,-0.525856 -0.89669,-0.542097 -3.25674,-0.285239 -1.3764,0.149799 -4.58614,0.455163 -7.13275,0.678585 -10.72018,0.940506 -19.35068,2.242854 -29.89792,4.511616 -3.71078,0.798206 -7.07468,1.5166 -7.47533,1.59643 -0.40066,0.07983 -1.07611,0.492789 -1.50101,0.917686 -0.87562,0.875628 -1.24655,0.942533 -2.06135,0.371819 -0.41115,-0.287978 -0.5269,-0.567124 -0.41141,-0.992188 0.0884,-0.325307 0.18826,-1.901155 0.22195,-3.501884 0.0541,-2.568699 0.14895,-3.096808 0.80811,-4.497917 1.48904,-3.165109 0.73883,-7.744155 -1.55548,-9.494106 -0.50816,-0.387594 -1.65921,-0.953027 -2.55789,-1.256515 -2.07317,-0.700121 -3.90205,-0.51472 -6.03689,0.611984 l -1.52341,0.804008 0.8599,-0.901531 c 0.47294,-0.495845 0.8599,-0.985162 0.8599,-1.087376 0,-0.102211 -0.52134,-0.185841 -1.15853,-0.185841 -1.03941,0 -1.19254,0.08212 -1.48938,0.798743 -0.18568,0.448289 -0.26761,1.270188 -0.18673,1.873237 0.0919,0.684844 -0.007,1.426628 -0.27236,2.045528 -0.63198,1.47348 -0.58125,4.902109 0.0946,6.394992 0.45484,1.004652 0.52045,1.574075 0.42007,3.645508 -0.10057,2.075278 -0.0276,2.7056 0.47221,4.076248 0.88904,2.438272 0.63675,3.626894 -1.01146,4.765299 -0.56536,0.390493 -0.68033,0.391091 -1.34955,0.007 -0.68444,-0.392816 -0.90013,-0.375086 -3.35073,0.275445 -4.99443,1.325811 -7.81893,1.692383 -10.23176,1.327917 z m 27.5886,-23.507535 c 0,-0.78754 -0.54269,-1.437814 -1.19994,-1.437814 -0.83029,0 -0.82009,0.192624 0.0588,1.110001 0.80199,0.837088 1.14113,0.934516 1.14113,0.327813 z m 138.99985,23.168307 c -1.33097,-0.26658 -3.08298,-0.693695 -3.89336,-0.949142 -1.28859,-0.406194 -1.60824,-0.419952 -2.54834,-0.109691 -1.05949,0.34966 -1.08815,0.341958 -1.99363,-0.535667 -1.1072,-1.073134 -1.18981,-2.044004 -0.37299,-4.383223 0.42114,-1.206068 0.53223,-2.1063 0.48669,-3.944024 -0.0527,-2.126078 0.0199,-2.547419 0.67775,-3.931931 2.13251,-4.488415 0.28813,-9.664371 -3.86753,-10.853541 -2.33393,-0.667872 -3.88235,-0.562885 -5.6871,0.385596 -0.85152,0.447516 -1.7739,1.013063 -2.04974,1.256771 -0.47752,0.421904 -0.48771,0.416745 -0.21288,-0.107821 0.15875,-0.303011 0.47373,-0.704543 0.69996,-0.892294 0.67356,-0.559006 0.49531,-1.070321 -0.37313,-1.070321 -0.50476,0 -0.88209,0.182462 -1.05833,0.511773 -0.35503,0.663384 -0.36251,2.484644 -0.009,2.266352 0.36968,-0.228476 0.3306,0.03091 -0.14249,0.945766 -0.99265,1.919571 -1.03578,4.970378 -0.10259,7.256317 0.20237,0.495718 0.30266,1.886537 0.26711,3.704166 -0.041,2.094119 0.0593,3.235135 0.35739,4.068162 0.58004,1.62079 0.53411,1.836404 -0.49578,2.327521 -0.90351,0.430855 -0.91695,0.427979 -1.85693,-0.397333 -0.52076,-0.457231 -1.21254,-0.886142 -1.53729,-0.953137 -0.32475,-0.067 -3.3289,-0.714161 -6.67588,-1.438146 -13.24123,-2.864204 -20.18854,-3.912446 -34.48459,-5.203192 l -4.85125,-0.438007 -0.59587,0.559787 -0.59586,0.559787 -0.77059,-0.595411 c -1.49987,-1.158917 -1.48306,-1.093594 -0.71235,-2.766504 1.29545,-2.811955 1.06393,-5.964976 -0.62022,-8.44672 -0.44894,-0.661545 -0.53037,-0.921752 -0.25543,-0.81625 0.22198,0.08518 0.47536,0.03875 0.56308,-0.103185 0.0877,-0.141933 0.76645,-0.565626 1.50828,-0.941543 l 1.34879,-0.683485 0.44792,0.59381 0.44791,0.593809 11.74446,-0.985334 c 12.60639,-1.057648 15.1865,-1.345798 21.29808,-2.37861 2.16708,-0.36622 5.39866,-0.808154 7.18129,-0.982072 1.78263,-0.173916 3.24493,-0.385453 3.24956,-0.47008 0.005,-0.08463 0.1618,-0.35568 0.34926,-0.602343 0.3109,-0.409069 0.44052,-0.414139 1.47515,-0.05768 1.67285,0.576344 4.75221,0.259826 6.64385,-0.682903 1.55242,-0.773676 3.08762,-1.07106 5.67853,-1.099992 0.87313,-0.0097 1.94469,-0.11598 2.38125,-0.236067 0.43657,-0.120086 1.44212,-0.34848 2.23458,-0.507542 0.79245,-0.159062 1.96498,-0.550984 2.60561,-0.870934 1.13123,-0.564957 1.17522,-0.567481 1.52621,-0.08748 0.19877,0.271833 0.40342,0.620332 0.45479,0.774438 0.0602,0.18065 0.4161,0.12809 1.00173,-0.147947 1.03997,-0.490186 3.52486,-1.149194 5.28407,-1.401366 0.94867,-0.135985 1.32541,-0.07037 1.79461,0.312545 0.57525,0.469463 0.60199,0.704498 0.85308,7.496116 0.14256,3.856302 0.33844,10.166614 0.43527,14.022916 0.0968,3.856302 0.21705,8.083021 0.26714,9.392708 0.0501,1.309688 -0.0132,2.538688 -0.14065,2.731114 -0.6003,0.906322 -3.72834,1.038712 -7.35929,0.311467 z m -8.34547,-24.272355 c -0.0487,-0.252989 -0.30546,-0.501748 -0.57052,-0.552794 -0.41274,-0.07949 -0.43946,-0.01344 -0.18609,0.459984 0.35814,0.669202 0.87994,0.733208 0.75661,0.09281 z"
         id="path4559" />
      <path
         style="fill:#fdc688;stroke-width:0.264583"
         d="m 272.30298,152.09823 c -1.77776,-0.2906 -1.9417,-0.55798 -1.93708,-3.15953 0.002,-1.25549 0.11298,-2.45489 0.24612,-2.66533 0.13644,-0.21565 0.14384,-0.56618 0.017,-0.80326 -0.12629,-0.23598 -0.0229,-6.32661 0.23548,-13.87365 0.4293,-12.53891 0.49424,-13.47761 0.95561,-13.81497 0.27225,-0.19908 0.8758,-0.36196 1.34122,-0.36196 1.2391,0 9.21687,2.18822 9.82855,2.69586 0.64535,0.5356 0.11692,6.19385 -0.82879,8.87426 -0.57852,1.63971 -1.41769,7.03689 -1.88291,12.11009 -0.65922,7.18868 -1.09888,9.05206 -2.41366,10.22942 -0.27014,0.24191 -1.19765,0.56934 -2.06112,0.72761 -1.69471,0.31063 -1.84296,0.31238 -3.50038,0.0415 z m 167.35094,-0.19692 c -1.6795,-0.39447 -1.79154,-0.47036 -2.41922,-1.63885 -0.7768,-1.44605 -1.05932,-3.08918 -1.77921,-10.34754 -0.51644,-5.20699 -1.27025,-9.75571 -1.87398,-11.30802 -0.85962,-2.21029 -1.31671,-7.97428 -0.67462,-8.50716 0.1955,-0.16225 1.2373,-0.52876 2.3151,-0.81446 1.07781,-0.2857 3.07414,-0.82237 4.4363,-1.1926 3.16198,-0.85942 4.39526,-0.87905 4.89081,-0.0778 0.462,0.74699 1.40437,27.1189 0.98407,27.5392 -0.14472,0.14473 -0.16178,0.44151 -0.039,0.67946 0.36763,0.71272 0.59089,4.11974 0.31715,4.83973 -0.14117,0.3713 -0.53324,0.74087 -0.87127,0.82129 -1.63582,0.38913 -3.64722,0.39172 -5.28608,0.007 z m -134.62215,-7.33698 c -0.13308,-0.35005 -0.37388,-2.10622 -0.53511,-3.90261 -0.40342,-4.49514 -0.98185,-8.30807 -1.6294,-10.74093 -0.83313,-3.13007 -1.05554,-4.47017 -0.96788,-5.83182 l 0.0802,-1.24548 1.5875,-0.0838 c 1.96467,-0.10375 5.73065,0.30401 10.58333,1.14592 5.26873,0.91408 8.99524,1.32794 20.10834,2.23321 5.38427,0.4386 10.59723,0.87133 11.58436,0.96163 1.8745,0.17148 2.68535,0.63064 2.46055,1.39335 -0.24147,0.8193 -1.15811,5.98999 -1.34355,7.57889 -0.1019,0.87313 -0.33904,1.95737 -0.52697,2.40942 -0.39275,0.94473 -0.1699,0.89701 -7.2796,1.55872 -9.74671,0.90714 -19.12423,2.31228 -27.40889,4.10697 -5.79227,1.25476 -6.3803,1.29125 -6.71286,0.41657 z m 98.54779,-0.57436 c -7.63819,-1.66913 -16.17666,-2.94723 -26.32604,-3.94069 -6.11364,-0.59843 -6.24506,-0.62543 -6.57559,-1.35086 -0.15805,-0.34689 -0.41564,-1.66293 -0.57241,-2.92453 -0.15677,-1.26159 -0.46434,-3.0797 -0.68348,-4.04023 -0.71601,-3.13842 -0.76294,-4.154 -0.20201,-4.37193 0.27107,-0.10532 2.51692,-0.35718 4.99078,-0.5597 18.70056,-1.53091 21.73664,-1.8475 27.78125,-2.8969 6.93422,-1.20384 11.19857,-1.49036 11.77866,-0.79139 0.42687,0.51435 0.19012,2.97798 -0.51788,5.38912 -0.80642,2.74628 -1.28115,5.67195 -1.74917,10.77979 -0.47348,5.16738 -0.72273,5.93574 -1.91094,5.8909 -0.39683,-0.015 -3.10275,-0.54759 -6.01317,-1.18358 z M 271.08367,91.035715 c -1.24709,-0.188378 -1.61351,-1.095978 -1.39447,-3.454021 0.10445,-1.12445 0.17506,-2.877892 0.15693,-3.896538 -0.0181,-1.018645 0.1496,-7.031301 0.37275,-13.361457 0.22316,-6.330156 0.40615,-11.893584 0.40665,-12.363172 6.6e-4,-0.622485 0.18358,-0.973489 0.67518,-1.295598 0.63005,-0.412822 0.82327,-0.412528 2.94571,0.0045 2.90401,0.570589 5.87311,1.606751 6.3234,2.206754 0.19289,0.257022 0.53071,1.246553 0.75073,2.19896 0.22001,0.952407 0.58374,2.171364 0.80829,2.708793 0.68975,1.650789 1.28925,7.961868 1.57629,16.593934 0.0757,2.276329 0.26793,3.990247 0.52999,4.725341 0.45414,1.273887 0.31775,3.006254 -0.28406,3.608067 -0.46468,0.464675 -2.63297,1.098029 -6.44546,1.882707 -2.83877,0.584268 -4.65244,0.709022 -6.42193,0.441735 z m 166.52837,-0.350687 c -3.95614,-0.791461 -5.83029,-1.498626 -5.98706,-2.259078 -0.0725,-0.351864 -0.19006,-0.922981 -0.26117,-1.269148 -0.0711,-0.346168 0.0546,-1.209371 0.27935,-1.918229 0.22474,-0.708859 0.46224,-2.598521 0.52777,-4.19925 0.34011,-8.308353 0.96755,-15.09591 1.56542,-16.934396 0.33144,-1.019233 0.74971,-2.561653 0.92948,-3.427603 0.43848,-2.112145 1.23092,-2.830692 3.90059,-3.536899 3.32402,-0.879298 4.36055,-0.961041 5.05015,-0.398259 0.57525,0.469463 0.60199,0.704498 0.85308,7.496116 0.14256,3.856302 0.33844,10.166614 0.43527,14.022916 0.0968,3.856302 0.21705,8.083021 0.26714,9.392708 0.0501,1.309688 -0.0132,2.538688 -0.14065,2.731114 -0.60415,0.91214 -3.72818,1.038463 -7.41937,0.300008 z m -26.22727,-5.934027 c -1.52797,-0.32617 -5.37868,-1.14927 -8.55713,-1.829107 -8.93237,-1.910543 -16.77164,-3.041205 -28.61683,-4.127431 -4.97897,-0.456578 -6.14867,-0.639976 -6.43332,-1.008673 -0.26375,-0.341641 -0.30628,-1.122572 -0.17584,-3.228758 0.34615,-5.589005 0.60896,-7.479324 1.10792,-7.968885 0.40302,-0.395425 2.18107,-0.60797 11.85124,-1.416687 12.90852,-1.07954 14.10806,-1.212059 20.50521,-2.265294 2.54661,-0.41928 5.99132,-0.902954 7.65491,-1.07483 l 3.0247,-0.312507 0.60864,0.707575 c 0.98173,1.141336 1.36586,3.11205 1.79823,9.22561 0.54544,7.712247 0.54494,11.53546 -0.002,11.745163 -0.34416,0.132067 -0.32324,0.216795 0.1323,0.535866 0.2976,0.208447 0.54109,0.536258 0.54109,0.72847 0,0.828542 -0.6558,0.883737 -3.43959,0.289488 z m -109.73594,0.191961 c -0.40135,-0.135038 -0.43892,-1.027417 -0.0533,-1.265746 0.18914,-0.116893 0.17725,-0.292171 -0.0373,-0.550735 -0.34588,-0.416759 -0.23559,-5.388806 0.28397,-12.802782 0.30217,-4.311825 0.69055,-6.160545 1.60591,-7.644204 l 0.55361,-0.897329 2.56082,0.151143 c 1.40844,0.08313 4.6444,0.51131 7.19102,0.951511 5.57245,0.963236 9.26628,1.365141 22.0927,2.403776 10.86587,0.87988 12.27142,1.015529 12.59504,1.215536 0.41194,0.25459 0.71677,2.077135 0.9265,5.539358 0.23308,3.847473 0.20688,5.427414 -0.095,5.729269 -0.22911,0.229113 -3.03611,0.558623 -9.85469,1.156835 -10.70138,0.938855 -19.32444,2.239116 -29.89792,4.508259 -3.71078,0.796359 -6.92547,1.485831 -7.14375,1.532157 -0.21828,0.04633 -0.5457,0.03415 -0.7276,-0.02705 z"
         id="path4557" />
    </g>
  </g>
</svg>
