<?xml version="1.0" encoding="UTF-8" standalone="no"?>
<svg
   xmlns:dc="http://purl.org/dc/elements/1.1/"
   xmlns:cc="http://creativecommons.org/ns#"
   xmlns:rdf="http://www.w3.org/1999/02/22-rdf-syntax-ns#"
   xmlns:svg="http://www.w3.org/2000/svg"
   xmlns="http://www.w3.org/2000/svg"
   xmlns:sodipodi="http://sodipodi.sourceforge.net/DTD/sodipodi-0.dtd"
   xmlns:inkscape="http://www.inkscape.org/namespaces/inkscape"
   width="210mm"
   height="297mm"
   viewBox="0 0 210 297"
   version="1.1"
   id="svg1161"
   inkscape:version="1.0.1 (0767f8302a, 2020-10-17)"
   sodipodi:docname="photon.svg">
  <defs
     id="defs1155" />
  <sodipodi:namedview
     id="base"
     pagecolor="#ffffff"
     bordercolor="#666666"
     borderopacity="1.0"
     inkscape:pageopacity="0.0"
     inkscape:pageshadow="2"
     inkscape:zoom="0.35"
     inkscape:cx="-828.9216"
     inkscape:cy="857.24531"
     inkscape:document-units="mm"
     inkscape:current-layer="layer1"
     inkscape:document-rotation="0"
     showgrid="false"
     inkscape:window-width="1439"
     inkscape:window-height="1023"
     inkscape:window-x="418"
     inkscape:window-y="132"
     inkscape:window-maximized="0" />
  <metadata
     id="metadata1158">
    <rdf:RDF>
      <cc:Work
         rdf:about="">
        <dc:format>image/svg+xml</dc:format>
        <dc:type
           rdf:resource="http://purl.org/dc/dcmitype/StillImage" />
        <dc:title></dc:title>
      </cc:Work>
    </rdf:RDF>
  </metadata>
  <g
     inkscape:label="Layer 1"
     inkscape:groupmode="layer"
     id="layer1">
    <g
       id="g2014"
       transform="translate(26.838709,180.30823)">
      <path
         style="fill:#fde69b;stroke-width:0.264583"
         d="m 18.239096,69.189108 c -0.451165,-0.196403 -0.908013,-0.578697 -1.01522,-0.84954 -0.107209,-0.270843 -0.250036,-7.874317 -0.317397,-16.896609 -0.06736,-9.022291 -0.165377,-16.534904 -0.217821,-16.694694 -0.131392,-0.400365 -3.652194,-0.69647 -4.490685,-0.377677 -0.453311,0.172347 -0.679876,0.458404 -0.681225,0.860095 -0.0033,0.966718 -0.950471,3.811113 -1.5491358,4.651864 C 9.1829956,40.984438 7.2700608,41.717194 4.63407,41.925577 2.7020852,42.078305 2.1805094,42.023568 0.87696821,41.531285 -0.9851481,40.828054 -2.7484478,39.17435 -3.5883782,37.343473 L -4.2071963,35.99458 -5.8030679,35.847551 c -0.8777293,-0.08087 -1.9530586,-0.176856 -2.3896211,-0.21331 -0.6414098,-0.05356 -0.809344,-0.201015 -0.8750014,-0.768302 -0.1158264,-1.000752 0.8561424,-1.682814 1.6278333,-1.142299 0.4749408,0.33266 0.5998141,0.324498 1.0329883,-0.06752 0.4017481,-0.363577 0.5870612,-0.387017 1.0035154,-0.126937 0.7182987,0.448585 0.7394175,0.433213 0.9248428,-0.673203 0.3547189,-2.116569 0.9842844,-3.524414 2.161667,-4.833945 1.50814083,-1.677416 2.7834219,-2.336991 5.4026408,-2.794246 2.3784639,-0.415224 3.8271661,-0.130416 5.3865249,1.058963 0.9078833,0.692478 3.0464469,4.512132 3.0464469,5.441211 0,0.37396 0.321908,0.499499 1.653646,0.644899 0.909505,0.0993 2.10013,0.248957 2.645833,0.332573 l 0.992188,0.152032 V 19.755085 C 16.810436,8.051501 16.765756,6.6355569 16.39192,6.4921024 15.807927,6.268003 13.299962,6.2985095 12.948135,6.5339914 12.788401,6.6409042 12.454674,7.564972 12.206522,8.5874781 11.597467,11.097051 10.810284,12.418877 9.4916268,13.146291 8.0454143,13.944065 4.7082168,14.371973 2.8784855,13.994251 0.43439173,13.489704 -1.9693743,11.419837 -2.8095772,9.0962982 -3.1779936,8.0774593 -3.5826129,7.927549 -5.9774797,7.9226145 c -2.0627329,-0.00426 -2.6181769,-0.3897153 -2.1241064,-1.474081 0.3735324,-0.8198141 0.9794758,-1.0752031 1.5087859,-0.6359154 0.3251084,0.2698168 0.5311468,0.2652289 1.0712918,-0.023839 0.5279345,-0.2825432 0.7760073,-0.2909411 1.1780147,-0.039883 0.2800879,0.1749187 0.5538126,0.3180318 0.6082771,0.3180318 0.054464,0 0.172204,-0.6178629 0.2616438,-1.3730313 0.3234769,-2.7312592 2.1192966,-5.26136372 4.65124,-6.5530648 0.5829035,-0.2973758 1.9472883,-0.6726766 3.0319635,-0.834001 1.6938122,-0.251923 2.1665353,-0.2287535 3.3495615,0.1641872 1.854872,0.6160875 3.1504388,1.96848665 4.0662888,4.2446546 0.406688,1.0107427 0.829524,2.0163075 0.939636,2.2345888 0.237601,0.4710059 3.643521,0.972214 4.023627,0.5921083 0.139721,-0.1397211 0.247922,-5.5582579 0.255331,-12.7865613 0.0072,-7.0391174 0.122129,-12.9043454 0.261847,-13.3650014 0.141931,-0.467947 0.535456,-0.951437 0.915242,-1.124479 0.495233,-0.225651 16.796522,-0.303574 63.505483,-0.303574 67.437503,0 63.930613,-0.06773 64.564173,1.246985 0.12532,0.260044 0.26466,20.2992367 0.30965,44.531537 0.0662,35.656751 0.0161,44.259484 -0.26289,45.111456 -0.27415,0.837274 -0.53402,1.117356 -1.26978,1.368523 -1.44882,0.494585 -125.491062,0.463097 -126.628704,-0.03215 z m 121.021434,-7.066256 0.0803,-0.961774 -3.71043,-0.101896 c -2.45955,-0.06755 -3.82013,-0.211598 -4.03583,-0.427291 -0.4936,-0.493602 -0.023,-0.811149 2.41365,-1.628707 1.76735,-0.592986 2.25418,-0.878699 2.67428,-1.5695 0.28247,-0.464497 0.7926,-0.950619 1.13361,-1.08027 1.40095,-0.53264 1.35511,0.698823 1.35978,-36.528162 0.004,-28.9760974 -0.0558,-34.735281 -0.36961,-35.81644 l -0.37395,-1.288317 -5.71147,0.08563 c -3.14131,0.0471 -25.83303,0.0495 -50.42605,0.0053 -24.593021,-0.04416 -47.706468,-0.0685 -51.363213,-0.05409 l -6.64863,0.02621 -0.282583,0.727604 c -0.155419,0.400183 -0.318693,2.632605 -0.362828,4.960938 l -0.08025,4.2333329 5.159375,0.1322917 5.159375,0.1322916 0.163846,3.1749999 c 0.160671,3.11349748 0.483296,4.55333876 1.109477,4.9515023 0.172797,0.1098735 4.508072,0.2015939 9.633945,0.2038217 l 9.319768,0.00405 0.366538,-0.72760409 c 0.58375,-1.15878764 0.725106,-2.05952191 0.741415,-4.72434421 0.01122,-1.8332846 0.119224,-2.6030083 0.405405,-2.8891888 0.314511,-0.3145089 1.30193,-0.3901098 5.09524,-0.3901098 h 4.705125 L 65.5634,-10.006557 c 0.156982,-2.762725 0.732549,-4.556402 1.75587,-5.471942 0.543653,-0.486393 1.055259,-0.510473 10.622116,-0.499959 9.471416,0.01041 10.083421,0.03987 10.614035,0.511005 0.864375,0.767473 1.513409,2.473822 1.813351,4.767392 0.481066,3.6785593 -0.151741,3.2731912 5.109671,3.2731912 3.531597,0 4.691697,0.085566 5.088197,0.375291 0.44489,0.3250906 0.53473,0.8225914 0.67162,3.7192444 0.1313,2.77813806 0.24803,3.46451747 0.68991,4.05648032 l 0.53188,0.71252558 9.23196,0.064016 c 5.07758,0.035208 9.3865,-0.034877 9.57538,-0.155747 0.57306,-0.36671776 1.10533,-2.9494479 1.10865,-5.3794737 0.003,-2.5248472 0.3728,-3.3038662 1.43165,-3.0196185 0.30573,0.082073 2.65604,0.1508487 5.22291,0.1528357 4.10814,0.00318 4.73795,0.061029 5.25913,0.4830564 0.44969,0.3641381 0.54505,0.6276684 0.39648,1.0957533 l -0.19561,0.6163072 -4.96268,-0.186354 c -5.69031,-0.2136748 -5.29665,-0.3886464 -5.29665,2.3542439 0,2.25249041 -0.85598,4.9740659 -1.77498,5.6435067 l -0.70679,0.5148633 0.80833,0.4180046 c 1.34973,0.6979734 2.18446,3.1032819 2.19613,6.3282936 l 0.006,1.785937 h 4.60857 c 2.53472,0 4.7969,0.07227 5.02709,0.1606 0.49515,0.190007 0.54924,0.92575 0.10101,1.373983 -0.22657,0.226574 -1.89212,0.3175 -5.81579,0.3175 -6.39628,0 -5.68948,0.463722 -5.84746,-3.836458 -0.061,-1.6601411 -0.25732,-3.0154665 -0.52701,-3.6380205 L 121.87702,5.537753 h -9.53171 -9.5317 l -0.45635,0.8598958 c -0.3254,0.6131375 -0.48232,1.6571119 -0.54682,3.6380212 -0.14463,4.441607 0.5104,3.968749 -5.497754,3.968749 h -5.154335 l -0.0021,1.124479 c -0.0032,1.811777 -0.508206,4.415682 -1.069856,5.516605 -0.292618,0.57358 -0.896487,1.211964 -1.378137,1.456904 -1.178293,0.599215 -1.165321,0.553178 -0.385268,1.367375 0.97296,1.015555 1.464635,2.58994 1.673696,5.359344 l 0.179155,2.373209 h 4.741931 c 2.762758,0 4.955534,0.114316 5.253708,0.273892 0.43735,0.234066 0.51177,0.567563 0.51177,2.293432 0,2.604844 0.47639,5.317397 1.03132,5.872326 0.38918,0.389184 1.43442,0.43524 9.66517,0.425873 l 9.22881,-0.0105 0.5535,-0.741354 c 0.46993,-0.629417 0.57382,-1.236194 0.68812,-4.018693 0.074,-1.802537 0.2531,-3.392852 0.39791,-3.534037 0.16524,-0.161096 2.37134,-0.190177 5.92371,-0.07809 4.79348,0.151254 5.70156,0.244017 5.92909,0.605668 0.14776,0.234881 0.19393,0.621835 0.10257,0.859896 -0.14555,0.379616 -0.78126,0.432837 -5.1699,0.432837 h -5.00392 l -0.17968,2.579688 c -0.1495,2.14644 -0.31458,2.838322 -0.98295,4.119686 -0.44181,0.846998 -0.76207,1.569667 -0.71169,1.605931 0.0504,0.03626 0.60331,0.212953 1.22873,0.392642 1.80826,0.51953 2.56209,2.108742 2.87101,6.052573 l 0.17097,2.182813 h 4.67055 c 3.27987,0 4.76509,0.09454 4.98805,0.3175 0.46233,0.462333 0.38846,1.215723 -0.14552,1.484066 -0.25466,0.127977 -2.9038,0.216077 -5.88698,0.195781 l -5.42396,-0.0369 -0.19035,-2.840135 c -0.20644,-3.080247 -0.54898,-4.716629 -1.10336,-5.271016 -0.2822,-0.282196 -2.2302,-0.35143 -9.6372,-0.342511 -5.8339,0.007 -9.37327,0.109448 -9.52508,0.275635 -0.52841,0.578453 -0.86993,2.253401 -1.02501,5.026959 -0.0908,1.623478 -0.29125,3.001962 -0.45337,3.117448 -0.15984,0.113866 -2.49328,0.178686 -5.185422,0.144044 l -4.894792,-0.06299 -0.150452,2.634081 c -0.17975,3.147044 -0.829588,4.888314 -2.062179,5.525711 -1.162386,0.601094 -19.503127,0.624179 -20.65987,0.02601 -1.250151,-0.64648 -1.930156,-2.444694 -2.076905,-5.4922 l -0.126664,-2.630434 -4.959347,0.08116 c -3.652666,0.05977 -5.063244,-0.0051 -5.353677,-0.246111 -0.288952,-0.239807 -0.426114,-1.086207 -0.51326,-3.167197 -0.122417,-2.923278 -0.390279,-3.82742 -1.368716,-4.619984 -0.50832,-0.411756 -1.412751,-0.457724 -9.110297,-0.463021 -9.829366,-0.0068 -9.845006,-0.0038 -10.337612,1.952498 -0.164301,0.652494 -0.298728,2.153488 -0.298728,3.335543 0,3.389723 0.434919,3.172735 -6.359308,3.172735 -5.360683,0 -5.81106,0.03592 -5.805522,0.463021 0.0033,0.254662 0.121317,1.946397 0.262258,3.759409 0.168738,2.17061 0.166687,3.385955 -0.006,3.558646 -0.290629,0.290629 -0.351925,1.731557 -0.101431,2.384337 0.14618,0.380934 5.418037,0.413031 57.877603,0.35237 l 57.716781,-0.06674 z M 89.635838,58.520563 c 0.652074,-0.733562 0.990277,-2.39518 0.99187,-4.873151 7.94e-4,-1.261406 0.07375,-2.481797 0.162076,-2.711979 0.138806,-0.361722 0.856879,-0.418515 5.291666,-0.418515 h 5.13107 l 0.005,-1.389063 c 0.007,-2.107713 0.68909,-4.912084 1.43155,-5.885505 l 0.65674,-0.861031 -1.07596,-0.144317 c -2.16136,-0.289898 -3.324858,-2.401675 -3.640697,-6.607971 l -0.15436,-2.055595 -4.656196,-0.06107 c -3.271261,-0.04291 -4.775234,-0.159989 -5.056407,-0.393637 -0.296505,-0.24639 -0.435846,-1.10337 -0.537747,-3.307291 -0.159906,-3.458538 -0.705652,-5.221272 -1.618483,-5.227632 -8.160678,-0.05684 -18.25662,0.03158 -18.467228,0.161745 -0.639353,0.395142 -1.072764,2.206294 -1.213943,5.07288 -0.145013,2.944449 -0.164629,3.021367 -0.835705,3.277097 -0.380182,0.144875 -2.578544,0.230965 -4.920541,0.192693 l -4.233333,-0.06918 -0.0712,1.042167 c -0.261694,3.830568 -1.025861,6.247926 -2.19983,6.958914 -0.474284,0.28724 -2.60667,0.360495 -10.493645,0.360495 h -9.898401 l -0.782852,-0.75002 C 32.5109,39.93195 31.992664,38.232338 31.751835,35.264922 l -0.174906,-2.155121 -1.496269,0.08546 c -0.822947,0.047 -2.657126,0.09407 -4.075954,0.104601 l -2.579687,0.01914 v 8.55486 c 0,4.705175 0.04934,8.604472 0.109638,8.665104 0.0603,0.06063 2.299242,0.07556 4.975429,0.03317 l 4.865793,-0.07707 0.292356,-2.634337 c 0.354053,-3.190243 1.085599,-4.915199 2.296126,-5.414174 0.614741,-0.253394 3.19038,-0.339728 10.210802,-0.342257 11.194055,-0.004 10.832656,-0.09186 11.925541,2.898142 0.343958,0.941033 0.513898,2.08528 0.513898,3.460221 v 2.054257 h 5.263358 c 4.555419,0 5.28496,0.05629 5.423959,0.418515 0.08833,0.230182 0.163441,1.391042 0.166912,2.579687 0.0071,2.440006 0.271478,3.854784 0.899311,4.812977 l 0.429493,0.655487 h 9.21331 c 8.441396,0 9.247793,-0.03879 9.624893,-0.463021 z M 53.667166,39.701739 c 0.521163,-0.0805 1.043392,-2.185617 1.155009,-4.655857 0.194376,-4.301887 -0.427662,-3.843547 5.21629,-3.843547 h 4.853365 l 0.182309,-2.246833 c 0.247883,-3.055022 0.773515,-4.702387 1.7672,-5.538518 0.445333,-0.374724 1.03166,-0.681315 1.302948,-0.681315 0.767464,0 0.840955,-0.420584 0.130085,-0.744479 -1.065027,-0.485259 -1.760998,-2.249003 -2.078244,-5.266735 L 65.91018,14.004419 h -5.202894 c -5.813782,0 -6.012164,-0.0578 -5.638239,-1.642808 0.294646,-1.24895 0.139888,-3.8453879 -0.313592,-5.2612527 l -0.38931,-1.2155169 -4.40032,-0.1735455 c -5.842672,-0.2304283 -13.906958,-0.214032 -14.237681,0.028945 -1.134438,0.833456 -1.322308,1.4239319 -1.455209,4.5736641 -0.08734,2.070018 -0.249579,3.252118 -0.477485,3.479065 -0.26161,0.260511 -1.558912,0.334613 -5.357813,0.306043 l -5.012618,-0.0377 v 8.549489 8.549486 l 0.848672,0.186399 c 0.46677,0.102521 2.699192,0.141746 4.960937,0.08717 l 4.112266,-0.09923 0.190349,2.852102 c 0.206134,3.088664 0.548174,4.727792 1.102159,5.281777 0.281829,0.281826 2.202992,0.343812 9.584155,0.309226 5.077418,-0.02379 9.327041,-0.05799 9.443609,-0.07599 z m 26.060519,-17.16251 c -1.120876,-0.04947 -3.025876,-0.04975 -4.233334,-5.29e-4 -1.207455,0.04914 -0.290375,0.08961 2.037959,0.08995 2.328333,2.64e-4 3.316253,-0.03987 2.195375,-0.08934 z m 8.872733,-3.044626 c 0.345612,-0.707311 0.527917,-1.868154 0.635071,-4.043855 0.08266,-1.678458 0.273616,-3.127959 0.424341,-3.221111 0.150723,-0.09315 2.484316,-0.178419 5.18576,-0.189482 l 4.911719,-0.02011 0.165656,-2.5135411 C 100.11187,6.6402532 100.569,5.3248614 101.75155,4.2447687 L 102.57868,3.489304 101.90583,3.320431 C 101.53576,3.227552 100.81166,2.5997669 100.29671,1.9253573 L 99.360434,0.69915909 V -2.2083761 -5.1159087 l -4.89086,0.1225497 c -6.069972,0.152093 -5.957056,0.2145956 -5.957056,-3.2973961 0,-2.9803299 -0.407154,-4.8704339 -1.148466,-5.3314329 -0.448848,-0.279125 -2.510899,-0.355854 -9.618851,-0.357917 -10.184225,-0.003 -9.610926,-0.119695 -10.11298,2.059267 -0.15039,0.652694 -0.276344,2.2057573 -0.2799,3.451251 -0.004,1.3887521 -0.134374,2.4362356 -0.337199,2.7085051 -0.284575,0.3820159 -0.99533,0.4536889 -5.093229,0.5135906 l -4.7625,0.06962 -0.167391,2.5643098 C 56.797901,0.35989712 56.103576,2.1426304 54.896478,2.766846 54.273297,3.0891058 52.473794,3.1565031 44.492834,3.1565031 H 34.842702 L 34.057776,2.4960291 C 32.940914,1.5562529 32.393407,-0.04608482 32.224539,-2.8691333 l -0.146777,-2.4537616 -4.260226,0.072512 -4.260226,0.072512 -0.06982,8.5393844 -0.06982,8.5393845 4.303152,-0.07272 4.303154,-0.07272 0.06045,-1.190625 C 32.117676,9.9099891 32.278712,8.5627123 32.442291,7.5708846 32.691999,6.056841 32.898554,5.6005829 33.729938,4.7266139 L 34.72017,3.6856664 h 9.941203 c 5.46766,0 10.135383,0.074515 10.372714,0.1655868 0.237334,0.091072 0.80136,0.8947441 1.253392,1.7859374 0.654733,1.2908201 0.853872,2.07772 0.979189,3.8693089 l 0.157311,2.2489585 5.291666,0.132292 c 2.910417,0.07276 5.440495,0.228616 5.622396,0.346345 0.233418,0.151071 0.33102,1.124177 0.331719,3.307291 7.93e-4,2.575126 0.08542,3.231706 0.505076,3.919919 l 0.504089,0.826677 5.237054,0.04271 c 2.880379,0.0235 5.295366,0.10102 5.366634,0.172291 0.07127,0.07127 1.862857,0.09676 3.981307,0.05665 l 3.851725,-0.07293 z M 157.65673,18.54174 c -2.26674,-0.783328 -4.20673,-2.576991 -4.88185,-4.513619 -0.36625,-1.050629 -1.07846,-1.346618 -3.24021,-1.346618 -0.93029,0 -1.78811,-0.138454 -1.96715,-0.3175 -0.47036,-0.470353 -0.38623,-1.125789 0.21424,-1.669201 0.45267,-0.40967 0.62425,-0.431702 1.154,-0.148188 0.50485,0.270188 0.72903,0.266354 1.18806,-0.02032 0.45438,-0.283768 0.66926,-0.288713 1.09136,-0.02511 0.28906,0.180526 0.57006,0.328229 0.62444,0.328229 0.0544,0 0.16476,-0.638495 0.24531,-1.4188781 0.27,-2.6161205 2.12693,-5.2485897 4.5578,-6.461355 0.58208,-0.290404 1.96735,-0.6743382 3.07838,-0.8531886 1.7542,-0.2823844 2.19248,-0.2679064 3.3303,0.1100164 2.11033,0.7009368 3.7957,2.7919811 4.70914,5.8426189 l 0.31609,1.0556716 2.27759,0.2713778 c 2.46909,0.2941955 3.13293,0.642705 2.65696,1.394873 -0.23834,0.376637 -0.62766,0.442566 -2.24301,0.379843 -1.07504,-0.04174 -2.09426,0.01913 -2.26493,0.135282 -0.17066,0.116149 -0.49696,1.016045 -0.7251,1.999768 -0.8605,3.710385 -2.15054,4.972389 -5.59117,5.469639 -2.47854,0.358203 -2.9391,0.336515 -4.53025,-0.213347 z"
         id="path2028" />
      <path
         style="fill:#d0d0d0;stroke-width:0.264583"
         d="M 18.239096,69.189108 C 17.787931,68.992705 17.331083,68.610411 17.223876,68.339568 17.116667,68.068725 16.97384,60.465251 16.906479,51.442959 16.839119,42.420668 16.716135,34.8602 16.633181,34.641918 c -0.230463,-0.606417 -0.244708,-1.852125 -0.02119,-1.852101 0.10914,1e-5 0.198437,-5.893575 0.198437,-13.096856 0,-9.9558843 -0.07558,-13.0968747 -0.315153,-13.0968747 -0.173334,0 -0.08404,-0.1713415 0.198437,-0.3807618 0.442283,-0.3278928 0.466426,-0.457962 0.173898,-0.9368023 -0.18683,-0.3058239 -0.271412,-0.666525 -0.187958,-0.8015551 0.08345,-0.1350328 0.157483,-5.8749563 0.164505,-12.7553839 0.0072,-7.0180182 0.122076,-12.8702532 0.261758,-13.3307842 0.14193,-0.467947 0.535455,-0.951437 0.915241,-1.124479 0.495244,-0.225643 16.796533,-0.303566 63.505494,-0.303566 67.4375,0 63.93061,-0.06773 64.56417,1.246985 0.12532,0.260044 0.26466,20.2992364 0.30965,44.531537 0.0662,35.656751 0.0161,44.259484 -0.26289,45.111456 -0.27415,0.837274 -0.53402,1.117356 -1.26978,1.368523 -1.44882,0.494585 -125.491059,0.463097 -126.628701,-0.03215 z m 121.021434,-7.066256 0.0803,-0.961774 -3.71043,-0.101896 c -2.45955,-0.06755 -3.82013,-0.211598 -4.03583,-0.427291 -0.4936,-0.493602 -0.023,-0.811149 2.41365,-1.628707 1.76735,-0.592986 2.25418,-0.878699 2.67428,-1.5695 0.28247,-0.464497 0.7926,-0.950619 1.13361,-1.08027 1.40095,-0.53264 1.35511,0.698823 1.35978,-36.528162 0.004,-28.9760974 -0.0558,-34.735281 -0.36961,-35.81644 l -0.37395,-1.288317 -5.71147,0.08563 c -3.14131,0.0471 -25.83303,0.0495 -50.42605,0.0053 -24.593021,-0.04416 -47.706468,-0.0685 -51.363213,-0.05409 l -6.64863,0.02621 -0.282583,0.727604 c -0.155419,0.400183 -0.318693,2.632605 -0.362828,4.960938 l -0.08025,4.2333329 5.159375,0.1322917 5.159375,0.1322916 0.163846,3.1749999 c 0.160671,3.11349748 0.483296,4.55333876 1.109477,4.9515023 0.172797,0.1098735 4.508072,0.2015939 9.633945,0.2038217 l 9.319768,0.00405 0.366538,-0.72760409 c 0.58375,-1.15878764 0.725106,-2.05952191 0.741415,-4.72434421 0.01122,-1.8332846 0.119224,-2.6030083 0.405405,-2.8891888 0.314511,-0.3145089 1.30193,-0.3901098 5.09524,-0.3901098 h 4.705125 L 65.5634,-10.006557 c 0.156982,-2.762725 0.732549,-4.556402 1.75587,-5.471942 0.543653,-0.486393 1.055259,-0.510473 10.622116,-0.499959 9.471416,0.01041 10.083421,0.03987 10.614035,0.511005 0.864375,0.767473 1.513409,2.473822 1.813351,4.767392 0.481066,3.6785593 -0.151741,3.2731912 5.109671,3.2731912 3.531597,0 4.691697,0.085566 5.088197,0.375291 0.44489,0.3250906 0.53473,0.8225914 0.67162,3.7192444 0.1313,2.77813806 0.24803,3.46451747 0.68991,4.05648032 l 0.53188,0.71252558 9.23196,0.064016 c 5.07758,0.035208 9.3865,-0.034877 9.57538,-0.155747 0.57306,-0.36671776 1.10533,-2.9494479 1.10865,-5.3794737 0.003,-2.5248472 0.3728,-3.3038662 1.43165,-3.0196185 0.30573,0.082073 2.65604,0.1508487 5.22291,0.1528357 4.10814,0.00318 4.73795,0.061029 5.25913,0.4830564 0.44969,0.3641381 0.54505,0.6276684 0.39648,1.0957533 l -0.19561,0.6163072 -4.96268,-0.186354 c -5.69031,-0.2136748 -5.29665,-0.3886464 -5.29665,2.3542439 0,2.25249041 -0.85598,4.9740659 -1.77498,5.6435067 l -0.70679,0.5148633 0.80833,0.4180046 c 1.34973,0.6979734 2.18446,3.1032819 2.19613,6.3282936 l 0.006,1.785937 h 4.60857 c 2.53472,0 4.7969,0.07227 5.02709,0.1606 0.49515,0.190007 0.54924,0.92575 0.10101,1.373983 -0.22657,0.226574 -1.89212,0.3175 -5.81579,0.3175 -6.39628,0 -5.68948,0.463722 -5.84746,-3.836458 -0.061,-1.6601411 -0.25732,-3.0154665 -0.52701,-3.6380205 L 121.87702,5.537753 h -9.53171 -9.5317 l -0.45635,0.8598958 c -0.3254,0.6131375 -0.48232,1.6571119 -0.54682,3.6380212 -0.14463,4.441607 0.5104,3.968749 -5.497754,3.968749 h -5.154335 l -0.0021,1.124479 c -0.0032,1.811777 -0.508206,4.415682 -1.069856,5.516605 -0.292618,0.57358 -0.896487,1.211964 -1.378137,1.456904 -1.178293,0.599215 -1.165321,0.553178 -0.385268,1.367375 0.97296,1.015555 1.464635,2.58994 1.673696,5.359344 l 0.179155,2.373209 h 4.741931 c 2.762758,0 4.955534,0.114316 5.253708,0.273892 0.43735,0.234066 0.51177,0.567563 0.51177,2.293432 0,2.604844 0.47639,5.317397 1.03132,5.872326 0.38918,0.389184 1.43442,0.43524 9.66517,0.425873 l 9.22881,-0.0105 0.5535,-0.741354 c 0.46993,-0.629417 0.57382,-1.236194 0.68812,-4.018693 0.074,-1.802537 0.2531,-3.392852 0.39791,-3.534037 0.16524,-0.161096 2.37134,-0.190177 5.92371,-0.07809 4.79348,0.151254 5.70156,0.244017 5.92909,0.605668 0.14776,0.234881 0.19393,0.621835 0.10257,0.859896 -0.14555,0.379616 -0.78126,0.432837 -5.1699,0.432837 h -5.00392 l -0.17968,2.579688 c -0.1495,2.14644 -0.31458,2.838322 -0.98295,4.119686 -0.44181,0.846998 -0.76207,1.569667 -0.71169,1.605931 0.0504,0.03626 0.60331,0.212953 1.22873,0.392642 1.80826,0.51953 2.56209,2.108742 2.87101,6.052573 l 0.17097,2.182813 h 4.67055 c 3.27987,0 4.76509,0.09454 4.98805,0.3175 0.46233,0.462333 0.38846,1.215723 -0.14552,1.484066 -0.25466,0.127977 -2.9038,0.216077 -5.88698,0.195781 l -5.42396,-0.0369 -0.19035,-2.840135 c -0.20644,-3.080247 -0.54898,-4.716629 -1.10336,-5.271016 -0.2822,-0.282196 -2.2302,-0.35143 -9.6372,-0.342511 -5.8339,0.007 -9.37327,0.109448 -9.52508,0.275635 -0.52841,0.578453 -0.86993,2.253401 -1.02501,5.026959 -0.0908,1.623478 -0.29125,3.001962 -0.45337,3.117448 -0.15984,0.113866 -2.49328,0.178686 -5.185422,0.144044 l -4.894792,-0.06299 -0.150452,2.634081 c -0.17975,3.147044 -0.829588,4.888314 -2.062179,5.525711 -1.162386,0.601094 -19.503127,0.624179 -20.65987,0.02601 -1.250151,-0.64648 -1.930156,-2.444694 -2.076905,-5.4922 l -0.126664,-2.630434 -4.959347,0.08116 c -3.652666,0.05977 -5.063244,-0.0051 -5.353677,-0.246111 -0.288952,-0.239807 -0.426114,-1.086207 -0.51326,-3.167197 -0.122417,-2.923278 -0.390279,-3.82742 -1.368716,-4.619984 -0.50832,-0.411756 -1.412751,-0.457724 -9.110297,-0.463021 -9.829366,-0.0068 -9.845006,-0.0038 -10.337612,1.952498 -0.164301,0.652494 -0.298728,2.153488 -0.298728,3.335543 0,3.389723 0.434919,3.172735 -6.359308,3.172735 -5.360683,0 -5.81106,0.03592 -5.805522,0.463021 0.0033,0.254662 0.121317,1.946397 0.262258,3.759409 0.168738,2.17061 0.166687,3.385955 -0.006,3.558646 -0.290629,0.290629 -0.351925,1.731557 -0.101431,2.384337 0.14618,0.380934 5.418037,0.413031 57.877603,0.35237 l 57.716781,-0.06674 z M 89.635838,58.520563 c 0.652074,-0.733562 0.990277,-2.39518 0.99187,-4.873151 7.94e-4,-1.261406 0.07375,-2.481797 0.162076,-2.711979 0.138806,-0.361722 0.856879,-0.418515 5.291666,-0.418515 h 5.13107 l 0.005,-1.389063 c 0.007,-2.107713 0.68909,-4.912084 1.43155,-5.885505 l 0.65674,-0.861031 -1.07596,-0.144317 c -2.16136,-0.289898 -3.324858,-2.401675 -3.640697,-6.607971 l -0.15436,-2.055595 -4.656196,-0.06107 c -3.271261,-0.04291 -4.775234,-0.159989 -5.056407,-0.393637 -0.296505,-0.24639 -0.435846,-1.10337 -0.537747,-3.307291 -0.159906,-3.458538 -0.705652,-5.221272 -1.618483,-5.227632 -8.160678,-0.05684 -18.25662,0.03158 -18.467228,0.161745 -0.639353,0.395142 -1.072764,2.206294 -1.213943,5.07288 -0.145013,2.944449 -0.164629,3.021367 -0.835705,3.277097 -0.380182,0.144875 -2.578544,0.230965 -4.920541,0.192693 l -4.233333,-0.06918 -0.0712,1.042167 c -0.261694,3.830568 -1.025861,6.247926 -2.19983,6.958914 -0.474284,0.28724 -2.60667,0.360495 -10.493645,0.360495 h -9.898401 l -0.782852,-0.75002 C 32.5109,39.93195 31.992664,38.232338 31.751835,35.264922 l -0.174906,-2.155121 -1.496269,0.08546 c -0.822947,0.047 -2.657126,0.09407 -4.075954,0.104601 l -2.579687,0.01914 v 8.55486 c 0,4.705175 0.04934,8.604472 0.109638,8.665104 0.0603,0.06063 2.299242,0.07556 4.975429,0.03317 l 4.865793,-0.07707 0.292356,-2.634337 c 0.354053,-3.190243 1.085599,-4.915199 2.296126,-5.414174 0.614741,-0.253394 3.19038,-0.339728 10.210802,-0.342257 11.194055,-0.004 10.832656,-0.09186 11.925541,2.898142 0.343958,0.941033 0.513898,2.08528 0.513898,3.460221 v 2.054257 h 5.263358 c 4.555419,0 5.28496,0.05629 5.423959,0.418515 0.08833,0.230182 0.163441,1.391042 0.166912,2.579687 0.0071,2.440006 0.271478,3.854784 0.899311,4.812977 l 0.429493,0.655487 h 9.21331 c 8.441396,0 9.247793,-0.03879 9.624893,-0.463021 z M 53.667166,39.701739 c 0.521163,-0.0805 1.043392,-2.185617 1.155009,-4.655857 0.194376,-4.301887 -0.427662,-3.843547 5.21629,-3.843547 h 4.853365 l 0.182309,-2.246833 c 0.247883,-3.055022 0.773515,-4.702387 1.7672,-5.538518 0.445333,-0.374724 1.03166,-0.681315 1.302948,-0.681315 0.767464,0 0.840955,-0.420584 0.130085,-0.744479 -1.065027,-0.485259 -1.760998,-2.249003 -2.078244,-5.266735 L 65.91018,14.004419 h -5.202894 c -5.813782,0 -6.012164,-0.0578 -5.638239,-1.642808 0.294646,-1.24895 0.139888,-3.8453879 -0.313592,-5.2612527 l -0.38931,-1.2155169 -4.40032,-0.1735455 c -5.842672,-0.2304283 -13.906958,-0.214032 -14.237681,0.028945 -1.134438,0.833456 -1.322308,1.4239319 -1.455209,4.5736641 -0.08734,2.070018 -0.249579,3.252118 -0.477485,3.479065 -0.26161,0.260511 -1.558912,0.334613 -5.357813,0.306043 l -5.012618,-0.0377 v 8.549489 8.549486 l 0.848672,0.186399 c 0.46677,0.102521 2.699192,0.141746 4.960937,0.08717 l 4.112266,-0.09923 0.190349,2.852102 c 0.206134,3.088664 0.548174,4.727792 1.102159,5.281777 0.281829,0.281826 2.202992,0.343812 9.584155,0.309226 5.077418,-0.02379 9.327041,-0.05799 9.443609,-0.07599 z m 26.060519,-17.16251 c -1.120876,-0.04947 -3.025876,-0.04975 -4.233334,-5.29e-4 -1.207455,0.04914 -0.290375,0.08961 2.037959,0.08995 2.328333,2.64e-4 3.316253,-0.03987 2.195375,-0.08934 z m 8.872733,-3.044626 c 0.345612,-0.707311 0.527917,-1.868154 0.635071,-4.043855 0.08266,-1.678458 0.273616,-3.127959 0.424341,-3.221111 0.150723,-0.09315 2.484316,-0.178419 5.18576,-0.189482 l 4.911719,-0.02011 0.165656,-2.5135411 C 100.11187,6.6402532 100.569,5.3248614 101.75155,4.2447687 L 102.57868,3.489304 101.90583,3.320431 C 101.53576,3.227552 100.81166,2.5997669 100.29671,1.9253573 L 99.360434,0.69915909 V -2.2083761 -5.1159087 l -4.89086,0.1225497 c -6.069972,0.152093 -5.957056,0.2145956 -5.957056,-3.2973961 0,-2.9803299 -0.407154,-4.8704339 -1.148466,-5.3314329 -0.448848,-0.279125 -2.510899,-0.355854 -9.618851,-0.357917 -10.184225,-0.003 -9.610926,-0.119695 -10.11298,2.059267 -0.15039,0.652694 -0.276344,2.2057573 -0.2799,3.451251 -0.004,1.3887521 -0.134374,2.4362356 -0.337199,2.7085051 -0.284575,0.3820159 -0.99533,0.4536889 -5.093229,0.5135906 l -4.7625,0.06962 -0.167391,2.5643098 C 56.797901,0.35989712 56.103576,2.1426304 54.896478,2.766846 54.273297,3.0891058 52.473794,3.1565031 44.492834,3.1565031 H 34.842702 L 34.057776,2.4960291 C 32.940914,1.5562529 32.393407,-0.04608482 32.224539,-2.8691333 l -0.146777,-2.4537616 -4.260226,0.072512 -4.260226,0.072512 -0.06982,8.5393844 -0.06982,8.5393845 4.303152,-0.07272 4.303154,-0.07272 0.06045,-1.190625 C 32.117676,9.9099891 32.278712,8.5627123 32.442291,7.5708846 32.691999,6.056841 32.898554,5.6005829 33.729938,4.7266139 L 34.72017,3.6856664 h 9.941203 c 5.46766,0 10.135383,0.074515 10.372714,0.1655868 0.237334,0.091072 0.80136,0.8947441 1.253392,1.7859374 0.654733,1.2908201 0.853872,2.07772 0.979189,3.8693089 l 0.157311,2.2489585 5.291666,0.132292 c 2.910417,0.07276 5.440495,0.228616 5.622396,0.346345 0.233418,0.151071 0.33102,1.124177 0.331719,3.307291 7.93e-4,2.575126 0.08542,3.231706 0.505076,3.919919 l 0.504089,0.826677 5.237054,0.04271 c 2.880379,0.0235 5.295366,0.10102 5.366634,0.172291 0.07127,0.07127 1.862857,0.09676 3.981307,0.05665 l 3.851725,-0.07293 z M 4.6686907,40.9704 C 4.0298463,40.844932 3.3154714,40.571236 3.0811908,40.362189 2.8469102,40.153139 1.9655937,39.657209 1.1227079,39.260122 0.08204876,38.769863 -0.86748525,38.024352 -1.8358153,36.937285 l -1.4260009,-1.600862 -2.5882057,0.069 c -1.4235134,0.03795 -2.7115537,0.138901 -2.8623117,0.224332 -0.150758,0.08543 -0.19241,0.06447 -0.09256,-0.04659 0.09985,-0.111054 0.070444,-0.494133 -0.065346,-0.851289 -0.1619509,-0.425964 -0.1561396,-0.593286 0.016891,-0.486347 0.1450819,0.08966 0.2637846,0.03694 0.2637846,-0.11717 0,-0.377955 0.8762743,-0.356426 1.2637481,0.03105 0.2386089,0.23861 0.4362048,0.198165 0.8466667,-0.173299 0.4891135,-0.44264 0.5754624,-0.448458 0.9984393,-0.06728 0.2546615,0.229497 0.7852611,0.497684 1.1791103,0.595966 0.7783856,0.194246 0.8067172,0.140568 1.109853,-2.102729 0.2079784,-1.539113 1.4039665,-3.253303 3.26534192,-4.680164 C 2.5071005,25.866483 3.0907052,25.774149 5.4238354,26.885441 6.4770755,27.38711 7.3959839,27.7404 7.4658551,27.670529 7.7965552,27.339826 6.9115557,26.445127 5.8994054,26.086908 4.9382773,25.746749 4.876722,25.684778 5.4822739,25.666974 c 0.9406519,-0.02766 2.0617418,0.413981 2.7953493,1.101191 0.5734526,0.537183 0.853313,1.449853 0.3490119,1.138179 -0.5510477,-0.340566 -0.4746308,0.334648 0.1202399,1.062437 0.5632344,0.689081 0.6397519,0.717659 0.6672024,0.249179 0.054197,-0.925052 0.7564336,0.936901 0.7698426,2.041213 0.01527,1.25816 0.497766,1.522799 2.838809,1.557036 2.184453,0.03195 3.126248,0.266716 3.126248,0.779304 0,0.311279 -0.386559,0.367371 -2.019906,0.293108 -2.177893,-0.09902 -3.139469,0.203499 -3.139469,0.987708 0,0.264207 -0.13232,0.859954 -0.294047,1.323882 -0.253974,0.728549 -0.336132,0.785955 -0.602832,0.421219 -0.2642261,-0.361349 -0.3606111,-0.27692 -0.6679114,0.585036 -0.1975194,0.55403 -0.5810885,1.323364 -0.8523764,1.709629 -0.5976514,0.850951 -0.6196383,1.049383 -0.093932,0.847649 0.2196253,-0.08428 0.6947509,-0.646086 1.0558304,-1.248466 0.5454484,-0.909952 0.6569364,-0.992301 0.6590154,-0.486783 0.0041,1.006504 -0.6776553,2.008391 -1.7935196,2.635541 C 7.2918492,41.286757 6.5779505,41.345375 4.6686907,40.9704 Z M 6.9547066,40.041858 C 8.2348189,39.213865 7.4768565,38.865756 5.8625383,39.540261 4.6910824,40.029727 4.5064112,40.8825 5.6317899,40.605809 6.0319722,40.507416 6.6272847,40.253641 6.9547066,40.041858 Z M 6.5162179,38.534463 C 7.8599123,37.836889 8.7013058,36.424718 9.1326084,34.143192 9.5160134,32.115031 9.0980458,30.9246 7.4971976,29.485298 6.0938053,28.223529 4.1168387,27.573723 2.9957674,28.005732 c -0.5825437,0.224486 -0.5853774,0.240035 -0.075957,0.41678 0.2910417,0.100975 0.8863542,0.310253 1.3229166,0.465063 1.8813939,0.667163 3.0378982,2.487708 3.041232,4.787458 0.00302,2.075439 -2.0715579,3.79431 -4.8980592,4.058251 -1.80111136,0.16819 -1.94057588,0.424121 -0.5588053,1.025448 1.3077983,0.569134 3.3488735,0.471514 4.6891234,-0.224269 z m -2.6153744,-2.22645 c 0.5518388,-0.538856 1.0049668,-1.223465 1.0069538,-1.521354 0.00212,-0.297889 0.079362,-0.824635 0.1719422,-1.170546 L 5.24807,32.987183 5.7018595,33.588784 6.155649,34.190389 6.2779183,33.357303 C 6.4486222,32.194232 5.8499574,31.120635 4.6567369,30.450009 3.4672602,29.781483 2.0795656,29.725315 0.24110303,30.271282 c -1.08180186,0.32126 -1.40030993,0.561227 -1.76781353,1.331892 -0.5817737,1.219991 -0.5592127,2.371857 0.073771,3.766349 0.2807309,0.618463 0.54600743,1.126273 0.58950228,1.128463 0.0434948,0.0021 0.5553313,0.175559 1.13741463,0.38526 1.76395589,0.63549 2.50779219,0.517515 3.62686609,-0.575233 z m -1.642491,-0.831861 c 0,-0.268774 -0.238125,-0.763243 -0.5291667,-1.098817 -0.2910416,-0.335573 -0.5291666,-0.653814 -0.5291666,-0.707199 0,-0.448808 1.4305676,-2.203217 1.7965313,-2.203217 0.8541147,0 1.7061498,0.798401 1.5154011,1.42001 -0.09525,0.310402 -0.2227501,0.896237 -0.2833317,1.301859 -0.1779006,1.191085 -0.6120395,1.776047 -1.3181171,1.776047 -0.457753,0 -0.6521503,-0.145669 -0.6521503,-0.488683 z M 162.1066,18.003438 c -0.26216,-0.166132 -0.0865,-0.358294 0.66146,-0.723551 0.56013,-0.27354 1.05524,-0.697013 1.10024,-0.941054 0.0764,-0.414047 -0.009,-0.414745 -1.27306,-0.01043 -1.07153,0.342659 -1.32899,0.532294 -1.23108,0.90673 0.0976,0.373023 -0.036,0.473456 -0.62955,0.473456 -0.41435,0 -0.83609,-0.133863 -0.93721,-0.297474 -0.10112,-0.16361 -0.91182,-0.630068 -1.80155,-1.036571 -1.52005,-0.694478 -2.43874,-1.435516 -4.21442,-3.399441 -0.63766,-0.705249 -0.88473,-0.80586 -1.7198,-0.700288 -2.94396,0.372181 -4.32479,0.424672 -4.16006,0.158133 0.0954,-0.154334 0.0612,-0.280609 -0.0759,-0.280609 -0.13714,0 -0.31166,-0.238289 -0.38782,-0.529532 -0.0762,-0.291242 -0.044,-0.471146 0.0715,-0.399788 0.30304,0.187288 0.83144,-0.529817 0.59832,-0.811995 -0.10788,-0.130583 0.042,-0.04844 0.33302,0.182536 0.92853,0.736901 1.13837,0.779483 1.59431,0.323545 0.35543,-0.355428 0.53494,-0.382741 0.88123,-0.13409 0.23918,0.171738 0.72266,0.435647 1.07438,0.586459 0.7982,0.342246 0.9606,0.11276 1.16971,-1.6528679 0.22305,-1.8832696 1.23114,-3.4105954 3.34048,-5.0610423 1.943,-1.5202852 3.44539,-2.0512352 4.14987,-1.4665695 0.50172,0.416388 3.33526,1.5760911 3.48502,1.4263343 0.23796,-0.2379716 -1.52777,-1.7234138 -2.0486,-1.7234138 -0.30224,0 -0.54952,-0.1190625 -0.54952,-0.2645833 0,-0.7373011 2.83298,0.3501734 3.54405,1.3604319 0.38647,0.5490818 0.39068,0.6342062 0.0351,0.7094881 -0.53942,0.1141915 -0.50933,0.490982 0.10121,1.2671583 0.34537,0.4390628 0.54838,0.5360273 0.64132,0.3063161 0.24726,-0.6111187 0.69706,0.3827197 0.70139,1.5497306 0.002,0.6006439 0.16396,1.2247906 0.3594,1.3869908 0.19544,0.1622028 1.46923,0.3604154 2.83066,0.4404757 1.36142,0.08006 2.61145,0.2585534 2.77785,0.39665 0.16639,0.138097 0.38717,0.166449 0.49061,0.06301 0.10345,-0.103441 0.10952,0.01667 0.0135,0.26688 -0.19942,0.519684 -0.10225,0.504113 -2.84815,0.456353 -2.24268,-0.03901 -2.82607,0.209619 -2.82607,1.204402 0,0.336511 -0.13218,0.94701 -0.29372,1.356665 -0.27192,0.689525 -0.30919,0.705537 -0.50208,0.215661 -0.18276,-0.464193 -0.26412,-0.399219 -0.66258,0.529167 -0.24983,0.582083 -0.68685,1.385755 -0.97115,1.785937 -0.40796,0.574239 -0.43607,0.727605 -0.13334,0.727605 0.21097,0 0.76547,-0.565547 1.23221,-1.256771 0.82808,-1.226341 0.84502,-1.235977 0.69961,-0.398008 -0.2207,1.271866 -0.86512,2.092526 -2.12024,2.700118 -1.1991,0.580475 -1.92854,0.670282 -2.50046,0.307846 z m 0.0312,-2.162228 c 1.40801,-0.391015 2.62078,-1.713376 3.17,-3.456482 0.79169,-2.512645 0.55195,-4.1731859 -0.81058,-5.6144347 -1.33672,-1.4139439 -4.17215,-2.4105605 -5.20836,-1.8306705 -0.36995,0.2070364 -0.19677,0.3381983 0.93555,0.708562 1.49219,0.488069 2.73383,1.5332181 3.16324,2.6626449 0.14658,0.385527 0.2665,1.3389133 0.2665,2.1186373 0,1.144294 -0.13397,1.576906 -0.69474,2.243336 -0.96476,1.146556 -2.55626,1.892432 -4.25975,1.996387 -1.70008,0.103749 -1.91814,0.236842 -1.10289,0.673148 1.46192,0.782397 2.93667,0.944411 4.54103,0.498872 z m -1.70528,-2.726471 c 0.61637,-0.615346 0.92357,-1.207153 1.02703,-1.978514 0.15246,-1.1367055 0.43253,-1.407959 0.70922,-0.686911 0.24764,0.645345 0.69163,0.173635 0.69163,-0.7348089 0,-0.6172703 -0.27242,-1.0782538 -1.10558,-1.8708158 l -1.10558,-1.0517134 -2.25958,0.14097 c -2.10389,0.1312571 -2.30931,0.1966251 -2.98128,0.9486873 -0.97374,1.0898134 -1.19235,2.4061338 -0.63985,3.8528388 0.52233,1.367705 1.03085,1.867725 2.27104,2.233109 1.35765,0.399987 2.40065,0.137822 3.39295,-0.852842 z M 158.732,12.483065 c -0.0787,-0.254661 -0.25431,-0.641614 -0.39026,-0.859896 -0.55071,-0.88424 -0.55929,-1.138642 -0.0698,-2.0705783 0.55183,-1.0506181 1.28919,-1.3311584 2.2073,-0.8398034 0.48944,0.2619428 0.53479,0.4473337 0.37617,1.5379697 -0.0992,0.682067 -0.34656,1.567543 -0.54968,1.967725 -0.41865,0.824801 -1.35213,0.981742 -1.57374,0.264583 z M 6.5316034,13.240938 C 6.2694463,13.074806 6.4451164,12.882644 7.1930618,12.517387 7.75319,12.243848 8.2502097,11.81046 8.297549,11.554301 c 0.08169,-0.442045 0.021114,-0.441304 -1.190625,0.01455 -0.9166436,0.344842 -1.2547706,0.606772 -1.1989514,0.928767 0.050893,0.293579 -0.098711,0.448471 -0.4331547,0.448471 -0.8483256,0 -4.93996388,-2.322708 -5.8951044,-3.3464865 C -0.91156747,9.0730228 -1.5813999,8.3550072 -1.9088032,8.0040162 -2.3749673,7.5042712 -2.6906046,7.3948158 -3.3640115,7.4993844 -5.5503866,7.8388951 -7.9176758,7.936185 -7.5312307,7.6706465 c 0.3527777,-0.2424006 0.3527777,-0.2766324 0,-0.3080861 -0.2182812,-0.019473 -0.4912704,-0.019579 -0.6066427,-2.646e-4 -0.1153724,0.019315 -0.089796,-0.1890606 0.056837,-0.4630446 0.1466326,-0.2739866 0.1814967,-0.5832633 0.077476,-0.6872843 -0.1040207,-0.1040368 -0.010535,-0.1494578 0.2077466,-0.1009491 0.2216965,0.049265 0.3642026,-0.068215 0.3228546,-0.2661602 -0.048997,-0.2345584 0.1828009,-0.1714791 0.6856555,0.1865841 0.6815619,0.4853146 0.8164952,0.5011393 1.3122503,0.1539002 0.495251,-0.3468873 0.6496602,-0.3297555 1.4884484,0.1651423 1.081696,0.6382147 1.4818571,0.504026 1.4839341,-0.4976177 0.00447,-2.1521446 1.1090143,-4.0329192 3.5236441,-5.99986075 2.2888839,-1.86451335 2.9398197,-1.96150965 5.3825192,-0.80205789 1.1036194,0.52384323 2.048457,0.91057144 2.0996354,0.85939045 C 8.748063,-0.33459441 7.6399668,-1.4421137 6.7878365,-1.8040584 5.6187327,-2.300639 6.1227137,-2.5625553 7.4221433,-2.1337054 c 0.98366,0.3246358 2.5091257,1.4640559 2.5091257,1.87414417 0,0.13258535 -0.1785937,0.24106451 -0.396875,0.24106451 -0.5062775,0 -0.5015547,0.26197453 0.018097,1.00388734 0.2282375,0.32585548 0.539208,0.51568878 0.691042,0.42184898 0.39574,-0.2445808 0.737304,0.4164092 0.742013,1.4359281 0.0071,1.5283761 0.379212,1.8983827 1.931588,1.9204463 2.394138,0.034031 3.744857,0.3293639 3.84308,0.8402849 0.07915,0.411689 -0.160734,0.4630208 -2.163727,0.4630208 -1.437854,0 -2.322124,0.1122601 -2.444544,0.3103404 -0.192579,0.3115971 -0.48588,1.5193644 -0.866812,3.5693904 -0.284665,1.5319505 -0.871384,2.3175805 -2.217436,2.9691935 -1.2326488,0.596715 -1.9602979,0.689989 -2.5360974,0.325094 z M 10.324826,10.834677 C 10.701889,10.237369 10.983006,9.4071651 10.97436,8.9164477 10.95975,8.0867911 10.9322,8.1105904 10.303099,9.4965016 9.9422863,10.291368 9.4544422,11.154571 9.2190001,11.414731 c -0.3946313,0.436065 -0.394126,0.473022 0.00648,0.473022 0.2390087,0 0.7337134,-0.473885 1.0993409,-1.053076 z M 6.5498385,11.082298 C 8.0468113,10.666547 9.2568302,9.3601804 9.7626236,7.6136976 10.596376,4.7347691 10.213712,3.0986943 8.3293413,1.4857441 7.1775889,0.49988816 5.8977941,-0.01430836 4.5890723,-0.01702034 3.4336369,-0.01940159 3.4772826,0.46227235 4.6613909,0.78112171 5.2642413,0.94345151 6.2238348,1.5145546 6.7938187,2.0502379 7.6835331,2.8864086 7.8673444,3.2583889 8.0929837,4.6793574 8.301613,5.9932147 8.2779169,6.4842232 7.9780514,7.0606073 7.1308582,8.6890489 5.2799814,9.7751634 3.1283501,9.9064682 1.4246134,10.010439 1.2062078,10.143347 2.0218018,10.579838 c 1.4579388,0.780267 2.9368484,0.944375 4.5280367,0.50246 z M 4.9703316,8.1686902 C 5.7372237,7.3780227 5.9625191,6.9331417 5.9625191,6.209456 5.9625191,5.2549902 6.3122427,4.9530821 6.587367,5.6700447 6.8713125,6.409997 7.2854357,6.0717722 7.2854357,5.09991 7.2854357,4.3165714 7.0852335,3.9424532 6.231386,3.1302089 5.3618091,2.3029997 4.9566315,2.1133702 3.9162819,2.0466952 2.4581129,1.953247 0.52763884,2.4354845 -0.17095111,3.0676984 -1.0261638,3.8416549 -1.2715093,5.3939891 -0.77491812,6.8890806 -0.31053998,8.2871945 0.37728407,8.9155163 1.8019595,9.2430414 3.1162824,9.5451955 3.8895325,9.2829988 4.9703316,8.1686902 Z M 3.0818072,7.4559821 C 2.9241526,7.0557999 2.6482425,6.5248049 2.4686751,6.2759934 2.2004802,5.9043809 2.244102,5.6445521 2.7129728,4.8207852 3.3374529,3.7236349 4.1834423,3.4260739 4.993734,4.0185712 5.4303494,4.3378333 5.4506985,4.5306643 5.1942035,5.9181657 5.0371945,6.7675125 4.774069,7.624691 4.6094796,7.8230095 4.1183812,8.4147421 3.3906368,8.2399002 3.0818072,7.4559821 Z"
         id="path2026" />
      <path
         style="fill:#fdda66;stroke-width:0.264583"
         d="m 20.242132,65.456372 c -0.485373,-0.584838 -0.614752,-84.56048 -0.131302,-85.221639 0.921382,-1.260065 0.963392,-0.40281 0.772334,15.7599917 l -0.186883,15.8095013 1.430515,0.171755 c 2.563069,0.307737 9.627621,0.20779 9.976556,-0.141145 0.182983,-0.182983 0.3175,-1.059421 0.3175,-2.0686446 0,-2.2942708 0.582684,-4.1918041 1.580848,-5.1481088 l 0.799539,-0.7660058 9.953342,0.069302 c 5.474338,0.038116 10.123527,0.1346068 10.331532,0.2144263 0.569058,0.2183686 1.940989,3.4532119 1.940989,4.5766141 0,0.5416471 0.07572,1.5372078 0.168253,2.2123638 l 0.168257,1.227553 h 5.37238 c 3.874731,0 5.426747,0.08797 5.567405,0.315555 0.107262,0.173556 0.203586,1.712339 0.214051,3.419518 0.01677,2.736095 0.08564,3.192568 0.581099,3.851629 0.433054,0.576053 0.76708,0.741759 1.455208,0.721916 0.491225,-0.01416 4.521869,0.07107 8.956984,0.189423 9.079214,0.242273 9.027433,0.251023 9.528646,-1.610336 0.155684,-0.578165 0.368718,-2.334657 0.473409,-3.903311 l 0.190349,-2.852102 4.829458,0.09787 c 3.581077,0.07257 4.931836,0.01291 5.225521,-0.230836 0.284758,-0.236328 0.396058,-0.865433 0.396058,-2.2386288 0,-1.0504619 0.17181,-2.4807994 0.3818,-3.1785294 0.43552,-1.4471305 1.57505,-2.7823291 2.37968,-2.7883008 0.3002,-0.00212 0.72441,-0.1194673 0.94269,-0.2605325 0.30049,-0.1941936 0.18485,-0.2574634 -0.47616,-0.2605326 -2.05456,-0.00953 -3.757172,-1.888646 -3.757172,-4.14664768 0,-0.73481672 -0.07793,-2.08163842 -0.173181,-2.99293742 L 99.278654,-5.3713586 94.48941,-5.182335 c -5.931569,0.2341086 -5.594321,0.4577953 -5.777447,-3.8319947 -0.138705,-3.2492543 -0.595939,-4.8806053 -1.432062,-5.1094023 -0.609478,-0.166777 -18.054751,-0.185035 -18.651746,-0.01952 -0.847527,0.234974 -1.343729,1.900527 -1.482421,4.9759018 -0.0727,1.6121303 -0.250592,3.0799743 -0.395306,3.2618753 -0.192794,0.2423319 -1.521346,0.3307292 -4.970648,0.3307292 h -4.70753 l -0.168812,2.0505207 c -0.255394,3.10223681 -0.646795,4.51912283 -1.524516,5.5187927 L 54.591035,2.8919198 H 44.73225 c -9.427104,0 -9.887966,-0.022939 -10.525214,-0.5242136 -0.996924,-0.78418 -1.561264,-2.49259716 -1.749627,-5.2966195 l -0.168849,-2.5135415 -4.7625,-0.047596 c -2.619375,-0.026167 -4.911328,-0.055943 -5.093229,-0.066146 -0.385656,-0.021616 -0.448717,-0.9727327 -0.07962,-1.200848 0.320831,-0.1982848 10.761051,-0.2338599 11.078366,-0.03775 0.130749,0.080808 0.298363,1.4897057 0.372472,3.1308817 0.152242,3.37147415 0.613625,4.8642744 1.575927,5.0988937 0.337013,0.082166 4.713775,0.1161706 9.726137,0.075562 L 54.2195,1.4367106 54.750738,0.52694609 c 0.426985,-0.73122628 0.553067,-1.52197587 0.642464,-4.02940029 0.07057,-1.9792155 0.227418,-3.2160663 0.429067,-3.3834201 0.177406,-0.1472348 2.413447,-0.2957901 5.060815,-0.336224 l 4.742974,-0.072441 0.171741,-2.6458332 c 0.189748,-2.9232475 0.648099,-4.3001425 1.709362,-5.1349295 0.685559,-0.539263 0.959328,-0.553612 10.562587,-0.553612 h 9.858785 l 0.784751,0.893784 c 0.824624,0.939195 1.471557,3.12769 1.788869,6.0515283 l 0.165106,1.5213541 h 4.724564 c 3.942278,0 4.793407,0.068843 5.140337,0.4157739 0.496,0.4959961 0.44446,0.1500984 0.52937,3.5529759 0.0706,2.82868413 0.29995,3.81532592 1.06471,4.5800908 0.37897,0.3789759 1.49739,0.4288419 9.6133,0.4286223 5.05144,-1.349e-4 9.32865,-0.089527 9.5049,-0.1986491 0.70776,-0.4381712 1.20354,-2.345809 1.33809,-5.1485639 0.0793,-1.652315 0.26012,-2.9286967 0.4298,-3.0342733 0.43229,-0.2689625 10.53324,-0.056076 11.07467,0.2334074 0.25466,0.1361625 0.46302,0.4177824 0.46302,0.6258243 0,0.7149305 -0.93627,0.8245527 -5.42169,0.6347936 -2.47261,-0.1046084 -4.5685,-0.1451716 -4.65753,-0.090144 -0.089,0.055028 -0.22768,0.967023 -0.30809,2.026658 -0.23717,3.12521851 -0.88438,5.2473434 -1.86427,6.1126579 -0.56911,0.5025734 -0.73404,0.7917973 -0.50479,0.8852032 0.83151,0.3387963 1.90021,1.5093473 2.20201,2.411886 0.18088,0.5409406 0.39719,2.1146213 0.48068,3.4970692 l 0.1518,2.5135414 4.89479,0.132291 c 4.67431,0.126334 4.8948,0.156128 4.8948,0.661459 0,0.507119 -0.22049,0.534678 -5.29167,0.661458 -2.91042,0.07276 -5.42393,0.04217 -5.58557,-0.06798 -0.17214,-0.1173 -0.34895,-1.447567 -0.42676,-3.210861 -0.0972,-2.2022197 -0.26692,-3.2851301 -0.63214,-4.0330595 l -0.49928,-1.0224717 h -9.65729 -9.65729 l -0.52356,1.0583333 c -0.40249,0.8135937 -0.5469,1.7511738 -0.62449,4.0543949 -0.0712,2.112716 -0.20074,3.034363 -0.43947,3.12597 -0.18619,0.07145 -2.52455,0.151974 -5.196344,0.178938 l -4.857809,0.04903 -0.186219,2.248408 c -0.297444,3.591377 -0.815874,4.980394 -2.157052,5.779338 -0.779095,0.464111 -1.417754,0.489492 -10.092145,0.401079 -5.981176,-0.06096 -9.516404,-0.198763 -9.983311,-0.389149 -1.164124,-0.474681 -2.005402,-2.542894 -2.247839,-5.526135 l -0.204267,-2.513541 -5.235275,-0.0318 C 58.040548,13.822836 55.607805,13.73165 55.513854,13.637702 55.419903,13.543751 55.334168,12.129312 55.32333,10.494505 55.309122,8.3510569 55.183675,7.2571478 54.873504,6.5719616 L 54.443385,5.6217927 45.258205,5.434084 c -8.24267,-0.168447 -9.252651,-0.1434968 -9.842741,0.2431441 -1.027268,0.6730921 -1.407112,1.9385782 -1.407112,4.6879479 0,3.342497 -0.218763,3.6199 -2.910417,3.690575 -0.218281,0.0057 -2.645537,-0.05042 -5.393904,-0.124775 l -4.997029,-0.135194 0.153874,26.033486 c 0.08463,14.318416 0.05592,26.033483 -0.0638,26.033483 -0.119724,0 -0.369448,-0.18287 -0.554942,-0.406379 z M 141.95835,23.015868 c 0,-23.56578561 0.095,-42.905586 0.21107,-42.977333 0.11609,-0.07175 0.38398,-0.02359 0.59531,0.107012 0.33287,0.205708 0.39341,5.869726 0.45281,42.358622 0.061,37.46512 0.0238,42.189555 -0.33683,42.739872 -0.22297,0.340291 -0.52171,0.61871 -0.66388,0.61871 -0.16719,0 -0.25848,-15.132722 -0.25848,-42.846883 z M 69.926994,60.411937 c -1.29934,-0.689607 -1.985044,-2.611472 -2.086483,-5.8479 -0.0283,-0.902785 -0.139695,-1.784212 -0.247552,-1.958731 -0.146299,-0.236715 -1.408152,-0.279863 -4.968243,-0.169892 -3.408542,0.105294 -4.881199,0.06016 -5.153818,-0.157938 -0.271021,-0.21682 -0.425035,-1.135205 -0.53122,-3.167676 -0.162541,-3.111195 -0.584909,-4.267864 -1.779143,-4.872243 -0.472877,-0.239313 -2.889713,-0.328362 -8.98135,-0.33091 -7.411405,-0.0031 -8.436409,0.04774 -9.255723,0.459119 -1.177848,0.591399 -1.544497,1.751568 -1.57186,4.973756 -0.01259,1.483786 -0.141089,2.515235 -0.337833,2.711979 -0.335336,0.335336 -10.339062,0.475853 -11.170235,0.156901 -0.574302,-0.22038 -0.525658,-0.821775 0.09326,-1.153009 0.29659,-0.158729 2.449512,-0.273892 5.120341,-0.273892 h 4.60857 l 0.17756,-2.309984 c 0.240315,-3.126425 0.583472,-4.246732 1.617546,-5.280806 l 0.875876,-0.875876 h 9.624878 c 8.635497,0 9.692126,0.04635 10.279062,0.450879 1.427903,0.984144 1.865148,2.137666 2.085636,5.502246 l 0.156049,2.381249 5.291667,0.132292 5.291666,0.132292 0.160682,2.910416 c 0.157371,2.850444 0.65968,4.76019 1.370935,5.212197 0.479878,0.304966 18.388412,0.260355 18.963156,-0.04724 0.763646,-0.408692 1.106241,-1.758249 1.262663,-4.973918 0.07983,-1.641176 0.255646,-3.052247 0.390694,-3.135712 0.135049,-0.08347 2.46978,-0.169434 5.188289,-0.191043 l 4.942746,-0.03929 0.16203,-2.248958 c 0.21516,-2.986383 0.61082,-4.304019 1.58493,-5.278127 0.87314,-0.873139 0.8323,-0.924846 -0.92501,-1.171131 -0.56656,-0.0794 -1.313,-0.410117 -1.65873,-0.734917 -0.749615,-0.704228 -1.67676,-3.531812 -1.67676,-5.113748 0,-0.621323 -0.07294,-1.494385 -0.162092,-1.940133 l -0.162089,-0.810454 -4.72014,-0.08251 c -2.927176,-0.05117 -4.82877,-0.191402 -5.006123,-0.369168 -0.157292,-0.15766 -0.329372,-1.601264 -0.3824,-3.208009 -0.07297,-2.211025 -0.228036,-3.218913 -0.637738,-4.145116 l -0.54133,-1.223764 h -9.665374 -9.665375 l -0.411072,0.794925 c -0.46023,0.889989 -0.904875,3.857664 -0.917263,6.122079 -0.0061,1.1121 -0.114954,1.534023 -0.426686,1.653646 -0.230182,0.08833 -2.474875,0.1606 -4.988208,0.1606 H 56.575685 L 56.4271,35.544901 c -0.159829,2.678946 -0.729718,4.389551 -1.770607,5.314725 -0.572747,0.509076 -0.97019,0.529166 -10.468131,0.529166 H 34.315583 L 33.641441,40.755479 C 32.735156,39.904076 32.199816,38.159451 31.988758,35.369523 L 31.81362,33.054419 h -4.959744 c -4.164584,0 -4.984157,-0.06363 -5.112038,-0.396875 -0.08376,-0.218282 -0.08376,-0.575469 0,-0.79375 0.128629,-0.335206 1.008853,-0.396875 5.664623,-0.396875 3.986458,0 5.566373,0.08744 5.707565,0.315902 0.107381,0.173743 0.233952,1.442738 0.281273,2.819984 0.09046,2.632779 0.375746,4.111355 0.942957,4.887063 0.314171,0.429652 1.082378,0.46668 9.855578,0.475044 9.287544,0.0089 9.52537,-0.0039 9.955334,-0.534903 0.555892,-0.686499 1.02585,-3.340201 1.02585,-5.792642 0,-1.639583 0.07209,-1.925831 0.549363,-2.181257 0.355848,-0.190444 2.103326,-0.270004 4.960937,-0.225864 l 4.411575,0.06815 0.194805,-2.321372 c 0.25504,-3.039139 0.596114,-4.229692 1.502283,-5.243872 l 0.745072,-0.833877 9.999966,0.0075 9.999967,0.0075 0.735018,0.822629 c 0.930127,1.040993 1.27459,2.241381 1.477928,5.150313 0.09785,1.399844 0.277098,2.319843 0.453395,2.327087 0.160362,0.0066 2.137034,0.0021 4.392607,-0.01011 2.325939,-0.01254 4.456002,0.101997 4.921107,0.264596 l 0.820059,0.286692 0.16075,2.964566 c 0.15301,2.822088 0.47802,4.418346 1.04804,5.147376 0.19827,0.253585 2.46321,0.330729 9.71018,0.330729 8.6726,0 9.4846,-0.03816 9.85202,-0.46302 0.71549,-0.827366 1.00451,-2.212787 1.00451,-4.81521 0,-1.633228 0.11442,-2.667858 0.3175,-2.870936 0.39505,-0.395047 9.89128,-0.446807 10.91007,-0.05946 0.70845,0.269354 0.96186,1.279819 0.34795,1.387449 -0.1819,0.03189 -2.47385,0.06165 -5.09323,0.06614 l -4.7625,0.0082 -0.1393,2.645833 c -0.12754,2.422649 -0.21773,2.779744 -1.06921,4.233333 l -0.92992,1.5875 -5.0162,0.141147 -5.0162,0.141145 5.76783,0.05729 c 6.43658,0.06393 6.9506,0.18058 7.69339,1.745892 0.57407,1.209768 0.95857,3.306289 0.95857,5.226677 v 1.551387 h 4.90309 c 4.13258,0 4.92724,0.0629 5.05669,0.400243 0.0845,0.220136 0.007,0.577324 -0.17299,0.79375 -0.26948,0.324707 -1.26836,0.393507 -5.7131,0.393507 -6.2773,0 -5.5851,0.479438 -5.72995,-3.96875 -0.0645,-1.980909 -0.22142,-3.024883 -0.54681,-3.63802 l -0.45635,-0.859896 h -9.6437 -9.64371 l -0.42963,0.830813 c -0.44719,0.864777 -0.92225,4.790315 -0.71249,5.887574 0.0663,0.346855 -0.014,0.882115 -0.17852,1.189463 -0.2881,0.538335 -0.48171,0.558816 -5.282674,0.558816 h -4.98361 l -0.179091,2.182812 c -0.236252,2.879471 -0.774745,4.706305 -1.621927,5.502355 l -0.690909,0.649208 -9.702263,0.04698 c -8.053083,0.03899 -9.825694,-0.01852 -10.428412,-0.338416 z M 4.6686907,40.9704 C 4.0298463,40.844932 3.3154714,40.571236 3.0811908,40.362189 2.8469102,40.153139 1.9655937,39.657209 1.1227079,39.260122 0.08244299,38.770048 -0.86743233,38.024413 -1.8345029,36.938758 l -1.4246886,-1.599387 -2.6390267,0.06521 c -2.7533438,0.06804 -3.1279057,-0.06858 -2.8228861,-1.029613 0.1853629,-0.584025 0.9142159,-0.696624 1.3952884,-0.215551 0.2386089,0.23861 0.4362048,0.198165 0.8466667,-0.173299 0.4891135,-0.44264 0.5754624,-0.448458 0.9984393,-0.06728 0.2546615,0.229497 0.7852611,0.497684 1.1791103,0.595966 0.7783856,0.194246 0.8067172,0.140568 1.109853,-2.102729 0.2079784,-1.539113 1.4039665,-3.253303 3.26534192,-4.680164 C 2.5071005,25.866483 3.0907052,25.774149 5.4238354,26.885441 6.4770755,27.38711 7.3959839,27.7404 7.4658551,27.670529 7.7965552,27.339826 6.9115557,26.445127 5.8994054,26.086908 4.9382773,25.746749 4.876722,25.684778 5.4822739,25.666974 c 0.9406519,-0.02766 2.0617418,0.413981 2.7953493,1.101191 0.5734526,0.537183 0.853313,1.449853 0.3490119,1.138179 -0.5510477,-0.340566 -0.4746308,0.334648 0.1202399,1.062437 0.5632344,0.689081 0.6397519,0.717659 0.6672024,0.249179 0.054197,-0.925052 0.7564336,0.936901 0.7698426,2.041213 0.01527,1.25816 0.497766,1.522799 2.838809,1.557036 2.184453,0.03195 3.126248,0.266716 3.126248,0.779304 0,0.311279 -0.386559,0.367371 -2.019906,0.293108 -2.177893,-0.09902 -3.139469,0.203499 -3.139469,0.987708 0,0.264207 -0.13232,0.859954 -0.294047,1.323882 -0.253974,0.728549 -0.336132,0.785955 -0.602832,0.421219 -0.2642261,-0.361349 -0.3606111,-0.27692 -0.6679114,0.585036 -0.1975194,0.55403 -0.5810885,1.323364 -0.8523764,1.709629 -0.5976514,0.850951 -0.6196383,1.049383 -0.093932,0.847649 0.2196253,-0.08428 0.6947509,-0.646086 1.0558304,-1.248466 0.5454484,-0.909952 0.6569364,-0.992301 0.6590154,-0.486783 0.0041,1.006504 -0.6776553,2.008391 -1.7935196,2.635541 C 7.2918492,41.286757 6.5779505,41.345375 4.6686907,40.9704 Z M 6.9547066,40.041858 C 8.2348189,39.213865 7.4768565,38.865756 5.8625383,39.540261 4.6910824,40.029727 4.5064112,40.8825 5.6317899,40.605809 6.0319722,40.507416 6.6272847,40.253641 6.9547066,40.041858 Z M 6.5162179,38.534463 C 7.8599123,37.836889 8.7013058,36.424718 9.1326084,34.143192 9.5160134,32.115031 9.0980458,30.9246 7.4971976,29.485298 6.0938053,28.223529 4.1168387,27.573723 2.9957674,28.005732 c -0.5825437,0.224486 -0.5853774,0.240035 -0.075957,0.41678 0.2910417,0.100975 0.8863542,0.310253 1.3229166,0.465063 1.8813939,0.667163 3.0378982,2.487708 3.041232,4.787458 0.00302,2.075439 -2.0715579,3.79431 -4.8980592,4.058251 -1.80111136,0.16819 -1.94057588,0.424121 -0.5588053,1.025448 1.3077983,0.569134 3.3488735,0.471514 4.6891234,-0.224269 z m -2.6153744,-2.22645 c 0.5518388,-0.538856 1.0049668,-1.223465 1.0069538,-1.521354 0.00212,-0.297889 0.079362,-0.824635 0.1719422,-1.170546 L 5.24807,32.987183 5.7018595,33.588784 6.155649,34.190389 6.2779183,33.357303 C 6.4486222,32.194232 5.8499574,31.120635 4.6567369,30.450009 3.4672602,29.781483 2.0795656,29.725315 0.24110303,30.271282 c -1.08180186,0.32126 -1.40030993,0.561227 -1.76781353,1.331892 -0.5817737,1.219991 -0.5592127,2.371857 0.073771,3.766349 0.2807309,0.618463 0.54600743,1.126273 0.58950228,1.128463 0.0434948,0.0021 0.5553313,0.175559 1.13741463,0.38526 1.76395589,0.63549 2.50779219,0.517515 3.62686609,-0.575233 z m -1.642491,-0.831861 c 0,-0.268774 -0.238125,-0.763243 -0.5291667,-1.098817 -0.2910416,-0.335573 -0.5291666,-0.653814 -0.5291666,-0.707199 0,-0.448808 1.4305676,-2.203217 1.7965313,-2.203217 0.8541147,0 1.7061498,0.798401 1.5154011,1.42001 -0.09525,0.310402 -0.2227501,0.896237 -0.2833317,1.301859 -0.1779006,1.191085 -0.6120395,1.776047 -1.3181171,1.776047 -0.457753,0 -0.6521503,-0.145669 -0.6521503,-0.488683 z M 162.1066,18.003438 c -0.26216,-0.166132 -0.0865,-0.358294 0.66146,-0.723551 0.56013,-0.27354 1.05524,-0.697013 1.10024,-0.941054 0.0764,-0.414047 -0.009,-0.414745 -1.27306,-0.01043 -1.07153,0.342659 -1.32899,0.532294 -1.23108,0.90673 0.0976,0.373023 -0.036,0.473456 -0.62955,0.473456 -0.41435,0 -0.83609,-0.133863 -0.93721,-0.297474 -0.10112,-0.16361 -0.91182,-0.630068 -1.80155,-1.036571 -1.51226,-0.69092 -2.45966,-1.453126 -4.17233,-3.356732 -0.6893,-0.766138 -0.74261,-0.778547 -2.82707,-0.657878 -3.21691,0.186224 -4.07084,-0.176559 -3.05577,-1.298202 0.38438,-0.42473 0.48506,-0.432176 1.02854,-0.07608 0.54146,0.354783 0.64848,0.348703 1.05726,-0.06008 0.36272,-0.362722 0.54288,-0.391591 0.8897,-0.142562 0.23918,0.171738 0.72266,0.435647 1.07438,0.586459 0.7982,0.342246 0.9606,0.11276 1.16971,-1.6528679 0.22305,-1.8832696 1.23114,-3.4105954 3.34048,-5.0610423 1.943,-1.5202852 3.44539,-2.0512352 4.14987,-1.4665695 0.50172,0.416388 3.33526,1.5760911 3.48502,1.4263343 0.23796,-0.2379716 -1.52777,-1.7234138 -2.0486,-1.7234138 -0.30224,0 -0.54952,-0.1190625 -0.54952,-0.2645833 0,-0.7373011 2.83298,0.3501734 3.54405,1.3604319 0.38647,0.5490818 0.39068,0.6342062 0.0351,0.7094881 -0.53942,0.1141915 -0.50933,0.490982 0.10121,1.2671583 0.34537,0.4390628 0.54838,0.5360273 0.64132,0.3063161 0.24726,-0.6111187 0.69706,0.3827197 0.70139,1.5497306 0.002,0.6006439 0.16396,1.2247906 0.3594,1.3869908 0.19544,0.1622028 1.47536,0.3603916 2.84427,0.4404227 1.64182,0.095988 2.61864,0.2746481 2.87005,0.524936 0.60685,0.604142 0.1827,0.732232 -2.24733,0.678675 -2.46199,-0.05426 -3.02859,0.167193 -3.02859,1.183732 0,0.336511 -0.13218,0.94701 -0.29372,1.356665 -0.27192,0.689525 -0.30919,0.705537 -0.50208,0.215661 -0.18276,-0.464193 -0.26412,-0.399219 -0.66258,0.529167 -0.24983,0.582083 -0.68685,1.385755 -0.97115,1.785937 -0.40796,0.574239 -0.43607,0.727605 -0.13334,0.727605 0.21097,0 0.76547,-0.565547 1.23221,-1.256771 0.82808,-1.226341 0.84502,-1.235977 0.69961,-0.398008 -0.2207,1.271866 -0.86512,2.092526 -2.12024,2.700118 -1.1991,0.580475 -1.92854,0.670282 -2.50046,0.307846 z m 0.0312,-2.162228 c 1.40801,-0.391015 2.62078,-1.713376 3.17,-3.456482 0.79169,-2.512645 0.55195,-4.1731859 -0.81058,-5.6144347 -1.33672,-1.4139439 -4.17215,-2.4105605 -5.20836,-1.8306705 -0.36995,0.2070364 -0.19677,0.3381983 0.93555,0.708562 1.49219,0.488069 2.73383,1.5332181 3.16324,2.6626449 0.14658,0.385527 0.2665,1.3389133 0.2665,2.1186373 0,1.144294 -0.13397,1.576906 -0.69474,2.243336 -0.96476,1.146556 -2.55626,1.892432 -4.25975,1.996387 -1.70008,0.103749 -1.91814,0.236842 -1.10289,0.673148 1.46192,0.782397 2.93667,0.944411 4.54103,0.498872 z m -1.70528,-2.726471 c 0.61637,-0.615346 0.92357,-1.207153 1.02703,-1.978514 0.15246,-1.1367055 0.43253,-1.407959 0.70922,-0.686911 0.24764,0.645345 0.69163,0.173635 0.69163,-0.7348089 0,-0.6172703 -0.27242,-1.0782538 -1.10558,-1.8708158 l -1.10558,-1.0517134 -2.25958,0.14097 c -2.10389,0.1312571 -2.30931,0.1966251 -2.98128,0.9486873 -0.97374,1.0898134 -1.19235,2.4061338 -0.63985,3.8528388 0.52233,1.367705 1.03085,1.867725 2.27104,2.233109 1.35765,0.399987 2.40065,0.137822 3.39295,-0.852842 z M 158.732,12.483065 c -0.0787,-0.254661 -0.25431,-0.641614 -0.39026,-0.859896 -0.55071,-0.88424 -0.55929,-1.138642 -0.0698,-2.0705783 0.55183,-1.0506181 1.28919,-1.3311584 2.2073,-0.8398034 0.48944,0.2619428 0.53479,0.4473337 0.37617,1.5379697 -0.0992,0.682067 -0.34656,1.567543 -0.54968,1.967725 -0.41865,0.824801 -1.35213,0.981742 -1.57374,0.264583 z M 6.5316034,13.240938 C 6.2694463,13.074806 6.4451164,12.882644 7.1930618,12.517387 7.75319,12.243848 8.2502097,11.81046 8.297549,11.554301 8.3792391,11.112256 8.3186627,11.112997 7.106924,11.568853 6.1902804,11.913695 5.8521534,12.175625 5.9079726,12.49762 6.037285,13.243568 5.1196175,13.028917 2.7184338,11.751561 0.62094415,10.635758 -0.41554782,9.7942267 -1.6739432,8.1853775 -2.1677483,7.5540499 -2.2961532,7.5291527 -4.6621375,7.6059744 -6.5217519,7.666355 -7.2646103,7.5898878 -7.66001,7.2973565 -8.1768415,6.9149966 -8.1772294,6.899148 -7.6831267,6.3531697 c 0.4538351,-0.5014832 0.5590892,-0.5182446 1.0860503,-0.172966 0.5086802,0.3332982 0.6534737,0.3333274 1.1290538,2.169e-4 0.4861827,-0.3405346 0.6473727,-0.3220296 1.4814163,0.1700689 1.0816961,0.6382147 1.4818572,0.504026 1.4839342,-0.4976177 0.00447,-2.1521446 1.1090142,-4.0329192 3.523644,-5.99986076 2.2888839,-1.86451334 2.9398198,-1.96150964 5.3825192,-0.80205789 1.1036194,0.52384323 2.0484571,0.91057145 2.0996354,0.85939045 0.2449354,-0.24493272 -0.8631607,-1.352452 -1.715291,-1.7143967 -1.1691038,-0.4965806 -0.6651229,-0.7584969 0.6343067,-0.329647 0.9836611,0.3246305 2.5091268,1.4640506 2.5091268,1.87413887 0,0.13258535 -0.1785937,0.24106451 -0.396875,0.24106451 -0.5062775,0 -0.5015547,0.26197453 0.018097,1.00388734 0.2282375,0.32585548 0.539208,0.51568878 0.691042,0.42184898 0.39574,-0.2445808 0.737304,0.4164092 0.742013,1.4359281 0.0071,1.5283761 0.379212,1.8983827 1.931588,1.9204463 2.394138,0.034031 3.744857,0.3293639 3.84308,0.8402849 0.07915,0.411689 -0.160734,0.4630208 -2.163727,0.4630208 -1.437854,0 -2.322124,0.1122601 -2.444544,0.3103404 -0.192579,0.3115971 -0.48588,1.5193644 -0.866812,3.5693904 -0.284665,1.5319505 -0.871384,2.3175805 -2.217436,2.9691935 -1.2326488,0.596715 -1.9602979,0.689989 -2.5360974,0.325094 z M 10.324826,10.834677 C 10.701889,10.237369 10.983006,9.4071651 10.97436,8.9164477 10.95975,8.0867911 10.9322,8.1105904 10.303099,9.4965016 9.9422863,10.291368 9.4544422,11.154571 9.2190001,11.414731 c -0.3946313,0.436065 -0.394126,0.473022 0.00648,0.473022 0.2390087,0 0.7337134,-0.473885 1.0993409,-1.053076 z M 6.5498385,11.082298 C 8.0468113,10.666547 9.2568302,9.3601804 9.7626236,7.6136976 10.596376,4.7347691 10.213712,3.0986943 8.3293413,1.4857441 7.1775889,0.49988816 5.8977941,-0.01430836 4.5890723,-0.01702034 3.4336369,-0.01940159 3.4772826,0.46227235 4.6613909,0.78112171 5.2642413,0.94345151 6.2238348,1.5145546 6.7938187,2.0502379 7.6835331,2.8864086 7.8673444,3.2583889 8.0929837,4.6793574 8.301613,5.9932147 8.2779169,6.4842232 7.9780514,7.0606073 7.1308582,8.6890489 5.2799814,9.7751634 3.1283501,9.9064682 1.4246134,10.010439 1.2062078,10.143347 2.0218018,10.579838 c 1.4579388,0.780267 2.9368484,0.944375 4.5280367,0.50246 z M 4.9703316,8.1686902 C 5.7372237,7.3780227 5.9625191,6.9331417 5.9625191,6.209456 5.9625191,5.2549902 6.3122427,4.9530821 6.587367,5.6700447 6.8713125,6.409997 7.2854357,6.0717722 7.2854357,5.09991 7.2854357,4.3165714 7.0852335,3.9424532 6.231386,3.1302089 5.3618091,2.3029997 4.9566315,2.1133702 3.9162819,2.0466952 2.4581129,1.953247 0.52763884,2.4354845 -0.17095111,3.0676984 -1.0261638,3.8416549 -1.2715093,5.3939891 -0.77491812,6.8890806 -0.31053998,8.2871945 0.37728407,8.9155163 1.8019595,9.2430414 3.1162824,9.5451955 3.8895325,9.2829988 4.9703316,8.1686902 Z M 3.0818072,7.4559821 C 2.9241526,7.0557999 2.6482425,6.5248049 2.4686751,6.2759934 2.2004802,5.9043809 2.244102,5.6445521 2.7129728,4.8207852 3.3374529,3.7236349 4.1834423,3.4260739 4.993734,4.0185712 5.4303494,4.3378333 5.4506985,4.5306643 5.1942035,5.9181657 5.0371945,6.7675125 4.774069,7.624691 4.6094796,7.8230095 4.1183812,8.4147421 3.3906368,8.2399002 3.0818072,7.4559821 Z"
         id="path2024" />
      <path
         style="fill:#afaaaa;stroke-width:0.264583"
         d="m 20.242132,65.456372 c -0.485373,-0.584838 -0.614752,-84.56048 -0.131302,-85.221639 0.921382,-1.260065 0.963392,-0.40281 0.772334,15.7599917 l -0.186883,15.8095013 1.430515,0.171755 c 2.563069,0.307737 9.627621,0.20779 9.976556,-0.141145 0.182983,-0.182983 0.3175,-1.059421 0.3175,-2.0686446 0,-2.2942708 0.582684,-4.1918041 1.580848,-5.1481088 l 0.799539,-0.7660058 9.953342,0.069302 c 5.474338,0.038116 10.123527,0.1346068 10.331532,0.2144263 0.569058,0.2183686 1.940989,3.4532119 1.940989,4.5766141 0,0.5416471 0.07572,1.5372078 0.168253,2.2123638 l 0.168257,1.227553 h 5.37238 c 3.874731,0 5.426747,0.08797 5.567405,0.315555 0.107262,0.173556 0.203586,1.712339 0.214051,3.419518 0.01677,2.736095 0.08564,3.192568 0.581099,3.851629 0.433054,0.576053 0.76708,0.741759 1.455208,0.721916 0.491225,-0.01416 4.521869,0.07107 8.956984,0.189423 9.079214,0.242273 9.027433,0.251023 9.528646,-1.610336 0.155684,-0.578165 0.368718,-2.334657 0.473409,-3.903311 l 0.190349,-2.852102 4.829458,0.09787 c 3.581077,0.07257 4.931836,0.01291 5.225521,-0.230836 0.284758,-0.236328 0.396058,-0.865433 0.396058,-2.2386288 0,-1.0504619 0.17181,-2.4807994 0.3818,-3.1785294 0.43552,-1.4471305 1.57505,-2.7823291 2.37968,-2.7883008 0.3002,-0.00212 0.72441,-0.1194673 0.94269,-0.2605325 0.30049,-0.1941936 0.18485,-0.2574634 -0.47616,-0.2605326 -2.05456,-0.00953 -3.757172,-1.888646 -3.757172,-4.14664768 0,-0.73481672 -0.07793,-2.08163842 -0.173181,-2.99293742 L 99.278654,-5.3713586 94.48941,-5.182335 c -5.931569,0.2341086 -5.594321,0.4577953 -5.777447,-3.8319947 -0.138705,-3.2492543 -0.595939,-4.8806053 -1.432062,-5.1094023 -0.609478,-0.166777 -18.054751,-0.185035 -18.651746,-0.01952 -0.847527,0.234974 -1.343729,1.900527 -1.482421,4.9759018 -0.0727,1.6121303 -0.250592,3.0799743 -0.395306,3.2618753 -0.192794,0.2423319 -1.521346,0.3307292 -4.970648,0.3307292 h -4.70753 l -0.168812,2.0505207 c -0.255394,3.10223681 -0.646795,4.51912283 -1.524516,5.5187927 L 54.591035,2.8919198 H 44.73225 c -9.427104,0 -9.887966,-0.022939 -10.525214,-0.5242136 -0.996924,-0.78418 -1.561264,-2.49259716 -1.749627,-5.2966195 l -0.168849,-2.5135415 -4.7625,-0.047596 c -2.619375,-0.026167 -4.911328,-0.055943 -5.093229,-0.066146 -0.385656,-0.021616 -0.448717,-0.9727327 -0.07962,-1.200848 0.320831,-0.1982848 10.761051,-0.2338599 11.078366,-0.03775 0.130749,0.080808 0.298363,1.4897057 0.372472,3.1308817 0.152242,3.37147415 0.613625,4.8642744 1.575927,5.0988937 0.337013,0.082166 4.713775,0.1161706 9.726137,0.075562 L 54.2195,1.4367106 54.750738,0.52694609 c 0.426985,-0.73122628 0.553067,-1.52197587 0.642464,-4.02940029 0.07057,-1.9792155 0.227418,-3.2160663 0.429067,-3.3834201 0.177406,-0.1472348 2.413447,-0.2957901 5.060815,-0.336224 l 4.742974,-0.072441 0.171741,-2.6458332 c 0.189748,-2.9232475 0.648099,-4.3001425 1.709362,-5.1349295 0.685559,-0.539263 0.959328,-0.553612 10.562587,-0.553612 h 9.858785 l 0.784751,0.893784 c 0.824624,0.939195 1.471557,3.12769 1.788869,6.0515283 l 0.165106,1.5213541 h 4.724564 c 3.942278,0 4.793407,0.068843 5.140337,0.4157739 0.496,0.4959961 0.44446,0.1500984 0.52937,3.5529759 0.0706,2.82868413 0.29995,3.81532592 1.06471,4.5800908 0.37897,0.3789759 1.49739,0.4288419 9.6133,0.4286223 5.05144,-1.349e-4 9.32865,-0.089527 9.5049,-0.1986491 0.70776,-0.4381712 1.20354,-2.345809 1.33809,-5.1485639 0.0793,-1.652315 0.26012,-2.9286967 0.4298,-3.0342733 0.43229,-0.2689625 10.53324,-0.056076 11.07467,0.2334074 0.25466,0.1361625 0.46302,0.4177824 0.46302,0.6258243 0,0.7149305 -0.93627,0.8245527 -5.42169,0.6347936 -2.47261,-0.1046084 -4.5685,-0.1451716 -4.65753,-0.090144 -0.089,0.055028 -0.22768,0.967023 -0.30809,2.026658 -0.23717,3.12521851 -0.88438,5.2473434 -1.86427,6.1126579 -0.56911,0.5025734 -0.73404,0.7917973 -0.50479,0.8852032 0.83151,0.3387963 1.90021,1.5093473 2.20201,2.411886 0.18088,0.5409406 0.39719,2.1146213 0.48068,3.4970692 l 0.1518,2.5135414 4.89479,0.132291 c 4.67431,0.126334 4.8948,0.156128 4.8948,0.661459 0,0.507119 -0.22049,0.534678 -5.29167,0.661458 -2.91042,0.07276 -5.42393,0.04217 -5.58557,-0.06798 -0.17214,-0.1173 -0.34895,-1.447567 -0.42676,-3.210861 -0.0972,-2.2022197 -0.26692,-3.2851301 -0.63214,-4.0330595 l -0.49928,-1.0224717 h -9.65729 -9.65729 l -0.52356,1.0583333 c -0.40249,0.8135937 -0.5469,1.7511738 -0.62449,4.0543949 -0.0712,2.112716 -0.20074,3.034363 -0.43947,3.12597 -0.18619,0.07145 -2.52455,0.151974 -5.196344,0.178938 l -4.857809,0.04903 -0.186219,2.248408 c -0.297444,3.591377 -0.815874,4.980394 -2.157052,5.779338 -0.779095,0.464111 -1.417754,0.489492 -10.092145,0.401079 -5.981176,-0.06096 -9.516404,-0.198763 -9.983311,-0.389149 -1.164124,-0.474681 -2.005402,-2.542894 -2.247839,-5.526135 l -0.204267,-2.513541 -5.235275,-0.0318 C 58.040548,13.822836 55.607805,13.73165 55.513854,13.637702 55.419903,13.543751 55.334168,12.129312 55.32333,10.494505 55.309122,8.3510569 55.183675,7.2571478 54.873504,6.5719616 L 54.443385,5.6217927 45.258205,5.434084 c -8.24267,-0.168447 -9.252651,-0.1434968 -9.842741,0.2431441 -1.027268,0.6730921 -1.407112,1.9385782 -1.407112,4.6879479 0,3.342497 -0.218763,3.6199 -2.910417,3.690575 -0.218281,0.0057 -2.645537,-0.05042 -5.393904,-0.124775 l -4.997029,-0.135194 0.153874,26.033486 c 0.08463,14.318416 0.05592,26.033483 -0.0638,26.033483 -0.119724,0 -0.369448,-0.18287 -0.554942,-0.406379 z M 141.95835,23.015868 c 0,-23.56578561 0.095,-42.905586 0.21107,-42.977333 0.11609,-0.07175 0.38398,-0.02359 0.59531,0.107012 0.33287,0.205708 0.39341,5.869726 0.45281,42.358622 0.061,37.46512 0.0238,42.189555 -0.33683,42.739872 -0.22297,0.340291 -0.52171,0.61871 -0.66388,0.61871 -0.16719,0 -0.25848,-15.132722 -0.25848,-42.846883 z M 69.926994,60.411937 c -1.29934,-0.689607 -1.985044,-2.611472 -2.086483,-5.8479 -0.0283,-0.902785 -0.139695,-1.784212 -0.247552,-1.958731 -0.146299,-0.236715 -1.408152,-0.279863 -4.968243,-0.169892 -3.408542,0.105294 -4.881199,0.06016 -5.153818,-0.157938 -0.271021,-0.21682 -0.425035,-1.135205 -0.53122,-3.167676 -0.162541,-3.111195 -0.584909,-4.267864 -1.779143,-4.872243 -0.472877,-0.239313 -2.889713,-0.328362 -8.98135,-0.33091 -7.411405,-0.0031 -8.436409,0.04774 -9.255723,0.459119 -1.177848,0.591399 -1.544497,1.751568 -1.57186,4.973756 -0.01259,1.483786 -0.141089,2.515235 -0.337833,2.711979 -0.335336,0.335336 -10.339062,0.475853 -11.170235,0.156901 -0.574302,-0.22038 -0.525658,-0.821775 0.09326,-1.153009 0.29659,-0.158729 2.449512,-0.273892 5.120341,-0.273892 h 4.60857 l 0.17756,-2.309984 c 0.240315,-3.126425 0.583472,-4.246732 1.617546,-5.280806 l 0.875876,-0.875876 h 9.624878 c 8.635497,0 9.692126,0.04635 10.279062,0.450879 1.427903,0.984144 1.865148,2.137666 2.085636,5.502246 l 0.156049,2.381249 5.291667,0.132292 5.291666,0.132292 0.160682,2.910416 c 0.157371,2.850444 0.65968,4.76019 1.370935,5.212197 0.479878,0.304966 18.388412,0.260355 18.963156,-0.04724 0.763646,-0.408692 1.106241,-1.758249 1.262663,-4.973918 0.07983,-1.641176 0.255646,-3.052247 0.390694,-3.135712 0.135049,-0.08347 2.46978,-0.169434 5.188289,-0.191043 l 4.942746,-0.03929 0.16203,-2.248958 c 0.21516,-2.986383 0.61082,-4.304019 1.58493,-5.278127 0.87314,-0.873139 0.8323,-0.924846 -0.92501,-1.171131 -0.56656,-0.0794 -1.313,-0.410117 -1.65873,-0.734917 -0.749615,-0.704228 -1.67676,-3.531812 -1.67676,-5.113748 0,-0.621323 -0.07294,-1.494385 -0.162092,-1.940133 l -0.162089,-0.810454 -4.72014,-0.08251 c -2.927176,-0.05117 -4.82877,-0.191402 -5.006123,-0.369168 -0.157292,-0.15766 -0.329372,-1.601264 -0.3824,-3.208009 -0.07297,-2.211025 -0.228036,-3.218913 -0.637738,-4.145116 l -0.54133,-1.223764 h -9.665374 -9.665375 l -0.411072,0.794925 c -0.46023,0.889989 -0.904875,3.857664 -0.917263,6.122079 -0.0061,1.1121 -0.114954,1.534023 -0.426686,1.653646 -0.230182,0.08833 -2.474875,0.1606 -4.988208,0.1606 H 56.575685 L 56.4271,35.544901 c -0.159829,2.678946 -0.729718,4.389551 -1.770607,5.314725 -0.572747,0.509076 -0.97019,0.529166 -10.468131,0.529166 H 34.315583 L 33.641441,40.755479 C 32.735156,39.904076 32.199816,38.159451 31.988758,35.369523 L 31.81362,33.054419 h -4.959744 c -4.164584,0 -4.984157,-0.06363 -5.112038,-0.396875 -0.08376,-0.218282 -0.08376,-0.575469 0,-0.79375 0.128629,-0.335206 1.008853,-0.396875 5.664623,-0.396875 3.986458,0 5.566373,0.08744 5.707565,0.315902 0.107381,0.173743 0.233952,1.442738 0.281273,2.819984 0.09046,2.632779 0.375746,4.111355 0.942957,4.887063 0.314171,0.429652 1.082378,0.46668 9.855578,0.475044 9.287544,0.0089 9.52537,-0.0039 9.955334,-0.534903 0.555892,-0.686499 1.02585,-3.340201 1.02585,-5.792642 0,-1.639583 0.07209,-1.925831 0.549363,-2.181257 0.355848,-0.190444 2.103326,-0.270004 4.960937,-0.225864 l 4.411575,0.06815 0.194805,-2.321372 c 0.25504,-3.039139 0.596114,-4.229692 1.502283,-5.243872 l 0.745072,-0.833877 9.999966,0.0075 9.999967,0.0075 0.735018,0.822629 c 0.930127,1.040993 1.27459,2.241381 1.477928,5.150313 0.09785,1.399844 0.277098,2.319843 0.453395,2.327087 0.160362,0.0066 2.137034,0.0021 4.392607,-0.01011 2.325939,-0.01254 4.456002,0.101997 4.921107,0.264596 l 0.820059,0.286692 0.16075,2.964566 c 0.15301,2.822088 0.47802,4.418346 1.04804,5.147376 0.19827,0.253585 2.46321,0.330729 9.71018,0.330729 8.6726,0 9.4846,-0.03816 9.85202,-0.46302 0.71549,-0.827366 1.00451,-2.212787 1.00451,-4.81521 0,-1.633228 0.11442,-2.667858 0.3175,-2.870936 0.39505,-0.395047 9.89128,-0.446807 10.91007,-0.05946 0.70845,0.269354 0.96186,1.279819 0.34795,1.387449 -0.1819,0.03189 -2.47385,0.06165 -5.09323,0.06614 l -4.7625,0.0082 -0.1393,2.645833 c -0.12754,2.422649 -0.21773,2.779744 -1.06921,4.233333 l -0.92992,1.5875 -5.0162,0.141147 -5.0162,0.141145 5.76783,0.05729 c 6.43658,0.06393 6.9506,0.18058 7.69339,1.745892 0.57407,1.209768 0.95857,3.306289 0.95857,5.226677 v 1.551387 h 4.90309 c 4.13258,0 4.92724,0.0629 5.05669,0.400243 0.0845,0.220136 0.007,0.577324 -0.17299,0.79375 -0.26948,0.324707 -1.26836,0.393507 -5.7131,0.393507 -6.2773,0 -5.5851,0.479438 -5.72995,-3.96875 -0.0645,-1.980909 -0.22142,-3.024883 -0.54681,-3.63802 l -0.45635,-0.859896 h -9.6437 -9.64371 l -0.42963,0.830813 c -0.44719,0.864777 -0.92225,4.790315 -0.71249,5.887574 0.0663,0.346855 -0.014,0.882115 -0.17852,1.189463 -0.2881,0.538335 -0.48171,0.558816 -5.282674,0.558816 h -4.98361 l -0.179091,2.182812 c -0.236252,2.879471 -0.774745,4.706305 -1.621927,5.502355 l -0.690909,0.649208 -9.702263,0.04698 c -8.053083,0.03899 -9.825694,-0.01852 -10.428412,-0.338416 z"
         id="path2022" />
      <path
         style="fill:#a65e5e;stroke-width:0.264583"
         d="m 69.960326,60.178501 c -1.038103,-0.571802 -1.576459,-2.006619 -1.92451,-5.12917 l -0.313505,-2.812622 -5.054899,0.101301 c -5.964893,0.119537 -5.575749,0.352243 -5.615516,-3.358059 -0.02803,-2.615703 -0.38481,-3.755644 -1.442421,-4.608711 -0.51122,-0.412351 -1.429981,-0.457716 -9.377283,-0.463021 -9.303152,-0.0062 -10.010444,0.0773 -10.51098,1.2411 -0.111842,0.260045 -0.286116,1.829913 -0.387274,3.4886 -0.153262,2.513049 -0.266792,3.076387 -0.681016,3.379276 -0.273402,0.199914 -0.659077,0.301324 -0.857054,0.225354 -0.19798,-0.07597 -2.561611,-0.138131 -5.252514,-0.138131 -4.517019,0 -4.885735,-0.03554 -4.803738,-0.463021 0.07978,-0.415936 0.599705,-0.476475 5.112631,-0.595313 l 5.023813,-0.132291 0.167902,-2.38125 c 0.214847,-3.047047 0.657559,-4.498536 1.618766,-5.307338 l 0.767474,-0.645787 h 9.795423 9.79542 l 0.718298,0.76894 c 0.958305,1.025869 1.432296,2.598589 1.602299,5.316477 l 0.140668,2.248958 5.101042,0.02986 c 2.805576,0.01643 5.170559,0.09938 5.255519,0.184336 0.08496,0.08496 0.184674,1.381212 0.221586,2.880555 0.07063,2.86893 0.592331,4.775047 1.429557,5.223116 0.239083,0.127955 4.540782,0.234738 9.55933,0.237299 7.133177,0.0037 9.243681,-0.07189 9.670108,-0.346099 0.77234,-0.496633 1.220142,-2.219266 1.408427,-5.418031 l 0.162764,-2.765211 5.082587,0.07554 5.08259,0.07554 0.12703,-0.617622 c 0.0699,-0.339693 0.18057,-1.572231 0.246,-2.738972 0.13078,-2.332352 0.59151,-3.722039 1.52107,-4.588057 0.59897,-0.55803 0.75742,-0.566637 10.43031,-0.566637 9.67288,0 9.83133,0.0086 10.4303,0.566637 0.97501,0.908354 1.40146,2.29375 1.57664,5.121905 l 0.16389,2.645833 4.89479,0.132291 c 4.11574,0.111237 4.89479,0.195459 4.89479,0.529167 0,0.339871 -0.77905,0.396875 -5.42396,0.396875 h -5.42395 L 124.7335,48.92941 c -0.1793,-3.426314 -0.64625,-4.922864 -1.60928,-5.157621 -0.33701,-0.08215 -4.77993,-0.116154 -9.87316,-0.07556 l -9.26042,0.07381 -0.52039,1.058333 c -0.38903,0.791176 -0.556,1.826414 -0.66146,4.101042 l -0.14106,3.042708 -5.159379,0.132292 -5.159375,0.132291 -0.206507,2.38125 c -0.24029,2.770791 -0.781741,4.629515 -1.551686,5.326695 -0.509196,0.461076 -1.194475,0.498197 -10.241674,0.554799 -8.033319,0.05026 -9.814769,-0.0048 -10.388783,-0.320952 z M 101.60939,41.670397 c -1.59763,-0.687554 -2.119416,-1.900904 -2.624278,-6.102437 l -0.286136,-2.38125 -4.838851,-0.132291 c -3.910941,-0.106924 -4.886851,-0.208397 -5.089175,-0.529167 -0.137682,-0.218281 -0.252154,-1.476592 -0.254381,-2.796249 -0.0046,-2.718535 -0.560428,-4.995595 -1.318475,-5.401289 -0.313454,-0.167756 -3.993655,-0.269128 -9.770374,-0.269128 -9.114517,0 -9.27617,0.0093 -9.792396,0.563406 -0.691049,0.741754 -1.082281,2.662002 -1.087273,5.336595 -0.0021,1.193385 -0.09683,2.315837 -0.210236,2.494341 -0.147817,0.232677 -1.588436,0.345022 -5.089175,0.396875 l -4.882997,0.07232 -0.145391,2.651157 c -0.165034,3.009357 -0.848638,4.858985 -1.987629,5.377944 -0.466365,0.212489 -3.550354,0.305274 -10.146871,0.305274 -9.093132,0 -9.504257,-0.02154 -10.153214,-0.532011 -0.973656,-0.765879 -1.534935,-2.488954 -1.734298,-5.324147 l -0.174263,-2.478217 -4.960937,-0.07199 c -4.759063,-0.06905 -4.960938,-0.0935 -4.960938,-0.600679 0,-0.513852 0.154157,-0.52669 5.490104,-0.457184 l 5.490104,0.07151 0.165198,3.042708 c 0.170265,3.135997 0.399185,4.098459 1.154459,4.853733 0.391039,0.391041 1.441657,0.437933 9.811742,0.437933 8.916183,0 9.398805,-0.025 9.885797,-0.511987 0.76097,-0.760971 1.07239,-2.233343 1.074036,-5.078013 0.0011,-1.789271 0.105704,-2.633792 0.351732,-2.837973 0.217918,-0.180859 2.142273,-0.318056 5.093229,-0.363128 l 4.742973,-0.07244 0.15911,-2.38125 c 0.201068,-3.009151 0.654831,-4.488841 1.627558,-5.307338 l 0.767474,-0.645787 h 9.616692 9.616691 l 0.796388,0.670118 c 1.042953,0.877586 1.421138,2.090524 1.605952,5.150715 l 0.151802,2.513542 4.880776,0.07232 c 6.053811,0.0897 5.834851,-0.0364 5.834851,3.360253 0,2.744049 0.55074,5.017717 1.31442,5.426427 0.31337,0.167706 3.98377,0.269129 9.73968,0.269129 8.4667,0 9.27047,-0.0386 9.64068,-0.463021 0.8644,-0.990968 1.09746,-1.894898 1.24495,-4.828646 l 0.15298,-3.042708 5.29166,-0.06515 c 2.91042,-0.03583 5.45785,0.04145 5.66095,0.171736 0.22065,0.141541 0.29746,0.424063 0.19083,0.701939 -0.16448,0.428612 -0.54719,0.4517 -4.88377,0.294619 -3.47619,-0.125915 -4.78736,-0.08837 -5.01946,0.14373 -0.19506,0.195056 -0.31417,1.199795 -0.31417,2.650048 0,2.076016 -0.0894,2.512991 -0.80367,3.927943 -0.44203,0.875638 -0.94804,1.636389 -1.12448,1.69056 -0.17645,0.05417 -4.54753,0.159176 -9.71352,0.233342 -7.33017,0.105238 -9.56701,0.05984 -10.18646,-0.206746 z M 69.764572,21.93187 c -2.150706,-0.215929 -2.942254,-1.591368 -3.152214,-5.477465 -0.08779,-1.624914 -0.255143,-2.546934 -0.49902,-2.749335 -0.260977,-0.216588 -1.783358,-0.265708 -5.272075,-0.170101 -4.041571,0.11076 -4.972044,0.06752 -5.285168,-0.245602 -0.297251,-0.297254 -0.314791,-0.501925 -0.08052,-0.939665 0.426911,-0.797687 0.09492,-4.4553476 -0.533291,-5.8755304 L 54.430132,5.3163682 45.343721,5.2169458 c -5.94936,-0.065098 -9.306563,-0.00405 -9.724075,0.1768369 -1.380069,0.5979027 -1.733002,1.5169673 -1.836677,4.7828673 -0.06587,2.075072 -0.204663,3.106547 -0.44483,3.305868 -0.191998,0.159343 -1.102008,0.312153 -2.022248,0.339577 -2.334098,0.06956 -9.690907,-0.283445 -10.009394,-0.48028 -0.435065,-0.268885 -0.295648,-0.923763 0.200293,-0.940816 0.254661,-0.0088 1.689605,-0.0021 3.188763,0.01495 1.499158,0.01699 3.836604,-0.05067 5.194319,-0.150331 l 2.468575,-0.181205 0.179533,-2.1488529 c 0.242351,-2.9007513 0.562732,-3.9974253 1.46171,-5.0034849 l 0.759113,-0.8495347 9.215919,-0.049599 c 5.068758,-0.027279 9.674738,0.015028 10.235514,0.094033 0.936385,0.131908 1.07604,0.2655094 1.711286,1.6370987 0.466434,1.0070941 0.780632,2.3120429 0.964784,4.0070086 l 0.273087,2.5135412 h 5.332712 c 2.932991,0 5.433303,0.09954 5.55625,0.221203 0.122946,0.12166 0.223538,1.618337 0.223538,3.325947 0,2.939105 0.03686,3.153159 0.690994,4.012134 l 0.690994,0.907383 h 9.34703 9.347028 l 0.526648,-0.899499 c 0.415859,-0.710274 0.558403,-1.572993 0.677603,-4.101041 l 0.150953,-3.201538 5.225521,-0.07174 5.225516,-0.07174 0.002,-1.251178 c 0.003,-1.7890381 0.48593,-4.5238824 0.98476,-5.5750905 0.71677,-1.5104691 1.63994,-1.7264829 6.48064,-1.516409 3.65547,0.1586362 8.86027,-0.012912 8.59005,-0.283128 -0.053,-0.05302 -3.13197,-0.2084784 -6.84213,-0.3454611 -4.14754,-0.1531345 -7.01369,-0.3712041 -7.44166,-0.566202 C 101.54501,2.6938369 100.90006,2.073299 100.49461,1.4892896 99.825053,0.52486482 99.745292,0.15929534 99.625137,-2.4957401 l -0.132292,-2.9231986 -4.910251,0.076425 c -4.196054,0.065307 -4.960252,0.016166 -5.254003,-0.3377697 -0.224221,-0.2701713 -0.367078,-1.4048374 -0.410837,-3.2631826 -0.06948,-2.950811 -0.579859,-4.905326 -1.358977,-5.204302 -0.532413,-0.204306 -18.682822,-0.22108 -19.212679,-0.01775 -0.777769,0.298459 -1.307084,2.230925 -1.460076,5.330581 -0.176591,3.5777462 0.24838,3.3398937 -5.75776,3.2225775 l -4.233333,-0.082688 -0.191217,2.4816963 C 56.420322,0.46464434 55.763954,2.127323 54.430076,2.5461293 54.039495,2.668761 49.46521,2.7596163 44.264999,2.7480249 L 34.810069,2.726964 34.152365,2.1090826 C 33.280618,1.2901178 32.922137,0.11888685 32.576157,-3.0407169 l -0.287597,-2.625369 -4.630208,0.05253 c -4.526301,0.05135 -5.75982,-0.1280371 -5.140314,-0.7475431 0.172908,-0.1729078 2.287542,-0.3023047 5.554038,-0.3398541 l 5.274818,-0.060636 0.06636,1.3210256 c 0.114911,2.2873043 0.56189,5.32429491 0.889415,6.04313604 0.173332,0.38042055 0.564971,0.77472646 0.87031,0.87623386 0.305337,0.1015074 4.649055,0.1930929 9.652707,0.2035227 7.012947,0.014631 9.208912,-0.059036 9.583557,-0.3214502 0.684287,-0.47929795 1.073004,-2.12497976 1.26325,-5.3481259 l 0.163979,-2.7781248 4.891203,-0.1322917 4.891204,-0.1322917 0.305785,-2.9345232 c 0.310774,-2.9824336 0.676679,-4.0897646 1.639271,-4.9608986 0.500692,-0.45312 1.201507,-0.485841 10.405694,-0.485841 h 9.86885 l 0.71756,0.803092 c 0.846733,0.947659 1.197682,2.05871 1.557973,4.9323376 0.145963,1.1641666 0.317849,2.2654947 0.381974,2.4473958 0.08739,0.2479016 1.301115,0.3307291 4.846383,0.3307291 5.859791,0 5.605551,-0.1656929 5.605551,3.6534988 0,3.00864576 0.48512,4.7244871 1.42604,5.0439397 0.3071,0.1042591 4.71394,0.1725639 9.79298,0.1517915 8.6922,-0.035549 9.2559,-0.066839 9.59656,-0.53272 0.56891,-0.77804167 0.86985,-2.21952071 1.08137,-5.1796789 l 0.19576,-2.7399561 5.15938,0.087762 c 2.83765,0.048271 5.36773,0.1455896 5.62239,0.2162677 0.46584,0.1292834 0.63392,0.750234 0.26459,0.9774423 -0.10914,0.067141 -2.28203,0.03869 -4.82865,-0.063227 -2.54661,-0.1019175 -4.77904,-0.1370886 -4.96094,-0.078155 -0.22077,0.071528 -0.33073,0.6932745 -0.33073,1.8700988 0,0.9696211 -0.24411,2.65352197 -0.54248,3.74200453 -0.4436,1.61835037 -0.72088,2.13147267 -1.52134,2.81530147 l -0.97887,0.8362474 0.72838,0.1848193 c 0.92789,0.2354448 1.96004,1.457235 2.30113,2.7239012 0.14592,0.5419011 0.3452,2.0247689 0.44287,3.2952608 0.10662,1.387322 0.29407,2.314564 0.46925,2.321451 0.16043,0.0063 2.28784,0.0013 4.72755,-0.01098 3.81768,-0.01931 4.45829,0.03599 4.59675,0.39682 0.0885,0.230592 0.11641,0.462393 0.062,0.515117 -0.0543,0.05272 -2.48008,0.13472 -5.39049,0.182218 l -5.29166,0.08636 -0.19112,-2.905609 c -0.20002,-3.0408159 -0.74164,-5.0046486 -1.48557,-5.3863682 -0.73493,-0.377108 -18.94006,-0.2246551 -19.40653,0.1625123 -0.63793,0.5294895 -1.06954,2.3900764 -1.2436,5.3609559 l -0.16277,2.778132 -4.903562,-0.09624 c -3.911933,-0.07678 -4.961842,-0.02328 -5.191746,0.264584 -0.158504,0.198453 -0.346581,1.437819 -0.417949,2.754145 -0.14604,2.693498 -0.82473,4.617432 -1.831126,5.190823 -0.481743,0.274471 -2.510345,0.353357 -9.086866,0.353357 -4.656666,0 -9.104648,-0.06405 -9.884404,-0.142341 z"
         id="path2020" />
      <path
         style="fill:#952625;stroke-width:0.264583"
         d="m 69.817547,59.916738 c -0.902121,-0.63187 -1.462559,-2.439152 -1.643148,-5.298779 l -0.167089,-2.645833 -5.197002,0.09983 c -6.012283,0.115491 -5.432067,0.447607 -5.490056,-3.142535 -0.04417,-2.734495 -0.348054,-3.745278 -1.389446,-4.621548 l -0.796388,-0.670119 h -9.048954 c -10.034169,0 -9.912013,-0.02003 -10.649852,1.745872 -0.202911,0.485632 -0.368927,1.584547 -0.368927,2.442035 0,0.857488 -0.07572,2.111468 -0.168254,2.786624 l -0.168256,1.227552 h -5.387993 c -3.336335,0 -5.387997,-0.09857 -5.387997,-0.258871 0,-0.157315 1.998031,-0.287059 5.09323,-0.330729 l 5.093229,-0.07186 0.166155,-2.544045 c 0.186873,-2.861255 0.571283,-4.321321 1.367764,-5.195017 l 0.542697,-0.595313 h 9.826252 9.826255 l 0.672856,0.727605 c 0.950111,1.027419 1.542812,3.128298 1.542812,5.468633 0,1.900581 0.0311,2.00357 0.652179,2.159449 0.358699,0.09003 2.738689,0.122063 5.28887,0.07119 3.68263,-0.07346 4.664491,-0.02 4.771782,0.259872 0.0743,0.193802 0.135085,1.229738 0.135085,2.302081 0,2.462913 0.408462,4.392247 1.083223,5.116517 0.516499,0.554398 0.675198,0.563407 9.924687,0.563407 5.625423,0 9.594117,-0.103997 9.883738,-0.258998 0.776613,-0.415631 1.130499,-1.781821 1.303613,-5.032669 l 0.162031,-3.042708 5.185973,-0.07161 5.185974,-0.07161 0.1674,-2.441934 c 0.20234,-2.951565 0.52858,-4.19118 1.35629,-5.153477 l 0.62621,-0.728041 9.6766,-0.02577 c 8.8804,-0.02365 9.74107,0.01342 10.46006,0.450668 0.98447,0.598694 1.52078,2.282722 1.7674,5.549701 l 0.17814,2.359784 h 4.70892 c 3.04971,0 4.77038,0.09943 4.88333,0.282186 0.0959,0.155202 0.13271,0.322416 0.0818,0.371587 -0.051,0.04917 -2.41436,0.128931 -5.25202,0.177249 l -5.15937,0.08785 -0.17741,-2.668177 c -0.21341,-3.209584 -0.5595,-4.612095 -1.30445,-5.286283 -0.52431,-0.474498 -1.10433,-0.507433 -9.59226,-0.544689 -5.49425,-0.0241 -9.31484,0.06436 -9.75039,0.2258 -1.0246,0.379781 -1.53865,1.963299 -1.75099,5.393891 l -0.17867,2.88662 -4.832231,-0.09557 c -3.562943,-0.07046 -4.93554,-0.0098 -5.225521,0.230836 -0.27773,0.230494 -0.393287,0.857245 -0.393287,2.13306 0,2.620798 -0.458488,4.448572 -1.336029,5.326113 l -0.739931,0.739931 h -9.751066 c -8.160308,0 -9.841843,-0.06358 -10.307528,-0.389763 z M 101.74168,41.598812 c -1.46746,-0.536441 -2.645829,-3.426873 -2.645829,-6.490002 0,-1.108519 -0.125177,-1.8289 -0.350255,-2.015699 -0.217919,-0.180858 -2.142273,-0.318055 -5.09323,-0.363127 l -4.742973,-0.07244 -0.157859,-3.175 c -0.168103,-3.381034 -0.598387,-4.908285 -1.52214,-5.402662 -0.737713,-0.394814 -18.656455,-0.394814 -19.394169,0 -0.906066,0.484912 -1.351047,2.027034 -1.520772,5.27037 l -0.159227,3.042708 -4.762499,0.06962 c -5.590503,0.08172 -5.423959,-0.0058 -5.423959,2.849316 0,2.217423 -0.52189,4.16591 -1.352677,5.050242 l -0.591648,0.62978 h -9.628565 c -6.4188,0 -9.807464,-0.09575 -10.165223,-0.28721 -0.94669,-0.506654 -1.604518,-2.498249 -1.780469,-5.390412 l -0.161626,-2.656752 -4.960937,-0.07199 c -3.007207,-0.04364 -4.960938,-0.173881 -4.960938,-0.330729 0,-0.159525 1.927702,-0.258744 5.027084,-0.258744 2.764896,0 5.11638,-0.02977 5.22552,-0.06615 0.109141,-0.03638 0.268439,1.243542 0.353994,2.844271 0.08556,1.600729 0.303028,3.356531 0.48327,3.901784 0.6008,1.817492 0.417055,1.786758 10.682232,1.786758 5.81693,0 9.406784,-0.100531 9.727972,-0.272426 1.004853,-0.537781 1.391195,-1.820214 1.551937,-5.151533 l 0.153199,-3.174999 4.957358,-0.07197 c 5.72938,-0.08318 5.118229,0.320857 5.313349,-3.512669 0.123558,-2.427571 0.78758,-4.225118 1.751304,-4.740886 0.324593,-0.173718 3.998203,-0.273431 10.073655,-0.273431 h 9.562748 l 0.739931,0.739931 c 0.86482,0.864819 1.33603,2.700446 1.33603,5.204576 0,2.700967 -0.366244,2.522159 5.166042,2.522159 2.664664,0 5.033177,0.07227 5.263359,0.160599 0.339071,0.130112 0.419111,0.619824 0.421651,2.579688 0.002,1.330497 0.17649,3.073931 0.38835,3.874296 0.65933,2.49079 0.1606,2.38125 10.84161,2.38125 10.32473,0 9.60418,0.12093 10.56312,-1.772798 0.30907,-0.610338 0.42878,-1.575038 0.42878,-3.45516 0,-1.699379 0.11526,-2.746247 0.33073,-3.003941 0.28088,-0.335923 1.11861,-0.373454 5.55803,-0.249007 6.9081,0.193648 7.09203,0.651068 0.30055,0.747424 l -5.0555,0.07173 -0.16815,1.780355 c -0.0925,0.979196 -0.16899,2.202265 -0.17002,2.717932 -10e-4,0.515665 -0.32946,1.587228 -0.72984,2.38125 l -0.72795,1.443675 -1.85173,0.165574 c -2.29836,0.205507 -17.5805,0.242985 -18.12362,0.04445 z M 81.368768,21.920416 C 78.676633,21.813435 74.866633,21.788675 72.902101,21.865396 69.472686,21.99932 69.299929,21.980751 68.57056,21.399811 67.449404,20.506816 67.013273,19.21004 66.839709,16.25338 l -0.155316,-2.645834 -5.500481,-0.07155 c -4.586996,-0.05966 -5.525643,-0.137117 -5.651995,-0.466389 -0.08333,-0.217164 -0.0085,-0.567137 0.166238,-0.777716 0.44749,-0.539194 0.08667,-4.1734313 -0.568007,-5.7211485 L 54.615795,5.3547752 50.463636,5.1825632 C 48.179948,5.087845 43.914315,5.0099517 40.984451,5.0094675 L 35.657426,5.0085864 34.700597,6.0676817 33.743769,7.126777 v 2.4955552 c 0,3.4454488 -0.155411,3.7702068 -1.903754,3.9781978 -0.771946,0.09184 -3.4276,0.07145 -5.901455,-0.0453 -3.727415,-0.175908 -4.497916,-0.280255 -4.497916,-0.609145 0,-0.335978 0.852546,-0.417174 5.55625,-0.529167 l 5.55625,-0.132291 0.183591,-2.5745626 c 0.19871,-2.7865572 0.669047,-4.1326301 1.737736,-4.973259 0.632836,-0.497787 1.108326,-0.52197 10.263547,-0.52197 5.279985,0 9.796897,0.075568 10.037583,0.1679258 0.676216,0.2594901 1.755468,2.9565943 1.891461,4.7268657 0.06707,0.873125 0.180467,1.9720531 0.251986,2.4420621 l 0.13003,0.854561 5.479116,0.07148 5.479116,0.07148 0.02424,3.098654 c 0.02244,2.867875 0.07515,3.175588 0.707837,4.131644 l 0.683598,1.032988 9.294638,0.195763 c 8.68004,0.182822 9.328846,0.164806 9.811988,-0.272431 0.806405,-0.729787 1.305827,-2.865122 1.305827,-5.583213 v -2.459927 l 5.225521,-0.07174 5.225521,-0.07174 0.18075,-2.374765 c 0.23706,-3.1144948 0.64947,-4.5090315 1.56007,-5.2752463 l 0.74204,-0.6243902 h 9.59068 9.59067 l 0.71847,0.7184681 c 0.9102,0.9101984 1.26337,2.1657653 1.47416,5.2408294 l 0.16776,2.447396 h 4.85488 c 3.06021,0 4.85489,0.09781 4.85489,0.264583 0,0.163904 -1.43469,0.265459 -3.77031,0.266883 -2.07367,0.0013 -4.37692,0.07519 -5.11834,0.164285 l -1.34803,0.161986 -0.17771,-2.748749 c -0.20174,-3.1204319 -0.49622,-4.4156254 -1.20218,-5.2874486 l -0.49089,-0.6062239 -9.54602,0.00521 c -10.7144,0.00587 -10.24851,-0.079047 -10.86548,1.9802262 -0.17655,0.5892721 -0.39186,2.32274 -0.47847,3.8521513 l -0.15747,2.780741 -4.980367,-0.06977 c -2.739199,-0.03838 -5.072237,0.02204 -5.184526,0.134242 -0.112289,0.112209 -0.273426,1.363379 -0.358082,2.780376 -0.104155,1.743374 -0.318016,2.911404 -0.661458,3.612623 -0.565171,1.153944 -2.009484,2.258251 -2.861768,2.188086 -0.305903,-0.02517 -2.758842,-0.133308 -5.450977,-0.240287 z M 109.94377,3.3125385 c -5.05325,-0.1932199 -7.73093,-0.3972454 -8.11754,-0.6185191 -0.3173,-0.1816047 -0.85308,-0.7172033 -1.19063,-1.1902201 -0.53132,-0.74456922 -0.63147,-1.2685659 -0.745999,-3.9031411 l -0.132292,-3.043113 -4.944065,-0.019738 c -3.460752,-0.013811 -5.060114,-0.1160595 -5.33088,-0.3407754 -0.290256,-0.2408899 -0.410054,-1.1276274 -0.479896,-3.5521298 -0.077,-2.673245 -0.186984,-3.390991 -0.63699,-4.157148 l -0.543914,-0.926042 -9.774836,-0.07231 c -9.678376,-0.0716 -9.77937,-0.06678 -10.234403,0.488067 -0.666731,0.812987 -1.013978,2.35021 -1.215104,5.3791473 l -0.177411,2.6717621 -4.591209,0.048255 c -2.525167,0.026543 -4.739457,0.1051455 -4.920647,0.1746727 -0.213111,0.08178 -0.386498,0.9989899 -0.491037,2.5975785 -0.196376,3.0029757 -0.586161,4.3019951 -1.528884,5.0952451 L 54.17211,2.5465354 44.464182,2.5207914 34.756255,2.4950475 34.130036,1.7670068 c -0.818599,-0.95170093 -1.138295,-2.17382981 -1.349525,-5.1589382 -0.105069,-1.4848443 -0.287896,-2.4539204 -0.464857,-2.4639878 -0.160422,-0.00913 -2.357787,-0.00212 -4.883036,0.015743 -3.099427,0.021828 -4.560994,-0.057827 -4.497917,-0.2451338 0.108082,-0.3209369 10.27208,-0.6665076 10.293154,-0.3499617 0.0073,0.1094872 0.06942,1.327105 0.138073,2.7058169 0.141629,2.84421252 0.441904,4.1984558 1.115316,5.0300862 0.462728,0.5714444 0.533064,0.5755295 10.06261,0.5844513 10.7746,0.010081 10.26269,0.1029123 10.886331,-1.97398474 0.185007,-0.61611931 0.398971,-2.34060726 0.475478,-3.83219576 0.08699,-1.6959605 0.248769,-2.722221 0.431831,-2.7393171 0.161005,-0.015036 2.257264,-0.010925 4.658358,0.00914 2.401093,0.020061 4.496445,-0.056934 4.656338,-0.1710995 0.15989,-0.1141653 0.371057,-1.2768322 0.469254,-2.5837037 0.220488,-2.9343719 0.538645,-4.1591829 1.314765,-5.0614759 l 0.601398,-0.699169 h 9.891578 9.891577 l 0.588582,0.684267 c 0.660294,0.767637 1.283231,2.758585 1.545333,4.9389665 0.351327,2.9226588 -0.190873,2.6458332 5.182208,2.6458332 3.93351,0 4.783826,0.068906 5.130695,0.4157742 0.32074,0.3207385 0.41577,1.0015087 0.41577,2.9783086 0,2.90597953 0.26139,4.09197692 1.09814,4.9826596 l 0.5816,0.6190906 9.41273,-0.00405 c 5.17701,-0.00212 9.55695,-0.0957 9.7332,-0.2077112 0.72887,-0.4631954 1.22918,-2.35418563 1.37903,-5.2121962 l 0.15259,-2.9104165 4.63021,-0.07784 c 5.18615,-0.087183 6.35,0.031872 6.35,0.6495785 0,0.3696652 -0.54996,0.3943032 -4.98862,0.2234935 l -4.98861,-0.1919763 -0.16715,0.624414 c -0.0919,0.3434291 -0.16877,1.3143203 -0.17076,2.1575367 -0.002,0.8432191 -0.19967,2.31364095 -0.4393,3.26760141 -0.37654,1.49903649 -0.57946,1.83863179 -1.4949,2.50177289 -1.21328,0.8788929 -0.1111,0.8421634 -11.82774,0.394163 z"
         id="path2018" />
      <path
         style="fill:#3b3333;stroke-width:0.264583"
         d="m 69.817547,59.916738 c -0.893596,-0.625899 -1.467292,-2.438125 -1.614615,-5.100341 -0.118689,-2.144834 -0.08191,-2.447396 0.297492,-2.447396 0.356106,0 0.432927,0.302861 0.432927,1.706769 0,2.236303 0.430435,4.172889 1.083223,4.873574 0.516499,0.554398 0.675198,0.563407 9.924687,0.563407 5.625423,0 9.594117,-0.103997 9.883738,-0.258998 0.776613,-0.415631 1.130499,-1.781821 1.303613,-5.032669 l 0.162031,-3.042708 5.185973,-0.07161 5.185974,-0.07161 0.1674,-2.441934 c 0.20234,-2.951565 0.52858,-4.19118 1.35629,-5.153477 l 0.62621,-0.728041 9.6766,-0.02577 c 8.8804,-0.02365 9.74107,0.01342 10.46006,0.450668 0.98447,0.598694 1.52078,2.282722 1.7674,5.549701 l 0.17814,2.359784 h 4.70892 c 3.04971,0 4.77038,0.09943 4.88333,0.282186 0.0959,0.155202 0.13271,0.322416 0.0818,0.371587 -0.051,0.04917 -2.41436,0.128931 -5.25202,0.177249 l -5.15937,0.08785 -0.17741,-2.668177 c -0.21341,-3.209584 -0.5595,-4.612095 -1.30445,-5.286283 -0.52431,-0.474498 -1.10433,-0.507433 -9.59226,-0.544689 -5.49425,-0.0241 -9.31484,0.06436 -9.75039,0.2258 -1.0246,0.379781 -1.53865,1.963299 -1.75099,5.393891 l -0.17867,2.88662 -4.832231,-0.09557 c -3.562943,-0.07046 -4.93554,-0.0098 -5.225521,0.230836 -0.27773,0.230494 -0.393287,0.857245 -0.393287,2.13306 0,2.620798 -0.458488,4.448572 -1.336029,5.326113 l -0.739931,0.739931 h -9.751066 c -8.160308,0 -9.841843,-0.06358 -10.307528,-0.389763 z M 101.74168,41.598812 c -1.46746,-0.536441 -2.645829,-3.426873 -2.645829,-6.490002 0,-1.108519 -0.125177,-1.8289 -0.350255,-2.015699 -0.217893,-0.180835 -2.14135,-0.318061 -5.08983,-0.363127 -4.269994,-0.06526 -4.748387,-0.118314 -4.828521,-0.535461 -0.08237,-0.428808 0.30839,-0.462722 5.288269,-0.45897 2.957465,0.0021 5.503037,0.09152 5.656824,0.198437 0.153783,0.106913 0.306202,1.265949 0.338702,2.575637 0.0865,3.484438 0.74196,5.794682 1.71845,6.056611 0.31551,0.08463 4.69262,0.155498 9.72692,0.157485 10.13671,0.004 9.43566,0.123325 10.39399,-1.769186 0.30907,-0.610338 0.42878,-1.575038 0.42878,-3.45516 0,-1.699379 0.11526,-2.746247 0.33073,-3.003941 0.28088,-0.335923 1.11861,-0.373454 5.55803,-0.249007 6.9081,0.193648 7.09203,0.651068 0.30055,0.747424 l -5.0555,0.07173 -0.16815,1.780355 c -0.0925,0.979196 -0.16899,2.202265 -0.17002,2.717932 -10e-4,0.515665 -0.32946,1.587228 -0.72984,2.38125 l -0.72795,1.443675 -1.85173,0.165574 c -2.29836,0.205507 -17.5805,0.242985 -18.12362,0.04445 z M 81.368768,21.919075 c -2.692135,-0.107717 -6.467245,-0.129593 -8.389133,-0.04861 -4.073679,0.171651 -4.415676,0.04724 -5.402509,-1.965349 -0.520514,-1.061558 -0.623384,-1.683834 -0.625554,-3.784028 l -0.0026,-2.513542 -5.63273,-0.07144 c -4.705051,-0.05967 -5.657691,-0.136485 -5.784289,-0.466392 -0.08335,-0.217223 -0.0086,-0.567243 0.166198,-0.777822 0.44749,-0.539194 0.08667,-4.1734313 -0.568008,-5.7211485 L 54.615745,5.3547752 50.463586,5.1825632 C 48.179898,5.087845 43.914265,5.0099517 40.984401,5.0094675 L 35.657426,5.0085864 34.700597,6.0676817 33.743769,7.126777 v 2.4955552 c 0,3.4454488 -0.155411,3.7702068 -1.903754,3.9781978 -0.771946,0.09184 -3.4276,0.07145 -5.901455,-0.0453 -3.727415,-0.175908 -4.497916,-0.280255 -4.497916,-0.609145 0,-0.335978 0.852546,-0.417174 5.55625,-0.529167 l 5.55625,-0.132291 0.183591,-2.5745626 c 0.19871,-2.7865572 0.669047,-4.1326301 1.737736,-4.973259 0.632836,-0.497787 1.108326,-0.52197 10.263547,-0.52197 5.279985,0 9.796897,0.075568 10.037583,0.1679258 0.676216,0.2594901 1.755468,2.9565943 1.891461,4.7268657 0.06707,0.873125 0.180467,1.9720531 0.251986,2.4420621 l 0.13003,0.854561 5.479116,0.07148 5.479116,0.07148 0.02424,3.098654 c 0.02265,2.895 0.07071,3.168883 0.731358,4.167188 l 0.707123,1.068533 2.708225,5.29e-4 c 7.484144,0.0016 15.805099,0.356923 15.805099,0.674944 0,0.37298 -0.628991,0.66898 -1.278411,0.60161 -0.242758,-0.02514 -2.644037,-0.133877 -5.336172,-0.241594 z M 109.94377,3.3125385 c -5.05325,-0.1932199 -7.73093,-0.3972454 -8.11754,-0.6185191 -0.3173,-0.1816047 -0.85308,-0.7172033 -1.19063,-1.1902201 -0.53132,-0.74456922 -0.63147,-1.2685659 -0.745999,-3.9031411 l -0.132292,-3.043113 -4.944065,-0.019738 c -3.639126,-0.014526 -5.053266,-0.1103763 -5.357812,-0.3631248 -0.543618,-0.4511648 -0.622726,-5.9483414 -0.08302,-5.7690914 0.181901,0.06041 0.407476,0.728914 0.501277,1.485556 0.0938,0.7566411 0.248025,1.7886959 0.34272,2.2934548 l 0.172169,0.917735 h 4.73161 c 3.948689,0 4.80041,0.068797 5.147392,0.4157742 0.32074,0.3207385 0.41577,1.0015087 0.41577,2.9783086 0,2.90597948 0.26139,4.09197687 1.09814,4.9826596 l 0.5816,0.6190906 9.41273,-0.00405 c 5.17701,-0.00212 9.55695,-0.0957 9.7332,-0.2077111 0.72887,-0.4631954 1.22918,-2.35418567 1.37903,-5.2121962 l 0.15259,-2.9104165 4.63021,-0.07784 c 5.18615,-0.087183 6.35,0.031872 6.35,0.6495786 0,0.3696652 -0.54996,0.3943032 -4.98862,0.2234935 l -4.98861,-0.1919764 -0.16715,0.624414 c -0.0919,0.3434292 -0.16877,1.3143203 -0.17076,2.1575368 -0.002,0.8432191 -0.19967,2.3136409 -0.4393,3.26760136 -0.37654,1.49903654 -0.57946,1.83863184 -1.4949,2.50177294 -1.21328,0.8788928 -0.1111,0.8421634 -11.82774,0.394163 z"
         id="path2016" />
    </g>
  </g>
</svg>
