<?xml version="1.0" encoding="UTF-8" standalone="no"?>
<svg
   xmlns:dc="http://purl.org/dc/elements/1.1/"
   xmlns:cc="http://creativecommons.org/ns#"
   xmlns:rdf="http://www.w3.org/1999/02/22-rdf-syntax-ns#"
   xmlns:svg="http://www.w3.org/2000/svg"
   xmlns="http://www.w3.org/2000/svg"
   xmlns:sodipodi="http://sodipodi.sourceforge.net/DTD/sodipodi-0.dtd"
   xmlns:inkscape="http://www.inkscape.org/namespaces/inkscape"
   width="181.42859mm"
   height="113.60813mm"
   viewBox="0 0 181.42859 113.60813"
   version="1.1"
   id="svg8"
   inkscape:version="1.0.1 (3bc2e813f5, 2020-09-07)"
   sodipodi:docname="topological.svg">
  <defs
     id="defs2" />
  <sodipodi:namedview
     id="base"
     pagecolor="#ffffff"
     bordercolor="#666666"
     borderopacity="1.0"
     inkscape:pageopacity="0.0"
     inkscape:pageshadow="2"
     inkscape:zoom="1.4"
     inkscape:cx="193.07008"
     inkscape:cy="253.26282"
     inkscape:document-units="mm"
     inkscape:current-layer="layer1"
     inkscape:document-rotation="0"
     showgrid="false"
     inkscape:window-width="1920"
     inkscape:window-height="1002"
     inkscape:window-x="-8"
     inkscape:window-y="42"
     inkscape:window-maximized="1" />
  <metadata
     id="metadata5">
    <rdf:RDF>
      <cc:Work
         rdf:about="">
        <dc:format>image/svg+xml</dc:format>
        <dc:type
           rdf:resource="http://purl.org/dc/dcmitype/StillImage" />
        <dc:title></dc:title>
      </cc:Work>
    </rdf:RDF>
  </metadata>
  <g
     inkscape:label="Layer 1"
     inkscape:groupmode="layer"
     id="layer1"
     transform="translate(-14.646938,-21.354067)">
    <path
       style="fill:#2e52a5;stroke:none;stroke-width:0.16127"
       d="m 102.53899,34.29279 4.8381,0.16127 h 9.51492 31.28635 c 8e-4,1.121664 0.007,2.703366 0.63508,3.681145 1.05906,1.649468 4.72666,3.083802 6.62206,3.23846 1.5669,0.127726 3.11815,-0.401884 4.67682,-0.468811 v -0.16127 c -2.3555,-0.187557 -4.761,-1.152112 -6.9346,-2.032645 -0.89053,-0.360761 -2.03603,-0.787803 -2.65063,-1.563834 -0.52896,-0.667818 -0.53961,-1.873181 -0.57476,-2.693045 h 19.67491 4.67683 c 0.49397,0.001 1.28935,-0.09866 1.46933,0.507694 1.01423,3.41713 -3.53971,4.489897 -5.82362,5.077081 -4.24171,1.090345 -8.586,1.584476 -12.90158,2.304546 -2.81045,0.468972 -5.89554,1.604635 -7.20425,4.367187 -0.75329,1.589798 -0.40398,3.317482 -0.56412,4.999365 -0.48945,5.143863 0.0863,10.343687 -0.61766,15.481905 -0.23126,1.687528 -0.24417,4.156892 -1.16566,5.627028 -0.88037,1.40466 -4.25656,1.889921 -5.76895,2.299547 -3.33102,0.902143 -6.64931,1.819607 -9.99873,2.657082 -1.98829,0.497033 -4.26187,0.868115 -5.77604,2.364538 -2.35018,2.322931 -1.4811,8.151707 -1.4811,11.242282 v 30.318735 h -7.25714 c -0.96536,0 -2.31148,-0.23965 -3.2254,0.0972 -1.39466,0.51429 -2.57725,2.39308 -3.56229,3.45069 -1.88218,2.02055 -3.85225,4.00385 -5.792,5.96699 -0.97262,0.98439 -2.31197,1.95959 -2.90221,3.22539 2.37115,0.70088 5.58945,0.16127 8.06349,0.16127 h 17.25587 39.18857 12.25651 c 1.78525,0 4.07367,0.38479 5.80571,-0.0513 1.18856,-0.29948 2.2352,-2.11941 2.99639,-3.01284 1.74172,-2.04394 3.47375,-4.09529 5.22837,-6.12826 0.93214,-1.08018 2.2223,-2.20585 2.74159,-3.54793 l -5.96699,-0.16127 h -12.2565 c -0.002,-1.59319 0.20481,-3.98692 -0.3177,-5.48318 -0.97827,-2.80658 -4.88406,-4.7373 -7.74579,-4.81713 -1.08325,-0.0303 -2.15731,0.48026 -3.2254,0.62412 v 0.16127 c 3.11073,0.39349 8.13993,1.0518 9.55862,4.35428 0.63686,1.48207 0.27884,3.57568 0.27884,5.16064 h -25.80317 c 0.004,-1.52481 -0.35722,-4.50524 0.46655,-5.8033 1.32548,-2.08844 5.07887,-2.30503 7.2744,-2.74401 4.92598,-0.98503 9.74795,-2.16843 14.51428,-3.76291 1.57093,-0.52557 4.33171,-1.17001 5.36384,-2.56096 0.7241,-0.9752 0.65798,-2.83287 0.80957,-3.9974 0.56928,-4.375247 -0.20642,-8.844357 -0.20642,-13.224123 0,-10.880393 0.41446,-21.729338 -0.61767,-32.576509 -0.27577,-2.896729 0.12257,-5.671699 -0.52896,-8.547302 -0.16772,-0.740228 -0.13547,-1.596894 -0.5838,-2.243263 -1.06551,-1.537224 -4.29461,-3.257973 -6.1718,-3.356993 -1.27887,-0.06741 -2.58515,0.413173 -3.87047,0.439621 v 0.32254 c 2.23036,0.300607 4.68182,1.182431 6.61206,2.330833 0.65202,0.387854 1.56287,0.852634 1.93089,1.546094 1.74123,3.281035 0.82054,8.80743 0.97826,12.411327 0.43397,9.898421 0.47752,19.742655 0.47752,29.673652 0,3.824998 0.34028,7.616291 0.32254,11.450163 -0.006,1.23 -0.005,3.68421 -0.85747,4.64247 -1.12373,1.26226 -3.71502,1.77349 -5.27079,2.29213 -4.65295,1.55093 -9.38977,2.58774 -14.19174,3.54794 -2.63725,0.52735 -6.27066,0.97632 -7.72337,3.54793 -0.92231,1.63254 -0.50139,4.76053 -0.50139,6.61207 h -21.9327 c -0.001,-9.88101 -0.16127,-19.7733 -0.16127,-29.673655 0,-2.584995 -0.26819,-5.339 0.0684,-7.902223 0.14579,-1.110343 0.12273,-1.990392 0.95181,-2.85625 1.35032,-1.410144 3.61083,-1.748326 5.4306,-2.203269 3.56326,-0.891177 7.11104,-1.814447 10.64381,-2.820125 1.47562,-0.419947 4.71102,-0.939075 5.57768,-2.301805 0.91214,-1.433689 0.99858,-3.500201 1.26194,-5.139186 0.76038,-4.734883 0.68281,-9.591202 0.73942,-14.353016 0.0266,-2.230523 -0.45059,-5.462855 0.77474,-7.418413 1.64592,-2.626763 4.78907,-3.172017 7.61194,-3.568902 3.77839,-0.531384 7.58645,-1.089539 11.28888,-2.015389 2.29633,-0.574121 5.70734,-1.222103 6.654,-3.76936 0.33705,-0.904401 0.28061,-2.109926 0.28061,-3.064127 l 8.06349,-0.25858 2.97059,-3.128087 5.0929,-5.966984 2.74159,-3.547937 c -2.37067,-0.70089 -5.58962,-0.16127 -8.06349,-0.16127 H 171.07869 132.5352 120.60124 c -1.73849,0 -3.95837,-0.371449 -5.64445,0.05126 -1.37918,0.34575 -2.66063,2.324516 -3.57535,3.335404 -1.89669,2.096169 -3.95369,4.117897 -5.94021,6.128254 -0.97262,0.984391 -2.31197,1.959606 -2.90222,3.225397 m -86.440625,0.32254 6.128254,0.16127 h 12.417777 c 0,6.16583 6.49224,6.656735 11.288888,6.450793 V 41.066124 C 42.349385,40.237035 35.742482,39.416978 36.095825,34.7766 h 26.770792 c -0.04661,1.084136 0.06193,2.792871 -0.574766,3.706787 -1.3487,1.935722 -5.796038,2.392116 -7.972536,2.582737 -5.72911,0.50171 -13.837435,0.41027 -17.867729,5.160796 -1.668498,1.966524 -1.531257,4.345255 -1.443526,6.773172 0.10934,3.025422 0.313347,6.159863 0.105631,9.192381 -0.680075,9.93132 -0.469295,19.884895 -0.469295,29.834922 v 8.547305 c 0,1.36128 -0.273191,2.88898 0.237873,4.19301 1.139371,2.90802 4.984044,3.7155 7.664349,4.41412 0.842957,0.21981 1.864118,0.71604 2.741587,0.65637 0.990519,-0.0674 2.106668,-0.44704 3.064127,-0.7162 v -0.16127 c -2.687885,-0.62186 -5.446405,-1.4853 -8.063492,-2.36535 -1.347571,-0.45316 -2.754972,-1.01809 -3.511167,-2.31164 -0.611857,-1.04664 -0.359309,-2.54306 -0.359309,-3.70904 v -8.386036 c 0,-10.547854 0.48381,-21.073937 0.48381,-31.608889 l -0.01274,-7.418413 c 0,-2.330833 -0.419946,-4.224302 1.332573,-6.121803 1.946204,-2.106991 4.836966,-2.762553 7.550008,-3.116056 3.649537,-0.475424 7.331166,-0.761839 10.966349,-1.33983 2.217783,-0.352697 6.014397,-1.069864 7.280688,-3.130893 0.786029,-1.279354 0.782803,-3.227445 0.782803,-4.67618 H 89.31487 c 0,5.492044 -0.161593,10.963446 -0.16127,16.449524 3.23e-4,4.05384 0.251903,8.040914 -0.133854,12.095238 -0.259644,2.727235 0.20062,7.549525 -2.160209,9.573301 -1.246294,1.068412 -3.57245,1.307253 -5.124349,1.695107 -4.337836,1.08454 -8.821621,1.880729 -13.062857,3.299581 -2.041998,0.683139 -4.202369,1.54303 -5.346094,3.494234 -1.120826,1.912338 -0.617341,4.842449 -0.474134,6.934603 0.257226,3.755007 -0.146755,7.538882 -0.146755,11.288889 0,1.677363 0.343182,4.862933 -0.736036,6.259693 -1.237101,1.60108 -4.979045,2.0728 -6.843646,2.61015 -4.853416,1.39869 -9.935028,1.99087 -14.675555,3.76065 -1.702364,0.63556 -4.231882,1.67672 -5.15628,3.36264 -0.786675,1.43465 -0.483649,4.63328 -0.488164,6.26211 -2.252778,0 -5.792603,-0.68056 -7.902222,0.0972 -1.394661,0.51429 -2.577205,2.39308 -3.56237,3.45069 -1.88218,2.02055 -3.852139,4.00385 -5.791909,5.96699 -0.972667,0.98439 -2.311935,1.95959 -2.902228,3.22539 2.371166,0.70088 5.589387,0.16127 8.063492,0.16127 H 39.9663 79.154869 91.411377 c 1.78574,0 4.074321,0.38479 5.805552,-0.0513 1.188559,-0.29948 2.2352,-2.11941 2.996391,-3.01284 1.74139,-2.04394 3.47424,-4.09529 5.22853,-6.12826 0.93214,-1.08018 2.22166,-2.20585 2.74159,-3.54793 l -5.80571,-0.16127 H 90.605027 c 0,-8.77566 -0.105631,-17.53117 -0.32012,-26.286989 -0.10031,-4.092706 0.420753,-8.364744 -0.211425,-12.417778 -0.661045,-4.237204 -6.100515,-6.935893 -9.950994,-5.483175 2.737556,1.67253 6.010043,1.126148 8.023336,4.193016 0.628307,0.957298 0.602504,1.977007 0.731197,3.064127 0.337861,2.853832 0.115308,5.834582 0.115308,8.708572 0,9.404777 0.16127,18.813577 0.16127,28.222227 H 64.640585 c 0,-2.08232 0.314315,-4.7544 -0.818445,-6.60965 -1.209846,-1.98184 -4.544261,-2.70401 -6.599968,-3.38908 -0.782965,-0.26094 -1.742843,-0.72217 -2.580317,-0.69282 -1.003098,0.035 -2.053126,0.5567 -3.064127,0.69282 v 0.16127 c 2.533227,0.81005 5.08629,1.5398 7.579682,2.47049 1.118084,0.41753 2.567094,0.9573 3.188627,2.04748 0.798447,1.40063 0.35931,3.75452 0.35931,5.31949 H 36.579634 c 9.68e-4,-1.56045 -0.285931,-4.63055 0.581055,-5.96457 1.010033,-1.55416 3.564386,-2.24423 5.224659,-2.79771 4.683276,-1.56141 9.63555,-2.12812 14.353015,-3.60051 1.804609,-0.56315 5.533329,-1.05745 6.563198,-2.82625 0.78732,-1.35241 0.578636,-3.31007 0.72136,-4.80842 0.427527,-4.490241 0.133854,-9.054178 0.133854,-13.546672 0,-1.972491 -0.555736,-4.952919 0.731036,-6.609644 1.334024,-1.717686 3.859671,-2.444529 5.881027,-2.964947 3.966754,-1.021321 7.98834,-1.839443 11.933968,-2.936078 1.608505,-0.446879 4.187855,-0.676205 5.415602,-1.909758 0.647821,-0.650885 0.942461,-1.982168 1.246132,-2.835446 1.021806,-2.871087 0.889726,-5.730079 1.093732,-8.708572 0.434461,-6.344678 0.02355,-12.677745 0.301736,-19.029842 0.07402,-1.69043 0.107405,-3.472623 -0.0082,-5.160635 -0.05886,-0.859568 -0.411399,-2.049981 -0.04951,-2.878973 0.32125,-0.735761 1.517227,-0.507693 2.160532,-0.507693 1.635599,0 4.662472,0.584345 6.125835,-0.165753 1.154375,-0.591635 2.068615,-2.250908 2.905285,-3.220914 1.75397,-2.033435 3.47923,-4.091352 5.22901,-6.128254 0.86118,-1.00247 2.02893,-1.978749 2.51194,-3.225397 -2.37115,-0.7009 -5.58945,-0.16127 -8.06349,-0.16127 H 84.799314 46.255824 34.160587 c -1.738489,0 -3.958352,-0.37145 -5.644445,0.05126 -1.295351,0.324754 -2.324962,2.107931 -3.225525,3.012864 -2.012728,2.022485 -3.951063,4.112462 -5.966855,6.128254 -1.066671,1.066687 -2.582768,2.169902 -3.225397,3.547937 m 178.848245,-12.417778 -6.97815,8.386032 -3.02058,3.128086 -5.80572,0.111744 -18.38476,-0.01443 h -56.92825 c 2.1478,-3.051887 5.26498,-5.748754 7.90223,-8.386032 0.94149,-0.941558 2.11715,-2.659985 3.38666,-3.128089 1.94427,-0.716844 5.18305,-0.09731 7.25714,-0.09731 h 16.44953 56.1219 m -86.44063,0.322539 c -1.86041,2.974768 -4.56555,5.538265 -6.81301,8.224763 -0.79377,0.948686 -1.887015,2.812433 -3.051867,3.289356 -2.130374,0.872276 -5.163699,0.09731 -7.390996,0.09731 -5.480272,0 -10.960059,0.16127 -16.449523,0.16127 -19.135311,0 -38.29078,-0.16127 -57.41206,-0.16127 2.106442,-3.080576 5.266815,-5.750624 7.902222,-8.386032 0.882904,-0.882904 2.06556,-2.678418 3.231751,-3.128086 1.865101,-0.719151 5.088482,-0.09731 7.089518,-0.09731 h 16.449523 56.444442 m -44.832853,4.2716 c -2.20214,0.456942 -0.89408,2.809514 0.967296,2.423273 2.20214,-0.456942 0.89408,-2.809515 -0.967296,-2.423273 m 26.286821,0.0034 c -2.188431,0.325411 -1.350635,2.874555 0.645079,2.577802 2.188432,-0.325394 1.350635,-2.874571 -0.645079,-2.577802 m -54.670473,0.330749 c -2.043772,0.245888 -1.346925,2.459107 0.48381,2.238844 2.043772,-0.245888 1.346926,-2.459107 -0.48381,-2.238844 m 89.988565,-0.0082 c -2.1623,0.321427 -1.21355,2.531549 0.64508,2.255262 2.16231,-0.321427 1.21356,-2.53155 -0.64508,-2.255262 m 23.8681,0.01056 c -2.03636,0.578153 -0.44237,2.518874 1.12856,2.072866 2.03636,-0.578152 0.44237,-2.51889 -1.12856,-2.072866 m 27.41571,-0.0041 c -2.07635,0.452717 -1.01939,2.80387 0.80635,2.403598 2.07876,-0.455958 1.00309,-2.798145 -0.80635,-2.403598 m -52.09016,7.975132 c -9.7e-4,8.434252 -0.48381,16.874793 -0.48381,25.319366 0,3.161857 -0.88601,6.926379 -0.0345,9.99873 1.08551,3.917406 7.20247,6.007141 10.83959,5.321905 v -0.16127 c -2.52016,-0.852633 -7.45325,-2.056996 -8.94257,-4.354447 -1.6785,-2.588864 -0.57235,-7.052814 -0.57235,-9.998569 0,-8.70841 0.48381,-17.421981 0.48381,-26.125715 h -1.29016 m -73.377771,8.869842 v 0.16127 c 3.106702,0.394627 6.524332,1.012613 9.51492,1.939431 1.131469,0.3506 2.502908,0.766838 3.041549,1.93169 0.774256,1.673981 -0.161109,4.955177 -0.285448,6.772688 -0.283512,4.138668 -0.312379,8.444251 -0.02903,12.579048 0.119984,1.748972 0.01177,3.573418 1.264194,4.964854 1.139049,1.265646 3.794679,1.878793 5.362383,2.484039 2.069415,0.799092 3.518101,0.891016 5.644444,0.29206 -2.220685,-1.206782 -5.195307,-1.598023 -7.579682,-2.582092 -1.085991,-0.448169 -2.318576,-0.813283 -2.88673,-1.934109 -0.643467,-1.269677 -0.396401,-2.977525 -0.527352,-4.353641 -0.402368,-4.228172 -0.08741,-8.820331 0.2032,-13.062857 0.147239,-2.150533 1.062284,-5.136606 -0.619115,-6.871708 -1.63576,-1.68785 -4.802777,-1.921047 -6.975082,-2.352927 -2.234554,-0.444137 -3.911277,-0.01355 -6.128253,0.03225 M 102.0552,79.448375 h 12.90158 c -0.002,-0.511064 0.0939,-1.186624 -0.50768,-1.381438 -0.96858,-0.313831 -2.35002,-0.06999 -3.36279,-0.06999 -2.48566,0 -6.16438,-0.694105 -8.52344,0.06999 -0.60153,0.194814 -0.5059,0.870374 -0.50767,1.381438 m 37.4146,-0.967619 v 0.161269 c 2.83222,0.586216 8.01688,2.199882 9.21528,5.160635 0.52203,1.289837 -0.11805,3.314902 -0.17788,4.676826 -0.18095,4.128024 -0.4901,8.285883 -0.4901,12.417784 0,1.96781 -0.36738,4.55232 1.15034,6.10019 1.64511,1.67801 4.27413,1.99249 6.42934,2.60838 2.0899,0.59718 3.38747,0.44349 5.48317,0.16127 -2.89398,-2.37164 -9.16012,-0.60525 -11.25212,-4.35445 -1.01922,-1.8267 -0.50945,-4.6307 -0.37366,-6.611904 0.22691,-3.314418 -0.006,-6.698504 0.38302,-9.99873 0.18659,-1.581735 0.79458,-4.321065 0.0887,-5.805715 -0.94988,-1.997327 -3.64728,-3.45698 -5.618,-4.223496 -1.78687,-0.695073 -2.97349,-0.751356 -4.83809,-0.292059 m -37.4146,4.676825 v 1.290159 h 12.90158 V 83.157581 H 102.0552 m 22.4165,39.188579 v 4.83809 c -0.95068,0.28496 -1.88927,1.28532 -0.77184,2.0957 0.85715,0.62138 3.06107,0.58751 3.18331,-0.80748 0.0666,-0.75974 -0.8207,-1.0705 -0.93617,-1.77896 -0.23142,-1.42079 0.0766,-2.92947 0.1374,-4.34735 h 21.9327 c 0,1.24758 0.25787,2.81561 -0.0511,4.02545 -0.17997,0.70459 -1.01196,1.11599 -0.75716,1.93508 0.45688,1.46949 3.34313,1.44369 3.58826,-0.15708 0.13014,-0.84892 -0.77942,-1.09196 -0.94859,-1.80138 -0.28319,-1.18888 -0.0574,-2.7711 -0.0574,-4.00207 h 25.80317 c 0,1.38063 0.30496,3.16685 -0.0513,4.5012 -0.17562,0.65766 -1.01422,1.02987 -0.87795,1.78767 0.19336,1.076 1.67431,1.36806 2.54194,1.01375 1.49819,-0.61202 0.9144,-2.04281 -0.32254,-2.46453 l 0.16127,-4.83809 h 17.0946 c -1.97878,2.99187 -4.6478,5.66266 -6.97815,8.38603 -0.80957,0.94584 -1.81912,2.68433 -3.02058,3.12815 -1.9433,0.71749 -5.18483,0.0972 -7.25714,0.0972 H 159.95105 103.0228 l 7.90223,-8.38603 3.38666,-3.12815 3.2254,-0.0972 h 6.9346 m -89.666024,0.16127 c 0,1.28822 0.185299,2.77029 -0.206264,4.01739 -0.205458,0.65443 -0.998099,1.03632 -0.93601,1.78816 0.143207,1.73736 2.900115,1.76284 3.494878,0.32028 0.340763,-0.82683 -0.498162,-1.25403 -0.688783,-1.96023 -0.348343,-1.29081 0.05402,-2.85916 0.110147,-4.1656 h 17.739681 c 2.382117,0 5.761849,-0.62493 8.039624,0.0513 0.720715,0.214 0.507678,1.30725 0.507678,1.88395 0,0.7941 0.157721,1.783 -0.05112,2.55291 -0.165302,0.6096 -0.843119,0.96326 -0.842796,1.64011 4.84e-4,1.08228 1.422077,1.74639 2.345347,1.48062 0.637661,-0.18353 1.377728,-0.75345 1.377728,-1.48062 1.61e-4,-0.76152 -0.821347,-1.10551 -1.003905,-1.78832 -0.344311,-1.28758 -0.05128,-3.00768 -0.05128,-4.33993 h 16.610792 c 2.241167,0 5.412377,-0.58509 7.555814,0.0513 0.865374,0.2569 0.699105,3.59132 0.344473,4.27559 -0.269643,0.52009 -0.79377,0.83199 -0.79377,1.47884 1.61e-4,1.16324 1.441268,1.75671 2.407758,1.39353 0.586216,-0.22013 1.11889,-0.72942 1.11889,-1.39369 0,-0.84602 -0.860697,-1.09406 -1.066961,-1.80751 -0.340602,-1.17744 -0.212554,-2.77288 -0.212554,-3.99804 h 16.449527 c -1.97894,2.99187 -4.64731,5.66266 -6.97831,8.38603 -0.809414,0.94584 -1.818802,2.68433 -3.020423,3.12815 -1.942979,0.71749 -5.184019,0.0972 -7.257143,0.0972 H 72.865346 15.937096 c 2.147775,-3.05187 5.264944,-5.74878 7.902221,-8.38603 0.941558,-0.94149 2.11707,-2.65998 3.386667,-3.12815 2.027549,-0.74748 5.415279,-0.0972 7.579682,-0.0972 z"
       id="path272" />
  </g>
</svg>
